<svg xmlns="http://www.w3.org/2000/svg" width="15.533" height="15.533" viewBox="0 0 15.533 15.533"><defs><style>.a{fill:#eee;}</style></defs><path class="a" d="M16.1,8.329A7.766,7.766,0,1,1,8.329.563,7.766,7.766,0,0,1,16.1,8.329ZM8.537,3.13a4.056,4.056,0,0,0-3.65,2,.376.376,0,0,0,.085.509l1.087.824a.376.376,0,0,0,.522-.066c.559-.71.943-1.121,1.794-1.121.64,0,1.431.412,1.431,1.032,0,.469-.387.71-1.019,1.064-.737.413-1.711.927-1.711,2.213v.125a.376.376,0,0,0,.376.376H9.206a.376.376,0,0,0,.376-.376V9.665c0-.891,2.605-.928,2.605-3.34C12.186,4.508,10.3,3.13,8.537,3.13ZM8.329,10.9a1.441,1.441,0,1,0,1.441,1.441A1.442,1.442,0,0,0,8.329,10.9Z" transform="translate(-0.563 -0.563)"/></svg>