<svg xmlns="http://www.w3.org/2000/svg" width="15.533" height="12.081" viewBox="0 0 15.533 12.081"><defs><style>.a{fill:#eee;}</style></defs><path class="a" d="M0,13.036a1.3,1.3,0,0,0,1.294,1.294H14.238a1.3,1.3,0,0,0,1.294-1.294V8.29H0ZM5.178,11.2a.325.325,0,0,1,.324-.324H9.169a.325.325,0,0,1,.324.324v1.079a.325.325,0,0,1-.324.324H5.5a.325.325,0,0,1-.324-.324Zm-3.452,0a.325.325,0,0,1,.324-.324H3.991a.325.325,0,0,1,.324.324v1.079a.325.325,0,0,1-.324.324H2.049a.325.325,0,0,1-.324-.324ZM15.533,3.544V4.839H0V3.544A1.3,1.3,0,0,1,1.294,2.25H14.238A1.3,1.3,0,0,1,15.533,3.544Z" transform="translate(0 -2.25)"/></svg>