<svg xmlns="http://www.w3.org/2000/svg" width="34.427" height="34.427" viewBox="0 0 34.427 34.427">
  <g id="Group_3559" data-name="Group 3559" transform="translate(-2.3 -2.3)">
    <path id="Path_3070" data-name="Path 3070" d="M22.615,44.858l-1.73-1.73H39.414a1.008,1.008,0,0,0,1.009-1.009.986.986,0,0,0-1.009-1.009H20.885l1.73-1.73a.994.994,0,1,0-1.406-1.406L17.1,42.118l4.11,4.11a.979.979,0,0,0,1.406,0A.937.937,0,0,0,22.615,44.858Z" transform="translate(-9.465 -22.623)" fill="#383838"/>
    <path id="Path_3071" data-name="Path 3071" d="M36.727,19.5a17.213,17.213,0,1,0-17.2,17.231A17.246,17.246,0,0,0,36.727,19.5Zm-32.444,0A15.249,15.249,0,1,1,19.5,34.744,15.277,15.277,0,0,1,4.283,19.5Z" fill="#383838"/>
  </g>
</svg>
