<svg xmlns="http://www.w3.org/2000/svg" width="82.686" height="49.611" viewBox="0 0 82.686 49.611"><path d="M66.214,80.537a16.5,16.5,0,0,0-6,1.1L50.179,65.465A3.1,3.1,0,0,0,47.544,64H39.276a2.067,2.067,0,0,0-2.067,2.067v2.067A2.067,2.067,0,0,0,39.276,70.2h6.544l1.925,3.1H33.074V71.235a2.067,2.067,0,0,0-2.067-2.067h-11.3a3.158,3.158,0,0,0-3.17,3.157,3.1,3.1,0,0,0,3.1,3.044h6.3l-3.8,6.139a16.538,16.538,0,1,0,10.421,19.7h6.722a3.1,3.1,0,0,0,2.636-1.469L53.018,81.8l1.93,3.109a16.493,16.493,0,0,0-5.337,12.2,16.751,16.751,0,0,0,16.373,16.5,16.537,16.537,0,1,0,.23-33.073ZM24.127,90.068a10.315,10.315,0,0,1,2.538,4.939H21.07Zm-7.59,17.342a10.336,10.336,0,1,1,2.209-20.431l-5.879,9.5a3.1,3.1,0,0,0,2.636,4.733h10.5A10.349,10.349,0,0,1,16.537,107.41Zm21.011-12.4h-4.6A16.5,16.5,0,0,0,27.47,84.668l3.2-5.165H47.146l-9.6,15.5ZM65.591,107.4a10.327,10.327,0,0,1-7.273-17.056l5.741,9.249a2.067,2.067,0,0,0,2.846.666l1.756-1.09a2.067,2.067,0,0,0,.666-2.846l-5.745-9.256A10.336,10.336,0,1,1,65.591,107.4Z" transform="translate(0 -64)" fill="#e90065"/></svg>