<svg xmlns="http://www.w3.org/2000/svg" xmlns:xlink="http://www.w3.org/1999/xlink" width="72" height="5554" viewBox="0 0 72 5554"><defs><style>.a{fill:url(#a);}.b{fill:#147ed9;}.c{fill:url(#b);}.d{fill:#f72680;}.e{fill:url(#c);}.f{fill:#7f1399;}.g{fill:#009f69;}.h{fill:url(#d);}.i{fill:#fc7701;}.j{fill:url(#e);}.k{fill:#f8b002;}</style><linearGradient id="a" x1="0.5" x2="0.5" y2="1" gradientUnits="objectBoundingBox"><stop offset="0" stop-color="#009f69"/><stop offset="1" stop-color="#147ed9"/></linearGradient><linearGradient id="b" x1="0.5" y1="1" x2="0.5" gradientUnits="objectBoundingBox"><stop offset="0" stop-color="#f72680"/><stop offset="1" stop-color="#147ed9"/></linearGradient><linearGradient id="c" x1="0.5" x2="0.5" y2="1" gradientUnits="objectBoundingBox"><stop offset="0" stop-color="#f72680"/><stop offset="1" stop-color="#7f1399"/></linearGradient><linearGradient id="d" x1="0.5" y1="1" x2="0.5" gradientUnits="objectBoundingBox"><stop offset="0" stop-color="#009f69"/><stop offset="1" stop-color="#fc7701"/></linearGradient><linearGradient id="e" x1="0.5" x2="0.5" y2="1" gradientUnits="objectBoundingBox"><stop offset="0" stop-color="#f8b002"/><stop offset="1" stop-color="#fc7701"/></linearGradient></defs><g transform="translate(-510.5 -879)"><rect class="a" width="30" height="488" transform="translate(532 3329)"/><rect class="b" width="30" height="510" transform="translate(532 3845)"/><rect class="c" width="30" height="516" transform="translate(532 4375)"/><rect class="d" width="30" height="432" transform="translate(532 4922)"/><rect class="e" width="30" height="480" transform="translate(532 5392)"/><rect class="f" width="30" height="480" transform="translate(532 5904)"/><rect class="g" width="30" height="470" transform="translate(532 2831)"/><rect class="h" width="30" height="470" transform="translate(532 2341)"/><rect class="i" width="30" height="482" transform="translate(532 1846)"/><rect class="j" width="30" height="432" transform="translate(532 1394)"/><rect class="k" width="30" height="410" transform="translate(532 940)"/><g transform="translate(-362.5 -2102)"><circle class="k" cx="36" cy="36" r="36" transform="translate(873 2981)"/></g><g transform="translate(-362.5 -1643)"><circle class="k" cx="36" cy="36" r="36" transform="translate(873 2981)"/></g><circle class="i" cx="36" cy="36" r="36" transform="translate(510.5 1810)"/><circle class="i" cx="36" cy="36" r="36" transform="translate(510.5 2291)"/><circle class="g" cx="36" cy="36" r="36" transform="translate(510.5 2789)"/><circle class="g" cx="36" cy="36" r="36" transform="translate(510.5 3270)"/><circle class="b" cx="36" cy="36" r="36" transform="translate(510.5 3804)"/><circle class="b" cx="36" cy="36" r="36" transform="translate(510.5 4325)"/><circle class="d" cx="36" cy="36" r="36" transform="translate(510.5 4869)"/><circle class="d" cx="36" cy="36" r="36" transform="translate(510.5 5336)"/><circle class="f" cx="36" cy="36" r="36" transform="translate(510.5 5856)"/><circle class="f" cx="36" cy="36" r="36" transform="translate(510.5 6361)"/></g></svg>