<svg xmlns="http://www.w3.org/2000/svg" xmlns:xlink="http://www.w3.org/1999/xlink" width="72" height="1853" viewBox="0 0 72 1853"><defs><style>.a{fill:url(#a);}.b{fill:#f8b002;}.c{fill:url(#b);}.d{fill:#fc7701;}.e{fill:url(#c);}.f{fill:#009f69;}.g{fill:url(#d);}.h{fill:#147ed9;}.i{fill:url(#e);}.j{fill:#f72680;}.k{fill:#7f1399;}</style><linearGradient id="a" x1="0.5" x2="0.5" y2="1" gradientUnits="objectBoundingBox"><stop offset="0" stop-color="#f8b002"/><stop offset="1" stop-color="#fc7701"/></linearGradient><linearGradient id="b" x1="0.5" y1="1" x2="0.5" gradientUnits="objectBoundingBox"><stop offset="0" stop-color="#009f69"/><stop offset="1" stop-color="#fc7701"/></linearGradient><linearGradient id="c" x1="0.5" x2="0.5" y2="1" gradientUnits="objectBoundingBox"><stop offset="0" stop-color="#009f69"/><stop offset="1" stop-color="#147ed9"/></linearGradient><linearGradient id="d" x1="0.5" y1="1" x2="0.5" gradientUnits="objectBoundingBox"><stop offset="0" stop-color="#f72680"/><stop offset="1" stop-color="#147ed9"/></linearGradient><linearGradient id="e" x1="0.5" x2="0.5" y2="1" gradientUnits="objectBoundingBox"><stop offset="0" stop-color="#f72680"/><stop offset="1" stop-color="#7f1399"/></linearGradient></defs><g transform="translate(19138.5 -725)"><rect class="a" width="30" height="300" transform="translate(-19117 789)"/><circle class="b" cx="36" cy="36" r="36" transform="translate(-19138.5 725)"/><rect class="c" width="30" height="300" transform="translate(-19117 1145)"/><circle class="d" cx="36" cy="36" r="36" transform="translate(-19138.5 1081)"/><rect class="e" width="30" height="300" transform="translate(-19117 1502)"/><circle class="f" cx="36" cy="36" r="36" transform="translate(-19138.5 1437)"/><rect class="g" width="30" height="300" transform="translate(-19117 1858)"/><circle class="h" cx="36" cy="36" r="36" transform="translate(-19138.5 1794)"/><rect class="i" width="30" height="300" transform="translate(-19117 2214)"/><circle class="j" cx="36" cy="36" r="36" transform="translate(-19138.5 2150)"/><circle class="k" cx="36" cy="36" r="36" transform="translate(-19138.5 2506)"/></g></svg>