<svg xmlns="http://www.w3.org/2000/svg" xmlns:xlink="http://www.w3.org/1999/xlink" width="45" height="670" viewBox="0 0 45 670"><defs><style>.a{fill:#eee;}.b{clip-path:url(#a);}.c{fill:#381853;}.d{fill:#f8b002;}.e{fill:#fc7701;}.f{fill:#f72680;}.g{fill:#147ed9;}.h{fill:#fffa22;}</style><clipPath id="a"><rect class="a" width="670" height="45"/></clipPath></defs><g class="b" transform="translate(45) rotate(90)"><g transform="matrix(0.966, -0.259, 0.259, 0.966, -75.848, 2.752)"><path class="c" d="M0,0,114.029,24.951l96.312,106.519L96.312,106.519Z" transform="translate(324.373 156.422) rotate(-180)"/><path class="d" d="M0,0,114.029,24.951l96.312,106.519L96.312,106.519Z" transform="translate(456.117 99.805)"/><path class="e" d="M0,0,114.029,24.951l96.312,106.519L96.312,106.519Z" transform="translate(342.087 74.853)"/><path class="f" d="M0,0,114.029,24.951l96.312,106.519L96.312,106.519Z" transform="translate(438.401 181.373) rotate(-180)"/><path class="g" d="M0,0,114.029,24.951l96.312,106.519L96.312,106.519Z" transform="translate(210.341 131.471) rotate(-180)"/><path class="h" d="M0,0,114.029,24.951l96.312,106.519L96.312,106.519Z" transform="translate(570.145 124.756)"/></g></g></svg>