<svg xmlns="http://www.w3.org/2000/svg" xmlns:xlink="http://www.w3.org/1999/xlink" width="1088" height="42" viewBox="0 0 1088 42"><defs><style>.a{fill:#eee;}.b{clip-path:url(#a);}.c{fill:#381853;}.d{fill:#f8b002;}.e{fill:#fc7701;}.f{fill:#f72680;}.g{fill:#147ed9;}.h{fill:#fffa22;}</style><clipPath id="a"><rect class="a" width="1088" height="42" transform="translate(0 0.403)"/></clipPath></defs><g class="b" transform="translate(0 -0.403)"><g transform="matrix(0.966, -0.259, 0.259, 0.966, -123.175, 2.852)"><path class="c" d="M0,0,184.23,44.064,354.316,166l-184.23-44.064Z" transform="translate(538.55 210.061) rotate(-180)"/><path class="d" d="M0,0,184.23,44.064,354.316,166l-184.23-44.064Z" transform="translate(736.92 176.255)"/><path class="e" d="M0,0,184.23,44.064,354.316,166l-184.23-44.064Z" transform="translate(552.689 132.191)"/><path class="f" d="M0,0,184.23,44.064,354.316,166l-184.23-44.064Z" transform="translate(722.778 254.124) rotate(-180)"/><path class="g" d="M0,0,184.23,44.064,354.316,166l-184.23-44.064Z" transform="translate(354.316 165.996) rotate(-180)"/><path class="h" d="M0,0,184.23,44.064,354.316,166l-184.23-44.064Z" transform="translate(921.147 220.318)"/></g></g></svg>