<svg xmlns="http://www.w3.org/2000/svg" width="128.917" height="90.259" viewBox="0 0 128.917 90.259"><defs><style>.a{fill:#0089cd;}.b{fill:#e6e7e8;}.c{fill:#da2128;}</style></defs><g transform="translate(-197.67 -257.683)"><path class="a" d="M326.587,341.937a6,6,0,0,1-6,6H203.67a6,6,0,0,1-6-6v-78.25a6,6,0,0,1,6-6H320.588a6,6,0,0,1,6,6Z"/><path class="b" d="M326.587,263.687a5.981,5.981,0,0,0-1.524-3.988L197.67,333.3v8.639a6,6,0,0,0,3.773,5.571l125.144-72.3Z"/><rect class="b" width="21.746" height="90.258" transform="translate(251.256 257.683)"/><rect class="b" width="128.917" height="21.76" transform="translate(197.67 291.931)"/><path class="b" d="M326.587,341.995V331.814L200.246,258.82a6,6,0,0,0-2.576,4.926v9.974l126.5,73.084A6,6,0,0,0,326.587,341.995Z"/><path class="c" d="M290.5,313.893h-10l46.083,26.991v-6.143Z"/><path class="c" d="M197.67,265.177v6.2l35.917,20.751h10.737Z"/><path class="c" d="M326.587,268.04v-4.353a6.005,6.005,0,0,0-.25-1.706L274.5,291.931h10.737Z"/><path class="c" d="M199,345.9,251.4,315.562h-10.74L197.7,340.527v1.648A5.977,5.977,0,0,0,199,345.9Z"/><rect class="c" width="16.074" height="90.258" transform="translate(254.091 257.683)"/><rect class="c" width="128.917" height="16.086" transform="translate(197.67 294.769)"/></g></svg>