<svg xmlns="http://www.w3.org/2000/svg" width="1920" height="460.541" viewBox="0 0 1920 460.541"><defs><style>.a,.c{opacity:0.2;}.b{fill:#fff;}.c,.d{fill:#ffd9c2;}</style></defs><g transform="translate(0 -1071)"><g class="a" transform="translate(0 1071)"><path class="b" d="M36.1,204.5a28.865,28.865,0,0,0-6.5-2.829c-4.853-1.527-10.89-2.477-17.4-3.479-3.235-.522-6.64-1.04-9.912-1.81-.768-.21-1.527-.442-2.289-.664v3.247c.768.232,1.527.49,2.3.7,7.649,1.747,15.138,2.953,21.735,4.39,3.32.721,6.318,1.386,9.172,2.174q1.059.3,2.085.592l1.547.509c.979.342,1.9.7,2.778,1.091A11.676,11.676,0,0,0,36.1,204.5Z" transform="translate(0 -53.518)"/><path class="b" d="M102.942,254.628a18.434,18.434,0,0,1,1.984,1.492c2.084.337,4.937.9,9.74,2.14C112.206,253.428,126.349,256.772,102.942,254.628Z" transform="translate(-28.149 -69.628)"/><path class="b" d="M104.376,256.573c-10.175-1.686,6.027,4.832,0,0Z" transform="translate(-27.599 -70.081)"/><path class="b" d="M165.262,265.256l-13.913,1.391c2.392,2.989,14.191,5.674,9.5,6.7C174.865,273.683,172.4,270.7,165.262,265.256Z" transform="translate(-41.386 -72.534)"/><path class="b" d="M186.826,257.372l-7.13.409C180.745,259.029,182.516,259.723,186.826,257.372Z" transform="translate(-49.137 -70.378)"/><path class="b" d="M167.105,256.837c1.683-3-1.67-.421-8.241.74L174,256.795C172.335,254.7,172.676,251.154,167.105,256.837Z" transform="translate(-43.441 -69.391)"/><path class="b" d="M137.567,243.017c-25.6-3.268-23.162,5.06,2.535,8.274C133.013,247.566,123.649,244.3,137.567,243.017Z" transform="translate(-32.691 -66.248)"/><path class="b" d="M41.916,192.686c-2.672.349-5.531.61-5.531.61a17.613,17.613,0,0,1,5.713.945c1.135.328,2.334.716,3.554,1.125L49,196.531c4.04,1.437,7.509,2.538,7.521.782l-9.34-5.325Z" transform="translate(-9.949 -52.499)"/><path class="b" d="M278.419,287.655c1.129-2.194-3.712-6.819-4.322-9.939l-10.2,1.178C268.752,281.243,278.178,284.141,278.419,287.655Z" transform="translate(-72.161 -75.941)"/><path class="b" d="M277.915,276.584l15.248-1.835C280.062,272.383,277.41,273.908,277.915,276.584Z" transform="translate(-75.98 -74.809)"/><path class="b" d="M160.366,245.46l29.979-3.449-4.65-.671Z" transform="translate(-43.852 -65.994)"/><path class="b" d="M349.3,305.969l15.875-6.218-6.864,1.93Z" transform="translate(-95.517 -81.966)"/><path class="b" d="M412.926,307.283c-6.679,3.761,7.828,8.493.958,10.505,10.337.367,19.47-2.571,27.645-5.186C432.991,313.648,424.09,312.235,412.926,307.283Z" transform="translate(-112.42 -84.026)"/><path class="b" d="M466.634,309.485a93.063,93.063,0,0,0-13.661,3.719A47.633,47.633,0,0,0,466.634,309.485Z" transform="translate(-123.865 -84.628)"/><path class="b" d="M333.323,281.552c.977,1.542,2.743,5.541,10.869,8.16l-5.068-7.285C337.356,282.159,335.354,281.859,333.323,281.552Z" transform="translate(-91.146 -76.99)"/><path class="b" d="M341.061,282.433l.179.235c6.287,1,10.642,1.69,12.512,1.984Z" transform="translate(-93.262 -77.231)"/><path class="b" d="M331.31,281.067c.536.084.931.145,1.463.229C332.284,280.577,331.976,280.316,331.31,281.067Z" transform="translate(-90.596 -76.734)"/><path class="b" d="M257.929,242.015c-6.771,3.5,2.764,8.2-10.954,11.668C256.112,251.411,274.561,250.193,257.929,242.015Z" transform="translate(-67.535 -66.178)"/><path class="b" d="M298.846,269.491l17.349-2.2-15.444-3.678C300.842,265.382,303.356,268.3,298.846,269.491Z" transform="translate(-81.719 -72.085)"/><path class="b" d="M322.725,268.286l5.735,1.332,2.166-2.372Z" transform="translate(-88.248 -73.078)"/><path class="b" d="M433,295.009c7.071-2.138,14.525-1.579,22.972-1.227A208.3,208.3,0,0,0,429,289.013C427.565,290.922,423.324,294.2,433,295.009Z" transform="translate(-116.717 -79.03)"/><path class="b" d="M389.535,289.266c.486-.1,1.093-.1,1.55-.2C390.212,288.409,389.489,288.141,389.535,289.266Z" transform="translate(-106.517 -78.889)"/><path class="b" d="M580.485,304.456c-.442-.391-.817-.86-1.269-1.278-.123.381-.217.74-.37,1.115Z" transform="translate(-158.284 -82.903)"/><path class="b" d="M422.3,286.7a20.308,20.308,0,0,0-14.872.724,135.868,135.868,0,0,1,16.266.665C424.348,287.217,424.505,286.618,422.3,286.7Z" transform="translate(-111.411 -78.103)"/><path class="b" d="M499.69,306.451a113.613,113.613,0,0,0-11.484-4.664C491.491,304.174,498.3,308.068,499.69,306.451Z" transform="translate(-133.499 -82.523)"/><path class="b" d="M394.153,292.141a8.642,8.642,0,0,1-1.039.172C395.184,293.978,394.98,293.257,394.153,292.141Z" transform="translate(-107.496 -79.885)"/><path class="b" d="M393.758,291.035a42.714,42.714,0,0,0,9.364-2.937,73.056,73.056,0,0,0-11.453.863A10.117,10.117,0,0,1,393.758,291.035Z" transform="translate(-107.101 -78.78)"/><path class="b" d="M533.78,300.153l2.254-.737-6.469.253c7.25,1.624,12.312,4.5,21.705,9.922,10.9-2.2,13.246-4.356,14.1-6.326l-15.805-1.5C541.673,300.956,533.78,300.153,533.78,300.153Z" transform="translate(-144.808 -81.875)"/><path class="b" d="M495.875,274.865c-18.738-1.236-13.549,4.356-24.982,6.142,30.4,1.2-9.014,2.9,12.577,8.671a112.836,112.836,0,0,1-16.533.187c5.391,1.35,10.582,2.844,15.453,4.513-.263-.18-.448-.307-.662-.477l-.145.009c0-.045.036-.057.039-.1-1.245-.944-1.635-1.485-.2-.869a1.958,1.958,0,0,1,.645-.078,6.433,6.433,0,0,1,1.572-2.366c8.683,2.171,1.247,1.846-1.572,2.366a4.818,4.818,0,0,0-.446.947.373.373,0,0,0,.106.094l30.711-.993c-6.38-1.443-14.451-1.894-28.8-2.454C489.183,284.338,504.726,282.82,495.875,274.865Z" transform="translate(-127.683 -75.113)"/><path class="b" d="M286.575,225.88a1.726,1.726,0,0,1,.759,1.663C289.369,227.023,290.171,226.58,286.575,225.88Z" transform="translate(-78.363 -61.766)"/><path class="b" d="M319.342,256.4c.241.521.48,1.038.717,1.582C320.533,257.851,320.208,257.259,319.342,256.4Z" transform="translate(-87.323 -70.112)"/><path class="b" d="M281.792,235.851l2.234-.581c9.247,3.169,20.194,10.235,23.381,13.409-2.581-5.622-5.331-10.06-12.01-16.422-2.29.6-4.435,2.973-11.426,1.266-5.881-2.884.435-3.139.389-5.355C279.886,229.284,268.828,230.655,281.792,235.851Z" transform="translate(-75.388 -62.392)"/><path class="b" d="M397.215,261.243l25.418-.385-12.217-7.132.311,3.506C396.609,254.246,399.262,258.808,397.215,261.243Z" transform="translate(-108.618 -69.381)"/><path class="b" d="M579.681,315.677l15.236-8.978-11.475,2.195Z" transform="translate(-158.513 -83.866)"/><path class="b" d="M628.434,317.1l8.91-3.268-7.429-2.766Z" transform="translate(-171.844 -85.061)"/><path class="b" d="M1718.236,295.608l-1.027-7.462a40.939,40.939,0,0,1-16.667-7.252C1708.84,289.958,1717.328,302.526,1718.236,295.608Z" transform="translate(-465.01 -76.81)"/><path class="b" d="M1101.038,272.077a98.1,98.1,0,0,0,13.623-.743,74.847,74.847,0,0,0,11.118-2.072C1113.264,269.082,1102.846,265.937,1101.038,272.077Z" transform="translate(-301.076 -73.365)"/><path class="b" d="M1149.329,264.562a34.515,34.515,0,0,0,6.938-2.877,30.573,30.573,0,0,0,3.27-2.093,21.447,21.447,0,0,0,2.717-2.454,41.858,41.858,0,0,0-5.135.117c-6.606,3.491-13.379,6.78-22.027,8.942A47.593,47.593,0,0,0,1149.329,264.562Z" transform="translate(-310.388 -70.3)"/><path class="b" d="M813.46,317.115c-7.079.62-1.1.785,0,0Z" transform="translate(-221.508 -86.714)"/><path class="b" d="M769.845,277.115a5.522,5.522,0,0,1-2.757,3.28C768.567,279.632,769.683,278.658,769.845,277.115Z" transform="translate(-209.759 -75.777)"/><path class="b" d="M799.979,313.3a60.592,60.592,0,0,0,9.1,1.771A61.684,61.684,0,0,0,799.979,313.3Z" transform="translate(-218.753 -85.671)"/><path class="b" d="M799.592,317.406c-2.451-.243-4.377-.363-6.209-.5C792.505,318.038,793.313,318.717,799.592,317.406Z" transform="translate(-216.868 -86.657)"/><path class="b" d="M814.13,316.738c2.081-.174,5.012-.414,9.877-.706a70.216,70.216,0,0,1-11.5-.3C813.907,316.158,814.5,316.5,814.13,316.738Z" transform="translate(-222.178 -86.338)"/><path class="b" d="M1913.178,44.718A70.016,70.016,0,0,0,1920,41.19V0H0V121.378c15.865,6.467,187.572,44.765,383.931,60.755a5.773,5.773,0,0,0-1.44.24l.353,3.491c8.047.439,14.1-1.185,9.542-3.058q10.7.835,21.478,1.57c-13.491,4.327-5.222,24.194,7.069,35.9.62-2.64.772-5.045,16.54-7.724-5.323-3.578-34.065-9.982-20.651-14.6,20.694-1.834,16.693,3.217,26.549,6.987-4.069-4.035,2.61-6.416,9.767-9.264,5.55-2.228,11.36-4.718,12.778-8.361,41.47,1.825,83.225,2.384,124.1,1.19-.726.935-.594,1.868.98,2.791l11.5-1.561c10.878,6.293-21.51,10-6.748,12.592-15.42,5.18-32.962,12.965-55,9.1l-4.089-9.456c.443,2.791,14.336,5.635,20.5,2.736-9.209,4.261-33.513-12.778-43.65-.7,0,0,3.819,1.711,7.643,3.418l7.672,3.344c-15.7,4.606-35.446,14.191-54.933,10.415,8.613,9.624,4.507-.839,18.157,10.472-5.861-6.984,6.67-6.383,18.3-6.124,10.765.3,20.708.31,14.525-5.391,13.3,10.677,23.686,4.582,41.785,14.675-.618-3.118-6.736-5.839,9.857-4.57a17.26,17.26,0,0,1,3.586-2.826c.51.065.689.117,1.126.207-.337-.126-.586-.222-.92-.349.706-.481.765-.581-.344-.121-3.969-1.266-7.186-2.826-8.5-4.561,8.087-7.237,34.232-7.742,42.925-11.969,9.819,1.01-3.936,3.764,1.531,6.825l12.979-6.212c1.6,6.834,26.733,9.859,3.748,15.331,0,0,5.236-.244,10.469-.49,5.241-.319,10.483-.64,10.483-.64,12.574,2.988,29.821,2.787,40.044-1.278,10.116.315,24.177-10.764,16.167-4.248,0,0,8.1-2.225,16.2-4.447,8.07-2.381,16.14-4.76,16.14-4.76l.554,1.66c16.313-2.409,32.547-8.59,49.411-14.168,16.924-5.584,34.379-10.583,54.615-11.248,2.356-1.26,4.73-2.528,7.21-3.857,2.416-1.266,4.961-2.528,7.744-3.753a82.153,82.153,0,0,1,9.176-3.469,115.51,115.51,0,0,1,11.286-2.637l4.635,4.808a33.318,33.318,0,0,1,5.052-1.915c1.873-.5,3.9-.9,6.014-1.275,4.227-.74,8.777-1.308,13.063-1.945,8.6-1.032,16.151-2.162,18.264-5.848,8.129,6.539,22.93,4.645,38.715,1.912,15.745-2.451,32.667-6.041,43.492-4.414l.785-7.814c15.1.307,29.584-1.176,48.859-2.144l-.485-7c8.576-1.94,19.2.85,30.728,4.774,11.556,4.044,24,9.185,37.04,12.216-2.334,2.084-8.731-.267-13.076-2.817a57.01,57.01,0,0,0,22.589,10.764c8.01,2.185,16.417,2.808,24.843,3.764,16.817,1.578,33.7,3.358,46.156,13.656,7.765.114,12.625,2.8,17.035,6.211a5.219,5.219,0,0,0-1.848-.292,27.008,27.008,0,0,0,2.859,1.128c2.747,2.231,5.538,4.757,8.668,7.075a41.843,41.843,0,0,0-7.107-6.54,147.622,147.622,0,0,0,22.605,5.493l1.168,8.3c.684.153,1.211.37,1.938.5,7.093,5.578,7.478-.9,4.955-7.763a49.564,49.564,0,0,0,12.12-.169c2.76,13.743,22.577,4.306,27.483,19.718,6.845-3.482,37.48,9.02,48.648,2.339,8.594,4.8,17.252,9.477,26.507,8.993l1.069,10.349,23.838-4.811c10.49,9.817,14.684,14.694.37,17.352,32.632-.37,25.128,4.351,53.343,2.18l-2.866,5.424c9.091,2.808,25.465-.575,29.529,6.013a21.874,21.874,0,0,0,1.769,1.635,13,13,0,0,0,1.081.836c.216.219.437.448.667.685a39.006,39.006,0,0,0,5.065,3.353,103.568,103.568,0,0,0,14.957,6.858,200.411,200.411,0,0,0,42.783,10.46,208.919,208.919,0,0,0,25.681,1.99,189.175,189.175,0,0,0,27.1-1.314A176.47,176.47,0,0,0,1651,281.237c-5-2-5.434-3.752-3.621-5.283,1.835-1.557,6.113-2.9,10.707-5.093a51.042,51.042,0,0,0,13.1-7.847c3.307-3.134,4.919-6.458,3.017-9.315a17.619,17.619,0,0,0,4.42-.809,21.656,21.656,0,0,1,3.8-1.025c2.049-.219,3.035,1.07.564,6.936,8.9-13.3,15.244-23.229,20.9-32.553,1.1-2.1,2.172-4.206,3.132-6.244.859-1.964,1.643-3.84,2.38-5.719.616-1.717,1.189-3.419,1.71-5.129s.844-3.208,1.192-4.837a40.727,40.727,0,0,0-.466-18.933c4.645-2.267,4.149,7.742,7.128,5.418-.255-2.622-1.169-10.063,1.8-12.218,2.939-2.126,2.276,4.8,2.857,9.87,1.58-7.348,1.959-12.853,1.616-17.189a23.722,23.722,0,0,0-3.083-10.451c-3.2-5.412-8.5-8.554-13.624-11.408,9.406-11.449,10.831-16.828,8.565-29.287,5.613-2.111,11.991-5.95,6.251,8.012a112.255,112.255,0,0,1,16.621-21.582c7.136-7.628,14.908-13.067,13.285-17.664,3.16.944,10.066-4.233,11.944-5.86,8.676-2.8,13.913-3.081,18.907-3.809,2.516-.346,5.122-.424,8.183-.826,1.524-.238,3.247-.274,5.156-.412l6.513-.5-5.451-1.412c1.869-3.031,3.684-4.769,6.119-5.659a17.784,17.784,0,0,1,7.828-.721c5.716.493,12.664,2.363,21.624.8l-.432,1.254a87.558,87.558,0,0,0,21.315.79,34.688,34.688,0,0,0,5.155-.857c1.371-.433,2.464-.887,3.551-1.329a30.136,30.136,0,0,1,8.641-2.3c2.15-.2,4.9-.734,8.5-1.1,1.89-.2,3.988-.424,6.341-.674,2.536-.39,5.555-1.124,8.9-1.768l-2.71-2.844-2.594-2.9C1890.128,50.412,1899.865,50.15,1913.178,44.718ZM416.277,184.541q13.147.884,26.383,1.621C436.056,188.534,425.676,188.87,416.277,184.541Zm31.585,2.327a.85.85,0,0,1,.071-.424c.616.033,1.235.066,1.855.1ZM669.423,219.73a2.8,2.8,0,0,0,.522-.412C681.747,221.144,677.551,220.389,669.423,219.73ZM800.982,166.5A90.02,90.02,0,0,1,785.6,178.6a132.277,132.277,0,0,1-20.811,10.556c-12.372,4.224-15.484,2.487-15.96.316-.485-2.216,1.595-5.072-.439-3.764-23.757,3.154-33.124,9.937-41.777,15.977-8.615,5.89-16.542,10.9-36.9,8.1-16.419-6.816-1.981-16.347-5.953-21.975,20.155-4.943,31.88,2,45.782-.15,0,0-4.387-.367-8.763-.836l-8.736-.89a53.069,53.069,0,0,1,13.073-4.789c5.062-1.26,10.3-1.945,14.151-1.275a23.258,23.258,0,0,0-7-1.139c33.536-4.7,65.443-11.163,94.923-19.717A50.456,50.456,0,0,1,800.982,166.5Zm122.224-39.432a54.527,54.527,0,0,1-11.439,7.029c.328-2.342-2.49-4.546-4.611-5.893q10.156-2.4,20.048-4.327C925.9,124.968,924.571,126.041,923.207,127.063Zm121.074,10.1c-.587-.24-3.067-1.259-6.582-2.706-3.531-1.317-8.132-3.057-12.953-4.967-4.818-2.015-9.864-3.687-14.237-5.53a69.326,69.326,0,0,1-10.1-4.891,6.839,6.839,0,0,1-2.717-3.482q12.5-.469,24.733-.222l.286,11.759,3.216-11.666q12.169.342,24.151,1.35C1049.5,125.906,1047.452,133.837,1044.281,137.165Zm117.707,24.486s-1-1.63-2-3.256l-2.018-3.2s-5.64-.12-11.282-.238c-2.811-.069-5.616-.117-7.721-.078-2.1.012-3.5.021-3.5.021a134.074,134.074,0,0,1,16.594-8.121c4.77-2.051,10.082-4.138,15.622-6.119q17.561,5.309,35.534,11.461C1190.234,157.818,1175.558,162.466,1161.988,161.651Zm185.417,64.285a8.2,8.2,0,0,0,2.26-1.918C1349.427,225.68,1351.434,227.289,1347.405,225.936Zm64.111,10.256-10.167,3.659c2.4-2.784,3.161-7.679,3.807-13.058,5.385,1.906,10.813,3.815,16.324,5.727C1417.842,233.862,1414.442,235.115,1411.516,236.192Zm296.309-108.281c-1.6,6.939-2.637,14.011-2.637,14.011-2.483,2.655-4.63-1.073-6.615-7.048.059,2.174.126,4.206.325,5.836-2.513,3.464-4.591,4.459-6.332,3.846,1.413-4.63,2.969-9.279,4.709-13.894.415,1.465.835,2.878,1.3,4.213-.051-2.369-.037-4.973.059-7.7q1.173-2.936,2.461-5.839c1.814-1.287,3.564-2.487,5.146-3.494,2.166-1.464,4.021-2.661,5.411-3.65A136.52,136.52,0,0,0,1707.826,127.911Z"/><path class="b" d="M716.031,316.391c.27,1.468,2.354,3.512.124,4.141l13.647-1.57C722.383,319.257,719.753,317.615,716.031,316.391Z" transform="translate(-195.797 -86.516)"/><path class="b" d="M715.559,322.09l-1.705.195A6.5,6.5,0,0,0,715.559,322.09Z" transform="translate(-195.202 -88.075)"/><path class="b" d="M665.857,282.743a12.2,12.2,0,0,1,1.87.072c-3.388,8.644,8.025,6.1,19.326,3.521C685.979,280.067,676.476,281.928,665.857,282.743Z" transform="translate(-182.077 -77.069)"/><path class="b" d="M648.922,282.95c-1.362,3.455,3.947.881,9.784.216A54.325,54.325,0,0,1,648.922,282.95Z" transform="translate(-177.387 -77.372)"/><path class="b" d="M844.164,308.441c-5.161-1.362-2.892,8.133-5.886,5.731C832.921,322.392,871.926,302.921,844.164,308.441Z" transform="translate(-229.085 -84.069)"/><path class="b" d="M683.908,259.387,687.5,267.2l6.03-6.073Z" transform="translate(-187.013 -70.929)"/><path class="b" d="M790.137,266.923l-8.431-.889-8.42-.969c.266,1.29-1.864,2.075-4.484,2.685C779.171,267.924,790.579,269.23,790.137,266.923Z" transform="translate(-210.227 -72.481)"/><path class="b" d="M750.153,270.072c2.924-.1,9.218-.315,13.55-1.32C758.295,268.661,753.158,268.794,750.153,270.072Z" transform="translate(-205.128 -73.483)"/><path class="b" d="M1053.6,234.4c-3.969,2.69-10.52,5.063-7.3,7.008,0,0,4.433-1.479,8.871-2.956l8.808-3.139C1065.288,232.308,1060.08,231.841,1053.6,234.4Z" transform="translate(-285.873 -63.642)"/></g><g transform="translate(-676 19)"><g transform="translate(790.848 1278.521)"><path class="c" d="M1322.516,402.633a117.01,117.01,0,1,1-117.009-117.009A117.01,117.01,0,0,1,1322.516,402.633Z" transform="translate(-1088.495 -285.624)"/><path class="c" d="M1295.974,418.649a74.453,74.453,0,1,1-74.45-74.453A74.449,74.449,0,0,1,1295.974,418.649Z" transform="translate(-1104.512 -301.64)"/><path class="c" d="M1277.334,429.9a44.564,44.564,0,1,1-44.564-44.564A44.566,44.566,0,0,1,1277.334,429.9Z" transform="translate(-1115.761 -312.89)"/><circle class="d" cx="30.027" cy="30.027" r="30.027" transform="translate(77.777 100.758) rotate(-22.5)"/></g></g></g></svg>