<svg xmlns="http://www.w3.org/2000/svg" width="1920" height="967.952" viewBox="0 0 1920 967.952"><defs><style>.a{fill:#fff;}.b{fill:#2a98d6;}.c{fill:#5ca1d9;}.d{fill:#fed0b6;}.d,.m{opacity:0.5;}.e{fill:#b5d174;}.f{fill:#8abb2a;}.g{fill:#4a646f;}.h{fill:#2b5266;}.i{fill:#1a4256;}.j{fill:#637883;}.k,.m{fill:#5d8e2f;}.l{fill:#9fc54b;}.m,.r{mix-blend-mode:multiply;isolation:isolate;}.n{fill:#486c2a;}.o{fill:#375322;}.p{fill:#bbcae8;}.q,.r{fill:#96afdb;}.s{fill:#e07577;}.t{fill:#4e6526;}.u{fill:#f59386;}.v{fill:#45a735;}.w{fill:#00131d;}.x{fill:#001f38;}.y{fill:#926018;}.z{fill:#c5c7b1;}.aa{fill:#003055;}.ab,.af,.am,.ao,.ar{fill:none;}.ab,.am{stroke:#fff;}.ab,.am,.ar{stroke-miterlimit:10;}.ab{stroke-width:0.548px;}.ac{fill:#dc7a14;}.ad{fill:#483612;}.ae{fill:#2f2610;}.af,.ao{stroke:#001f38;stroke-linecap:round;stroke-linejoin:round;}.af{stroke-width:1.643px;}.ag{fill:#170013;}.ah{fill:#002535;}.ai{fill:#70922c;}.aj{fill:#e50019;}.ak{fill:#00599f;}.al{fill:#aeacc3;}.am{stroke-width:0.542px;}.an{fill:#00a1ed;}.ao{stroke-width:1.626px;}.ap{fill:#131934;}.aq{fill:#291123;}.ar{stroke:#57404f;stroke-width:1.084px;}.as{fill:#e4242e;}</style></defs><g transform="translate(0 -2740.262)"><path class="a" d="M804.912,803.554s-.72-44.541-47.711-39.2c0,0,2.92-64.522-74.835-77.241,0,0-51.63-7.555-81.94,35.833,0,0-47.33-130.334-205.669-107.46,0,0-14.915-77.712-125.931-76.239,0,0-91.926,2.429-101.8,84.281,0,0-28.952-30.65-99.557-8.978,0,0-23.717-25.442-44.278-16.172,0,0-6.738-19.468-23.193-41.681V947.163s71.807-64.649,124.031-70.031c0,0,70.923,4.065,227.615,18.022,182.57,16.266,229.447-36.073,261.974-51.51,0,0,39.065,21.407,88.8,10.229,0,0,55.659,22.9,95.258,10.523,0,0,43.353,14.642,65.17,16.128S983.488,841.221,804.912,803.554Z" transform="translate(0 2323.551)"/><path class="a" d="M2348.12,370.6c-16.993,1.873-36.643,7.718-59.168,19.585,0,0-71.476,35.508-66.038,139.88,0,0-42.724-15.226-99.8,40.055,0,0-35.166-12.793-50.343,6.136,0,0-86.591-83.353-192.9-29.191s-87.5,140.839-87.5,140.839S1722.9,690,1679.317,749.129c0,0-96.568,23.909-111.924,54.071s72.894,30.583,151.1,17.95c0,0,31.531,33.229,118.949-17.932,0,0,81.065,77.649,219.142-20.3,0,0,40.411,17.727,75.463-6.4,0,0,17.869-1.371,44.859-35.641,0,0,35,24.1,82.42-6.584,0,0,33.5,8.364,88.792,6.356Z" transform="translate(-428.12 2369.66)"/><g transform="translate(0 2971.168)"><path class="b" d="M0,930.5s126.233-94.228,148.586-87.89,57.409,51.172,57.409,51.172L236.719,877.3l28.3,21.642s101-58.533,114.347-56.332,63.812,27.432,63.812,27.432,23.651-20.848,28.459-19.627,10.884,7.4,10.884,7.4,148.137-87.212,163.33-88.063,220.572,75.459,220.572,75.459,17.835-15.534,24.954-17.346,134.157,26.018,134.157,26.018l48.046-43.366,8.221,6.073v192.092L0,1010.2Z" transform="translate(0 -710.654)"/><path class="b" d="M2347.208,805.073s-95.806-64.314-107.8-63.77-41.653,37.132-41.653,37.132-16.321-12.925-22.294-11.96-20.534,15.707-20.534,15.707-71.64-41.744-82.963-40.878-46.3,19.9-46.3,19.9-18.29-14.059-20.649-14.24-7.9,5.37-7.9,5.37-93.739-62.462-118.5-63.9-160.037,54.751-160.037,54.751-12.413-10.55-18.106-12.586-97.34,18.882-97.34,18.882l-34.859-31.468-5.965,4.4V861.8l784.906,1.095Z" transform="translate(-427.208 -688.413)"/><path class="c" d="M0,990.38l263.713-156L365.6,925.209s42.8-30.548,54.533-29.249,50.225,38.413,50.225,38.413l202.948-99.988L786.562,883.08l50.514-34.84,19.313,13.132,289.881-156.3L1537.743,839l44.291-30.787L1820.141,854.4l85.271-76.969L1920,788.2v340.938L0,1131.83Z" transform="translate(0 -692.97)"/><path class="d" d="M1941.535,839s-288.914,171.384-301.354,165.142,21.894-49.663,6.523-69.771S1482,956.3,1476.874,930.4s87.438-88.69,83.233-111.168-49.174-4.69-48.5-30.516,38.451-83.644,38.451-83.644Z" transform="translate(-403.792 -692.97)"/><path class="d" d="M2415.561,893.215s-71.131,75.094-95.184,75.43-19.07-52.291-28.1-58.5-88.285-16.242-89.453-31.3-25.365-31.815-25.365-31.815Z" transform="translate(-595.42 -731.788)"/><path class="d" d="M892.08,940.214c-12.429-3.963,24.465-57.161,24.465-57.161L1029.8,931.747s-92.683,60.006-107.817,68.3,10.922-51.906,6.873-58.5S904.51,944.176,892.08,940.214Z" transform="translate(-243.238 -741.637)"/><path class="d" d="M432.447,973.876,314.223,1031.6l5.931-35.021s-75.184,3.9-75.7-8.082,72.962-56.524,72.111-61.576-19.408,1.967-20.809-5.965,34.8-37.907,34.8-37.907Z" transform="translate(-66.845 -741.637)"/><path class="d" d="M1144.242,902.121s-29.748,35.177-18.32,32.669,37.632-19.537,37.632-19.537Z" transform="translate(-307.166 -746.851)"/><path class="d" d="M2599.657,953.209c-1.445,16.507,21.763-13.855,21.763-13.855V815.435l-14.588-10.776s-39.21,47-41.618,68.5,33.094,2.995,43.052,15.905S2601.1,936.709,2599.657,953.209Z" transform="translate(-701.42 -720.2)"/></g><path class="e" d="M1447.678,1297.129S553.8,1012.606,362.912,985.919C217.109,965.54,64.13,1032.569,0,1065.371v440.4H1811.984Z" transform="translate(0 2202.438)"/><path class="f" d="M1212.146,1245.482c-93.9-8.611-806.642-214.608-895.927-231.883C243.763,999.582,64.867,1057.255,0,1079.492v262.082c44.936,35.352,137.627,110.283,142.525,112.634,4.992,2.4,357.4,42.1,513.349,59.579H746.2C841.9,1468.88,1296.255,1253.191,1212.146,1245.482Z" transform="translate(0 2194.427)"/><g transform="translate(1730.615 3209.091)"><path class="g" d="M2381.956,1174.1l29.787-54.017s17.139-1.221,19.179-2.038,39.173-89.363,46.926-99.977,93.492,20.812,93.492,20.812v175.3l-159.349-33.729Z" transform="translate(-2381.956 -1015.882)"/><path class="h" d="M2415.373,1189.785l22.647-47.408,31.828-4.492,38.653-76.3,28.969,8.569,43.008,35.947v116.808Z" transform="translate(-2391.094 -1028.378)"/><path class="i" d="M2580.554,1226.759l.291-4.245,7.123-41.058-3.708-44.637v-17.955l3.708,20.812,15.6,44.275-2.449,34.817,4.9,13.277" transform="translate(-2436.262 -1044.042)"/><path class="h" d="M2401.651,1227.419l6.733-18.972-6.733,4.281-11.834,14.029Z" transform="translate(-2384.105 -1068.538)"/><path class="h" d="M2502.867,1064.943l-2.141,11.81-6.935,4.492Z" transform="translate(-2412.537 -1029.297)"/><path class="h" d="M2618.042,1055.681l-2.448,20.2,11.63,11.834h4.284l-9.385-13.259Z" transform="translate(-2445.844 -1026.765)"/><path class="j" d="M2607.882,1038.5l-38.56,1.533s-27.952-14.486-28.565-15.406-20.519-8.533-20.519-8.533S2540.323,1012.945,2607.882,1038.5Z" transform="translate(-2419.769 -1015.905)"/><path class="j" d="M2442.133,1156.5l10.406,4.69s-15.71,5.346-17.752,4.612-11.833-7.264-11.833-7.264Z" transform="translate(-2393.167 -1054.333)"/></g><path class="k" d="M1920,1559.582V1228.1c-68.413-14.45-200.4-70.373-352.253-40.6C447.068,1407.278,0,1336.827,0,1336.827v222.754Z" transform="translate(0 2148.632)"/><path class="l" d="M1780.458,1187.517c-428.415,84.017-758.382,125.617-1002.571,144.956,107.241,18.184,547.641,81.558,868.131-41.185,160.253-61.378,219.751-94.421,234.289-112.256A472.223,472.223,0,0,0,1780.458,1187.517Z" transform="translate(-212.712 2148.62)"/><path class="k" d="M0,1094.857c13.635-13.851,46.57-9.3,46.57-9.3,26.762-75.466,109.128-26.686,109.128-26.686,106.028-179.495,183.556,14.849,183.556,14.849,131.217-75.992,132.065,55.343,132.065,55.343,54.688,16.939,12.46,48.124,12.46,48.124L0,1139.882Z" transform="translate(0 2202.263)"/><path class="m" d="M0,1141.992c13.635-13.852,46.57-9.3,46.57-9.3,26.762-75.467,109.128-26.687,109.128-26.687,106.028-179.5,183.556,14.849,183.556,14.849,131.217-75.992,132.065,55.343,132.065,55.343,54.688,16.939,12.46,48.125,12.46,48.125L0,1187.016Z" transform="translate(0 2189.375)"/><path class="n" d="M1435.7,1358.371c24.543-23.251,81.514-13.337,81.514-13.337,51.106-129.553,191.315-39.754,191.315-39.754,195.207-305.567,318.163,36.96,318.163,36.96,232.7-124.122,226.2,104.228,226.2,104.228,94.029,32.763,18.736,84.4,18.736,84.4l-838.663-94.245Z" transform="translate(-391.842 2148.76)"/><path class="o" d="M2296.962,1566.386H1855.7L1430.1,1518.563l2.736-78.263c24.543-23.25,81.514-13.337,81.514-13.337,51.1-129.549,191.313-39.753,191.313-39.753,195.208-305.564,318.165,36.963,318.165,36.963,232.7-124.12,226.2,104.228,226.2,104.228C2282.665,1539.772,2294.893,1553.416,2296.962,1566.386Z" transform="translate(-391.059 2126.355)"/><path class="p" d="M1920,1522.447v20.09l-405.016-43.469S493.209,1272.644,483.78,1270.8s-318.268-50.614-337.287-50.86S0,1208.447,0,1208.447v-91.88s131.068,14.876,324.686,59.9c109.449,25.448,369.056,83.806,531.7,121.907C1220.251,1383.618,1613.5,1472.446,1920,1522.447Z" transform="translate(0 2165.677)"/><path class="q" d="M616.917,1272.987C313.9,1198.663,138.253,1158.342,0,1144.1v405.964H1920C1564.448,1498.779,828.965,1325,616.917,1272.987Z" transform="translate(0 2158.148)"/><path class="a" d="M372.668,1366.812l-23.519,16.573S154.159,1335.156,0,1298.679v-23.921S119.792,1301.051,372.668,1366.812Z" transform="translate(0 2122.42)"/><path class="a" d="M1510.258,1662.09h-86.722l-377.565-95.376,21.574-12.94Z" transform="translate(-286.018 2046.124)"/><path class="r" d="M922.032,1605.854c-36.333-7.655-49.561-10.709-85.767-18.073l7.725-68.34-84.038-18.584s-119.391,27.021-201.244,6.431-176.56-100.656-176.56-100.656l-34-6.17-16.849-4.449-52.879,64.844c-8.378-2.707-40.546-12.64-48.945-16.182C176.713,1422.423,120.6,1395,65.184,1379.93c-20.877-5.677-42.782-7.625-64.739-7.6H0v240.145H955.867C944.269,1610.262,932.859,1608.139,922.032,1605.854Z" transform="translate(0 2095.74)"/><g transform="translate(0 3467.561)"><path class="k" d="M0,1445.849c144.425-197.208,247.427,60.992,247.427,60.992,195.073-112.977,196.333,82.276,196.333,82.276,21.5,6.657,32.918,14.8,38.092,23.166H0Z" transform="translate(0 -1371.631)"/><path class="m" d="M0,1515.921c144.425-197.208,247.427,60.99,247.427,60.99,147.3-85.307,184.086,5.123,193.271,54.534H0Z" transform="translate(0 -1390.792)"/></g><path class="r" d="M1319.754,1534.717l-4.133,122.162h552.9l-23.778-15.472-94.894-19.125s-31.657,86.787-349.515-72.511Z" transform="translate(-359.754 2051.335)"/><g transform="translate(902.042 2985.733)"><g transform="translate(279.518 104.722)"><path class="s" d="M1723.754,957.051l-61.375,52.694c-1.21,10.223,13.015,7.213,13.015,7.213l69.078-48.451Z" transform="translate(-1636.114 -881.159)"/><path class="s" d="M1660.484,1020.337l-3.309-.547s-23.407,8.479-28.036,14.934c-2.934,4.095-4.214,11.958-1,15.839,1.727,2.1,9.534,2.343,11.976,1.143,3.13-1.552,3-7.622,3-7.622s8.752,1.666,14.46-2.618c3.246-2.432,7.993-9.829,7.7-12.688S1660.484,1020.337,1660.484,1020.337Z" transform="translate(-1626.257 -898.314)"/><path class="t" d="M1711.131,898.429s43.521,36.32,42.477,54.048c-.429,7.33-12.38,8.854-26.17,13.331l-31.723-40.364Z" transform="translate(-1645.25 -865.128)"/><path class="t" d="M1638.992,853.238s13.507-9.33,67.792,43.106c0,0-6.181,11.377-27.613,21.209C1666.1,923.551,1638.992,853.238,1638.992,853.238Z" transform="translate(-1629.739 -852.595)"/></g><g transform="translate(0 17.548)"><g transform="translate(148.585 109.455)"><path class="f" d="M1540.947,978.946s-14.8,12.619-27.373,25.171c-15.635,15.608-25.819,25.3-38.7,35.385,0,0,4.984,10.09,9.777,7.369,69.7-39.666,79.11-56.32,79.11-56.32Z" transform="translate(-1453.929 -909.427)"/><path class="u" d="M1470.555,1058.524c-.28.222-10.009,1.423-20.66,1.013-5.332-.2-3.572,7.486-3.572,7.486a62.111,62.111,0,0,1,.771,13.623s2.126,6.317,17.213,3.837c0,0,7.683-1.552,10.1-2.643,0,0-2.382-6.374-7.651-5.914a37.473,37.473,0,0,0,10.86-8.5C1481.912,1062.18,1470.555,1058.524,1470.555,1058.524Z" transform="translate(-1446.045 -931.188)"/><path class="u" d="M1483.448,1069.925s-2.282,14.982-12.672,14.633-3.623-13.307-3.623-13.307Z" transform="translate(-1451.226 -934.305)"/><path class="f" d="M1590.4,883.263l-24.585,69.519s6.483,9.327,22.815,11.606l34-53.837Z" transform="translate(-1478.795 -883.263)"/></g><path class="s" d="M1804.634,1513.344c-.151-1.516-7.828-16.681-10.635-25.364l-13.545,6.521,9.895,23.875Z" transform="translate(-1388.903 -939.166)"/><g transform="translate(365.733 565.004)"><path class="v" d="M1794.873,1510.264s-.451,9.838-13.521,11.825l-3.622-1.572s-21.792,15.226-29.943,20.337c0,0-3.172,3.313-2.846,6.549,0,0,3.115,6.786,28.162-.412l17.007-5.812s18.3-3.857,22.429-11.918C1812.541,1529.26,1809.718,1513.247,1794.873,1510.264Z" transform="translate(-1744.919 -1510.264)"/><path class="a" d="M1785.2,1526.411a10.7,10.7,0,0,0-2.273,1.672c-.672.781,5.17,3.65,5.315,6.347,0,0,2.319.924,2.379-1.106S1787.537,1527.467,1785.2,1526.411Z" transform="translate(-1755.298 -1514.68)"/><path class="a" d="M1778.882,1530.247a10.752,10.752,0,0,0-2.267,1.675c-.666.776,5.168,3.644,5.314,6.344,0,0,2.324.923,2.381-1.112S1781.229,1531.3,1778.882,1530.247Z" transform="translate(-1753.572 -1515.728)"/></g><path class="s" d="M1772.543,1096.748s7.273,12.1-1.91,47.67c-5.609,21.726-16.615,77.252-30.719,117.232h0c6.676,5.643,20.693,21.407,22.7,55.349,2.656,44.8,12.681,71.885,12.681,71.885s-1.387.83-17.617,3.734c0,0-44.785-97-48.654-127.527,0,0-10.74-116.689-11.055-142.159C1697.429,1079.61,1772.543,1096.748,1772.543,1096.748Z" transform="translate(-1366.347 -831.27)"/><path class="w" d="M1772.543,1096.748s7.273,12.1-1.91,47.67c-1.117,4.327-2.451,9.991-3.973,16.609h0c-3.214,13.935-7.3,32.083-12.089,50.821-20.858,2.409-44.265-6.521-51.048-9.362-.914-10.884-1.832-22.09-2.648-32.643h0c-.024-.367-.055-.734-.081-1.1-.018-.223-.036-.448-.059-.674h0c-1.517-19.8-2.667-37.059-2.766-45.138C1697.429,1079.61,1772.543,1096.748,1772.543,1096.748Z" transform="translate(-1366.347 -831.27)"/><path class="s" d="M1610.841,851.939c-6.633-17.772-21.34-21.221-21.34-21.221l30.7-8.5L1638.226,846l-31.777,7.757" transform="translate(-1336.687 -757.114)"/><path class="s" d="M1588.225,805.94l20.529-1.81c38.044-25.825,27.456-62.255,3.474-69.6s-34.412,8.818-34.412,8.818l5.759,2.84Z" transform="translate(-1333.492 -732.612)"/><g transform="translate(0 244.418)"><path class="x" d="M1786.74,1539.073a3.055,3.055,0,0,0,3.77,2.1h0a3.052,3.052,0,0,0,2.093-3.774l-14.945-52.273a3.057,3.057,0,0,0-3.774-2.1h0a3.049,3.049,0,0,0-2.09,3.77Z" transform="translate(-1386.503 -1182.197)"/><path class="x" d="M1770.429,1564.555a3.583,3.583,0,0,0,4.677,1.942l31.623-13.061a3.564,3.564,0,0,0,1.942-4.672h0a3.582,3.582,0,0,0-4.674-1.946l-31.631,13.058a3.583,3.583,0,0,0-1.936,4.679Z" transform="translate(-1386.087 -1199.6)"/><path class="y" d="M1495.231,1223.763c1.13-1.756,3.168-2.463,4.557-1.572l201.828,187.733c1.388.89,1.6,3.031.477,4.793h0c-1.131,1.759-3.166,2.465-4.555,1.581l-201.826-187.74c-1.388-.887-1.6-3.03-.481-4.8Z" transform="translate(-1310.713 -1110.8)"/><g transform="translate(0 126.583)"><path class="x" d="M1244.318,1333.436a115.217,115.217,0,1,0,137.511-87.408A115.215,115.215,0,0,0,1244.318,1333.436Zm12.357,2.754a102.557,102.557,0,1,1,77.809,122.394A102.559,102.559,0,0,1,1256.676,1336.189Z" transform="translate(-1241.537 -1243.246)"/><path class="z" d="M1261.442,1340.954a102.556,102.556,0,1,0,122.4-77.809A102.551,102.551,0,0,0,1261.442,1340.954Zm7.513,1.675a94.859,94.859,0,1,1,71.969,113.212A94.858,94.858,0,0,1,1268.955,1342.63Z" transform="translate(-1246.304 -1248.01)"/><path class="aa" d="M1482.263,1387.537c2.036-6.284,1.588-10.433,1.125-16.578a32.878,32.878,0,0,1,.885-9.041c.654-3.431-.152-4.847-1.385-8.013-2.524-6.5.208-13.446-1.859-20.036-.928-2.968-3.183-5.187-4-8.25-.987-3.662-.758-7.556-1.767-11.254-2.286-8.4-7.823-14.745-12.588-21.587-1.1-1.576-2.009-3.518-3.378-4.886-1.569-1.569-3.862-2.417-5.552-3.954-3-2.724-4.833-6.56-8.012-9-6.062-4.651-13.524-11.275-20.982-13.6a61.736,61.736,0,0,1-12.209-5.43c-3.348-1.861-5.813-4.269-9.9-4.627-4.186-.358-7.792-.022-12.108-.986-3.528-.782-7.305-2.1-10.893-2.1-4.449,0-8.392,1.843-12.634,3.121-3.3.992-5.321.28-8.57.054-7.152-.487-13.638,3.152-20.573,4.688-1.646.361-3.665-.427-5.131-.069-2.094.511-2.94,2.086-4.451,3.421-2.47,2.186-3.837,2.258-6.89,2.49a24.186,24.186,0,0,0-9.6,2.318,6.981,6.981,0,0,1-4.581.914,115.212,115.212,0,0,1,179.989,118.4,116.257,116.257,0,0,1-5.057,16.7C1479.858,1397,1481.023,1391.367,1482.263,1387.537Z" transform="translate(-1259.495 -1243.246)"/></g><g transform="translate(433.878 223.223)"><path class="x" d="M1841.492,1466.452a115.218,115.218,0,1,0,137.514-87.415A115.216,115.216,0,0,0,1841.492,1466.452Zm12.358,2.751a102.557,102.557,0,1,1,77.807,122.394A102.559,102.559,0,0,1,1853.85,1469.2Z" transform="translate(-1838.712 -1376.257)"/><path class="z" d="M1858.617,1473.971a102.557,102.557,0,1,0,122.4-77.806A102.554,102.554,0,0,0,1858.617,1473.971Zm7.512,1.674a94.859,94.859,0,1,1,71.968,113.209A94.86,94.86,0,0,1,1866.129,1475.645Z" transform="translate(-1843.478 -1381.024)"/><path class="aa" d="M2079.439,1520.554c2.034-6.287,1.586-10.436,1.117-16.588a33.1,33.1,0,0,1,.9-9.032c.651-3.437-.156-4.85-1.386-8.013-2.524-6.506.2-13.448-1.864-20.038-.928-2.971-3.175-5.184-4-8.251-.985-3.659-.76-7.558-1.765-11.254-2.295-8.394-7.826-14.747-12.591-21.585-1.1-1.578-2.005-3.517-3.378-4.888-1.569-1.567-3.859-2.417-5.553-3.957-3-2.721-4.833-6.558-8.01-9-6.064-4.654-13.526-11.277-20.983-13.6a61.263,61.263,0,0,1-12.209-5.429c-3.352-1.861-5.81-4.27-9.9-4.622-4.185-.36-7.789-.024-12.1-.983-3.534-.79-7.315-2.1-10.9-2.1-4.442,0-8.389,1.849-12.63,3.124-3.3.992-5.332.28-8.575.055-7.152-.493-13.632,3.15-20.574,4.681-1.645.36-3.659-.424-5.131-.066-2.091.511-2.939,2.083-4.452,3.421-2.469,2.186-3.835,2.258-6.885,2.486a24.316,24.316,0,0,0-9.6,2.318,6.967,6.967,0,0,1-4.579.917,115.233,115.233,0,0,1,174.925,135.091C2077.031,1530.019,2078.2,1524.387,2079.439,1520.554Z" transform="translate(-1856.67 -1376.257)"/></g><g transform="translate(451.574 240.566)"><g transform="translate(97.654 26.288)"><line class="ab" x1="67.429" y2="71.047" transform="translate(0 0.59)"/><path class="a" d="M2089.566,1436.41c-.17.173-.078.538.2.8s.648.337.816.157.083-.538-.2-.806S2089.74,1436.229,2089.566,1436.41Z" transform="translate(-2022.634 -1436.31)"/></g><g transform="translate(97.654 1.839)"><line class="ab" x1="21.296" y2="95.605" transform="translate(0 0.48)"/><path class="a" d="M2025.854,1402.974c-.053.234.206.505.582.586s.733-.045.788-.283-.214-.508-.593-.592S2025.908,1402.73,2025.854,1402.974Z" transform="translate(-2005.233 -1402.66)"/></g><g transform="translate(87.195)"><line class="ab" x2="9.764" y2="97.46" transform="translate(0.695 0.464)"/><path class="a" d="M1983.082,1400.647c.021.243.352.414.735.376s.679-.268.654-.514-.354-.418-.738-.373S1983.054,1400.4,1983.082,1400.647Z" transform="translate(-1983.08 -1400.128)"/></g><g transform="translate(57.143 7.935)"><line class="ab" x2="39.838" y2="89.474" transform="translate(0.672 0.515)"/><path class="a" d="M1941.743,1411.832c.1.222.467.28.823.123s.551-.466.457-.692-.471-.282-.825-.126S1941.645,1411.6,1941.743,1411.832Z" transform="translate(-1941.718 -1411.049)"/></g><g transform="translate(31.148 24.873)"><line class="ab" x2="65.893" y2="72.463" transform="translate(0.612 0.588)"/><path class="a" d="M1906.02,1435.408c.166.183.532.117.819-.139s.384-.613.218-.805-.536-.118-.822.144S1905.852,1435.228,1906.02,1435.408Z" transform="translate(-1905.939 -1434.362)"/></g><g transform="translate(11.822 49.131)"><line class="ab" x2="85.301" y2="48.136" transform="translate(0.531 0.657)"/><path class="a" d="M1879.509,1469.008c.221.123.549-.054.74-.388s.167-.707-.048-.833-.544.057-.734.391S1879.3,1468.888,1879.509,1469.008Z" transform="translate(-1879.339 -1467.75)"/></g><g transform="translate(1.084 78.285)"><line class="ab" x2="96.092" y2="18.948" transform="translate(0.478 0.692)"/><path class="a" d="M1864.891,1509.25c.239.049.5-.222.571-.6s-.063-.724-.3-.766-.508.216-.58.592S1864.642,1509.2,1864.891,1509.25Z" transform="translate(-1864.56 -1507.876)"/></g><g transform="translate(0 97.924)"><line class="ab" y1="12.153" x2="97.189" transform="translate(0.464)"/><path class="a" d="M1863.609,1552.066c.242-.031.4-.37.358-.752s-.287-.671-.531-.637-.4.37-.361.749S1863.362,1552.1,1863.609,1552.066Z" transform="translate(-1863.068 -1539.219)"/></g><g transform="translate(8.667 97.924)"><line class="ab" y1="42.024" x2="88.464" transform="translate(0.522)"/><path class="a" d="M1875.8,1593.141c.224-.108.271-.474.1-.827s-.479-.544-.7-.439-.271.478-.1.827S1875.578,1593.243,1875.8,1593.141Z" transform="translate(-1874.998 -1550.477)"/></g><g transform="translate(26.24 97.924)"><line class="ab" y1="67.652" x2="70.823" transform="translate(0.591)"/><path class="a" d="M1900.246,1628.32c.186-.169.11-.535-.156-.812s-.624-.37-.806-.2-.11.533.156.813S1900.071,1628.495,1900.246,1628.32Z" transform="translate(-1899.184 -1560.151)"/></g><g transform="translate(50.971 97.924)"><line class="ab" y1="86.455" x2="46.023" transform="translate(0.66)"/><path class="a" d="M1934.5,1654.054c.113-.216-.071-.538-.41-.721s-.709-.147-.827.066.065.538.407.724S1934.376,1654.276,1934.5,1654.054Z" transform="translate(-1933.223 -1567.259)"/></g><g transform="translate(80.373 97.924)"><line class="ab" y1="96.531" x2="16.585" transform="translate(0.696)"/><path class="a" d="M1975.081,1667.739c.041-.247-.236-.5-.613-.56s-.726.079-.772.319.234.5.619.562S1975.034,1667.982,1975.081,1667.739Z" transform="translate(-1973.691 -1571.072)"/></g><g transform="translate(97.654 97.924)"><line class="ab" x1="14.536" y1="96.861"/><path class="a" d="M2017.912,1667.969c-.034-.247-.378-.394-.758-.337s-.665.3-.629.547.385.4.765.337S2017.948,1668.215,2017.912,1667.969Z" transform="translate(-2002.683 -1571.197)"/></g><g transform="translate(97.654 97.924)"><line class="ab" x1="44.187" y1="87.418"/><path class="a" d="M2058.673,1654.732c-.1-.22-.477-.256-.825-.084s-.526.5-.422.716.485.259.832.083S2058.788,1654.954,2058.673,1654.732Z" transform="translate(-2013.86 -1567.62)"/></g><g transform="translate(97.654 97.924)"><line class="ab" x1="69.372" y1="69.14"/><path class="a" d="M2093.251,1629.38c-.171-.177-.535-.1-.81.174s-.352.64-.177.809.538.1.812-.177S2093.429,1629.552,2093.251,1629.38Z" transform="translate(-2023.37 -1560.715)"/></g><g transform="translate(97.654 97.924)"><line class="ab" x1="87.559" y1="43.894"/><path class="a" d="M2118.134,1594.453c-.219-.1-.537.087-.71.43s-.136.719.088.827.537-.078.711-.427S2118.358,1594.571,2118.134,1594.453Z" transform="translate(-2030.245 -1551.182)"/></g><g transform="translate(97.654 97.924)"><line class="ab" x1="96.916" y1="14.212"/><path class="a" d="M2130.819,1553.52c-.245-.034-.489.246-.545.628s.1.719.339.761.487-.25.547-.628S2131.061,1553.556,2130.819,1553.52Z" transform="translate(-2033.786 -1539.996)"/></g><g transform="translate(97.654 80.325)"><line class="ab" x1="96.478" y2="16.903" transform="translate(0 0.695)"/><path class="a" d="M2130,1510.689c-.244.042-.385.388-.324.764s.322.658.566.616.383-.385.318-.767S2130.246,1510.649,2130,1510.689Z" transform="translate(-2033.621 -1510.685)"/></g><g transform="translate(97.654 50.955)"><line class="ab" x1="86.311" y2="46.311" transform="translate(0 0.658)"/><path class="a" d="M2115.768,1470.3c-.214.117-.241.49-.065.823s.509.523.727.409.245-.487.063-.833S2115.988,1470.179,2115.768,1470.3Z" transform="translate(-2029.773 -1470.26)"/></g><g transform="translate(97.654 8.796)"><line class="ab" x1="41.741" y2="88.615" transform="translate(0 0.513)"/><path class="a" d="M2054.06,1412.441c-.107.223.088.535.44.7s.716.111.821-.111-.1-.533-.442-.7S2054.158,1412.213,2054.06,1412.441Z" transform="translate(-2012.94 -1412.235)"/></g></g><path class="ac" d="M1498.3,1201.027l274.343,61.11-1.687,7.565-274.343-61.1Z" transform="translate(-1311.286 -1105.118)"/><path class="ad" d="M1974.52,1524.858a16.861,16.861,0,1,0,20.125-12.79A16.855,16.855,0,0,0,1974.52,1524.858Z" transform="translate(-1441.859 -1190.06)"/><rect class="y" width="7.761" height="164.528" transform="translate(387.685 306.483) rotate(-77.443)"/><rect class="ac" width="7.752" height="203.927" transform="translate(455.618 161.766) rotate(-26.678)"/><rect class="ac" width="118.82" height="8.602" transform="matrix(0.217, -0.976, 0.976, 0.217, 173.663, 155.845)"/><path class="ad" d="M1462.458,1078.275a4.5,4.5,0,0,1,6.335-.688l39.055,31.433a4.5,4.5,0,0,1,.684,6.333h0a4.5,4.5,0,0,1-6.336.688l-39.055-31.431a4.5,4.5,0,0,1-.682-6.335Z" transform="translate(-1301.674 -1071.091)"/><path class="ad" d="M1460.825,1074.263a8.356,8.356,0,1,0,10.871-4.639A8.36,8.36,0,0,0,1460.825,1074.263Z" transform="translate(-1301.336 -1069.021)"/><path class="ac" d="M1773.912,1413.9c-.991-.527-2-1.008-2.992-1.531l99.588-198.958c.69-1.347,2.6-1.746,4.271-.9s2.474,2.627,1.79,3.978l-99.715,199.2A25.82,25.82,0,0,0,1773.912,1413.9Z" transform="translate(-1386.296 -1108.136)"/><path class="ae" d="M1892.063,1247.639a.167.167,0,0,0-.053-.006.139.139,0,0,1-.054-.012,25.317,25.317,0,0,1-3.879-.791c-.282-.083-1.356-.519-1.311-.487-.358-.156-.709-.322-1.058-.49-.1-.048-.187-.1-.281-.144l16.394-32.3c.69-1.347,2.6-1.746,4.271-.9s2.474,2.627,1.79,3.978Z" transform="translate(-1417.608 -1108.136)"/><path class="x" d="M1762.188,1479.444a10.43,10.43,0,1,0,12.448-7.913A10.434,10.434,0,0,0,1762.188,1479.444Z" transform="translate(-1383.84 -1179.018)"/><g transform="translate(17.582 143.895)"><g transform="translate(97.661 26.291)"><line class="ab" x1="67.422" y2="71.044" transform="translate(0 0.594)"/><path class="a" d="M1492.234,1303.358c-.163.177-.078.535.2.808.284.259.649.334.816.156s.082-.544-.2-.814S1492.41,1303.181,1492.234,1303.358Z" transform="translate(-1425.309 -1303.26)"/></g><g transform="translate(97.661 1.846)"><line class="ab" x1="21.296" y2="95.605" transform="translate(0 0.478)"/><path class="a" d="M1428.523,1269.924c-.052.238.212.505.585.589s.728-.042.78-.286-.209-.506-.585-.586S1428.578,1269.681,1428.523,1269.924Z" transform="translate(-1407.908 -1269.614)"/></g><g transform="translate(87.192)"><line class="ab" x2="9.771" y2="97.46" transform="translate(0.697 0.469)"/><path class="a" d="M1385.745,1267.593c.022.247.357.412.741.379s.678-.27.651-.517-.358-.418-.741-.376S1385.722,1267.35,1385.745,1267.593Z" transform="translate(-1385.743 -1267.073)"/></g><g transform="translate(57.142 7.937)"><line class="ab" x2="39.845" y2="89.48" transform="translate(0.673 0.512)"/><path class="a" d="M1344.409,1278.783c.1.222.467.276.824.123s.557-.466.458-.692-.474-.286-.824-.13S1344.31,1278.554,1344.409,1278.783Z" transform="translate(-1344.384 -1277.997)"/></g><g transform="translate(31.15 24.874)"><line class="ab" x2="65.904" y2="72.466" transform="translate(0.606 0.589)"/><path class="a" d="M1308.691,1302.358c.172.184.537.121.815-.138s.386-.62.221-.806-.535-.12-.822.144S1308.527,1302.175,1308.691,1302.358Z" transform="translate(-1308.61 -1301.309)"/></g><g transform="translate(11.819 49.136)"><line class="ab" x2="85.309" y2="48.136" transform="translate(0.533 0.657)"/><path class="a" d="M1282.181,1335.96c.219.121.547-.054.737-.387s.171-.707-.05-.833-.54.054-.735.394S1281.967,1335.838,1282.181,1335.96Z" transform="translate(-1282.004 -1334.702)"/></g><g transform="translate(1.085 78.285)"><line class="ab" x2="96.098" y2="18.951" transform="translate(0.478 0.693)"/><path class="a" d="M1267.555,1376.2c.242.048.5-.219.571-.6s-.055-.724-.3-.772-.494.222-.575.6S1267.316,1376.153,1267.555,1376.2Z" transform="translate(-1267.229 -1374.822)"/></g><g transform="translate(0 97.929)"><line class="ab" y1="12.153" x2="97.189" transform="translate(0.471)"/><path class="a" d="M1266.274,1419.016c.248-.031.411-.367.36-.749s-.284-.67-.53-.634-.406.367-.36.749S1266.03,1419.049,1266.274,1419.016Z" transform="translate(-1265.736 -1406.172)"/></g><g transform="translate(8.668 97.929)"><line class="ab" y1="42.021" x2="88.475" transform="translate(0.518)"/><path class="a" d="M1278.473,1460.094c.224-.108.269-.479.1-.827s-.484-.548-.706-.439-.272.474-.1.826S1278.246,1460.2,1278.473,1460.094Z" transform="translate(-1277.667 -1417.429)"/></g><g transform="translate(26.242 97.929)"><line class="ab" y1="67.649" x2="70.824" transform="translate(0.595)"/><path class="a" d="M1302.918,1495.275c.179-.174.1-.538-.162-.817s-.624-.367-.8-.2-.105.535.157.812S1302.74,1495.443,1302.918,1495.275Z" transform="translate(-1301.854 -1427.103)"/></g><g transform="translate(50.97 97.929)"><line class="ab" y1="86.456" x2="46.03" transform="translate(0.661)"/><path class="a" d="M1337.162,1521.005c.113-.217-.067-.538-.412-.721s-.71-.15-.827.066.069.539.412.725S1337.044,1521.228,1337.162,1521.005Z" transform="translate(-1335.889 -1434.21)"/></g><g transform="translate(80.376 97.929)"><line class="ab" y1="96.528" x2="16.586" transform="translate(0.699)"/><path class="a" d="M1377.747,1534.683c.036-.243-.233-.49-.611-.557s-.726.079-.77.319.235.5.614.565S1377.7,1534.929,1377.747,1534.683Z" transform="translate(-1376.362 -1438.022)"/></g><g transform="translate(97.661 97.929)"><line class="ab" x1="14.532" y1="96.861"/><path class="a" d="M1420.583,1534.915c-.038-.238-.374-.391-.756-.331s-.66.3-.626.547.377.394.751.331C1420.341,1535.41,1420.622,1535.167,1420.583,1534.915Z" transform="translate(-1405.36 -1438.149)"/></g><g transform="translate(97.661 97.929)"><line class="ab" x1="44.176" y1="87.409"/><path class="a" d="M1461.349,1521.686c-.116-.222-.487-.262-.824-.087s-.535.5-.424.716.477.256.824.081S1461.46,1521.906,1461.349,1521.686Z" transform="translate(-1416.536 -1434.572)"/></g><g transform="translate(97.661 97.929)"><line class="ab" x1="69.366" y1="69.14"/><path class="a" d="M1495.918,1496.325c-.173-.175-.537-.1-.809.18s-.355.634-.179.806.54.1.812-.174S1496.092,1496.5,1495.918,1496.325Z" transform="translate(-1426.044 -1427.665)"/></g><g transform="translate(97.661 97.929)"><line class="ab" x1="87.558" y1="43.891"/><path class="a" d="M1520.809,1461.406c-.222-.105-.546.084-.717.427s-.136.718.087.827.54-.075.713-.424S1521.023,1461.52,1520.809,1461.406Z" transform="translate(-1432.92 -1418.134)"/></g><g transform="translate(97.661 97.929)"><line class="ab" x1="96.905" y1="14.212"/><path class="a" d="M1533.484,1420.472c-.242-.036-.489.24-.545.629s.1.716.342.758.493-.247.545-.625S1533.73,1420.508,1533.484,1420.472Z" transform="translate(-1436.459 -1406.948)"/></g><g transform="translate(97.661 80.328)"><line class="ab" x1="96.474" y2="16.903" transform="translate(0 0.698)"/><path class="a" d="M1532.666,1377.638c-.239.044-.382.387-.317.769s.315.655.562.61.388-.382.322-.763S1532.914,1377.6,1532.666,1377.638Z" transform="translate(-1436.297 -1377.634)"/></g><g transform="translate(97.661 50.958)"><line class="ab" x1="86.31" y2="46.311" transform="translate(0 0.66)"/><path class="a" d="M1518.434,1337.248c-.218.114-.245.487-.062.824s.51.523.722.4.249-.481.07-.826S1518.652,1337.127,1518.434,1337.248Z" transform="translate(-1432.446 -1337.211)"/></g><g transform="translate(97.661 8.801)"><line class="ab" x1="41.737" y2="88.614" transform="translate(0 0.514)"/><path class="a" d="M1456.729,1279.391c-.107.222.089.538.434.7s.722.117.829-.105-.1-.538-.441-.7S1456.831,1279.165,1456.729,1279.391Z" transform="translate(-1415.615 -1279.187)"/></g></g><path class="ac" d="M1386.04,1395.662a10.432,10.432,0,1,0,12.454-7.914A10.43,10.43,0,0,0,1386.04,1395.662Z" transform="translate(-1280.983 -1156.107)"/><path class="ac" d="M1983.215,1528.676a10.43,10.43,0,1,0,12.453-7.913A10.435,10.435,0,0,0,1983.215,1528.676Z" transform="translate(-1444.279 -1192.48)"/><path class="ad" d="M1937.807,1219.157s-3.848,6.948-16.514,5.694-35.512-18.229-58.778-22.2c-13.745-2.345-7.766-13.058,13.621-11.456C1900.883,1193.05,1949.575,1201.153,1937.807,1219.157Z" transform="translate(-1409.325 -1102.384)"/><path class="ad" d="M1732.43,1466.378a32.434,32.434,0,1,0,38.709-24.607A32.439,32.439,0,0,0,1732.43,1466.378Zm5.893,1.317a26.4,26.4,0,1,1,20.027,31.495A26.4,26.4,0,0,1,1738.323,1467.695Z" transform="translate(-1375.557 -1170.735)"/><path class="ac" d="M1458.014,1283.519s-11.886,73.163-59.9,83.067l1.78,6.627s46.876.331,66.513-87.823Z" transform="translate(-1284.353 -1127.675)"/><line class="af" x1="119.36" y1="38.723" transform="translate(411.052 276.382)"/><line class="af" x1="83.784" y1="9.937" transform="translate(395.31 337.321)"/><path class="a" d="M1478.242,1340.717s38.126,89.144-63.8,130.725c0,0,49.627-6.515,69.171-56.389C1492.84,1391.518,1492.4,1361.782,1478.242,1340.717Z" transform="translate(-1288.818 -1143.316)"/><g transform="translate(353.758 237.88)"><path class="x" d="M1765.859,1466.038a3.047,3.047,0,0,0,3.772,2.1h0a3.061,3.061,0,0,0,2.093-3.773l-14.95-52.276a3.054,3.054,0,0,0-3.774-2.1h0a3.053,3.053,0,0,0-2.09,3.777Z" transform="translate(-1734.55 -1400.105)"/><path class="x" d="M1728.817,1417.034a3.591,3.591,0,0,0,4.819,1.582l30.541-15.409a3.576,3.576,0,0,0,1.586-4.808h0a3.594,3.594,0,0,0-4.811-1.591l-30.551,15.412a3.6,3.6,0,0,0-1.585,4.813Z" transform="translate(-1728.438 -1396.43)"/></g></g><path class="u" d="M1576.766,746.752c1.034-.258,1.929.093,2.967-.177.418-.107,2.193-.437,1.992-.437.484-.055.967-.1,1.454-.113.317.06,1.727.206,2.109.287.876.185,1.751.378,2.608.64.2.06.565.2.81.288a19.168,19.168,0,0,1,2.55,1.344c.2.156.394.312.588.479a22.025,22.025,0,0,1,1.6,1.558c.027.039.051.078.087.125.206.281.412.568.606.857a27.88,27.88,0,0,1,1.694,2.879c.075.145.2.408.309.64a38.792,38.792,0,0,1,1.349,3.835c1.816,6.122,2.8,12.293,5.568,18.1a22.745,22.745,0,0,0,6.208,7.869A39.393,39.393,0,0,1,1593,807.81c-5.241,3.551-22.2,8.35-24.977,4.236-1.443-2.144-11.38-33.4,5.988-65.034C1575.09,746.82,1575.711,747.015,1576.766,746.752Z" transform="translate(-1329.683 -736.28)"/><path class="ag" d="M1619.19,793.172s-2.968,15.909,5.946,20.139l-2.509-7.405s14.773,15.743,30.857,15.574l-11.667-6.116,15.819,7.042s-3.339-13.193-8.3-18.922c0,0,11.294,6.7,12.629,11.7,0,0-3.93-14.625-10.439-21.54,0,0,14.313,5.364,18.691,10.141,0,0-2.587-9.738-14.067-13.731,0,0,13.3,4.483,20.729-1.819l-15.237-3.394,5.529-4.014a14.9,14.9,0,0,0-8.283-1.846l-13.377-8.925s2.783-22.778-17.271-26.7-17.6,18.7-19.884,26.7C1603.823,785.92,1619.19,793.172,1619.19,793.172Z" transform="translate(-1341.614 -735.425)"/><path class="u" d="M1616.707,797.04s11.244-5.4,11.38,3.981-12.567,16.321-15.251,13.4Z" transform="translate(-1343.068 -749.807)"/><path class="ah" d="M1691.785,1092.75c-4.386,19.688,9.187,44.177,30.89,45.518,28.35,1.747,41.87-11.939,45.311-24.745,12.708-47.255-8.492-43.1-29.758-47.832S1696.17,1073.068,1691.785,1092.75Z" transform="translate(-1364.432 -823.411)"/><path class="u" d="M1724.431,1354.529s13.055,9.84,21.044,15.694c0,0,14.229-2.032,13.046-12.288,0,0-26.7-18.266-30.025-21.656S1724.431,1354.529,1724.431,1354.529Z" transform="translate(-1373.584 -897.585)"/><path class="u" d="M1537.693,1178.542a2.977,2.977,0,0,1,.364-.391c16.281-17.408,44.8-37.634,69.177-53.473,3.991,2.093,9.729.679,11.7-3.608.127-.273.252-.547.393-.812.05-.052.1-.121.166-.2.084-.087.168-.163.254-.244.037-.028.065-.049.107-.076a42.478,42.478,0,0,1,4.152-2.33c2.235-1.155,4.389-2.459,6.543-3.755,2.768-1.668,5.539-3.352,8.392-4.856.543-.283,1.091-.565,1.635-.836.345-.159.823-.378,1.037-.46a26.611,26.611,0,0,1,2.754-.992c.2.114.408.234.606.352a50.818,50.818,0,0,0,5.624,3.641c5.989,2.793,12.573,4.633,18.945,6.329,6.089,1.617,12.243,3.039,18.29,4.831,1.679.5,3.355,1.007,5.012,1.569.461.159.92.322,1.377.481.251.1,1.188.451,1.362.523.273.108.542.217.814.328a40.74,40.74,0,0,0-5.807,8.839c-.609,1.317-1.177,2.652-1.817,3.957-.278.554-.547,1.113-.863,1.654-.16.286-.742,1.1-.691,1.074-.16.183-.319.363-.493.529-.079.078-.14.142-.191.193a23.271,23.271,0,0,1-2.7,1.677c-.235.126-.474.246-.719.37-.54.228-1.088.463-1.633.682q-1.689.663-3.4,1.281c-2.114.773-4.239,1.527-6.3,2.442-4.311,1.9-7.176,6.037-5.618,10.9a8.407,8.407,0,0,0,.485,1.16c-25.409,9.946-53.954,22.7-75.477,29.338,15.085,6.859,37.729,28.684,53.825,47.34,17.285,20.015,54.563,53.689,54.563,53.689-4.213,14.873-26.705,2.1-26.705,2.1-33.856-32.812-73.739-49.535-99.361-66.158-30.734-19.934-35.388-28.578-35.388-28.578S1533.226,1184.582,1537.693,1178.542Z" transform="translate(-1322.005 -834.855)"/><g transform="translate(342.192 456.541)"><path class="f" d="M1752.055,1361.008s1.987,9.642-10.185,14.789l-3.894-.628s-17.365,20.133-24.01,27.1c0,0-2.252,3.99-1.141,7.044,0,0,4.691,5.806,27.192-7.345l15.049-9.825s16.782-8.256,18.8-17.087C1773.866,1375.055,1767.178,1360.239,1752.055,1361.008Z" transform="translate(-1712.518 -1360.979)"/><path class="a" d="M1743.489,1383.477a10.763,10.763,0,0,0-1.789,2.177c-.456.923,5.91,2.261,6.722,4.844,0,0,2.47.319,2.03-1.659C1750.008,1386.845,1746.017,1383.925,1743.489,1383.477Z" transform="translate(-1720.491 -1367.131)"/><path class="a" d="M1738.316,1388.749a10.863,10.863,0,0,0-1.79,2.178c-.45.923,5.913,2.261,6.723,4.843,0,0,2.476.322,2.025-1.669S1740.85,1389.2,1738.316,1388.749Z" transform="translate(-1719.076 -1368.573)"/></g><path class="ai" d="M1634.185,849.188s-30.4,2.577-36.7,17.364-11.994,29.32-9.817,44.065,52.514,61.059,71.2,92.974c0,0,2.108,6.519,1.477,26.645a28.954,28.954,0,0,1,20.86-3.133c7.863,1.663,18.727,7.727,31.139,9.657,13.156,2.039,28.545,7.011,36.3-2.513,0,0-37.478-97.165-68.9-136.564C1663.456,877.264,1662.547,869.273,1634.185,849.188Z" transform="translate(-1336.056 -764.49)"/><path class="f" d="M1597.245,871.693c-6.031,13.548-1.2,28.861,10.795,34.2s26.609-1.317,32.637-14.87,1.2-28.855-10.8-34.2S1603.273,858.139,1597.245,871.693Z" transform="translate(-1338.095 -766.074)"/><path class="f" d="M1600.872,877.941l-9.677.917s-8.437,24.747-17.312,55.376c0,0,5.547,9.907,27.01,12.922,0,0,29.962-41.347,32.472-46.687S1600.872,877.941,1600.872,877.941Z" transform="translate(-1332.417 -772.352)"/><path class="u" d="M1562.148,798.64s-7.027-1.912-6.087-3.376a72.842,72.842,0,0,0,7.39-16.117Z" transform="translate(-1327.519 -745.337)"/></g><path class="ah" d="M1579.486,1148.043c1.2-1.44,42.578-30.129,56.851-37.991,0,0,0,0,.007,0,15.544-9.619,26.567-15.869,26.567-15.869l60.068,28.349s-4.18,6.693-7.995,12.814c5.355,2.438,8.677,4.029,8.677,4.029l-14.742,5.677c-.078.117-.117.186-.117.186-.624,1-4.049,1.9-7.168,2.618-29.7,11.435-79.171,30.472-81.49,31.333C1616.824,1180.418,1566.246,1163.9,1579.486,1148.043Z" transform="translate(-1333.346 -813.934)"/><path class="ag" d="M1572.668,738.162s-1.343,8.328,10.271,16.373c0,0-3.118-6.5-3.752-10.308,0,0,8.367,22.056,25.508,23.162l-6.744-9.84s10.345,9.782,28.19,11.515l-2.974-3.889,7.673.318-1.651-7.653s8.725,5.645,12.007,13.1c0,0-.328-9.625-8.522-19.323l7.341,9.343s-.218-12.229-7.019-17.093c0,0,7.509-4.468,16.013,1.661,0,0-4.635-8.953-17.54-7.1l14.867-5.158s-6.993-4.274-16.742.3c0,0-7.651-11.466-19.24-13.14l14.463,4.78a30.79,30.79,0,0,0-22.8-8.908l16.248-1.717s-14.441-7.763-36.212,3.48l10.156-9.605s-18.8,5.663-19.029,16.6c0,0-7.3-5.28-6.044-11.8,0,0-2.135,12.849,4.681,16.52,0,0-19.919,9.728-5,19.7C1566.826,749.491,1566.049,739.257,1572.668,738.162Z" transform="translate(-1328.97 -708.46)"/></g><g transform="translate(278.421 2896.1)"><g transform="translate(163.478 131.716)"><path class="s" d="M632.106,946.461c-.259.238-9.8,1.981-20.349,2.192-5.283.108-3.1,7.613-3.1,7.613a61.316,61.316,0,0,1,1.548,13.416s2.465,6.109,17.23,2.787c0,0,7.5-1.973,9.825-3.19,0,0-2.723-6.163-7.9-5.4a37.113,37.113,0,0,0,10.236-9.026C643.542,949.422,632.106,946.461,632.106,946.461Z" transform="translate(-608.213 -815.624)"/><path class="s" d="M645.582,957.113s-1.392,14.934-11.674,15.193-4.352-12.941-4.352-12.941Z" transform="translate(-613.585 -818.536)"/><path class="s" d="M741.765,766.381l-20.269,70.1s6.944,8.836,23.218,10.15l30.477-55.16Z" transform="translate(-639.19 -766.381)"/><path class="s" d="M698.249,862.87s-13.892,13.322-25.586,26.449c-14.545,16.323-24.047,26.489-36.182,37.2,0,0,5.505,9.691,10.078,6.72,66.568-43.226,74.909-60.214,74.909-60.214Z" transform="translate(-615.943 -792.766)"/></g><g transform="translate(153.532 130.542)"><path class="u" d="M618.93,934.957c-.28.208-9.934,1.13-20.463.442-5.272-.336-3.733,7.319-3.733,7.319a61.418,61.418,0,0,1,.4,13.5s1.933,6.3,16.927,4.251c0,0,7.64-1.323,10.06-2.345,0,0-2.188-6.368-7.409-6.055a37.035,37.035,0,0,0,10.972-8.112C630.071,938.877,618.93,934.957,618.93,934.957Z" transform="translate(-594.524 -811.304)"/><path class="u" d="M631.354,946.511s-2.663,14.763-12.929,14.14-3.227-13.259-3.227-13.259Z" transform="translate(-599.534 -814.463)"/><path class="u" d="M741.529,764.765,715.35,832.886s6.164,9.4,22.27,12.09l35.072-52.356Z" transform="translate(-627.564 -764.765)"/><path class="u" d="M690.144,858.524s-14.979,12.084-27.749,24.164c-15.885,15.03-26.22,24.351-39.223,33.978,0,0,4.656,10.123,9.469,7.552,70.014-37.384,79.773-53.6,79.773-53.6Z" transform="translate(-602.358 -790.403)"/></g><path class="s" d="M937.3,1393.7c-.112-1.506-7.3-16.717-9.843-25.379l-13.576,6.095,9.152,23.881Z" transform="translate(-528.319 -799.264)"/><path class="ag" d="M923.187,1328a127.082,127.082,0,0,1-30.552,9.158s-37.835-99.459-40.853-129.76c-.719-7.222,27.231-5.228,27.231-5.228s22.974,13.614,24.4,58.007S923.187,1328,923.187,1328Z" transform="translate(-511.335 -753.761)"/><g transform="translate(358.779 585.358)"><path class="aj" d="M927.412,1390.757s-.7,9.717-13.687,11.338l-3.537-1.654s-21.969,14.486-30.169,19.321c0,0-3.223,3.193-2.988,6.4,0,0,2.9,6.8,27.873.349l16.979-5.3s18.209-3.329,22.511-11.194C944.393,1410.017,942.021,1394.112,927.412,1390.757Z" transform="translate(-877.018 -1390.757)"/><path class="a" d="M917.765,1405.994a10.694,10.694,0,0,0-2.291,1.6c-.682.751,5.021,3.746,5.092,6.416,0,0,2.269.977,2.382-1.029S920.053,1407.106,917.765,1405.994Z" transform="translate(-887.518 -1394.924)"/><path class="a" d="M911.415,1409.619a10.708,10.708,0,0,0-2.292,1.6c-.681.752,5.021,3.743,5.095,6.416,0,0,2.265.977,2.38-1.037S913.7,1410.731,911.415,1409.619Z" transform="translate(-885.782 -1395.915)"/></g><path class="ag" d="M916.422,981s6.876,12.165-3.16,47.111c-6.131,21.344-18.5,75.977-33.519,115.151,0,0-16.434,12.249-30.65,2.585,0,0-7.512-115.722-7.145-140.93C842.57,962.036,916.422,981,916.422,981Z" transform="translate(-508.646 -692.209)"/><path class="s" d="M760.786,734.542c-6.089-17.761-17.252-24.25-17.252-24.25l29.957-5.062,11.082,22.582-25.525,8.254" transform="translate(-481.739 -617.943)"/><path class="s" d="M742.028,688.188l20.359-1.24c38.327-24.537,28.82-60.863,5.3-68.765s-34.281,7.8-34.281,7.8l5.622,2.964Z" transform="translate(-478.969 -593.532)"/><g transform="translate(0 261.579)"><path class="x" d="M918.941,1418.571a3.019,3.019,0,0,0,3.676,2.171h0a3.017,3.017,0,0,0,2.17-3.674l-13.393-52.114a3.017,3.017,0,0,0-3.676-2.171h0a3.015,3.015,0,0,0-2.172,3.671Z" transform="translate(-526.014 -1059.303)"/><path class="x" d="M901.985,1443.666a3.539,3.539,0,0,0,4.573,2.042l31.637-12.072a3.542,3.542,0,0,0,2.047-4.573h0a3.549,3.549,0,0,0-4.576-2.048l-31.635,12.075a3.542,3.542,0,0,0-2.046,4.576Z" transform="translate(-525.003 -1076.83)"/><path class="ak" d="M638.956,1098.872c1.16-1.711,3.2-2.357,4.542-1.437l194.659,191.1c1.35.917,1.5,3.046.343,4.754h0c-1.159,1.716-3.195,2.36-4.546,1.443L639.3,1103.629c-1.351-.911-1.5-3.043-.344-4.757Z" transform="translate(-452.929 -986.656)"/><g transform="translate(0 123.793)"><path class="x" d="M386.671,1201.773a114.024,114.024,0,1,0,138.37-82.806A114.025,114.025,0,0,0,386.671,1201.773Zm12.155,3.058a101.494,101.494,0,1,1,73.7,123.16A101.491,101.491,0,0,1,398.825,1204.831Z" transform="translate(-383.208 -1115.505)"/><path class="al" d="M403.543,1209.548a101.494,101.494,0,1,0,123.164-73.711A101.493,101.493,0,0,0,403.543,1209.548Zm7.385,1.852A93.878,93.878,0,1,1,479.1,1325.324,93.885,93.885,0,0,1,410.928,1211.4Z" transform="translate(-387.926 -1120.222)"/><path class="aa" d="M621.578,1261.169c2.183-6.166,1.853-10.279,1.553-16.373a32.462,32.462,0,0,1,1.123-8.918c.735-3.38-.029-4.8-1.157-7.962-2.326-6.5.557-13.3-1.308-19.874-.841-2.961-3.007-5.219-3.742-8.271-.876-3.65-.549-7.493-1.449-11.187-2.039-8.359-7.343-14.784-11.879-21.684-1.046-1.585-1.883-3.533-3.206-4.924-1.513-1.591-3.757-2.5-5.39-4.062-2.9-2.772-4.611-6.615-7.686-9.116-5.869-4.76-13.076-11.509-20.4-14a61.579,61.579,0,0,1-11.93-5.7c-3.261-1.933-5.634-4.375-9.668-4.841-4.135-.466-7.71-.228-11.954-1.292-3.469-.872-7.17-2.276-10.719-2.369-4.394-.117-8.351,1.6-12.584,2.754-3.284.894-5.274.129-8.48-.177-7.067-.679-13.572,2.755-20.475,4.08-1.639.315-3.611-.514-5.079-.2-2.085.445-2.958,1.984-4.49,3.268-2.5,2.1-3.859,2.132-6.88,2.282a24.074,24.074,0,0,0-9.559,2.026,6.887,6.887,0,0,1-4.56.788,114.053,114.053,0,0,1,169.454,138.305C618.944,1270.466,620.251,1264.925,621.578,1261.169Z" transform="translate(-401.927 -1115.505)"/></g><g transform="translate(426.65 230.97)"><path class="x" d="M973.9,1349.293a114.024,114.024,0,1,0,138.37-82.812A114.025,114.025,0,0,0,973.9,1349.293Zm12.153,3.049a101.494,101.494,0,1,1,73.707,123.164A101.5,101.5,0,0,1,986.051,1352.342Z" transform="translate(-970.434 -1263.019)"/><path class="al" d="M990.768,1357.059a101.494,101.494,0,1,0,123.162-73.707A101.494,101.494,0,0,0,990.768,1357.059Zm7.386,1.859a93.878,93.878,0,1,1,68.176,113.921A93.873,93.873,0,0,1,998.154,1358.918Z" transform="translate(-975.152 -1267.736)"/><path class="aa" d="M1208.807,1408.684c2.182-6.163,1.849-10.279,1.551-16.374a32.766,32.766,0,0,1,1.123-8.917c.737-3.377-.025-4.8-1.157-7.959-2.324-6.506.558-13.307-1.306-19.874-.84-2.964-3.006-5.213-3.74-8.271-.878-3.65-.548-7.5-1.45-11.185-2.04-8.362-7.344-14.79-11.877-21.687-1.046-1.587-1.885-3.533-3.21-4.924-1.51-1.594-3.754-2.5-5.39-4.062-2.894-2.77-4.608-6.615-7.685-9.113-5.869-4.763-13.074-11.516-20.4-14.005a61.012,61.012,0,0,1-11.929-5.706c-3.264-1.93-5.637-4.378-9.67-4.835-4.135-.469-7.709-.231-11.955-1.3-3.47-.869-7.17-2.276-10.719-2.369-4.393-.118-8.351,1.606-12.581,2.754-3.286.9-5.277.13-8.482-.174-7.067-.679-13.573,2.754-20.475,4.08-1.639.319-3.613-.515-5.079-.2-2.085.445-2.96,1.987-4.49,3.268-2.5,2.09-3.857,2.129-6.878,2.279a23.984,23.984,0,0,0-9.562,2.032,6.912,6.912,0,0,1-4.559.782,114.05,114.05,0,0,1,169.452,138.311C1206.172,1417.984,1207.479,1412.44,1208.807,1408.684Z" transform="translate(-989.154 -1263.02)"/></g><g transform="translate(443.878 247.917)"><g transform="translate(96.937 28.057)"><line class="am" x1="68.599" y2="68.485" transform="translate(0 0.591)"/><path class="a" d="M1221.29,1325.052c-.17.171-.1.536.175.8s.631.358.8.177.1-.532-.174-.8S1221.464,1324.881,1221.29,1325.052Z" transform="translate(-1153.17 -1324.961)"/></g><g transform="translate(96.937 2.645)"><line class="am" x1="23.617" y2="94.008" transform="translate(0 0.48)"/><path class="a" d="M1159.15,1290.278c-.058.241.193.5.563.6s.72-.021.782-.259-.194-.509-.567-.6S1159.21,1290.044,1159.15,1290.278Z" transform="translate(-1136.2 -1289.985)"/></g><g transform="translate(89.18)"><line class="am" x2="7.066" y2="96.672" transform="translate(0.69 0.46)"/><path class="a" d="M1116.892,1286.838c.018.249.341.418.72.394s.676-.253.661-.493-.339-.421-.723-.391S1116.875,1286.6,1116.892,1286.838Z" transform="translate(-1116.891 -1286.344)"/></g><g transform="translate(59.236 7.052)"><line class="am" x2="37.033" y2="89.574" transform="translate(0.667 0.507)"/><path class="a" d="M1075.7,1296.8c.094.228.454.291.807.144s.564-.448.472-.671-.457-.295-.811-.142S1075.605,1296.579,1075.7,1296.8Z" transform="translate(-1075.677 -1296.051)"/></g><g transform="translate(33.066 23.119)"><line class="am" x2="63.261" y2="73.443" transform="translate(0.61 0.571)"/><path class="a" d="M1039.73,1319.18c.16.177.523.13.813-.12s.4-.6.236-.785-.523-.132-.812.115S1039.572,1318.991,1039.73,1319.18Z" transform="translate(-1039.657 -1318.164)"/></g><g transform="translate(13.296 46.598)"><line class="am" x2="83.106" y2="49.892" transform="translate(0.534 0.643)"/><path class="a" d="M1012.611,1351.712c.208.126.538-.039.735-.367s.189-.7-.023-.824-.54.036-.734.367S1012.4,1351.586,1012.611,1351.712Z" transform="translate(-1012.446 -1350.48)"/></g><g transform="translate(1.9 75.145)"><line class="am" x2="94.562" y2="21.305" transform="translate(0.475 0.683)"/><path class="a" d="M997.066,1391.125c.24.054.5-.2.585-.578s-.042-.716-.28-.769-.5.2-.583.577S996.83,1391.076,997.066,1391.125Z" transform="translate(-996.762 -1389.771)"/></g><g transform="translate(0 97.133)"><line class="am" y1="9.435" x2="96.472" transform="translate(0.464)"/><path class="a" d="M994.661,1433.449c.245-.024.413-.352.373-.734s-.263-.667-.509-.643-.411.352-.373.73S994.416,1433.473,994.661,1433.449Z" transform="translate(-994.146 -1423.326)"/></g><g transform="translate(7.784 97.133)"><line class="am" y1="39.218" x2="88.646" transform="translate(0.506)"/><path class="a" d="M1005.632,1474.406c.223-.1.278-.463.125-.812s-.463-.553-.685-.451-.278.458-.125.812S1005.409,1474.507,1005.632,1474.406Z" transform="translate(-1004.861 -1434.55)"/></g><g transform="translate(24.484 97.133)"><line class="am" y1="65.039" x2="71.871" transform="translate(0.582)"/><path class="a" d="M1028.877,1509.861c.185-.163.125-.527-.134-.809s-.612-.379-.793-.216-.122.529.134.815S1028.7,1510.026,1028.877,1509.861Z" transform="translate(-1027.846 -1444.296)"/></g><g transform="translate(48.446 97.133)"><line class="am" y1="84.309" x2="47.845" transform="translate(0.646)"/><path class="a" d="M1062.068,1536.235c.121-.211-.052-.541-.382-.73s-.7-.163-.821.045.048.541.381.727S1061.946,1536.446,1062.068,1536.235Z" transform="translate(-1060.826 -1451.575)"/></g><g transform="translate(77.265 97.133)"><line class="am" y1="95.058" x2="18.986" transform="translate(0.686)"/><path class="a" d="M1101.855,1550.849c.046-.237-.218-.49-.592-.568s-.719.063-.767.3.216.5.594.575S1101.805,1551.093,1101.855,1550.849Z" transform="translate(-1100.491 -1455.644)"/></g><g transform="translate(96.937 97.133)"><line class="am" x1="11.79" y1="96.215"/><path class="a" d="M1144.226,1552.23c-.028-.24-.361-.4-.741-.354s-.663.285-.634.523.363.4.741.354S1144.252,1552.47,1144.226,1552.23Z" transform="translate(-1131.745 -1456.084)"/></g><g transform="translate(96.937 97.133)"><line class="am" x1="41.374" y1="87.658"/><path class="a" d="M1184.9,1540.223c-.107-.222-.469-.268-.813-.105s-.543.475-.437.695.469.267.814.108S1185.007,1540.442,1184.9,1540.223Z" transform="translate(-1142.895 -1452.844)"/></g><g transform="translate(96.937 97.133)"><line class="am" x1="66.782" y1="70.253"/><path class="a" d="M1219.78,1516.058c-.17-.174-.527-.108-.806.154s-.367.625-.2.8.529.105.805-.153S1219.948,1516.239,1219.78,1516.058Z" transform="translate(-1152.484 -1446.266)"/></g><g transform="translate(96.937 97.133)"><line class="am" x1="85.448" y1="45.761"/><path class="a" d="M1245.331,1482.177c-.216-.114-.538.07-.717.4s-.153.7.063.817.537-.06.717-.4S1245.546,1482.3,1245.331,1482.177Z" transform="translate(-1159.54 -1437.018)"/></g><g transform="translate(96.937 97.133)"><line class="am" x1="95.489" y1="16.651"/><path class="a" d="M1258.969,1442.015c-.242-.042-.492.228-.556.607s.077.713.317.755.488-.225.557-.6S1259.206,1442.061,1258.969,1442.015Z" transform="translate(-1163.342 -1426.044)"/></g><g transform="translate(96.937 82.301)"><line class="am" x1="95.893" y2="14.14" transform="translate(0 0.692)"/><path class="a" d="M1259.3,1399.624c-.244.033-.394.367-.34.748s.3.652.541.623.394-.373.336-.752S1259.543,1399.587,1259.3,1399.624Z" transform="translate(-1163.494 -1399.62)"/></g><g transform="translate(96.937 52.964)"><line class="am" x1="86.615" y2="43.509" transform="translate(0 0.66)"/><path class="a" d="M1246.3,1359.273c-.219.115-.256.478-.087.818s.489.529.71.421.254-.475.084-.818S1246.521,1359.162,1246.3,1359.273Z" transform="translate(-1159.982 -1359.242)"/></g><g transform="translate(96.937 10.072)"><line class="am" x1="43.653" y2="86.546" transform="translate(0 0.514)"/><path class="a" d="M1186.8,1300.4c-.11.214.076.539.418.7s.708.138.818-.082-.078-.533-.419-.707S1186.908,1300.181,1186.8,1300.4Z" transform="translate(-1143.754 -1300.208)"/></g></g><rect class="an" width="7.674" height="278.151" transform="matrix(0.244, -0.97, 0.97, 0.244, 187.075, 102.855)"/><path class="aa" d="M1104.946,1409.649a16.686,16.686,0,1,0,20.25-12.11A16.686,16.686,0,0,0,1104.946,1409.649Z" transform="translate(-580.427 -1068.694)"/><rect class="ak" width="7.676" height="162.819" transform="translate(381.854 309.075) rotate(-75.899)"/><rect class="an" width="7.679" height="201.819" transform="matrix(0.905, -0.425, 0.425, 0.905, 452.911, 167.724)"/><rect class="an" width="117.593" height="8.516" transform="translate(174.121 154.343) rotate(-75.881)"/><path class="aa" d="M610.409,954.068a4.464,4.464,0,0,1,6.288-.508l37.8,32.135a4.461,4.461,0,0,1,.51,6.287h0a4.459,4.459,0,0,1-6.292.511l-37.8-32.13a4.468,4.468,0,0,1-.506-6.3Z" transform="translate(-445.045 -947.138)"/><path class="aa" d="M608.861,950.1a8.269,8.269,0,1,0,10.876-4.3A8.268,8.268,0,0,0,608.861,950.1Z" transform="translate(-444.726 -945.12)"/><path class="an" d="M907.6,1295.38c-.963-.538-1.95-1.047-2.916-1.585l103.833-194.171c.712-1.314,2.612-1.663,4.244-.779s2.375,2.667,1.665,3.987L910.47,1297.237A25.459,25.459,0,0,0,907.6,1295.38Z" transform="translate(-525.806 -987.022)"/><path class="x" d="M1030.6,1133.22a.327.327,0,0,1-.056,0,.4.4,0,0,1-.054-.006,25.525,25.525,0,0,1-3.813-.89c-.273-.093-1.326-.544-1.288-.514-.346-.168-.689-.336-1.028-.517-.093-.048-.187-.1-.28-.15l17.086-31.516c.712-1.314,2.612-1.663,4.244-.779s2.375,2.667,1.665,3.987Z" transform="translate(-558.454 -987.022)"/><path class="x" d="M896.172,1359a10.321,10.321,0,1,0,12.524-7.5A10.318,10.318,0,0,0,896.172,1359Z" transform="translate(-523.391 -1056.159)"/><g transform="translate(17.117 140.708)"><g transform="translate(96.934 28.06)"><line class="am" x1="68.599" y2="68.485" transform="translate(0 0.593)"/><path class="a" d="M633.909,1177.5c-.175.177-.094.529.174.8s.628.352.8.174.094-.532-.176-.8S634.081,1177.325,633.909,1177.5Z" transform="translate(-565.788 -1177.406)"/></g><g transform="translate(96.934 2.647)"><line class="am" x1="23.62" y2="94.014" transform="translate(0 0.476)"/><path class="a" d="M571.772,1142.722c-.062.238.191.505.562.6s.717-.022.779-.259-.194-.509-.562-.6S571.829,1142.487,571.772,1142.722Z" transform="translate(-548.819 -1142.429)"/></g><g transform="translate(89.179)"><line class="am" x2="7.064" y2="96.675" transform="translate(0.69 0.463)"/><path class="a" d="M529.513,1139.284c.014.24.34.415.721.388s.678-.253.657-.493-.34-.418-.722-.391S529.492,1139.037,529.513,1139.284Z" transform="translate(-529.512 -1138.785)"/></g><g transform="translate(59.232 7.053)"><line class="am" x2="37.03" y2="89.579" transform="translate(0.671 0.505)"/><path class="a" d="M488.316,1149.245c.1.228.457.294.812.147s.564-.451.469-.674-.456-.3-.808-.144S488.222,1149.023,488.316,1149.245Z" transform="translate(-488.293 -1148.493)"/></g><g transform="translate(33.062 23.118)"><line class="am" x2="63.261" y2="73.446" transform="translate(0.61 0.573)"/><path class="a" d="M452.347,1171.62c.164.187.528.132.815-.114s.4-.6.239-.794-.528-.129-.817.124S452.19,1171.434,452.347,1171.62Z" transform="translate(-452.274 -1170.605)"/></g><g transform="translate(13.293 46.599)"><line class="am" x2="83.105" y2="49.898" transform="translate(0.536 0.641)"/><path class="a" d="M425.229,1204.152c.208.129.538-.036.735-.36s.188-.7-.023-.824-.538.033-.733.36S425.018,1204.029,425.229,1204.152Z" transform="translate(-425.064 -1202.922)"/></g><g transform="translate(1.898 75.146)"><line class="am" x2="94.56" y2="21.314" transform="translate(0.476 0.678)"/><path class="a" d="M409.687,1243.567c.239.054.5-.2.585-.58s-.044-.716-.28-.767-.5.2-.586.574S409.447,1243.516,409.687,1243.567Z" transform="translate(-409.38 -1242.213)"/></g><g transform="translate(0 97.138)"><line class="am" y1="9.429" x2="96.472" transform="translate(0.461)"/><path class="a" d="M407.282,1285.889c.24-.024.409-.349.373-.727s-.266-.671-.508-.646-.413.352-.373.731S407.037,1285.92,407.282,1285.889Z" transform="translate(-406.768 -1275.772)"/></g><g transform="translate(7.781 97.138)"><line class="am" y1="39.216" x2="88.643" transform="translate(0.509)"/><path class="a" d="M418.25,1326.853c.222-.1.281-.466.126-.812s-.463-.553-.687-.454-.278.457-.124.812S418.027,1326.946,418.25,1326.853Z" transform="translate(-417.478 -1286.996)"/></g><g transform="translate(24.482 97.138)"><line class="am" y1="65.039" x2="71.871" transform="translate(0.581)"/><path class="a" d="M441.5,1362.305c.182-.165.118-.523-.138-.812s-.611-.373-.791-.211-.123.523.134.806S441.314,1362.474,441.5,1362.305Z" transform="translate(-440.465 -1296.743)"/></g><g transform="translate(48.444 97.138)"><line class="am" y1="84.3" x2="47.843" transform="translate(0.646)"/><path class="a" d="M474.687,1388.677c.121-.208-.049-.538-.384-.722s-.7-.169-.819.039.048.541.384.727S474.567,1388.894,474.687,1388.677Z" transform="translate(-473.445 -1304.022)"/></g><g transform="translate(77.263 97.138)"><line class="am" y1="95.052" x2="18.984" transform="translate(0.687)"/><path class="a" d="M514.474,1403.3c.045-.243-.218-.493-.594-.568s-.717.06-.765.294.217.5.592.575S514.425,1403.537,514.474,1403.3Z" transform="translate(-513.11 -1308.092)"/></g><g transform="translate(96.934 97.138)"><line class="am" x1="11.79" y1="96.212"/><path class="a" d="M556.844,1404.673c-.031-.24-.361-.4-.74-.358s-.666.279-.635.526.361.4.74.355S556.874,1404.919,556.844,1404.673Z" transform="translate(-544.363 -1308.529)"/></g><g transform="translate(96.934 97.138)"><line class="am" x1="41.376" y1="87.656"/><path class="a" d="M597.52,1392.667c-.1-.219-.471-.267-.814-.105s-.54.475-.436.7.469.265.813.105S597.624,1392.886,597.52,1392.667Z" transform="translate(-555.513 -1305.292)"/></g><g transform="translate(96.934 97.138)"><line class="am" x1="66.783" y1="70.256"/><path class="a" d="M632.4,1368.5c-.166-.174-.529-.111-.805.154s-.368.625-.2.8.534.108.809-.15S632.567,1368.678,632.4,1368.5Z" transform="translate(-565.101 -1298.712)"/></g><g transform="translate(96.934 97.138)"><line class="am" x1="85.45" y1="45.758"/><path class="a" d="M657.949,1334.622c-.216-.108-.536.066-.719.4s-.149.71.063.821.538-.06.719-.4S658.165,1334.736,657.949,1334.622Z" transform="translate(-572.158 -1289.465)"/></g><g transform="translate(96.934 97.138)"><line class="am" x1="95.493" y1="16.645"/><path class="a" d="M671.588,1294.458c-.242-.042-.49.226-.558.607s.077.713.32.758.487-.232.555-.607S671.829,1294.5,671.588,1294.458Z" transform="translate(-575.96 -1278.49)"/></g><g transform="translate(96.934 82.303)"><line class="am" x1="95.895" y2="14.146" transform="translate(0 0.688)"/><path class="a" d="M671.922,1252.068c-.245.033-.4.37-.338.748s.3.652.54.623.391-.376.336-.752S672.164,1252.031,671.922,1252.068Z" transform="translate(-576.112 -1252.064)"/></g><g transform="translate(96.934 52.967)"><line class="am" x1="86.62" y2="43.515" transform="translate(0 0.656)"/><path class="a" d="M658.923,1211.721c-.219.111-.259.475-.087.812s.489.532.707.424.258-.475.086-.817S659.14,1211.607,658.923,1211.721Z" transform="translate(-572.6 -1211.688)"/></g><g transform="translate(96.934 10.073)"><line class="am" x1="43.655" y2="86.546" transform="translate(0 0.519)"/><path class="a" d="M599.415,1152.844c-.11.219.075.536.419.7s.708.132.817-.081-.075-.532-.418-.71S599.526,1152.621,599.415,1152.844Z" transform="translate(-556.372 -1152.649)"/></g></g><path class="an" d="M526.29,1266.082a10.319,10.319,0,1,0,12.522-7.493A10.319,10.319,0,0,0,526.29,1266.082Z" transform="translate(-422.248 -1030.752)"/><path class="an" d="M1113.519,1413.6a10.32,10.32,0,1,0,12.523-7.493A10.319,10.319,0,0,0,1113.519,1413.6Z" transform="translate(-582.824 -1071.089)"/><path class="aa" d="M1076.887,1106.242s-4,6.774-16.493,5.2-34.642-18.978-57.555-23.533c-13.541-2.684-7.341-13.129,13.779-10.968C1041.047,1079.436,1089.006,1088.747,1076.887,1106.242Z" transform="translate(-550.683 -981.085)"/><path class="aa" d="M866.85,1345.495a32.1,32.1,0,1,0,38.953-23.307A32.1,32.1,0,0,0,866.85,1345.495Zm5.8,1.455a26.12,26.12,0,1,1,18.967,31.7A26.121,26.121,0,0,1,872.649,1346.95Z" transform="translate(-515.193 -1047.962)"/><path class="an" d="M599.751,1157.56s-13.712,72.063-61.471,80.577l1.58,6.6s46.373,1.579,68.15-85.105Z" transform="translate(-425.612 -1003.211)"/><line class="ao" x1="117.047" y1="41.489" transform="translate(405.773 279.926)"/><line class="ao" x1="82.625" y1="12.069" transform="translate(388.568 339.788)"/><path class="a" d="M617.757,1214.721s35.339,89.2-66.6,127.625c0,0,49.267-5.127,69.936-53.939C630.844,1265.367,631.2,1235.939,617.757,1214.721Z" transform="translate(-429.133 -1018.842)"/><g transform="translate(349.608 241.216)"><path class="x" d="M900.23,1345.759a3.022,3.022,0,0,0,3.674,2.174h0a3.016,3.016,0,0,0,2.171-3.674l-13.392-52.117a3.016,3.016,0,0,0-3.676-2.171h0a3.013,3.013,0,0,0-2.17,3.671Z" transform="translate(-870.506 -1280.609)"/><path class="x" d="M864.735,1296.6a3.547,3.547,0,0,0,4.718,1.7l30.631-14.426a3.548,3.548,0,0,0,1.7-4.717h0a3.549,3.549,0,0,0-4.716-1.7L866.43,1291.89a3.544,3.544,0,0,0-1.7,4.715Z" transform="translate(-864.396 -1277.121)"/></g></g><path class="u" d="M731.958,629.3c1.036-.227,1.911.142,2.937-.1.421-.1,2.188-.376,1.987-.384.477-.04.958-.069,1.437-.069.313.068,1.708.251,2.079.339.863.2,1.726.422,2.565.7.2.069.551.209.8.307a19.573,19.573,0,0,1,2.486,1.4c.188.158.378.319.559.486a20.1,20.1,0,0,1,1.542,1.586c.027.039.054.079.084.124.2.283.392.575.579.868a28.289,28.289,0,0,1,1.6,2.888c.069.152.188.413.283.642a37.843,37.843,0,0,1,1.239,3.832c1.625,6.11,2.439,12.232,5.02,18.055a22.5,22.5,0,0,0,5.932,7.948,38.968,38.968,0,0,1-16.7,22.207c-5.278,3.373-22.193,7.669-24.822,3.525-1.371-2.159-10.368-33.342,7.657-64.179C730.3,629.33,730.906,629.538,731.958,629.3Z" transform="translate(-474.787 -597.032)"/><path class="ap" d="M726.084,585.092s6.243,8.226,11.891,10.836c0,0-.394-8.3-.367-10.648,0,0,20.008,18.6,40.228,21.273,0,0,13.375,2.854,13.858,15.069,0,0,.695-10.017-2.852-14.676,0,0,11.961,5.145,9.4,18.412,0,0,6.667-3.019,10.263,1.662,0,0-4.792-1.565-8.159,3.853,0,0,4.316,20.57-9.248,35.06-8.452,9.032-11.332,10.134-11.332,10.134s-.87,5.615,10.869,4.591c0,0-.982,6.32-8.9,7.388a4.329,4.329,0,0,0,4.2.447s-3.614,7.209-16.5,1.942c0,0-13.231-8.2-9.621-21.5,0,0-.113-.054-.332-.15-.024-.264-.059-.527-.108-.789a5.853,5.853,0,0,0,.26-.96c.5-2.781-2.556-3.438,1.239-12.2,0,0-11.363-9.925-11.969-24.809l.147,6s-13.071-9.815-11.141-22.74a15.143,15.143,0,0,0-6.7,3.293,7.783,7.783,0,0,1,3.394-7.914S722.024,595.218,726.084,585.092Z" transform="translate(-476.747 -585.092)"/><path class="u" d="M770.364,680.03s11.261-5.052,11.147,4.235-12.865,15.81-15.439,12.85Z" transform="translate(-487.902 -610.677)"/><path class="aq" d="M836.574,974.847c-4.863,19.354,7.915,43.943,29.348,45.848,28,2.49,41.74-10.7,45.486-23.271,13.832-46.41-7.256-42.859-28.166-48.114S841.436,955.49,836.574,974.847Z" transform="translate(-506.898 -684.338)"/><path class="aq" d="M855.672,1005.623l-58.663-29.648s-82.049,43.578-114.825,77.084c0,0,4.184,11.064,27.057,14.963s91.8-30.36,131.8-40.316Z" transform="translate(-464.963 -691.978)"/><path class="aq" d="M713.633,1093.267a12.815,12.815,0,0,1-2.094,5.439c-1.717,2.27-24.862,4.868-30.217,1.245,0,0-4.482-12.477.089-18.331S713.633,1093.267,713.633,1093.267Z" transform="translate(-464.189 -720.538)"/><path class="u" d="M862.065,1234.347s12.651,10.081,20.4,16.085c0,0,14.134-1.633,13.24-11.807,0,0-25.932-18.785-29.127-22.224S862.065,1234.347,862.065,1234.347Z" transform="translate(-514.151 -757.62)"/><path class="aq" d="M698.76,1097.952l-16.7,4.48s4.373,8.677,34.249,29.213c24.907,17.128,73.471,47.03,106.095,80.391,0,0,16.376-3.987,20.933-18.587,0,0-40-29.378-56.565-49.642-16.881-20.658-41.4-45.28-55.941-49.874C693.052,1081.981,698.76,1097.952,698.76,1097.952Z" transform="translate(-464.929 -723.02)"/><g transform="translate(338.12 477.173)"><path class="aj" d="M888.939,1241.862s1.713,9.6-10.473,14.365l-3.832-.73s-17.721,19.456-24.474,26.163c0,0-2.338,3.891-1.317,6.942,0,0,4.487,5.875,27.1-6.539l15.144-9.321s16.83-7.715,19.057-16.4C910.144,1256.345,903.921,1241.509,888.939,1241.862Z" transform="translate(-848.585 -1241.856)"/><path class="a" d="M880.31,1263.473a10.461,10.461,0,0,0-1.825,2.111c-.477.9,5.788,2.39,6.516,4.967,0,0,2.441.382,2.053-1.59S882.8,1263.982,880.31,1263.473Z" transform="translate(-856.754 -1247.767)"/><path class="a" d="M875.054,1268.551a10.515,10.515,0,0,0-1.828,2.111c-.475.9,5.788,2.393,6.518,4.967,0,0,2.439.382,2.051-1.591S877.543,1269.062,875.054,1268.551Z" transform="translate(-855.316 -1249.155)"/></g><path class="ar" d="M852.26,981.7s-18.6,21.816-53.928,33.491-58.6,29.2-63.233,33.1-13.877,10.544-12.778,11.317,1.739,6.668,1.739,6.668l-6.572,1.765s3.819,6.2,7.382,8.924,43.679,41.774,66.69,59.245,52.207,40.553,52.207,40.553" transform="translate(-474.616 -693.543)"/><path class="aj" d="M785.9,732.449s-30.142,1.741-36.777,16.2-12.649,28.683-10.885,43.334,50.317,61.8,67.954,93.872c0,0,1.914,6.509.753,26.4a28.655,28.655,0,0,1,20.726-2.544c7.728,1.853,18.321,8.145,30.546,10.376,12.96,2.372,28.049,7.706,35.97-1.512,0,0-34.482-97.123-64.519-136.938C814.1,761.006,813.42,753.074,785.9,732.449Z" transform="translate(-480.205 -625.386)"/><path class="as" d="M749.016,753.517c-6.325,13.243-1.954,28.524,9.77,34.125s26.356-.6,32.684-13.839,1.954-28.518-9.77-34.121S755.345,740.274,749.016,753.517Z" transform="translate(-482.445 -626.8)"/><path class="as" d="M751.566,759.807l-9.6.645a474.9,474.9,0,0,0-20.188,52.5s10.234,13.668,31.386,17.224c0,0,27.327-42,29.949-47.213S751.566,759.807,751.566,759.807Z" transform="translate(-475.789 -632.867)"/><path class="u" d="M716.367,680.128s-6.9-2.079-5.932-3.5a71.978,71.978,0,0,0,7.747-15.75Z" transform="translate(-472.662 -605.815)"/><path class="ap" d="M770.5,674.357s-3.309,3.417-10.48,7.094c0,0,4.355-11.287.955-19.614C758.094,654.8,770.5,674.357,770.5,674.357Z" transform="translate(-486.246 -605.66)"/></g></g></svg>