<svg xmlns="http://www.w3.org/2000/svg" xmlns:xlink="http://www.w3.org/1999/xlink" width="1920" height="2380" viewBox="0 0 1920 2380"><defs><style>.a{clip-path:url(#d);}.af,.ai,.b,.c,.p{fill:#e0444f;}.b,.p{opacity:0.68;}.c{opacity:0.37;}.d{fill:#f7e8aa;}.ag,.d,.e,.g,.h,.q,.r{mix-blend-mode:overlay;}.ag,.d,.e,.g,.h,.o,.p,.q,.r,.t{isolation:isolate;}.e,.g,.i{fill:#ffefdf;}.e,.t{opacity:0.36;}.f{fill:#fefefe;opacity:0.1;}.j,.m,.o{fill:#f88500;}.j{opacity:0.31;}.k{fill:#ed954c;}.l{opacity:0.43;}.n,.t{fill:#8d393b;}.o{opacity:0.55;}.o,.p,.t{mix-blend-mode:multiply;}.ag,.q,.s{fill:#f4ecb8;}.q,.r{opacity:0.42;}.u{fill:#f39f00;}.v{opacity:0.26;}.w{fill:#fcb0b1;}.x{fill:#fff;}.y{fill:#003f59;}.z{fill:url(#a);}.aa{fill:#ffc5c5;}.ab{fill:#774206;}.ac{fill:url(#b);}.ad{fill:none;stroke:#003f59;stroke-miterlimit:10;stroke-width:7px;}.ae{fill:#ffe000;}.ah{fill:#f4e7ae;}.ai{opacity:0.33;}</style><linearGradient id="a" x1="-35.078" y1="0.5" x2="-34.078" y2="0.5" gradientUnits="objectBoundingBox"><stop offset="0" stop-color="#db4b00"/><stop offset="1" stop-color="#a23b01"/></linearGradient><linearGradient id="b" x1="-29.144" y1="0.5" x2="-28.144" y2="0.5" gradientUnits="objectBoundingBox"><stop offset="0" stop-color="#547a95"/><stop offset="1" stop-color="#29506e"/></linearGradient><clipPath id="d"><rect width="1920" height="2380"/></clipPath></defs><g id="c" class="a"><path class="b" d="M-117.966,211.367s1.474-11.1-2.657-19.978c12.913-1.014,24.9-13.32,24.9-13.32-12.771-9.454-22.332-9.983-29.121-7.472,4.919-9.976.956-23.6.956-23.6-12.065,5.572-16.818,12.08-18.2,17.867a42.477,42.477,0,0,0-12.717-7.169c-2.7,13.12,2.15,19.276,7.3,22.159-3.3-.054-12.905-.353-17.045-1.977,0,0-.952,3.92.8,4.727,1.3.591,10.993.491,15.993.4-5.81,3.3-11.085,9.849-7.991,22.843,0,0,10.613-3.579,16.91-9.937C-136.761,201.576-131.144,207.554-117.966,211.367Zm-18.358-31.456-.035-.061.1-.031Z" transform="translate(1727.855 757.428)"/><path class="b" d="M-117.966,211.367s1.474-11.1-2.657-19.978c12.913-1.014,24.9-13.32,24.9-13.32-12.771-9.454-22.332-9.983-29.121-7.472,4.919-9.976.956-23.6.956-23.6-12.065,5.572-16.818,12.08-18.2,17.867a42.477,42.477,0,0,0-12.717-7.169c-2.7,13.12,2.15,19.276,7.3,22.159-3.3-.054-12.905-.353-17.045-1.977,0,0-.952,3.92.8,4.727,1.3.591,10.993.491,15.993.4-5.81,3.3-11.085,9.849-7.991,22.843,0,0,10.613-3.579,16.91-9.937C-136.761,201.576-131.144,207.554-117.966,211.367Zm-18.358-31.456-.035-.061.1-.031Z" transform="matrix(0.996, -0.087, 0.087, 0.996, 347.856, 782.44)"/><path class="c" d="M-139.1,231.213s10.993,2.139,20.105-1.448c.23,12.952,11.8,25.654,11.8,25.654,10.2-12.176,11.312-21.687,9.212-28.614,9.661,5.51,23.5,2.377,23.5,2.377-4.834-12.379-11.043-17.517-16.738-19.241A42.515,42.515,0,0,0-83.3,197.676c-12.932-3.49-19.368.983-22.559,5.952.253-3.291,1.129-12.863,3-16.9,0,0-3.855-1.187-4.765.515-.672,1.259-1.152,10.943-1.359,15.939-2.945-6-9.162-11.658-22.321-9.354,0,0,2.934,10.809,8.9,17.479C-128.2,213.043-134.5,218.288-139.1,231.213Zm32.508-16.43.061-.031.027.1Z" transform="translate(1809.859 930.125)"/><path class="c" d="M-202.739,254.873s21.81,4.239,39.88-2.876c.461,25.7,23.4,50.9,23.4,50.9,20.243-24.16,22.44-43.025,18.281-56.771,19.164,10.936,46.623,4.719,46.623,4.719-9.588-24.563-21.91-34.75-33.206-38.179,10.041-10.183,15.72-24.329,15.72-24.329-25.661-6.919-38.425,1.955-44.756,11.811.5-6.528,2.242-25.523,5.955-33.521,0,0-7.649-2.354-9.454,1.021-1.332,2.492-2.289,21.71-2.7,31.617-5.84-11.9-18.174-23.131-44.28-18.558,0,0,5.821,21.445,17.659,34.677C-181.106,218.826-193.608,229.231-202.739,254.873Zm64.481-32.6c.046-.023.088-.038.131-.061.015.069.035.134.05.2Z" transform="translate(1698.141 883.918)"/><path class="c" d="M-202.739,254.873s21.81,4.239,39.88-2.876c.461,25.7,23.4,50.9,23.4,50.9,20.243-24.16,22.44-43.025,18.281-56.771,19.164,10.936,46.623,4.719,46.623,4.719-9.588-24.563-21.91-34.75-33.206-38.179,10.041-10.183,15.72-24.329,15.72-24.329-25.661-6.919-38.425,1.955-44.756,11.811.5-6.528,2.242-25.523,5.955-33.521,0,0-7.649-2.354-9.454,1.021-1.332,2.492-2.289,21.71-2.7,31.617-5.84-11.9-18.174-23.131-44.28-18.558,0,0,5.821,21.445,17.659,34.677C-181.106,218.826-193.608,229.231-202.739,254.873Zm64.481-32.6c.046-.023.088-.038.131-.061.015.069.035.134.05.2Z" transform="matrix(0.996, -0.087, 0.087, 0.996, 164.317, -113.494)"/><rect class="d" width="1920" height="407" transform="translate(-137 1886)"/><path class="e" d="M238.483,865.053a1237.821,1237.821,0,0,0,19.894-150.838c.038-.6.077-1.144.111-1.643,0-.929.008-2.062.019-3.452.065-7.161.211-14.311.18-21.472q-.115-23.407-1.67-46.769-1.572-23.643-4.685-47.152c-.975-7.315-2.377-14.587-3.271-21.91-.334-2.7-.538-4.581-.649-5.867C234.774,503.288,220.367,434.917,228.627,371l-454.019,4.934s-27,99.35,22.09,191.06,12.276,298.059,12.276,298.059Z" transform="translate(1238.773 1514.559)"/><path class="f" d="M382.379,638.809a322.57,322.57,0,0,0,2.7-41.009c0-176.887-143.393-320.28-320.276-320.28s-320.28,143.393-320.28,320.28a322.576,322.576,0,0,0,2.7,41.009Z" transform="translate(1174.385 1249.096)"/><path class="f" d="M575.252,731.76a434.675,434.675,0,0,0,3.644-55.278c0-238.416-193.275-431.695-431.691-431.695S-284.49,438.067-284.49,676.483a435.383,435.383,0,0,0,3.644,55.278Z" transform="translate(1091.986 1156.145)"/><path class="g" d="M228.77,564.974a233.573,233.573,0,0,0,1.954-29.678c0-128.007-103.77-231.777-231.777-231.777S-232.829,407.29-232.829,535.3a233.574,233.574,0,0,0,1.958,29.678Z" transform="translate(1238.691 1322.93)"/><g transform="translate(1029.014 1906.678)"><g class="h" transform="translate(0 6.704)"><path class="i" d="M-218.234,388.306h47.306c11.416,0,11.435-10.06,0-10.06h-47.306c-11.412,0-11.431,10.06,0,10.06Z" transform="translate(226.8 -378.246)"/></g><g class="h" transform="translate(66.226 28.165)"><path class="i" d="M-200.984,393.9h18.922c11.416,0,11.435-10.06,0-10.06h-18.922c-11.416,0-11.435,10.06,0,10.06Z" transform="translate(209.553 -383.835)"/></g><g class="h" transform="translate(96.975 2.684)"><path class="i" d="M-192.976,387.255h26.018c11.416,0,11.431-10.056,0-10.056h-26.018c-11.416,0-11.435,10.056,0,10.056Z" transform="translate(201.545 -377.199)"/></g><g class="h" transform="translate(111.166 63.038)"><path class="i" d="M-189.28,402.977h21.288c11.416,0,11.431-10.06,0-10.06H-189.28c-11.416,0-11.435,10.06,0,10.06Z" transform="translate(197.849 -392.917)"/></g><g class="h" transform="translate(144.281 33.533)"><path class="i" d="M-180.656,395.289h44.941c11.412,0,11.431-10.056,0-10.056h-44.941c-11.416,0-11.435,10.056,0,10.056Z" transform="translate(189.225 -385.233)"/></g><g class="h" transform="translate(191.587 1.34)"><path class="i" d="M-168.336,386.909h18.922c11.412,0,11.431-10.06,0-10.06h-18.922c-11.416,0-11.435,10.06,0,10.06Z" transform="translate(176.905 -376.849)"/></g><g class="h" transform="translate(191.278 92.546)"><path class="i" d="M-168.108,410.662h14.192c4.638,0,9.081-2.315,8.87-5.03s-3.9-5.03-8.87-5.03h-14.192c-4.642,0-9.085,2.312-8.87,5.03s3.9,5.03,8.87,5.03Z" transform="translate(176.985 -400.602)"/></g><g class="h" transform="translate(210.509 59.014)"><path class="i" d="M-163.408,401.929h37.841c11.416,0,11.435-10.06,0-10.06h-37.841c-11.416,0-11.435,10.06,0,10.06Z" transform="translate(171.977 -391.869)"/></g><g class="h" transform="translate(264.91)"><path class="i" d="M-149.243,386.56h40.21c11.416,0,11.435-10.06,0-10.06h-40.21c-11.412,0-11.431,10.06,0,10.06Z" transform="translate(157.809 -376.5)"/></g><g class="h" transform="translate(378.442 2.684)"><path class="i" d="M-119.673,387.255h16.557c11.416,0,11.435-10.056,0-10.056h-16.557c-11.416,0-11.435,10.056,0,10.056Z" transform="translate(128.242 -377.199)"/></g><g class="h" transform="translate(276.737 40.237)"><path class="i" d="M-146.163,397.039h26.018c11.416,0,11.435-10.06,0-10.06h-26.018c-11.412,0-11.431,10.06,0,10.06Z" transform="translate(154.729 -386.979)"/></g><g class="h" transform="translate(335.867 73.77)"><path class="i" d="M-130.761,405.768H-114.2c11.416,0,11.435-10.056,0-10.056h-16.557c-11.416,0-11.435,10.056,0,10.056Z" transform="translate(139.33 -395.712)"/></g><g class="h" transform="translate(262.545 101.935)"><path class="i" d="M-149.859,413.107h18.922c11.416,0,11.435-10.06,0-10.06h-18.922c-11.412,0-11.431,10.06,0,10.06Z" transform="translate(158.425 -403.047)"/></g></g><g transform="translate(1475.5 1720.031)"><path class="j" d="M-110.521,487.993s57.09-80.336,162.254-80.336,153.242-40.172,177.279-52.221,105.164-72.307,201.316,36.151l72.111,88.373Z" transform="translate(110.521 -327.892)"/><path class="k" d="M-110.521,425.2s57.09-37.734,162.254-37.734S204.975,368.6,229.012,362.938s105.164-33.959,201.316,16.983l72.111,41.508Z" transform="translate(110.521 -265.1)"/></g><g class="l" transform="translate(1578.051 1650.344)"><path class="m" d="M-42.577,413.97c-10.237-.553-21.019-.553-29.962-4.266s-14.772-12.813-8.916-19.018c3.924-4.166,11.826-5.84,14.8-10.414,6.251-9.619-14.683-20.658-7.9-30.077,2.146-2.98,6.566-4.681,9.315-7.376,8.256-8.1-1.279-21.38,7.541-29.148,4.412-3.886,12.468-4.853,18.907-3.06a24.8,24.8,0,0,1,14.23,10.49c4.389,6.889,5.211,15.294,12.552,20.65,3.621,2.642,8.467,4.216,12.138,6.823,6.827,4.85,8.375,13.236,3.552,19.253-1.463,1.824-3.467,3.5-4.032,5.575-1.6,5.875,8.309,9.538,12.456,14.695,5.368,6.677-.165,15.77-9.035,19.967s-19.913,4.773-30.438,5.237l-20.263.887" transform="translate(83.813 -309.743)"/><path class="n" d="M-60.216,444.376H-38.28l-8.24-57.17L-39,359.379s-5.764,9.553-9.242,15.843l-3.51-24.329,5.529-17.928L-53.209,342l-8.951-26.36,1.125,27.489c-.077.177-.157.334-.227.534,0,0,.449,8.183.983,19.879l-16.054-17.425,16.615,30.572C-58.6,404.608-57.69,440.656-60.216,444.376Z" transform="translate(105.058 -292.996)"/></g><g transform="translate(-382.24 1753.662)"><path class="j" d="M-479.495,396.509S-202.52,288.422-6.614,362.734s236.438,91.2,310.75,74.307S591.24,383,739.858,464.066H-594.335Z" transform="translate(594.335 -336.65)"/><path class="k" d="M-479.495,381.062s276.975-45.5,472.881-14.219,236.438,38.39,310.75,31.283,287.1-22.751,435.723,11.373H-594.335Z" transform="translate(594.335 -282.084)"/></g><g transform="translate(1165.678 2035.605)"><rect class="n" width="14.034" height="66.292" transform="translate(1.518 72.487) rotate(-1.149)"/><rect class="n" width="14.034" height="66.292" transform="translate(269.283 67.121) rotate(-1.148)"/><path class="n" d="M48.892,410.085l-210.2,4.212c-15.543.311-28.069,10.118-27.835,21.795l.634,31.59c.234,11.673,13.144,20.973,28.683,20.662l210.2-4.216c15.543-.311,28.069-10.118,27.835-21.791l-.634-31.59C77.341,419.07,64.436,409.774,48.892,410.085Zm11.6,56.188c.05,2.415-2.542,4.442-5.756,4.508l-220.995,4.427c-3.218.065-5.886-1.858-5.936-4.274h0c-.046-2.415,2.546-4.443,5.76-4.508l220.995-4.431c3.214-.061,5.886,1.862,5.932,4.278Zm-6.144-14.818-220.995,4.431c-3.214.065-5.886-1.858-5.932-4.274s2.542-4.447,5.756-4.512l220.995-4.427c3.214-.065,5.886,1.858,5.932,4.274S57.559,451.393,54.345,451.454Zm-.388-19.322-220.995,4.427c-3.214.065-5.886-1.859-5.932-4.274s2.542-4.443,5.756-4.508L53.78,423.347c3.214-.061,5.886,1.858,5.932,4.278S57.171,432.067,53.957,432.133Z" transform="translate(197.073 -410.077)"/><rect class="n" width="284.191" height="26.772" rx="3.339" transform="translate(0 64.867) rotate(-1.148)"/></g><path class="m" d="M-594,364.669S-501.84,253.35-87.1,483.41s1092.8,341.379,1448.285,230.06,526.649-66.793,526.649-66.793v311.7H-594Z" transform="translate(213.041 1420.119)"/><path class="o" d="M-590.939,442.092s98.018-47.337,509.7,50.493S1003.5,637.755,1356.364,590.419s522.767-28.4,522.767-28.4V694.565H-584.4Z" transform="translate(243.738 1683.93)"/><g transform="translate(415.863 1580.145)"><path class="b" d="M-327.223,495c-14.714-1.083-30.211-1.087-43.059-8.332s-21.226-25.024-12.813-37.142c5.641-8.129,17-11.4,21.269-20.332,8.981-18.784-21.1-40.341-11.35-58.737,3.083-5.817,9.438-9.135,13.385-14.4,11.865-15.812-1.839-41.746,10.836-56.913,6.343-7.6,17.92-9.484,27.174-5.978s16.25,11.531,20.451,20.489c6.309,13.451,7.492,29.862,18.043,40.321,5.2,5.157,12.164,8.236,17.436,13.324,9.814,9.473,12.038,25.849,5.107,37.6-2.1,3.563-4.984,6.831-5.794,10.886-2.3,11.473,11.942,18.627,17.9,28.695,7.714,13.036-.238,30.8-12.982,38.989s-28.622,9.323-43.743,10.225l-29.121,1.739" transform="translate(386.483 -291.461)"/><path class="n" d="M-352.571,554.364h31.528l-11.842-111.638,10.805-54.333s-8.286,18.654-13.286,30.937l-5.042-47.513,7.944-35.007-10.037,17.64-12.859-51.472,1.617,53.68c-.111.346-.23.653-.33,1.044,0,0,.649,15.974,1.413,38.816l-23.073-34.032,23.88,59.7C-350.249,476.7-348.939,547.1-352.571,554.364Z" transform="translate(417.012 -258.757)"/></g><g transform="translate(296.137 1650.375)"><path class="m" d="M-358.4,459.545c-14.714-.795-30.208-.8-43.059-6.132S-422.689,435-414.276,426.077c5.644-5.982,17-8.394,21.269-14.964,8.985-13.823-21.1-29.689-11.35-43.228,3.083-4.281,9.438-6.723,13.389-10.6,11.861-11.635-1.839-30.722,10.832-41.884,6.347-5.591,17.92-6.977,27.174-4.4a35.623,35.623,0,0,1,20.451,15.079c6.309,9.9,7.492,21.979,18.043,29.674,5.2,3.8,12.168,6.063,17.44,9.807,9.811,6.973,12.038,19.022,5.1,27.669-2.1,2.623-4.98,5.026-5.794,8.014-2.3,8.44,11.942,13.708,17.9,21.119,7.718,9.592-.238,22.666-12.982,28.691s-28.618,6.862-43.743,7.53q-14.555.634-29.117,1.279" transform="translate(417.664 -309.751)"/><path class="n" d="M-383.752,503.234h31.525l-11.842-82.156,10.809-39.991s-8.29,13.731-13.289,22.77l-5.038-34.965,7.941-25.765-10.037,12.982-12.859-37.883,1.616,39.507c-.107.253-.23.48-.326.768,0,0,.649,11.754,1.413,28.568l-23.073-25.047,23.88,43.939C-381.432,446.083-380.123,497.889-383.752,503.234Z" transform="translate(448.196 -285.684)"/></g><path class="p" d="M-277.919,508.471s-9.077-13.6-24.333-20.439c18.439-10.932,23.987-33.859,23.987-33.859-28.871-.937-43.823,5.717-51.5,13.689-2.734-14.944-22.57-27.255-22.57-27.255C-364.863,456.02-365.4,466.94-361.6,474.5c-13.009-1.213-26.471,1.586-26.471,1.586,9.277,16.8,22.854,20.036,33.556,19.372-5.026,2.438-19.821,9.392-27.715,10.705,0,0,2.553,5.126,6.017,4.7,2.557-.315,17.076-7.787,24.513-11.684-5.4,8.117-6.7,19.479,11.193,31.74,0,0,12.356-12.076,15.382-24C-316.213,511.724-301.668,514.181-277.919,508.471Zm-59.682-21.43-.115-.042.123-.115Z" transform="translate(797.84 1712.227)"/><path class="p" d="M-403.046,516.25s10.686-1.01,17.928-5.5c4.112,8.77,18.5,14.829,18.5,14.829,5.66-10.586,3.809-17.31-.192-21.56,10.486,1.586,22.186-3.652,22.186-3.652-8.14-7.349-15.363-9.453-21.084-9.354a24.322,24.322,0,0,0,3.548-10.133c-12.867.526-17.4,5.019-18.819,9.119-.76-2.3-2.841-9.02-2.342-12.187,0,0-3.882.058-4.2,1.421-.234,1.006,2.238,7.714,3.555,11.162-4.5-3.425-11.88-5.886-23.211-1.363,0,0,5.936,6.708,13.393,9.911C-398.554,501.425-402.732,506.413-403.046,516.25Zm24.751-18.489.05-.035.054.065Z" transform="translate(743.58 1817.887)"/><path class="p" d="M-88.372,486.358s10.686-1.01,17.932-5.5c4.109,8.77,18.5,14.829,18.5,14.829,5.66-10.582,3.809-17.31-.192-21.56,10.486,1.586,22.19-3.652,22.19-3.652-8.144-7.349-15.367-9.454-21.088-9.354a24.322,24.322,0,0,0,3.548-10.133c-12.867.526-17.4,5.019-18.819,9.119-.76-2.3-2.841-9.016-2.342-12.184,0,0-3.882.054-4.2,1.417-.234,1.01,2.239,7.714,3.556,11.162-4.5-3.425-11.88-5.886-23.211-1.363,0,0,5.936,6.708,13.393,9.911C-83.88,471.533-88.058,476.521-88.372,486.358Zm24.751-18.485.05-.038.054.065Z" transform="translate(1637.184 1733.012)"/><g transform="translate(1665.742 1089.784)"><path class="m" d="M28.492-109.892s-71.667,4.479-83.611,213.507c0,0,11.944,58.231-53.75,120.94S-186.511,493.307,88.215,508.238,318.147,344,310.683,305.18,261.412,190.214,276.341,78.235,207.661-145.726,28.492-109.892Z" transform="translate(150.027 116.698)"/><g transform="translate(0 0.004)"><path class="q" d="M-67.424,236.131c65.695-62.71,53.75-120.94,53.75-120.94C-1.729-93.838,69.938-98.316,69.938-98.316c39.428-7.886,74.224-8.606,104.365-3.751C135.98-117.376,87.013-121.8,27.486-109.894c0,0-71.667,4.479-83.611,213.509,0,0,11.944,58.229-53.75,120.938C-169.718,281.675-184.92,457.7,20.479,499.906-139.973,443.653-122.8,288.984-67.424,236.131Z" transform="translate(149.104 116.696)"/><path class="m" d="M-103.424,71.619s11.815-15.053-.162-28.649C-103.586,42.97-116.275,59.351-103.424,71.619Z" transform="translate(186.222 265.128)"/><path class="m" d="M-112.04,80.238s11.815-15.055-.164-28.651C-112.2,51.587-124.894,67.97-112.04,80.238Z" transform="translate(178.21 273.139)"/><path class="q" d="M-79.883,195.544s18.916-2.891,19.486-21C-60.4,174.542-80.859,177.8-79.883,195.544Z" transform="translate(213.424 387.443)"/><path class="q" d="M-83.106,91.135s-14.636-12.328-28.64-.828C-111.746,90.307-95.813,103.556-83.106,91.135Z" transform="translate(183.834 304.574)"/><path class="q" d="M-49.577,203.173s-8.328-17.228-25.807-12.444C-75.384,190.728-66.247,209.326-49.577,203.173Z" transform="translate(217.638 401.71)"/><g class="r" transform="translate(86.946 367.21)"><path class="s" d="M-98.618,73.608a5.44,5.44,0,0,0-5.428,5.555c.01,2.81,2.427,5.858,5.478,5.509a5.264,5.264,0,0,0,3.412-1.412,4.9,4.9,0,0,0,1.412-3.412c-.106-2.368-2.138-5.133-4.824-4.824q4.128.909,4.17,4.139-.113,3.222-4.22,4.093a4.858,4.858,0,0,0,4.824-4.824,4.928,4.928,0,0,0-4.824-4.824Z" transform="translate(104.046 -73.604)"/></g><g class="r" transform="translate(54.25 412.553)"><path class="s" d="M-104.129,97.1a151.607,151.607,0,0,0-7.072,44.364,127.848,127.848,0,0,0,27.854,81.228A152.156,152.156,0,0,0-50.56,253.4c-14.835-4.542-28.464-13.386-39.61-24.682a107.679,107.679,0,0,1-25.076-40.478,107.891,107.891,0,0,1-5.009-47.35C-118.377,125.138-113.046,109.8-104.129,97.1Z" transform="translate(120.99 -97.102)"/></g><g class="r" transform="translate(156.304 37.111)"><path class="s" d="M-66.932,33.719a148.825,148.825,0,0,1,1.615-47.284A120.346,120.346,0,0,1-47.028-58.2,94.252,94.252,0,0,1-10.143-89.95a77.912,77.912,0,0,1,23.306-6.976,61.037,61.037,0,0,1,23.8,1.438A88.445,88.445,0,0,0-5.814-81.942,107.118,107.118,0,0,0-37.48-51.662c-8.355,12.17-14.49,25.905-19.048,40.341C-61.137,3.13-64.119,18.255-66.932,33.719Z" transform="translate(68.103 97.464)"/></g><g class="r" transform="translate(74.929 433.86)"><path class="s" d="M-95.232,108.144c-1.27,6.752-2.337,12.853-2.91,18.928a127.838,127.838,0,0,0-.523,17.9,129.84,129.84,0,0,0,1.978,17.793c1.061,6.007,2.611,12,4.409,18.638a38.923,38.923,0,0,1-13.05-15.771,51.979,51.979,0,0,1-4.9-20.2,52.225,52.225,0,0,1,3.277-20.52A39.091,39.091,0,0,1-95.232,108.144Z" transform="translate(110.274 -108.144)"/></g><g class="r" transform="translate(100.618 248.586)"><path class="s" d="M-96.961,122.169c6.817-8.386,13.189-16.535,18.882-25.076a221.118,221.118,0,0,0,15.227-26.4A223.29,223.29,0,0,0-51.419,42.438c3.228-9.743,5.739-19.775,8.17-30.309a87.026,87.026,0,0,1,.687,32.414,109.983,109.983,0,0,1-9.889,31.224A110.538,110.538,0,0,1-71,102.76,87.419,87.419,0,0,1-96.961,122.169Z" transform="translate(96.961 -12.129)"/></g><path class="m" d="M-113.021,78.7a268.635,268.635,0,0,0-10.534,37.441,217.755,217.755,0,0,0-4.162,37.767,219.012,219.012,0,0,0,2.474,37.912,270.934,270.934,0,0,0,8.822,37.881c-8.151-10.565-13.924-22.957-17.708-35.9a133.45,133.45,0,0,1-5.158-40.148,133.938,133.938,0,0,1,6.976-39.872C-127.945,101.011-121.625,88.893-113.021,78.7Z" transform="translate(158.196 298.343)"/><path class="m" d="M-99.518,126.1c6.964-12.946,10.524-26.589,12.577-40.515,2.078-13.932,2.723-28.14,3.724-42.57q1.5-21.671,4.253-43.255A421.929,421.929,0,0,1-71.4-43.257,421.449,421.449,0,0,1-69.881.4q-.243,21.758-1.791,43.425c-1.019,14.438-2.476,29.215-6.395,43.65a101.738,101.738,0,0,1-8.1,20.9A66.6,66.6,0,0,1-99.518,126.1Z" transform="translate(195.202 184.967)"/></g><g transform="translate(157.861 211.943)"><path class="n" d="M62.758,59.827,1.639,270.373,1.082,229.09-15.005-5.123h0L-35.66,380.256l-13.156-72.7,2.772-33.628-3.7-11.209-4.62,29.144L-67.3,242.541-36.8,439.824l.512-4.475-4.8,418.971H9.522L2.555,338.2,36.933,190.007l14.691-21.993-14.084,2.9Z" transform="translate(67.296 5.123)"/><path class="t" d="M30.956,60.154-30.163,270.7l-.557-41.283L-47-4.466v1.058l4.554,858.056H-22.28l-6.967-516.124L5.131,190.334l14.69-21.993-14.084,2.9Z" transform="translate(99.098 4.796)"/><g class="h" transform="translate(25.425 9.292)"><path class="i" d="M-32.406,235.423l-.245-4.99c-.042-.832-.077-1.663-.127-2.493l-.185-2.491c-.245-3.334-.5-6.64-.764-9.853-2.163-25.905-3.273-52.309-4.266-78.662-.946-26.382,1.941-48.539,1.48-74.989-.359-18.719,1.764-34.254,1.586-52.983-.079.012.081-.01,0,0-.025,45.175-5.59,82.953-4.242,128.137.2,6.617.4,13.234.677,19.843.253,6.613.523,13.222.874,19.817l.5,9.9.608,9.878c.218,3.288.382,6.592.643,9.868l.778,9.833c.531,6.6,1.007,12.878,1.264,19.474q.394,9.806.507,19.7.246,19.755-.058,39.546c-.65,52.751-2.742,105.293-4.977,157.719q-1.685,39.33-3.682,78.56-1.9,39.263-4.077,78.428c1.762-25.971,3.3-52.046,4.826-78.129q2.2-39.159,4.11-78.444,1.928-39.278,3.3-78.758c.909-26.315,1.708-52.677,2.036-79.158q.255-19.853-.01-39.8Q-31.99,245.409-32.406,235.423Z" transform="translate(61.561 -8.96)"/><path class="i" d="M-34.092,223.85q-.159,19.419-.735,38.747-.55,19.332-1.414,38.577c-.608,12.819-1.248,25.63-2.146,38.344-.452,6.354-.919,12.7-1.522,18.98-.154,1.567-.293,3.14-.461,4.7l-.533,4.654c-.307,3.13-.83,6.113-1.287,9.092.672-6.221,1.2-12.469,1.54-18.858.2-3.172.409-6.337.562-9.534s.372-6.356.513-9.557l.479-9.575.448-9.59.88-19.186,1.75-38.4Q-35.143,243.026-34.092,223.85Z" transform="translate(65.21 212.051)"/><path class="i" d="M-36.59,519.3q-.321-33.44-.041-66.851.246-33.408.99-66.748c.527-22.218,1.218-44.413,2.235-66.509l.849-16.541c.326-5.5.7-10.976,1.059-16.458.168-2.744.409-5.459.644-8.172l.7-8.137c.2-2.729.536-5.38.839-8.043l.942-7.956L-29.087,262c-.241,2.7-.521,5.364-.666,8.122l-.527,8.2c-.178,2.729-.361,5.453-.473,8.216-.262,5.505-.563,10.989-.8,16.5l-.656,16.552c-.355,11.061-.782,22.1-1.044,33.19-.334,11.068-.587,22.16-.847,33.248q-.761,33.275-1.331,66.6Z" transform="translate(70.262 239.974)"/><path class="i" d="M-38.493,332.266c-.525,12.394-1.26,24.549-1.75,36.781-.27,6.1-.48,12.217-.583,18.341s-.123,12.259.178,18.5a141.189,141.189,0,0,1-1.38-18.565c-.091-3.153-.037-6.285-.023-9.424.071-3.124.145-6.252.278-9.353s.311-6.188.5-9.266c.228-3.058.426-6.129.714-9.15C-40.021,344.068-39.377,338.069-38.493,332.266Z" transform="translate(65.313 312.839)"/><path class="i" d="M-30.034,309.076c-.558,14.125-.976,28.26-1.345,42.388-.162,7.072-.332,14.137-.419,21.213-.1,7.072-.191,14.146-.179,21.224-.035,14.148.166,28.312.772,42.392.326,7.03.747,14.044,1.38,20.966a203.262,203.262,0,0,0,2.7,20.261A167.093,167.093,0,0,1-30.555,457.7c-.818-6.92-1.407-13.986-1.843-21.089-.859-14.22-1.125-28.559-1.117-42.828q.061-21.407.944-42.641C-32,337-31.18,322.944-30.034,309.076Z" transform="translate(73.275 291.28)"/><path class="i" d="M-34.676,152.556q.576,20.357.807,40.716.261,20.36.278,40.71c0,13.565-.039,27.131-.22,40.686s-.436,27.125-1.119,40.563c.021-6.794.058-13.556,0-20.342l-.077-20.333q-.1-20.337-.12-40.667C-35.141,206.777-35.11,179.666-34.676,152.556Z" transform="translate(71.771 145.773)"/><path class="i" d="M-44.7,252.116c.054-9.116.228-18.183.438-27.237s.463-18.094.724-27.131c.293-9.029.573-18.058.922-27.075s.691-18.038,1.173-27.048c.158,9.121.141,18.229.025,27.314s-.318,18.154-.587,27.206c-.291,9.044-.623,18.079-1.067,27.079S-44.012,243.205-44.7,252.116Z" transform="translate(62.876 137.471)"/><path class="i" d="M-45.8,208.829q.208-16.516.459-32.962c.156-10.97.345-21.928.444-32.893.125-10.96.216-21.923.2-32.889-.041-10.966,1.563-21.212,1.2-32.228.957,10.841-.241,21.187,0,32.22.266,11.047.241,22.089.141,33.107q-.194,16.525-.787,32.954T-45.8,208.829Z" transform="translate(61.854 74.273)"/><path class="i" d="M-41.751,112.5c.291,2.947.43,5.872.515,8.791s.118,5.833.089,8.737-.112,5.8-.251,8.695-.336,5.775-.683,8.639c-.293-2.945-.434-5.872-.519-8.791s-.118-5.831-.085-8.736.112-5.8.253-8.695S-42.1,115.37-41.751,112.5Z" transform="translate(64.739 108.539)"/><path class="i" d="M-31.143,192.6c.359-5.312.922-10.474,1.565-15.555s1.4-10.065,2.217-14.982c.837-4.892,1.758-9.7,2.788-14.353s2.179-9.16,3.5-13.336c-.766,5.007-1.6,9.845-2.418,14.712l-2.455,14.567c-.837,4.836-1.652,9.7-2.514,14.519C-29.308,183.012-30.178,187.83-31.143,192.6Z" transform="translate(75.48 128.873)"/><path class="i" d="M-27.923,152.172c.39-3.39.888-6.6,1.424-9.762s1.1-6.267,1.712-9.322,1.247-6.065,1.922-9.037,1.374-5.92,2.2-8.764c-.23,3.491-.627,6.835-1.1,10.086s-1.017,6.431-1.634,9.507-1.291,6.078-2.03,8.982S-26.976,149.588-27.923,152.172Z" transform="translate(78.474 111.126)"/><path class="i" d="M-54.12,182.907c1.275,6.007,2.412,12.147,3.5,18.33s2.107,12.431,3.1,18.7c.969,6.293,1.918,12.6,2.784,18.99s1.7,12.8,2.383,19.36c-1.277-6.007-2.414-12.145-3.5-18.33s-2.105-12.429-3.1-18.7c-.967-6.294-1.916-12.6-2.783-18.992S-53.437,189.462-54.12,182.907Z" transform="translate(54.12 173.988)"/></g></g><g transform="translate(75.008 915.009)"><path class="n" d="M-53.174,372.227c-7.834-3.28-6.831,10.445-5.818,17.621-1.237-2.958-2.489-5.723-3.7-8.251-.812-5.608-4.483-26.868-13.052-23.81-8.1,2.894,6.069,18.033,11.36,23.32,1.578,3.257,3.244,6.943,4.863,10.945-3.927-5.088-16.958-21.054-20.724-14.021-4.05,7.566,17.361,14.208,21.253,15.345,1.553,3.933,3.047,8.151,4.359,12.556-5.021-5.934-19.534-22.008-23.152-14.1-3.857,8.431,18.214,14.53,23.673,15.894a116.385,116.385,0,0,1,3.265,15.163c-4.095-5.8-17.786-24.115-22.455-16.632-4.909,7.861,17.6,16.234,22.642,17.992a83.635,83.635,0,0,1,.679,13.762c-3.506-6.354-14.721-25.288-20.508-18.864-6.076,6.748,15.194,17.749,20.441,20.317-.056.959-.127,1.916-.224,2.869a.946.946,0,0,0,.583.9l.077.029a.563.563,0,0,0,.8-.448q.162-1.621.247-3.253c4.214-1.235,24.75-7.8,16.269-16.072-7.589-7.4-13.98,7.653-16.186,13.816a85.9,85.9,0,0,0-.745-13.012c2.885-2.009,20.5-14.812,10.364-21.147-8.917-5.573-10.445,11.89-10.7,18.762a119.326,119.326,0,0,0-3.1-14.09c1.97-1.779,18.685-17.307,7.925-22.822-9.976-5.115-8.714,16.252-8.236,21.736-1.384-4.759-2.981-9.309-4.649-13.535C-54.756,389.775-44.008,376.063-53.174,372.227Z" transform="translate(137.641 -357.488)"/><path class="n" d="M-83.126,386.234c-8.083,2.609,1.611,12.377,7.051,17.166-2.864-1.44-5.613-2.725-8.176-3.859-4.268-3.728-20.89-17.481-25.406-9.581-4.27,7.472,16.344,9.741,23.8,10.31,3.317,1.447,6.981,3.161,10.816,5.146-6.294-1.308-26.579-4.948-24.862,2.842,1.851,8.38,22.43-.511,26.124-2.182,3.74,1.976,7.618,4.2,11.481,6.7-7.672-1.237-29.153-3.994-26.754,4.363,2.557,8.911,23.283-.824,28.317-3.34a116.5,116.5,0,0,1,12.348,9.388c-6.887-1.74-29.2-6.734-27.876,1.988,1.391,9.162,23.928.872,28.9-1.077A83.6,83.6,0,0,1-37.885,434.1c-6.8-2.541-27.634-9.619-27.847-.974-.222,9.079,23.086,3.587,28.74,2.123.583.764,1.152,1.536,1.7,2.323a.943.943,0,0,0,1.027.3c.027-.008.052-.017.077-.027a.563.563,0,0,0,.315-.859q-.932-1.337-1.93-2.63c2.395-3.682,13.716-22.027,1.891-22.791-10.582-.683-5.633,14.91-3.3,21.023a85.951,85.951,0,0,0-9.033-9.393c.884-3.4,5.924-24.588-5.9-22.8-10.4,1.573-.189,15.825,4.087,21.211a119.639,119.639,0,0,0-11.528-8.678c.338-2.632,2.921-25.3-8.838-22.484-10.9,2.611,3.962,18.011,7.894,21.863-4.147-2.711-8.323-5.127-12.338-7.252C-72.906,400.589-73.67,383.181-83.126,386.234Z" transform="translate(110.233 -331.096)"/><g transform="translate(44.123 56.241)"><path class="u" d="M-47.514,467.841c-13.826-8.456-24.138-18.206-23.754-28.387.509-13.434,18.1-8.759,37.74,2.817-9.372-13.243-15-26.291-10.625-35.5,5.7-11.985,19.725-1.179,33.037,16.8-3.464-14.575-3.651-27.526,3.253-34.18,10.138-9.768,20.008,7.761,26.089,31.349,2.8-15.512,8.035-28.211,17.432-31.54,12.5-4.429,14.766,13.1,11.46,35.195,13.892-19.621,29.072-32.2,35.065-19.605,4.38,9.206-1.25,22.255-10.625,35.5,19.64-11.576,37.232-16.251,37.74-2.817.405,10.723-11.053,20.969-25.99,29.728,24.981-4.149,46-2.308,40.957,11.067-9.421,24.968-86.572,19.626-104.853,18,.068.112.149.224.212.338,0,0-95.84,10.843-106.26-17.492C-91.489,465.912-71.517,463.926-47.514,467.841Z" transform="translate(87.367 -386.634)"/><g class="v" transform="translate(0 0.001)"><path class="s" d="M-20.951,404.4c-6.9,6.651-6.717,19.6-3.253,34.18-13.313-17.98-27.335-28.784-33.037-16.8-1.972,4.145-1.91,9.071-.4,14.44-6.844-11.094-10.318-21.647-6.607-29.444,5.7-11.985,19.725-1.179,33.037,16.8-3.464-14.575-3.651-27.526,3.253-34.18,8.355-8.049,16.524,2.443,22.544,19.58C-10.15,401.78-15.511,399.157-20.951,404.4Z" transform="translate(107.458 -386.634)"/><path class="s" d="M-34.276,435.769c-19.64-11.578-37.231-16.253-37.74-2.819,0,.11,0,.22,0,.328-4.531-4.917-7.2-10.067-7-15.333.488-12.886,16.7-9.106,35.355,1.443A85.431,85.431,0,0,0-34.276,435.769Z" transform="translate(95.117 -365.126)"/><path class="s" d="M-60.113,428.06c4.207,5.853,11.261,11.424,19.6,16.524-19.227-3.136-35.853-2.48-39.218,4.687a18.2,18.2,0,0,1-6.9-8.423C-90.6,430.055-77.972,426.763-60.113,428.06Z" transform="translate(87.367 -348.372)"/></g><g class="h" transform="translate(145.072 41.818)"><path class="i" d="M-6.374,408.305a44.406,44.406,0,0,0-3.2,4.888,44.147,44.147,0,0,0-2.613,5.225,44.309,44.309,0,0,0,3.2-4.89A44.573,44.573,0,0,0-6.374,408.305Z" transform="translate(12.186 -408.305)"/></g><g class="h" transform="translate(131.231 50.906)"><path class="i" d="M-15.588,413.015a52.566,52.566,0,0,0-2.208,5.939,52.184,52.184,0,0,0-1.563,6.138,51.935,51.935,0,0,0,2.208-5.937A52.21,52.21,0,0,0-15.588,413.015Z" transform="translate(19.359 -413.015)"/></g><g class="h" transform="translate(123.034 16.925)"><path class="i" d="M-21.533,395.4a28.009,28.009,0,0,0-1.368,4.417,27.772,27.772,0,0,0-.706,4.569,27.8,27.8,0,0,0,1.366-4.417A28.256,28.256,0,0,0-21.533,395.4Z" transform="translate(23.607 -395.405)"/></g><g class="h" transform="translate(114.842 46.034)"><path class="i" d="M-24.39,410.49a24.925,24.925,0,0,0-1.692,3.744,29.363,29.363,0,0,0-1.133,3.962,29.412,29.412,0,0,0-.569,4.081,24.771,24.771,0,0,0,.035,4.11c.145-1.362.286-2.715.482-4.056s.426-2.675.714-3.994c.27-1.326.61-2.636.963-3.944S-24.809,411.793-24.39,410.49Z" transform="translate(27.852 -410.49)"/></g><g class="h" transform="translate(90.6 17.919)"><path class="i" d="M-39.934,395.92a13.984,13.984,0,0,0-.415,5.087A13.952,13.952,0,0,0-39,405.931c-.259-1.688-.527-3.327-.672-4.986C-39.84,399.285-39.88,397.626-39.934,395.92Z" transform="translate(40.415 -395.92)"/></g><g class="h" transform="translate(95.152 43.894)"><path class="i" d="M-36.69,409.381c-.253,2-.43,4-.6,6s-.276,4.006-.419,6.007c-.085,2-.2,4.01-.261,6.017s-.108,4.014-.081,6.026c.255-2,.432-4,.6-6s.278-4,.417-6.007c.085-2,.2-4.008.261-6.015S-36.663,411.392-36.69,409.381Z" transform="translate(38.056 -409.381)"/></g><g class="h" transform="translate(61.993 38.964)"><path class="i" d="M-52.133,414.788a7.961,7.961,0,0,0-.457-4.409,7.975,7.975,0,0,0-2.649-3.553,19.907,19.907,0,0,1,2.02,3.8A19.714,19.714,0,0,1-52.133,414.788Z" transform="translate(55.24 -406.826)"/></g><g class="h" transform="translate(74.768 69.931)"><path class="i" d="M-48.381,422.874a24.486,24.486,0,0,0-.237,3.815,29.756,29.756,0,0,0,.284,3.819,29.531,29.531,0,0,0,.774,3.751,24.5,24.5,0,0,0,1.275,3.6c-.262-1.249-.536-2.481-.768-3.72s-.446-2.48-.612-3.726c-.183-1.245-.311-2.5-.436-3.751S-48.29,424.146-48.381,422.874Z" transform="translate(48.62 -422.874)"/></g><g class="h" transform="translate(53.032 69.933)"><path class="i" d="M-53.881,428.878a23.682,23.682,0,0,0-2.763-3.24,23.566,23.566,0,0,0-3.24-2.763,23.563,23.563,0,0,0,2.763,3.24A23.679,23.679,0,0,0-53.881,428.878Z" transform="translate(59.884 -422.875)"/></g><g class="h" transform="translate(159.286 62.436)"><path class="i" d="M10.816,418.99a22.587,22.587,0,0,0-4.708,1.65,25.5,25.5,0,0,0-8,5.957,22.532,22.532,0,0,0-2.929,4.037,41.669,41.669,0,0,1,3.305-3.678A36.824,36.824,0,0,1,6.345,421.1,41.345,41.345,0,0,1,10.816,418.99Z" transform="translate(4.82 -418.99)"/></g><g class="h" transform="translate(141.176 73.977)"><path class="i" d="M-11.175,424.971a36.233,36.233,0,0,0-1.839,4.9,35.52,35.52,0,0,0-1.191,5.094,35.794,35.794,0,0,0,1.839-4.9A36.071,36.071,0,0,0-11.175,424.971Z" transform="translate(14.205 -424.971)"/></g><g class="h" transform="translate(153.107 94.774)"><path class="i" d="M6.942,435.819a20.3,20.3,0,0,0-3.948.06A23.852,23.852,0,0,0-4.612,438a20.391,20.391,0,0,0-3.41,1.989c1.2-.536,2.395-1.057,3.612-1.511s2.445-.863,3.7-1.2c1.245-.357,2.51-.633,3.784-.882S5.638,435.979,6.942,435.819Z" transform="translate(8.022 -435.749)"/></g><g class="h" transform="translate(184.111 91.674)"><path class="i" d="M19.941,434.142a50.29,50.29,0,0,0-6.04,1.366,49.952,49.952,0,0,0-5.856,2.015,49.526,49.526,0,0,0,6.042-1.364A50.172,50.172,0,0,0,19.941,434.142Z" transform="translate(-8.045 -434.142)"/></g><g class="h" transform="translate(123.707 76.951)"><path class="i" d="M-20.8,426.512c-.343,1.308-.612,2.626-.87,3.946s-.479,2.644-.693,3.971c-.2,1.33-.392,2.659-.536,3.994s-.291,2.674-.357,4.025c.343-1.306.612-2.626.87-3.944s.479-2.646.691-3.973c.2-1.329.394-2.659.536-4S-20.869,427.861-20.8,426.512Z" transform="translate(23.258 -426.512)"/></g><g class="h" transform="translate(104.714 81.937)"><path class="i" d="M-32.763,429.1a39.6,39.6,0,0,0-.338,5.5,39.314,39.314,0,0,0,.338,5.5,39.609,39.609,0,0,0,.338-5.5A39.9,39.9,0,0,0-32.763,429.1Z" transform="translate(33.101 -429.096)"/></g><g class="h" transform="translate(86.925 81.945)"><path class="i" d="M-42.3,429.1c-.037,1.509,0,3.012.048,4.515s.133,3,.226,4.5c.11,1.5.222,3,.384,4.494s.324,2.989.565,4.479c.039-1.509,0-3.012-.046-4.515s-.133-3-.228-4.5c-.11-1.5-.222-3-.386-4.492S-42.064,430.59-42.3,429.1Z" transform="translate(42.32 -429.1)"/></g><g class="h" transform="translate(33.99 61.043)"><path class="i" d="M-61.6,426.118a10,10,0,0,0-2.916-5.129,9.99,9.99,0,0,0-5.235-2.721,17.047,17.047,0,0,1,4.768,3.209A16.928,16.928,0,0,1-61.6,426.118Z" transform="translate(69.752 -418.268)"/></g><g class="h" transform="translate(51.172 90.696)"><path class="i" d="M-49.953,439.829a51.667,51.667,0,0,0-5.281-3.392,51.066,51.066,0,0,0-5.613-2.8,51.081,51.081,0,0,0,5.28,3.39A51.631,51.631,0,0,0-49.953,439.829Z" transform="translate(60.848 -433.635)"/></g><g class="h" transform="translate(34.067 96.811)"><path class="i" d="M-54.651,441.636c-1.214-.536-2.449-1-3.686-1.455s-2.489-.872-3.742-1.283c-1.258-.4-2.514-.789-3.79-1.133s-2.545-.691-3.844-.961c1.212.536,2.447,1,3.686,1.457s2.489.872,3.742,1.281c1.258.394,2.514.789,3.79,1.133S-55.95,441.366-54.651,441.636Z" transform="translate(69.712 -436.804)"/></g></g><g transform="translate(151.059 96.914)"><path class="n" d="M-5.372,461.87c-9.22-5.639-16.1-12.143-15.84-18.932.34-8.959,12.072-5.841,25.168,1.879-6.25-8.834-10.007-17.535-7.086-23.675,3.8-7.993,13.154-.787,22.035,11.2-2.312-9.72-2.437-18.359,2.169-22.795,6.761-6.514,13.343,5.175,17.4,20.906,1.868-10.345,5.359-18.814,11.626-21.033,8.336-2.954,9.849,8.734,7.643,23.47,9.264-13.085,19.389-21.473,23.385-13.073,2.921,6.14-.834,14.841-7.086,23.675,13.1-7.721,24.831-10.839,25.17-1.879.27,7.151-7.373,13.986-17.334,19.825,16.661-2.765,30.679-1.538,27.314,7.383-6.281,16.649-57.735,13.089-69.928,12,.046.075.1.15.143.226,0,0-63.918,7.232-70.866-11.665C-34.7,460.582-21.378,459.259-5.372,461.87Z" transform="translate(31.949 -407.712)"/><g class="v" transform="translate(0 0)"><path class="s" d="M12.345,419.558c-4.6,4.436-4.479,13.075-2.169,22.795-8.878-11.991-18.231-19.2-22.035-11.2-1.314,2.763-1.274,6.048-.262,9.629-4.566-7.4-6.881-14.436-4.407-19.636,3.8-7.993,13.154-.787,22.035,11.2-2.312-9.72-2.437-18.359,2.169-22.795,5.571-5.368,11.02,1.629,15.034,13.058C19.546,417.812,15.972,416.064,12.345,419.558Z" transform="translate(45.348 -407.712)"/><path class="s" d="M3.458,440.48c-13.1-7.72-24.831-10.839-25.17-1.879,0,.073,0,.147,0,.22-3.024-3.28-4.8-6.715-4.67-10.227.324-8.595,11.136-6.073,23.578.963A56.838,56.838,0,0,0,3.458,440.48Z" transform="translate(37.119 -393.368)"/><path class="s" d="M-13.773,435.339c2.806,3.9,7.51,7.618,13.071,11.02-12.821-2.092-23.908-1.654-26.154,3.126a12.14,12.14,0,0,1-4.6-5.617C-34.108,436.67-25.683,434.474-13.773,435.339Z" transform="translate(31.949 -382.194)"/></g><g class="h" transform="translate(96.751 27.888)"><path class="i" d="M22.065,422.164a30.094,30.094,0,0,0-2.132,3.259,29.5,29.5,0,0,0-1.742,3.485,29.728,29.728,0,0,0,2.132-3.259A29.794,29.794,0,0,0,22.065,422.164Z" transform="translate(-18.19 -422.164)"/></g><g class="h" transform="translate(87.52 33.951)"><path class="i" d="M15.92,425.306a35.019,35.019,0,0,0-1.472,3.96,34.67,34.67,0,0,0-1.042,4.095,34.446,34.446,0,0,0,1.472-3.962A34.637,34.637,0,0,0,15.92,425.306Z" transform="translate(-13.406 -425.306)"/></g><g class="h" transform="translate(82.053 11.287)"><path class="i" d="M11.957,413.561a18.7,18.7,0,0,0-.913,2.947,18.441,18.441,0,0,0-.471,3.047,18.685,18.685,0,0,0,.911-2.947A18.684,18.684,0,0,0,11.957,413.561Z" transform="translate(-10.573 -413.561)"/></g><g class="h" transform="translate(76.589 30.699)"><path class="i" d="M10.05,423.621a16.812,16.812,0,0,0-1.129,2.5,19.726,19.726,0,0,0-1.135,5.363,16.653,16.653,0,0,0,.023,2.74c.1-.909.191-1.81.322-2.7s.284-1.783.475-2.665.407-1.758.645-2.63S9.77,424.491,10.05,423.621Z" transform="translate(-7.742 -423.621)"/></g><g class="h" transform="translate(60.423 11.949)"><path class="i" d="M-.317,413.9A9.833,9.833,0,0,0,.3,420.581c-.172-1.125-.351-2.217-.448-3.325S-.279,415.043-.317,413.9Z" transform="translate(0.636 -413.904)"/></g><g class="h" transform="translate(63.459 29.273)"><path class="i" d="M1.848,422.882c-.168,1.331-.288,2.665-.4,4s-.183,2.671-.278,4.006c-.058,1.337-.135,2.674-.176,4.012s-.071,2.678-.052,4.019c.168-1.331.288-2.665.4-4s.185-2.673.278-4.008c.056-1.337.135-2.673.174-4.012S1.865,424.223,1.848,422.882Z" transform="translate(-0.937 -422.882)"/></g><g class="h" transform="translate(41.343 25.985)"><path class="i" d="M-8.452,426.488a5.316,5.316,0,0,0-.3-2.941,5.293,5.293,0,0,0-1.768-2.37,13.25,13.25,0,0,1,1.349,2.534A13.188,13.188,0,0,1-8.452,426.488Z" transform="translate(10.524 -421.178)"/></g><g class="h" transform="translate(49.864 46.638)"><path class="i" d="M-5.95,431.881a16.475,16.475,0,0,0-.158,2.543,19.688,19.688,0,0,0,.706,5.048,16.215,16.215,0,0,0,.849,2.4c-.174-.832-.357-1.654-.511-2.482s-.3-1.652-.407-2.483-.208-1.665-.291-2.5S-5.89,432.728-5.95,431.881Z" transform="translate(6.108 -431.881)"/></g><g class="h" transform="translate(35.369 46.638)"><path class="i" d="M-9.618,435.885a15.856,15.856,0,0,0-1.843-2.161,15.838,15.838,0,0,0-2.159-1.843,15.711,15.711,0,0,0,1.841,2.161A15.981,15.981,0,0,0-9.618,435.885Z" transform="translate(13.62 -431.881)"/></g><g class="h" transform="translate(106.229 41.638)"><path class="i" d="M33.53,429.29a14.985,14.985,0,0,0-3.14,1.1,16.932,16.932,0,0,0-5.334,3.971,14.917,14.917,0,0,0-1.955,2.694,27.826,27.826,0,0,1,2.2-2.454,24.638,24.638,0,0,1,2.491-2.126,24.343,24.343,0,0,1,2.752-1.777A27.889,27.889,0,0,1,33.53,429.29Z" transform="translate(-23.102 -429.29)"/></g><g class="h" transform="translate(94.152 49.336)"><path class="i" d="M18.865,433.279a26.961,26.961,0,0,0-2.022,6.665,23.749,23.749,0,0,0,1.227-3.267A24.348,24.348,0,0,0,18.865,433.279Z" transform="translate(-16.843 -433.279)"/></g><g class="h" transform="translate(102.11 63.206)"><path class="i" d="M30.947,440.513a13.506,13.506,0,0,0-2.634.04,15.68,15.68,0,0,0-2.6.494,15.973,15.973,0,0,0-2.478.917,13.433,13.433,0,0,0-2.273,1.328c.8-.359,1.6-.706,2.408-1.007s1.631-.575,2.464-.8,1.675-.423,2.524-.587S30.077,440.62,30.947,440.513Z" transform="translate(-20.967 -440.467)"/></g><g class="h" transform="translate(122.786 61.139)"><path class="i" d="M39.617,439.4a33.353,33.353,0,0,0-4.029.909,33.1,33.1,0,0,0-3.906,1.345,33.015,33.015,0,0,0,4.029-.911A33.46,33.46,0,0,0,39.617,439.4Z" transform="translate(-31.682 -439.396)"/></g><g class="h" transform="translate(82.502 51.319)"><path class="i" d="M12.442,434.307c-.228.872-.407,1.75-.579,2.63s-.32,1.766-.461,2.649-.262,1.773-.359,2.665-.195,1.783-.237,2.684c.228-.872.407-1.752.581-2.632s.318-1.764.459-2.649.262-1.771.359-2.663S12.4,435.206,12.442,434.307Z" transform="translate(-10.806 -434.307)"/></g><g class="h" transform="translate(69.834 54.644)"><path class="i" d="M4.467,436.03a26.625,26.625,0,0,0-.226,3.67,26.007,26.007,0,0,0,.226,3.668,26.6,26.6,0,0,0,.226-3.668A26.625,26.625,0,0,0,4.467,436.03Z" transform="translate(-4.241 -436.03)"/></g><g class="h" transform="translate(57.971 54.65)"><path class="i" d="M-1.9,436.033c-.023,1.005,0,2.009.033,3.01s.089,2,.151,3,.149,2,.257,3,.216,2,.376,2.989c.025-1.007,0-2.011-.031-3.012s-.089-2-.152-3-.147-2-.257-3S-1.735,437.027-1.9,436.033Z" transform="translate(1.907 -436.033)"/></g><g class="h" transform="translate(22.67 40.71)"><path class="i" d="M-14.765,434.044a6.688,6.688,0,0,0-1.945-3.421,6.669,6.669,0,0,0-3.491-1.814,11.355,11.355,0,0,1,3.178,2.138A11.332,11.332,0,0,1-14.765,434.044Z" transform="translate(20.201 -428.809)"/></g><g class="h" transform="translate(34.126 60.485)"><path class="i" d="M-7,443.188a34.4,34.4,0,0,0-3.522-2.262,33.727,33.727,0,0,0-3.745-1.87,34.206,34.206,0,0,0,3.522,2.262A34.743,34.743,0,0,0-7,443.188Z" transform="translate(14.264 -439.057)"/></g><g class="h" transform="translate(22.72 64.564)"><path class="i" d="M-10.131,444.392c-.809-.357-1.632-.666-2.458-.969s-1.659-.583-2.5-.855-1.677-.527-2.526-.756-1.7-.461-2.564-.641c.809.357,1.632.668,2.458.971s1.659.581,2.5.855,1.677.525,2.528.755S-11,444.212-10.131,444.392Z" transform="translate(20.175 -441.171)"/></g></g></g></g><path class="p" d="M-56.911,491.384s10.69-1.01,17.932-5.5c4.109,8.77,18.5,14.829,18.5,14.829,5.656-10.586,3.805-17.31-.2-21.56,10.486,1.586,22.19-3.652,22.19-3.652-8.144-7.349-15.363-9.457-21.088-9.354a24.323,24.323,0,0,0,3.548-10.133c-12.867.526-17.4,5.018-18.819,9.116-.76-2.3-2.838-9.016-2.342-12.184,0,0-3.878.058-4.2,1.421-.234,1.006,2.242,7.714,3.556,11.162-4.5-3.425-11.88-5.886-23.208-1.363,0,0,5.932,6.708,13.393,9.91C-52.419,476.559-56.6,481.547-56.911,491.384ZM-32.156,472.9l.05-.034.054.065Z" transform="translate(1726.539 1747.273)"/><g transform="translate(810.505 2138.278) rotate(-166)"><g transform="translate(0 0)"><g transform="translate(92.769 35.391)"><g transform="translate(12.212 29.735)"><path class="w" d="M.116,2.634l14.25,73.033C12.976,78.108,0,91.805,0,91.805l21.176,17.888S38.44,83.712,37.065,76.841C36.578,74.412,15.808,13.231,11.312,0Z" transform="translate(0 0)"/></g><path class="x" d="M19.511,26.872A60.434,60.434,0,0,1,32.68,12.856C39.856,7.3,32.731,0,32.731,0S1.733,12.331,0,17.488c0,0,1.214,1.671,6.2,12.728Z" transform="translate(5.304 2.559)"/><g transform="translate(0 0)"><rect class="y" width="5.217" height="40.173" transform="translate(36.007 0) rotate(63.678)"/></g></g><g transform="translate(3.729 3.717)"><g transform="translate(0 0)"><path class="x" d="M.13,58.622l.067.742L54.875,54.42l.282.04.211.164.113.14.032.262-.006.059-.358.384L9.539,86.025l.414.619L52.339,58.249,15.932,94.236l.524.53L55.379,56.292l-5.7,53.325.74.079,5.42-50.729,4.24,51.016.743-.062-4.5-54.109L89.866,97.334l.579-.468L58.389,57.177,97.475,90.235l.481-.569L57.009,55.035l.36-.263,51.868,7.313.1-.738L58.823,54.224,109.953,51.7l-.037-.744-50.755,2.5,40.951-29.93-.439-.6L58.343,53.136,93.13,15.818l-.545-.508L56.919,53.572l-.563.028L59.872.049,59.128,0,55.774,51.082,49.475.455l-.739.092,6.58,52.886L19.555,12.686l-.56.491L52.762,51.653,12.494,20.328l-.457.588,42,32.671L.074,48.217,0,48.959l50.941,5.069Z" transform="translate(194.508)"/><path class="x" d="M0,43.754l54.017,9.807.262.114.161.216.071.163-.039.263-.021.054L54,54.645,1.9,71.941l.234.708,48.42-16.073L5.872,81.559l.364.65L54,55.5,34.3,105.377l.693.274L53.738,58.2l-9.51,50.3.732.138L55.047,55.29l21.26,48.958.683-.3-20.32-46.8L85.533,99.433l.616-.42L55.911,54.722l.417-.158,48.043,20.871.3-.683L57.875,54.425l49.953,11.2.162-.727L58.4,53.78l47.446-17.934-.264-.7L57.7,53.248l43.475-26.7-.39-.635L56.213,53.289l-.549-.123L73.324,2.488l-.7-.245L55.774,50.583,63.194.109,62.458,0,54.706,52.727,31.1,3.923l-.671.325L52.719,50.331,22.255,9.407l-.6.445L53.429,52.533,2.852,32.978l-.269.7L50.329,52.134.133,43.021Z" transform="translate(0 1.012)"/></g></g><g transform="translate(195.591 0)"><path class="y" d="M.018,56.118A57.554,57.554,0,1,0,58.989.018,57.62,57.62,0,0,0,.018,56.118Zm5.214.131a52.338,52.338,0,1,1,51.016,53.626A52.4,52.4,0,0,1,5.232,56.249Z" transform="translate(0 0)"/></g><g transform="translate(0 1.179)"><path class="y" d="M.018,56.118A57.554,57.554,0,1,0,58.989.018,57.619,57.619,0,0,0,.018,56.118Zm5.214.131a52.337,52.337,0,1,1,51.016,53.626A52.4,52.4,0,0,1,5.232,56.249Z" transform="translate(0 0)"/></g><g transform="translate(57.573 27.459)"><rect class="y" width="0.745" height="89.113" transform="translate(84.426 0) rotate(71.335)"/><rect class="y" width="85.393" height="0.745" transform="translate(0.112 33.471) rotate(2.582)"/></g><path class="x" d="M0,15.5a6.307,6.307,0,0,1,11.827-2.892L97.848,0l64.665,91.076,34.493-72.389a6.306,6.306,0,1,1,4.715,2.308l-.028,0-39.653,83.436-4.738-2.183,2.016-4.375L63.247,70.131,43.454,106.775l-6.29.668L58.119,68.65,9.952,20.8A6.3,6.3,0,0,1,0,15.5ZM96.947,7.742,65.784,65.434l90.725,26.2ZM14.07,17.55l46.586,46.4L91.88,6.146Z" transform="translate(51.243 43.077)"/><path class="y" d="M0,3.127A3.207,3.207,0,1,1,3.127,6.414,3.207,3.207,0,0,1,0,3.127Z" transform="translate(249.936 54.449)"/><path class="y" d="M0,3.127A3.207,3.207,0,1,1,3.127,6.412,3.208,3.208,0,0,1,0,3.127Z" transform="translate(54.297 55.525)"/><path class="y" d="M27.338.018C18.637.312,9.818,2.576,2.776,7.7,1.4,8.692-.011,10.026,0,11.722c.011,1.8,1.613,3.149,3.149,4.088a30.642,30.642,0,0,0,20.112,4.147c9.508-1.357,18.169-7.178,27.775-7.223a25.286,25.286,0,0,0,5.737-.232c1.868-.443,4.429-1.785,4.012-3.658C59.607,3.545,36.788-.3,27.338.018Z" transform="translate(66.274 147.642)"/><g transform="translate(205.041 143.593)"><path class="y" d="M2.665,0l7.574,3.132L8.394,7.6l8.585,3.271a7.727,7.727,0,0,0,6.369-.395L28.1,7.841a4.1,4.1,0,0,1,5.6,1.666h0a4.1,4.1,0,0,1-1.636,5.5l-4.885,2.7a15.925,15.925,0,0,1-13.126.812L5.122,15.12A7.9,7.9,0,0,1,.745,11.208,7.54,7.54,0,0,1,.583,5.034Z" transform="translate(0)"/></g><path class="y" d="M.007,20.587A21.112,21.112,0,1,1,20.585,42.22,21.135,21.135,0,0,1,.007,20.587Zm18.342,6.756L11.564,33.8a15.777,15.777,0,0,0,6.55,2.91Zm4.98,9.5a15.786,15.786,0,0,0,6.688-2.58l-6.454-6.784ZM33.8,30.663a15.8,15.8,0,0,0,2.91-6.552l-9.365-.234ZM36.836,18.9a15.785,15.785,0,0,0-2.58-6.688l-6.784,6.455ZM30.661,8.429a15.806,15.806,0,0,0-6.551-2.91l-.234,9.365ZM18.9,5.389a15.785,15.785,0,0,0-6.688,2.58l6.454,6.784ZM8.43,11.564a15.8,15.8,0,0,0-2.911,6.55l9.366.234ZM5.389,23.33a15.8,15.8,0,0,0,2.579,6.687l6.786-6.453Z" transform="translate(125.163 24.736)"/><g transform="translate(78.569 28.738)"><g transform="translate(0 28.148)"><path class="z" d="M.177,32.083C1.854,22.826,46.564,0,46.564,0l6.48,9.483,1,1.432,8.908,13.012L43.159,40.414,42.845,52.9l-13.78,3.161-2.009.471L9.067,60.673S-1.482,41.34.177,32.083Z" transform="translate(0 86.238)"/><path class="x" d="M12.486,13.274A100.593,100.593,0,0,1,33.252,0l1,1.432A99.161,99.161,0,0,0,12.556,15.475C5.4,21.622-.508,29.5,3.248,38.179c-.577.245-1.171.506-1.73.786A17.056,17.056,0,0,1,.365,35.594C-1.783,26.215,5.972,18.67,12.486,13.274Z" transform="translate(19.792 95.722)"/><path class="aa" d="M22.692,0,17.985,74.261C16.022,76.27,0,86.236,0,86.236l16.4,23.926S41.023,91.041,41.432,84.046c.144-2.473-6.243-69.822-7.243-83.759Z" transform="translate(46.557 0)"/></g><path class="x" d="M16.5,28.468s8.444-11.648,15.843-16.9S35.054,0,35.054,0,2.983,9.9,0,14.448c0,0,.752,1.924,2.772,13.882Z" transform="translate(65.573 0)"/></g><path class="ab" d="M62.15,77.478c-3.94-2.9-7.2-6.688-11.147-9.6C39.749,59.56,25.3,62.907,13.3,56.617,5.495,52.525.48,43.914.035,35.113s3.42-17.572,9.7-23.757A41.11,41.11,0,0,1,33.257.348C43.663-1.009,55.123,1.526,62.175,9.3c6.649,7.328,8.814,18.46,16.96,24.075,3.594,2.477,8.485,4.11,9.7,8.3.918,3.156-.734,6.576-.073,9.8.618,3,3.119,5.268,4.189,8.143,2.467,6.632-2.711,13.1-7.743,16.819-6.562,4.847-14.386,6.71-21.616,2.045C63.1,78.159,62.621,77.824,62.15,77.478Z" transform="translate(97.263 219.177)"/><g transform="translate(87.636 153.674)"><g transform="translate(59.954 98.874)"><g transform="translate(0 0)"><g transform="translate(3.88 0)"><path class="w" d="M0,5.735A26.487,26.487,0,0,1,7.5.441C9.58-.382,9.667.159,12.007.378L14.629,4.87l5.225,8.936L7.614,18.649l-.259-.663a.026.026,0,0,0,0-.017Z" transform="translate(0 0)"/></g><path class="aa" d="M24.645,25.845S23.423,5.069,12.188,0c0,0-19.28,1.469-9.343,29.43Z" transform="translate(11.36 5.524)"/><path class="ab" d="M25.609,17.224a5.77,5.77,0,0,0,1.782,3.036c1.31.889,3.066.407,4.583-.046s3.359-.777,4.514.306a3.167,3.167,0,0,1,.241,3.872,7.626,7.626,0,0,1-3.243,2.583,30.3,30.3,0,0,1-17.546,2.8c-3.537-.485-7.148-1.665-9.612-4.25a18.251,18.251,0,0,1-3.8-7.394A62.666,62.666,0,0,1,.264,7.689C0,5.643-.559,1.63,1.62.373,3.33-.612,6.405.609,8.1,1.1a27.02,27.02,0,0,1,13.13,8.567A24.968,24.968,0,0,1,25.609,17.224Z" transform="translate(0 9.041)"/></g></g><path class="w" d="M86.157,5.382s-1.244,6.367-3.736,6.866-9.8,3.631-9.8,3.631L30.872,46.469,16.748,92.591s-6.18,3.895-15.486-4.15c-6.347-5.488,12.982-52.592,19.43-57.781C25.2,27.029,68.77,6.642,68.77,6.642s6-5.021,6.481-5.16,6.2,1.65,6.2,1.65S84.935-.805,86.15.149,86.157,5.382,86.157,5.382Z" transform="translate(48.733 0)"/><path class="ac" d="M0,16.5A26.9,26.9,0,0,1,12.243,4.279C12.8,4,13.4,3.738,13.973,3.493,20.068,1,26.966.471,33.988,0c1.641,6.637,5.134,15.963,5.134,15.963L52.187,28.782s13.36,1.414,19.63,10.829c2.411,3.632,5.048,25.1,5.048,25.1S66.316,78.819,65.757,79.362c-.559.524-4.035-2.079-4.035-2.079-1.641-.471-5.1-1.171-8.941-2.375A36.174,36.174,0,0,1,41.5,69.424C11,45.322,0,16.5,0,16.5Z" transform="translate(0 33.619)"/></g><path class="aa" d="M80.1,5.335s-.764,6.441-3.213,7.125-9.5,4.353-9.5,4.353L28.036,50.437,17.4,97.485S11.525,101.831,1.645,94.5c-6.739-5,9.018-53.416,15.06-59.071,4.228-3.958,46.15-27.542,46.15-27.542s5.606-5.455,6.077-5.63,6.307,1.183,6.307,1.183S78.417-.745,79.7.117,80.1,5.335,80.1,5.335Z" transform="translate(146.11 150.782)"/><g transform="translate(142.44 25.021)"><rect class="y" width="5.216" height="41.138" transform="translate(37.596) rotate(66.051)"/></g><path class="ad" d="M0,0" transform="translate(92.339 54.434)"/><path class="ad" d="M0,0" transform="translate(129.933 37.731)"/></g><path class="x" d="M5.7,15.842l.76,2.253.761-2.253a12.2,12.2,0,0,1,5.7-6.8h0a12.191,12.191,0,0,1-5.7-6.794L6.46,0,5.7,2.253A12.188,12.188,0,0,1,0,9.047H0A12.194,12.194,0,0,1,5.7,15.842Z" transform="translate(198.58 202.523)"/><path class="x" d="M4.448,12.36l.594,1.757.594-1.757a9.51,9.51,0,0,1,4.447-5.3h0a9.508,9.508,0,0,1-4.447-5.3L5.041,0,4.448,1.757A9.51,9.51,0,0,1,0,7.058H0A9.512,9.512,0,0,1,4.448,12.36Z" transform="translate(186.735 224.122)"/><path class="x" d="M5.7,2.253,6.462,0l.761,2.253a12.194,12.194,0,0,0,5.7,6.8h0a12.194,12.194,0,0,0-5.7,6.8L6.462,18.1,5.7,15.843A12.19,12.19,0,0,0,0,9.048H0A12.19,12.19,0,0,0,5.7,2.253Z" transform="translate(133.648 302.837)"/><path class="x" d="M5.7,2.253,6.462,0l.76,2.253a12.192,12.192,0,0,0,5.7,6.794h0a12.2,12.2,0,0,0-5.7,6.8l-.76,2.253L5.7,15.842A12.19,12.19,0,0,0,0,9.047H0A12.188,12.188,0,0,0,5.7,2.253Z" transform="translate(59.812 201.083)"/><path class="x" d="M3.3,1.3,3.738,0l.44,1.3a7.055,7.055,0,0,0,3.3,3.931h0a7.062,7.062,0,0,0-3.3,3.932l-.44,1.3-.44-1.3A7.056,7.056,0,0,0,0,5.235H0A7.049,7.049,0,0,0,3.3,1.3Z" transform="translate(126.17 291.65)"/><path class="x" d="M4.764,1.883,5.4,0l.637,1.883A10.187,10.187,0,0,0,10.8,7.563h0a10.187,10.187,0,0,0-4.764,5.68L5.4,15.126l-.636-1.883A10.2,10.2,0,0,0,0,7.563H0A10.2,10.2,0,0,0,4.764,1.883Z" transform="translate(76.908 220.617)"/><path class="ae" d="M2.53,5.239C5.9,5.239,5.907,0,2.53,0S-.846,5.239,2.53,5.239Z" transform="translate(69.428 263.272)"/><path class="ae" d="M2.53,5.239C5.9,5.239,5.908,0,2.53,0S-.846,5.239,2.53,5.239Z" transform="translate(259.799 183.515)"/><path class="ae" d="M2.53,5.239C5.9,5.239,5.908,0,2.53,0S-.846,5.239,2.53,5.239Z" transform="translate(241.168 248.718)"/><path class="ae" d="M2.531,5.239C5.9,5.239,5.907,0,2.531,0S-.846,5.239,2.531,5.239Z" transform="translate(103.194 311.01)"/><path class="ae" d="M2.531,5.239C5.9,5.239,5.907,0,2.531,0S-.846,5.239,2.531,5.239Z" transform="translate(23.436 179.441)"/><path class="ae" d="M1.687,3.493A1.748,1.748,0,0,0,1.687,0,1.748,1.748,0,0,0,1.687,3.493Z" transform="translate(44.074 158.773)"/><path class="ae" d="M1.687,3.493A1.748,1.748,0,0,0,1.687,0,1.748,1.748,0,0,0,1.687,3.493Z" transform="translate(51.642 255.413)"/><path class="ae" d="M1.687,3.493A1.748,1.748,0,0,0,1.687,0,1.748,1.748,0,0,0,1.687,3.493Z" transform="translate(81.333 315.376)"/><path class="ae" d="M1.687,3.493A1.748,1.748,0,0,0,1.687,0,1.748,1.748,0,0,0,1.687,3.493Z" transform="translate(221.636 240.858)"/><path class="ae" d="M1.686,3.493A1.748,1.748,0,0,0,1.686,0,1.748,1.748,0,0,0,1.686,3.493Z" transform="translate(272.868 163.431)"/></g><g transform="translate(-286.072 936.688)"><path class="af" d="M-415.049,669.253c-63.9-4.691-131.2-4.7-187-36.183s-92.189-108.67-55.655-161.3c24.506-35.309,73.828-49.524,92.372-88.3,39.016-81.581-91.648-175.2-49.295-255.1,13.392-25.263,40.986-39.683,58.144-62.555,51.52-68.672-7.994-181.3,47.052-247.18,27.551-32.974,77.824-41.177,118.013-25.965s70.577,50.08,88.821,88.984c27.4,58.414,32.528,129.7,78.353,175.121,22.6,22.4,52.845,35.77,75.74,57.868,42.62,41.134,52.28,112.257,22.175,163.269-9.133,15.474-21.641,29.67-25.17,47.288-9.976,49.823,51.863,80.9,77.745,124.622,33.51,56.62-1.03,133.759-56.386,169.32s-124.292,40.5-189.968,44.422l-126.467,7.549" transform="translate(672.421 214.693)"/><g transform="translate(197.246 0.017)"><path class="ag" d="M-168.782,449.816c-25.882-43.726-87.722-74.8-77.745-124.622,3.529-17.618,16.037-31.814,25.17-47.288,30.1-51.012,20.445-122.135-22.175-163.269-22.9-22.1-53.14-35.469-75.74-57.868-45.825-45.418-50.958-116.7-78.353-175.121-18.245-38.9-48.635-73.77-88.821-88.984-26.679-10.1-57.783-9.843-83.754,1.1a115.413,115.413,0,0,1,37.62,7.292c40.187,15.213,70.577,50.08,88.823,88.984,27.4,58.414,32.528,129.7,78.351,175.121,22.6,22.4,52.845,35.77,75.741,57.868,42.62,41.134,52.28,112.257,22.175,163.269-9.133,15.474-21.641,29.67-25.17,47.288-9.976,49.823,51.863,80.9,77.745,124.622,33.51,56.62-1.03,133.759-56.384,169.32-22.332,14.345-46.873,23.7-72.518,30.025,42.171-5.432,83.2-15.638,118.65-38.413C-169.813,583.575-135.272,506.436-168.782,449.816Z" transform="translate(570.202 214.684)"/><path class="ag" d="M-392.034,168s-.446-19.132-18.336-22.015C-410.369,145.987-409.753,166.7-392.034,168Z" transform="translate(718.79 549.98)"/><path class="ag" d="M-390.3,166.015s-18.254-5.745-26.751,10.26C-417.049,176.275-397.245,182.371-390.3,166.015Z" transform="translate(712.58 567.667)"/><path class="af" d="M-362.164,145.757s-2.113-19.02-20.186-20.333C-382.35,125.424-379.93,146-362.164,145.757Z" transform="translate(744.838 530.864)"/><path class="af" d="M-413.163-40.235s-2.111-19.019-20.184-20.331C-433.347-60.566-430.929-39.988-413.163-40.235Z" transform="translate(697.429 357.96)"/><path class="ag" d="M-409.965,2.641S-418.293-14.588-435.77-9.8C-435.77-9.8-426.633,8.793-409.965,2.641Z" transform="translate(695.176 404.369)"/><path class="af" d="M-396.038-27.466s-8.328-17.228-25.807-12.444C-421.845-39.911-412.708-21.313-396.038-27.466Z" transform="translate(708.121 376.382)"/><g class="h" transform="translate(333.986 733.631)"><path class="s" d="M-387.186,168.629l-1.733-1.733a4.882,4.882,0,0,0-6.823,0,4.913,4.913,0,0,0,0,6.823q.868.865,1.735,1.733a4.879,4.879,0,0,0,6.821,0,4.913,4.913,0,0,0,0-6.823Z" transform="translate(397.12 -165.505)"/></g><g class="h" transform="translate(288.156 379.787)"><path class="s" d="M-416.043-8.219h1.733a4.877,4.877,0,0,0,4.824-4.824,4.907,4.907,0,0,0-4.824-4.824h-1.733a4.88,4.88,0,0,0-4.824,4.824,4.909,4.909,0,0,0,4.824,4.824Z" transform="translate(420.871 17.867)"/></g><path class="ag" d="M-498.467-110.362c3.387,9.133,7.138,18.038,11.333,26.7A260.685,260.685,0,0,0-473.426-58.47c10.117,16.058,22.145,30.932,37.105,41.866,1.862,1.364,3.776,2.653,5.712,3.9l6.073,3.618,6.35,3.782c2.107,1.275,4.16,2.661,6.223,4.016a163.272,163.272,0,0,1,23.32,18.434l5.231,5.349c1.638,1.891,3.313,3.745,4.867,5.7a91.374,91.374,0,0,1,8.261,12.52,64.164,64.164,0,0,1,7.852,28.368A75.316,75.316,0,0,0-374.32,43.2a107.12,107.12,0,0,0-19.352-20.448A212.851,212.851,0,0,0-416.9,6.414c-2.049-1.21-4.029-2.518-6.1-3.7l-6.231-3.512-6.453-3.769c-2.146-1.36-4.272-2.761-6.323-4.255a115.98,115.98,0,0,1-11.568-9.8A125.991,125.991,0,0,1-463.7-29.769a149.471,149.471,0,0,1-16.24-24.977c-2.269-4.394-4.434-8.826-6.341-13.369s-3.643-9.137-5.225-13.78A163.966,163.966,0,0,1-498.467-110.362Z" transform="translate(636.89 311.667)"/><path class="af" d="M-398.393-26.366a99.187,99.187,0,0,1,9.313,18.445,135.489,135.489,0,0,1,6.015,19.895,146.63,146.63,0,0,1,3.082,20.643,145.7,145.7,0,0,1,0,20.929A139.786,139.786,0,0,1-389.2,94.221a134.572,134.572,0,0,1-20.767,35.706A259.455,259.455,0,0,0-394.9,92.255a186.535,186.535,0,0,0,7.213-39.274,189.339,189.339,0,0,0-1.287-39.942A202.272,202.272,0,0,0-398.393-26.366Z" transform="translate(719.16 389.753)"/><path class="ag" d="M-434.8,65.129a137.993,137.993,0,0,0,3.807,26.206,126.917,126.917,0,0,0,8.442,24.591,60.851,60.851,0,0,0,2.9,5.758,61.866,61.866,0,0,0,3.136,5.6l3.4,5.43,3.821,5.127c.646.845,1.246,1.725,1.926,2.543l2.121,2.385c1.424,1.578,2.788,3.211,4.255,4.747l4.639,4.376,2.312,2.2,2.534,2.227a262.717,262.717,0,0,1,19.5,18.824l4.546,5.1,4.305,5.361c1.4,1.818,2.7,3.736,4.039,5.606,1.306,1.9,2.433,3.948,3.649,5.909,1.164,2,2.152,4.129,3.224,6.179.917,2.146,1.862,4.28,2.62,6.48a69,69,0,0,1,3.107,13.546,85.473,85.473,0,0,1-1.447,27.04c-.326-8.946-.949-17.824-3.209-26.162a71.045,71.045,0,0,0-10.682-23.1,146.2,146.2,0,0,0-16.772-19.646c-1.5-1.565-3.122-3.051-4.674-4.581s-3.14-3.037-4.782-4.5l-4.836-4.459-4.959-4.361-2.462-2.2-2.514-2.416-5.013-4.847c-1.563-1.719-3.018-3.539-4.525-5.3l-2.24-2.671c-.724-.907-1.333-1.9-2-2.85l-3.909-5.758-3.365-6.08a59.45,59.45,0,0,1-3-6.246,66.705,66.705,0,0,1-2.574-6.41c-.731-2.182-1.561-4.326-2.2-6.528-.6-2.213-1.208-4.423-1.754-6.642-.461-2.24-.855-4.49-1.281-6.727-.4-2.24-.627-4.512-.917-6.761A95.909,95.909,0,0,1-434.8,65.129Z" transform="translate(694.781 474.811)"/><path class="ag" d="M-433.97,260.165c8.087-5.743,15.956-11.325,23.6-17.112,7.624-5.793,15-11.761,21.89-18.166a153.53,153.53,0,0,0,18.866-20.74,123.409,123.409,0,0,0,7.649-11.856,129.437,129.437,0,0,0,6.142-13.168,54.6,54.6,0,0,1-1.739,14.916,71.647,71.647,0,0,1-5.623,14.135,92.32,92.32,0,0,1-18.733,23.781,123.5,123.5,0,0,1-24.352,17.45A105.667,105.667,0,0,1-433.97,260.165Z" transform="translate(696.849 580.786)"/><path class="af" d="M-354.346,140.126c4.905,10.866,7.369,22.783,8.232,34.772a109.742,109.742,0,0,1-3.348,36.042,105.029,105.029,0,0,1-6.323,17.131,95.753,95.753,0,0,1-9.486,15.561,90.448,90.448,0,0,1-26.7,23.843,156.282,156.282,0,0,0,21.716-27.223,134.864,134.864,0,0,0,7.8-15.206,130.056,130.056,0,0,0,5.538-16.109,149.4,149.4,0,0,0,4.8-33.912A196.574,196.574,0,0,0-354.346,140.126Z" transform="translate(735.893 544.531)"/></g><g transform="translate(210.766 282.982)"><path class="n" d="M-331.327,123.813l-108.967,218.45-.994-42.833L-481.3-68.043h0l-25.5,524.316-23.455-75.431,4.942-34.89-6.59-11.63-8.237,30.238L-563.2,313.387l54.364,204.69.913-4.643-8.554,434.7h90.231l-12.421-535.5L-377.37,258.88l26.191-22.819-25.111,3Z" transform="translate(563.196 68.043)"/><path class="t" d="M-481.924,955.8V-52.576h0l-24.869,516.51L-530.248,388.5l4.942-34.89-6.59-11.63-8.237,30.238L-563.2,321.048l54.364,204.69.913-4.643-8.554,434.7Z" transform="translate(563.196 60.382)"/><g class="h" transform="translate(24.936 70.662)"><path class="i" d="M-501.3-31.424c-.39,26.465-.517,52.93-.089,79.386.317,26.453,1.03,52.9,2.563,79.293,1.654,26.365,3.6,52.78,8.2,78.712.567,3.215,1.09,6.524,1.6,9.86l.386,2.493c.1.832.16,1.663.241,2.5l.457,4.992q.735,9.986.747,19.96c.046,13.293-.394,26.565-1.237,39.8-1.669,26.473-4.509,52.824-7.626,79.125-3.186,26.3-6.719,52.544-10.779,78.71q-6.012,39.258-12.8,78.386c-4.647,26.062-9.34,52.114-14.582,78.062,4.38-26.1,8.7-52.214,12.716-78.372q6.2-39.206,11.728-78.506c7.271-52.394,14.187-104.905,17.494-157.644.9-13.176,1.393-26.371,1.4-39.54q.023-9.882-.65-19.706a189.55,189.55,0,0,0-2.549-19.489l-1.636-9.841c-.548-3.28-.859-6.586-1.3-9.876l-1.21-9.884-.926-9.907c-.673-6.6-1.142-13.212-1.563-19.827-.482-6.611-.768-13.232-1.069-19.85C-504.057,74.459-503.628,21.464-501.3-31.424Z" transform="translate(565.199 31.424)"/><path class="i" d="M-499.01,210.422q-1.01,19.416-3.074,38.736-1.991,19.323-4.772,38.556c-1.931,12.809-3.948,25.612-6.6,38.313-1.33,6.349-2.705,12.689-4.419,18.959-.438,1.565-.838,3.136-1.3,4.693l-1.488,4.645a78.06,78.06,0,0,1-3.512,9.077,149.622,149.622,0,0,0,4.46-18.837c.608-3.169,1.227-6.331,1.711-9.527.5-3.192,1.135-6.351,1.59-9.552l1.507-9.567,1.422-9.583,2.819-19.175,5.611-38.379Q-502.251,229.585-499.01,210.422Z" transform="translate(574.529 256.254)"/><path class="i" d="M-513.144,505.817q.26-33.443,2.026-66.847c1.115-22.266,2.7-44.509,4.6-66.731,2.026-22.208,4.463-44.393,7.715-66.474l2.657-16.529c.99-5.494,2.115-10.966,3.178-16.443.51-2.742,1.2-5.453,1.88-8.162l2.015-8.128c.594-2.725,1.515-5.372,2.36-8.033l2.613-7.942-2.053,8.1c-.693,2.694-1.474,5.359-1.926,8.112l-1.584,8.191c-.533,2.727-1.079,5.449-1.443,8.211-.834,5.5-1.764,10.982-2.541,16.487l-2.171,16.543c-1.241,11.057-2.659,22.089-3.672,33.174-1.191,11.063-2.175,22.15-3.184,33.234-1.976,22.174-3.724,44.372-5.451,66.578Z" transform="translate(584.79 284.242)"/><path class="i" d="M-515.038,318.8c-1.71,12.386-3.94,24.532-5.555,36.756-.87,6.1-1.6,12.209-2.047,18.332a117.1,117.1,0,0,0-.143,18.5c-2.138-5.922-2.732-12.313-2.867-18.58-.125-3.153.106-6.285.241-9.424.28-3.122.56-6.25,1-9.349s.976-6.183,1.542-9.258c.666-3.055,1.266-6.123,2.08-9.141A131.4,131.4,0,0,1-515.038,318.8Z" transform="translate(573.129 357.009)"/><path class="i" d="M-492.483,295.721c-1.845,14.117-3.348,28.246-4.72,42.369-.631,7.068-1.281,14.131-1.723,21.2-.482,7.07-.93,14.142-1.125,21.22a372.557,372.557,0,0,0,.587,42.4A192.419,192.419,0,0,0-496.67,443.9a90.965,90.965,0,0,0,6.125,20.292c-3.666-6.132-6.046-12.973-7.967-19.862a156.931,156.931,0,0,1-3.948-21.112,282.23,282.23,0,0,1-1.445-42.838q.836-21.407,3.722-42.626A418.751,418.751,0,0,1-492.483,295.721Z" transform="translate(593.176 335.552)"/><path class="i" d="M-498.3,139.173q.8,20.365.727,40.723c.006,13.573-.245,27.142-.6,40.71-.44,13.565-.959,27.129-1.841,40.681s-1.957,27.119-4.1,40.546c.268-6.794.577-13.554.635-20.34l.455-20.333c.268-13.556.623-27.11.994-40.665C-501.193,193.384-500.255,166.277-498.3,139.173Z" transform="translate(593.186 190.018)"/><path class="i" d="M-527.193,238.581c.428-9.114,1.154-18.177,1.964-27.229.785-9.054,1.739-18.087,2.682-27.119,1.023-9.023,2.011-18.048,3.17-27.061,1.142-9.015,2.306-18.027,3.8-27.03.106,9.123-.224,18.229-.8,27.312-.552,9.087-1.378,18.15-2.335,27.2-1.023,9.04-2.14,18.071-3.537,27.063C-523.627,220.707-525.18,229.68-527.193,238.581Z" transform="translate(571.729 181.622)"/><path class="i" d="M-528.2,194.583c.7-11.007,1.389-21.99,2.2-32.953.743-10.97,1.565-21.923,2.159-32.887.666-10.957,1.241-21.917,1.54-32.883.243-10.964.471-21.934-.091-32.954a202.654,202.654,0,0,1,3.1,32.962c.314,11.051-.1,22.091-.7,33.107q-1.013,16.519-3.024,32.943C-524.329,172.863-526.018,183.767-528.2,194.583Z" transform="translate(570.797 119.117)"/><path class="i" d="M-516.7,99.033a51.665,51.665,0,0,1,1.013,8.8c.122,2.92.11,5.831-.056,8.737-.151,2.9-.465,5.8-.907,8.689a50.767,50.767,0,0,1-1.988,8.631,51.143,51.143,0,0,1-1.019-8.8c-.118-2.921-.11-5.833.062-8.737s.469-5.8.913-8.691A51.453,51.453,0,0,1-516.7,99.033Z" transform="translate(578.663 152.702)"/><path class="i" d="M-492.07,179.2a116.547,116.547,0,0,1,4.419-15.534c1.76-5.083,3.83-10.048,6.032-14.953,2.258-4.88,4.716-9.675,7.452-14.316a99.862,99.862,0,0,1,9.206-13.289c-2.082,5-4.334,9.824-6.534,14.681l-6.619,14.534c-2.25,4.824-4.45,9.673-6.763,14.486C-487.165,169.635-489.5,174.443-492.07,179.2Z" transform="translate(604.381 173.226)"/><path class="i" d="M-483.038,138.836a87.437,87.437,0,0,1,3.882-9.745q2.165-4.73,4.589-9.3t5.106-9.011a96.2,96.2,0,0,1,5.787-8.737,57.1,57.1,0,0,1-3.087,10.073,94.4,94.4,0,0,1-4.4,9.486,100.743,100.743,0,0,1-5.38,8.955A61.928,61.928,0,0,1-483.038,138.836Z" transform="translate(612.778 155.501)"/><path class="i" d="M-550.273,169.278c3.01,6.024,5.662,12.176,8.188,18.374,2.549,6.188,4.886,12.456,7.182,18.735,2.227,6.306,4.409,12.626,6.379,19.024,1.993,6.387,3.857,12.823,5.361,19.387-3.016-6.02-5.669-12.172-8.2-18.37-2.547-6.19-4.884-12.456-7.176-18.737-2.223-6.308-4.4-12.628-6.374-19.026C-546.9,182.276-548.766,175.843-550.273,169.278Z" transform="translate(550.273 218.005)"/></g></g><g transform="translate(19.604 1058.326)"><g transform="translate(95.848)"><g transform="translate(7.939 6.701)"><path class="n" d="M-582.5,523.358A479.032,479.032,0,0,1-604.665,338.4c.118-1.55-2.294-1.542-2.412,0A480.779,480.779,0,0,0-584.823,524c.479,1.47,2.808.841,2.325-.641Z" transform="translate(608.476 -337.236)"/></g><g transform="translate(253.346)"><path class="n" d="M-471.559,578.19l-7.327-243.262c-.046-1.55-2.458-1.555-2.412,0l7.327,243.262c.046,1.549,2.458,1.555,2.412,0Z" transform="translate(481.298 -333.764)"/></g><g transform="translate(277.053 57.958)"><path class="n" d="M-466.714,557.114A331.631,331.631,0,0,0-423.4,364.9c-.124-1.542-2.534-1.432-2.408.122a329.312,329.312,0,0,1-43.037,190.961c-.78,1.347,1.355,2.472,2.13,1.131Z" transform="translate(469.012 -363.799)"/></g><ellipse class="n" cx="9.953" cy="27.206" rx="9.953" ry="27.206" transform="translate(0 13.773)"/><ellipse class="n" cx="9.953" cy="27.206" rx="9.953" ry="27.206" transform="translate(243.936 7.8)"/><path class="n" d="M-430.78,397.024c-1.193,14.978-6.6,26.766-12.082,26.33s-8.956-12.932-7.763-27.91,6.6-26.766,12.082-26.33S-429.587,382.046-430.78,397.024Z" transform="translate(762.942 -300.912)"/></g><g transform="translate(0 93.296)"><path class="af" d="M-293,555.913c29.589-18.1,51.658-38.967,50.835-60.753-1.086-28.752-38.738-18.748-80.771,6.028,20.063-28.345,32.115-56.27,22.741-75.976-12.2-25.649-42.215-2.524-70.708,35.955,7.414-31.193,7.815-58.912-6.962-73.151-21.7-20.908-42.823,16.608-55.834,67.092-5.99-33.2-17.2-60.379-37.308-67.5-26.755-9.477-31.6,28.03-24.53,75.324-29.728-41.993-62.219-68.915-75.046-41.958-9.376,19.7,2.678,47.629,22.739,75.976-42.033-24.777-79.683-34.782-80.771-6.03-.866,22.947,23.657,44.88,55.624,63.622-53.465-8.876-98.452-4.936-87.652,23.688,20.159,53.432,185.279,42,224.4,38.516-.145.239-.316.481-.453.722,0,0,205.115,23.206,227.416-37.435C-198.894,551.781-241.633,547.53-293,555.913Z" transform="translate(662.262 -382.113)"/><g class="v" transform="translate(236.147 0.002)"><path class="s" d="M-506.626,420.129c14.779,14.239,14.378,41.958,6.962,73.151,28.493-38.477,58.5-61.6,70.708-35.953,4.22,8.871,4.087,19.41.847,30.9,14.648-23.742,22.079-46.327,14.138-63.014-12.2-25.649-42.213-2.524-70.706,35.955,7.414-31.193,7.815-58.912-6.962-73.151-17.88-17.228-35.365,5.225-48.245,41.9C-529.739,414.525-518.265,408.913-506.626,420.129Z" transform="translate(539.883 -382.113)"/><path class="s" d="M-494.181,487.269c42.033-24.777,79.683-34.782,80.769-6.03.01.235,0,.469,0,.7,9.7-10.522,15.41-21.546,14.984-32.816-1.042-27.582-35.735-19.489-75.663,3.087C-478.692,463.434-485.72,475.313-494.181,487.269Z" transform="translate(582.37 -336.081)"/><path class="s" d="M-436.72,470.773c-9,12.523-24.1,24.449-41.949,35.363,41.148-6.713,76.73-5.306,83.934,10.03,7.012-4.977,12.163-10.918,14.777-18.027C-371.463,475.042-398.5,467.994-436.72,470.773Z" transform="translate(596.791 -300.224)"/></g><g class="h" transform="translate(131.629 89.496)"><path class="i" d="M-594.047,428.492a95.462,95.462,0,0,1,6.844,10.461,94.468,94.468,0,0,1,5.592,11.182,94.533,94.533,0,0,1-6.844-10.461A95.611,95.611,0,0,1-594.047,428.492Z" transform="translate(594.047 -428.492)"/></g><g class="h" transform="translate(165.62 108.951)"><path class="i" d="M-576.432,438.574a112.876,112.876,0,0,1,4.724,12.707,111.277,111.277,0,0,1,3.342,13.139,111.324,111.324,0,0,1-4.724-12.707A112.555,112.555,0,0,1-576.432,438.574Z" transform="translate(576.432 -438.574)"/></g><g class="h" transform="translate(186.794 36.222)"><path class="i" d="M-565.459,400.884a60.249,60.249,0,0,1,2.925,9.453,59.366,59.366,0,0,1,1.515,9.78,59.436,59.436,0,0,1-2.925-9.453A60.207,60.207,0,0,1-565.459,400.884Z" transform="translate(565.459 -400.884)"/></g><g class="h" transform="translate(201.353 98.519)"><path class="i" d="M-557.914,433.168a53.352,53.352,0,0,1,3.624,8.016,62.933,62.933,0,0,1,2.424,8.477,62.552,62.552,0,0,1,1.216,8.734,52.885,52.885,0,0,1-.071,8.8c-.311-2.916-.612-5.806-1.034-8.678-.438-2.867-.911-5.723-1.526-8.552-.581-2.835-1.3-5.638-2.063-8.438C-556.121,438.725-557.017,435.96-557.914,433.168Z" transform="translate(557.914 -433.168)"/></g><g class="h" transform="translate(257.629 38.349)"><path class="i" d="M-526.761,401.986a29.945,29.945,0,0,1,.886,10.887,29.868,29.868,0,0,1-2.875,10.538c.552-3.612,1.123-7.117,1.436-10.673C-526.963,409.187-526.88,405.637-526.761,401.986Z" transform="translate(528.75 -401.986)"/></g><g class="h" transform="translate(247.964 93.94)"><path class="i" d="M-533.744,430.8c.54,4.272.922,8.552,1.279,12.834s.592,8.571.9,12.855c.185,4.292.434,8.579.562,12.875s.228,8.591.17,12.9c-.542-4.27-.922-8.55-1.281-12.832s-.594-8.571-.893-12.857c-.181-4.292-.434-8.579-.558-12.875S-533.8,435.1-533.744,430.8Z" transform="translate(533.759 -430.795)"/></g><g class="h" transform="translate(314.933 83.389)"><path class="i" d="M-498.767,442.368a17.087,17.087,0,0,1,.98-9.436,17.023,17.023,0,0,1,5.673-7.6,42.709,42.709,0,0,0-4.326,8.13A42.4,42.4,0,0,0-498.767,442.368Z" transform="translate(499.054 -425.327)"/></g><g class="h" transform="translate(289.534 149.666)"><path class="i" d="M-507.732,459.674a52.5,52.5,0,0,1,.508,8.164,63.29,63.29,0,0,1-.606,8.172,62.732,62.732,0,0,1-1.658,8.025,51.77,51.77,0,0,1-2.729,7.713c.56-2.671,1.15-5.308,1.644-7.964s.951-5.307,1.308-7.975c.392-2.663.664-5.341.932-8.027C-508.081,465.094-507.924,462.395-507.732,459.674Z" transform="translate(512.216 -459.674)"/></g><g class="h" transform="translate(328.202 149.668)"><path class="i" d="M-492.177,472.523a50.868,50.868,0,0,1,5.912-6.935,50.471,50.471,0,0,1,6.933-5.913,50.351,50.351,0,0,1-5.91,6.935A50.99,50.99,0,0,1-492.177,472.523Z" transform="translate(492.177 -459.675)"/></g><g class="h" transform="translate(80.183 133.623)"><path class="i" d="M-620.708,451.36a48.144,48.144,0,0,1,10.075,3.535,54.232,54.232,0,0,1,9.187,5.527,54.226,54.226,0,0,1,7.931,7.219,48,48,0,0,1,6.27,8.641,88.369,88.369,0,0,0-7.074-7.871,78.793,78.793,0,0,0-7.989-6.829,78.866,78.866,0,0,0-8.832-5.7A88.32,88.32,0,0,0-620.708,451.36Z" transform="translate(620.708 -451.36)"/></g><g class="h" transform="translate(145.918 158.324)"><path class="i" d="M-586.642,464.161a77.019,77.019,0,0,1,3.935,10.486,75.873,75.873,0,0,1,2.553,10.9,75.631,75.631,0,0,1-3.937-10.486A76.781,76.781,0,0,1-586.642,464.161Z" transform="translate(586.642 -464.161)"/></g><g class="h" transform="translate(94.841 202.834)"><path class="i" d="M-613.112,487.377a43.551,43.551,0,0,1,8.45.127,50.655,50.655,0,0,1,8.328,1.588,50.6,50.6,0,0,1,7.952,2.943,43.589,43.589,0,0,1,7.3,4.257c-2.57-1.146-5.125-2.262-7.73-3.232-2.609-.955-5.235-1.847-7.908-2.574-2.665-.76-5.374-1.353-8.1-1.885C-607.555,488.085-610.318,487.721-613.112,487.377Z" transform="translate(613.112 -487.228)"/></g><g class="h" transform="translate(35.053 196.199)"><path class="i" d="M-644.1,483.789a107.546,107.546,0,0,1,12.929,2.923,106.435,106.435,0,0,1,12.533,4.313,106.435,106.435,0,0,1-12.929-2.921A107.641,107.641,0,0,1-644.1,483.789Z" transform="translate(644.096 -483.789)"/></g><g class="h" transform="translate(184.534 164.69)"><path class="i" d="M-566.63,467.46c.733,2.8,1.308,5.617,1.862,8.442.569,2.821,1.025,5.662,1.48,8.5.423,2.844.841,5.689,1.15,8.552.324,2.86.623,5.723.764,8.61-.735-2.8-1.31-5.617-1.864-8.44s-1.025-5.662-1.478-8.5c-.421-2.844-.841-5.689-1.148-8.552C-566.188,473.21-566.487,470.347-566.63,467.46Z" transform="translate(566.63 -467.46)"/></g><g class="h" transform="translate(228.995 175.359)"><path class="i" d="M-542.865,472.989a85.244,85.244,0,0,1,.722,11.777,84.314,84.314,0,0,1-.722,11.775,84.02,84.02,0,0,1-.724-11.775A85.237,85.237,0,0,1-542.865,472.989Z" transform="translate(543.589 -472.989)"/></g><g class="h" transform="translate(265.828 175.375)"><path class="i" d="M-521.849,473c.079,3.23,0,6.447-.1,9.664-.085,3.219-.286,6.428-.486,9.639-.233,3.207-.471,6.416-.82,9.615-.334,3.2-.691,6.4-1.21,9.588-.081-3.23,0-6.447.1-9.664.087-3.219.286-6.43.488-9.639.235-3.207.473-6.414.822-9.613C-522.724,479.386-522.365,476.187-521.849,473Z" transform="translate(524.501 -472.997)"/></g><g class="h" transform="translate(364.356 130.644)"><path class="i" d="M-473.441,466.618a21.445,21.445,0,0,1,6.24-10.978,21.374,21.374,0,0,1,11.2-5.824,36.479,36.479,0,0,0-10.2,6.864A36.318,36.318,0,0,0-473.441,466.618Z" transform="translate(473.441 -449.816)"/></g><g class="h" transform="translate(321.715 194.104)"><path class="i" d="M-495.539,495.96a110.872,110.872,0,0,1,11.3-7.257,109.321,109.321,0,0,1,12.016-6,108.934,108.934,0,0,1-11.3,7.257A110.331,110.331,0,0,1-495.539,495.96Z" transform="translate(495.539 -482.703)"/></g><g class="h" transform="translate(349.405 207.194)"><path class="i" d="M-481.189,499.824c2.593-1.144,5.237-2.14,7.888-3.111,2.646-.988,5.326-1.868,8.006-2.746,2.69-.847,5.384-1.69,8.108-2.426,2.723-.751,5.451-1.48,8.228-2.055-2.593,1.148-5.237,2.142-7.888,3.114s-5.326,1.866-8.006,2.744c-2.692.843-5.384,1.687-8.11,2.424S-478.412,499.247-481.189,499.824Z" transform="translate(481.189 -489.487)"/></g></g><path class="ah" d="M-474.407,390.145c-11.038-11.041-18.9,13-22.185,25.911-.043-5.893-.241-11.47-.533-16.61,2.528-10.106,11.113-48.824-5.594-49.6-15.8-.731-2.254,34.9,3.057,47.583.411,6.64.675,14.071.637,22.008-3.13-11.395-14.158-47.637-25.467-38.3-12.164,10.042,19.617,36.273,25.444,40.92-.1,7.773-.5,15.987-1.345,24.395-4.4-13.592-17.872-51.053-29.541-40.129-12.44,11.647,20.846,37.412,29.174,43.542a213.962,213.962,0,0,1-5.019,28.067c-2.92-12.728-13.43-53.418-26.592-43.95-13.83,9.947,18.606,39.884,25.96,46.392a153.394,153.394,0,0,1-8.442,23.877c-1.532-13.251-7.4-53.275-21.722-46.383-15.042,7.238,13.461,40.781,20.593,48.808-.764,1.592-1.551,3.168-2.379,4.724a1.735,1.735,0,0,0,.365,1.932c.037.037.073.069.11.1a1.034,1.034,0,0,0,1.669-.2q1.407-2.643,2.688-5.361c8.029.839,47.529,4,38.876-15.987-7.742-17.888-29.113,3.267-37.161,12.207a157.744,157.744,0,0,0,7.807-22.646c6.308-1.4,45.194-10.893,32.374-28.74-11.275-15.7-26.056,12.94-31.287,24.447a219.238,219.238,0,0,0,4.546-26.131c4.593-1.65,43.847-16.4,29.394-33.286-13.4-15.655-26.154,21.564-29.165,31.224.965-9.056,1.42-17.911,1.532-26.263C-489.338,418.887-461.5,403.062-474.407,390.145Z" transform="translate(775.088 -318.821)"/><path class="n" d="M-327.873,477.853c-4.708-20.091-30.292,1.438-42.969,13.654,4.056-6.648,7.717-13.05,10.97-19.03,9.88-9.59,46.491-47.1,28.263-59.609-17.243-11.829-26.843,37.636-29.709,55.579-4.164,7.746-9.044,16.277-14.615,25.165,4.421-14.98,17.278-63.373-1.93-60.763-20.659,2.806-3.23,54.41.079,63.688-5.528,8.66-11.7,17.608-18.5,26.467,4.525-18.333,15.483-69.8-5.231-65.654-22.089,4.419-2.646,56.544,2.443,69.234a282.924,282.924,0,0,1-25.188,28.03c5.584-16.329,22.12-69.359.739-67.893-22.463,1.542-6.879,57.764-3.153,70.2a203.153,203.153,0,0,1-26.114,20.944c7.508-15.954,28.8-65,7.908-67.235-21.938-2.348-13.286,55.186-10.866,69.17-1.964,1.256-3.95,2.48-5.963,3.649a2.3,2.3,0,0,0-.934,2.426,1.77,1.77,0,0,0,.052.191,1.366,1.366,0,0,0,2.014.932q3.424-1.988,6.756-4.149c8.435,6.534,50.6,37.6,54.806,9.12,3.763-25.487-34.979-16.609-50.246-12.17a209.212,209.212,0,0,0,24.545-20c8.062,2.815,58.352,19.24,56.382-9.735-1.733-25.487-38.282-3.612-52.172,5.667A290.193,290.193,0,0,0-397.2,529.542c6.308,1.343,60.678,12.114,56.2-16.917-4.147-26.92-44.4,6.005-54.511,14.758,7.393-9.5,14.071-19.131,20.016-28.431C-364.666,499.739-322.368,501.356-327.873,477.853Z" transform="translate(847.784 -261.904)"/></g></g><g transform="matrix(0.996, -0.087, 0.087, 0.996, 11589.979, -20866.184)"><path class="b" d="M-249.194,163.249s-10.049-20.193-26.94-30.357c20.416-16.235,26.56-50.282,26.56-50.282C-281.54,81.215-298.1,91.1-306.6,102.937c-3.026-22.19-24.989-40.475-24.989-40.475-13.865,22.889-14.464,39.108-10.252,50.328-14.407-1.8-29.309,2.358-29.309,2.358,10.271,24.947,25.3,29.751,37.154,28.768-5.568,3.625-21.948,13.95-30.687,15.9,0,0,2.826,7.618,6.662,6.988,2.83-.468,18.9-11.562,27.14-17.352-5.982,12.057-7.415,28.925,12.395,47.133,0,0,13.681-17.932,17.029-35.637C-291.593,168.079-275.489,171.727-249.194,163.249Zm-66.079-31.828c-.046-.019-.085-.042-.127-.061.046-.058.085-.115.134-.169Z" transform="translate(-12960.117 20320.379)"/><path class="b" d="M-333.331,172.281s11.834-1.5,19.852-8.167c4.55,13.025,20.485,22.025,20.485,22.025,6.263-15.72,4.216-25.711-.215-32.02,11.608,2.358,24.567-5.426,24.567-5.426-9.016-10.913-17.01-14.038-23.346-13.889a45.233,45.233,0,0,0,3.928-15.048c-14.25.78-19.268,7.449-20.839,13.539-.841-3.41-3.145-13.389-2.592-18.093,0,0-4.3.084-4.65,2.108-.261,1.494,2.481,11.454,3.936,16.576-4.98-5.088-13.155-8.743-25.7-2.024,0,0,6.57,9.96,14.829,14.714C-328.355,150.264-332.981,157.671-333.331,172.281Zm27.408-27.454.054-.054.061.1Z" transform="translate(-12865.697 20470.152)"/><path class="ai" d="M-316.6,121.716s14.952,6.766,29.148,4.731c-4.047,18.542,8.144,40.563,8.144,40.563,18.665-13.912,23.457-27.093,22.808-37.68,11.911,11.12,32.7,11.331,32.7,11.331-2.707-19.283-9.826-28.7-17.36-33.091,8.95-5.61,15.44-14.806,15.44-14.806-17.26-9.346-27.946-5.141-34.174.86,1.475-4.6,5.959-17.955,9.995-23.073,0,0-5.1-3-6.969-.875-1.382,1.563-5.345,15.209-7.326,22.263-2.169-9.55-9.119-19.721-28.66-20.881,0,0,.53,16.4,6.781,27.927C-294.908,99.5-305.663,104.847-316.6,121.716Zm51.895-12.433.1-.023c0,.05,0,.1,0,.154Z" transform="translate(-12805.186 20338.707)"/></g><g transform="matrix(0.966, 0.259, -0.259, 0.966, 19801.482, -15757.215)"><path class="b" d="M-249.194,163.249s-10.049-20.193-26.94-30.357c20.416-16.235,26.56-50.282,26.56-50.282C-281.54,81.215-298.1,91.1-306.6,102.937c-3.026-22.19-24.989-40.475-24.989-40.475-13.865,22.889-14.464,39.108-10.252,50.328-14.407-1.8-29.309,2.358-29.309,2.358,10.271,24.947,25.3,29.751,37.154,28.768-5.568,3.625-21.948,13.95-30.687,15.9,0,0,2.826,7.618,6.662,6.988,2.83-.468,18.9-11.562,27.14-17.352-5.982,12.057-7.415,28.925,12.395,47.133,0,0,13.681-17.932,17.029-35.637C-291.593,168.079-275.489,171.727-249.194,163.249Zm-66.079-31.828c-.046-.019-.085-.042-.127-.061.046-.058.085-.115.134-.169Z" transform="translate(-12960.117 20320.379)"/><path class="b" d="M-333.331,172.281s11.834-1.5,19.852-8.167c4.55,13.025,20.485,22.025,20.485,22.025,6.263-15.72,4.216-25.711-.215-32.02,11.608,2.358,24.567-5.426,24.567-5.426-9.016-10.913-17.01-14.038-23.346-13.889a45.233,45.233,0,0,0,3.928-15.048c-14.25.78-19.268,7.449-20.839,13.539-.841-3.41-3.145-13.389-2.592-18.093,0,0-4.3.084-4.65,2.108-.261,1.494,2.481,11.454,3.936,16.576-4.98-5.088-13.155-8.743-25.7-2.024,0,0,6.57,9.96,14.829,14.714C-328.355,150.264-332.981,157.671-333.331,172.281Zm27.408-27.454.054-.054.061.1Z" transform="translate(-12865.697 20470.152)"/><path class="ai" d="M-316.6,121.716s14.952,6.766,29.148,4.731c-4.047,18.542,8.144,40.563,8.144,40.563,18.665-13.912,23.457-27.093,22.808-37.68,11.911,11.12,32.7,11.331,32.7,11.331-2.707-19.283-9.826-28.7-17.36-33.091,8.95-5.61,15.44-14.806,15.44-14.806-17.26-9.346-27.946-5.141-34.174.86,1.475-4.6,5.959-17.955,9.995-23.073,0,0-5.1-3-6.969-.875-1.382,1.563-5.345,15.209-7.326,22.263-2.169-9.55-9.119-19.721-28.66-20.881,0,0,.53,16.4,6.781,27.927C-294.908,99.5-305.663,104.847-316.6,121.716Zm51.895-12.433.1-.023c0,.05,0,.1,0,.154Z" transform="translate(-12805.186 20338.707)"/></g><g transform="matrix(0.996, -0.087, 0.087, 0.996, 11757.654, -20279.65)"><path class="b" d="M-249.194,163.249s-10.049-20.193-26.94-30.357c20.416-16.235,26.56-50.282,26.56-50.282C-281.54,81.215-298.1,91.1-306.6,102.937c-3.026-22.19-24.989-40.475-24.989-40.475-13.865,22.889-14.464,39.108-10.252,50.328-14.407-1.8-29.309,2.358-29.309,2.358,10.271,24.947,25.3,29.751,37.154,28.768-5.568,3.625-21.948,13.95-30.687,15.9,0,0,2.826,7.618,6.662,6.988,2.83-.468,18.9-11.562,27.14-17.352-5.982,12.057-7.415,28.925,12.395,47.133,0,0,13.681-17.932,17.029-35.637C-291.593,168.079-275.489,171.727-249.194,163.249Zm-66.079-31.828c-.046-.019-.085-.042-.127-.061.046-.058.085-.115.134-.169Z" transform="translate(-12960.117 20320.379)"/><path class="b" d="M-333.331,172.281s11.834-1.5,19.852-8.167c4.55,13.025,20.485,22.025,20.485,22.025,6.263-15.72,4.216-25.711-.215-32.02,11.608,2.358,24.567-5.426,24.567-5.426-9.016-10.913-17.01-14.038-23.346-13.889a45.233,45.233,0,0,0,3.928-15.048c-14.25.78-19.268,7.449-20.839,13.539-.841-3.41-3.145-13.389-2.592-18.093,0,0-4.3.084-4.65,2.108-.261,1.494,2.481,11.454,3.936,16.576-4.98-5.088-13.155-8.743-25.7-2.024,0,0,6.57,9.96,14.829,14.714C-328.355,150.264-332.981,157.671-333.331,172.281Zm27.408-27.454.054-.054.061.1Z" transform="translate(-12865.697 20470.152)"/><path class="ai" d="M-316.6,121.716s14.952,6.766,29.148,4.731c-4.047,18.542,8.144,40.563,8.144,40.563,18.665-13.912,23.457-27.093,22.808-37.68,11.911,11.12,32.7,11.331,32.7,11.331-2.707-19.283-9.826-28.7-17.36-33.091,8.95-5.61,15.44-14.806,15.44-14.806-17.26-9.346-27.946-5.141-34.174.86,1.475-4.6,5.959-17.955,9.995-23.073,0,0-5.1-3-6.969-.875-1.382,1.563-5.345,15.209-7.326,22.263-2.169-9.55-9.119-19.721-28.66-20.881,0,0,.53,16.4,6.781,27.927C-294.908,99.5-305.663,104.847-316.6,121.716Zm51.895-12.433.1-.023c0,.05,0,.1,0,.154Z" transform="translate(-12805.186 20338.707)"/></g><g transform="matrix(-0.719, 0.695, -0.695, -0.719, 4905.235, 24392.049)"><path class="b" d="M-309.894,113.086s-5.047-10.143-13.532-15.248c10.255-8.155,13.341-25.256,13.341-25.256-16.056-.7-24.373,4.264-28.645,10.211-1.52-11.146-12.552-20.33-12.552-20.33-6.965,11.5-7.265,19.644-5.15,25.279a42.977,42.977,0,0,0-14.722,1.184c5.159,12.531,12.708,14.944,18.662,14.45-2.8,1.821-11.024,7.007-15.414,7.985,0,0,1.419,3.827,3.346,3.51,1.421-.235,9.495-5.807,13.632-8.716-3,6.056-3.724,14.529,6.226,23.675,0,0,6.872-9.007,8.554-17.9C-331.19,115.513-323.1,117.345-309.894,113.086ZM-343.085,97.1c-.023-.01-.042-.021-.064-.031.023-.029.042-.058.068-.085Z" transform="translate(-12960.117 20320.379)"/><path class="b" d="M-335.607,143.873s5.944-.754,9.971-4.1c2.286,6.542,10.29,11.063,10.29,11.063,3.146-7.9,2.118-12.915-.108-16.083,5.83,1.184,12.34-2.725,12.34-2.725-4.529-5.481-8.544-7.051-11.727-6.976a22.72,22.72,0,0,0,1.973-7.559c-7.157.392-9.678,3.742-10.467,6.8-.422-1.713-1.58-6.725-1.3-9.088,0,0-2.158.042-2.336,1.059-.131.75,1.246,5.753,1.977,8.326-2.5-2.556-6.608-4.392-12.909-1.016,0,0,3.3,5,7.449,7.391C-333.107,132.814-335.431,136.534-335.607,143.873Zm13.767-13.79.027-.027.031.048Z" transform="translate(-12929.239 20369.359)"/><path class="ai" d="M-316.6,95.437s7.51,3.4,14.641,2.376c-2.033,9.314,4.091,20.375,4.091,20.375,9.375-6.988,11.782-13.609,11.456-18.926,5.983,5.586,16.427,5.692,16.427,5.692-1.36-9.686-4.936-14.417-8.72-16.622a31.271,31.271,0,0,0,7.755-7.437c-8.669-4.694-14.037-2.583-17.165.432.741-2.311,2.993-9.019,5.02-11.59,0,0-2.559-1.5-3.5-.44-.694.785-2.685,7.64-3.68,11.183-1.09-4.8-4.581-9.906-14.4-10.488,0,0,.266,8.239,3.406,14.027C-305.7,84.278-311.1,86.964-316.6,95.437Zm26.066-6.245.05-.012c0,.025,0,.05,0,.077Z" transform="translate(-12909.45 20326.373)"/></g><g transform="translate(-18191.762 14912.382) rotate(-158)"><path class="b" d="M-309.894,113.086s-5.047-10.143-13.532-15.248c10.255-8.155,13.341-25.256,13.341-25.256-16.056-.7-24.373,4.264-28.645,10.211-1.52-11.146-12.552-20.33-12.552-20.33-6.965,11.5-7.265,19.644-5.15,25.279a42.977,42.977,0,0,0-14.722,1.184c5.159,12.531,12.708,14.944,18.662,14.45-2.8,1.821-11.024,7.007-15.414,7.985,0,0,1.419,3.827,3.346,3.51,1.421-.235,9.495-5.807,13.632-8.716-3,6.056-3.724,14.529,6.226,23.675,0,0,6.872-9.007,8.554-17.9C-331.19,115.513-323.1,117.345-309.894,113.086ZM-343.085,97.1c-.023-.01-.042-.021-.064-.031.023-.029.042-.058.068-.085Z" transform="translate(-12960.117 20320.379)"/><path class="b" d="M-335.607,143.873s5.944-.754,9.971-4.1c2.286,6.542,10.29,11.063,10.29,11.063,3.146-7.9,2.118-12.915-.108-16.083,5.83,1.184,12.34-2.725,12.34-2.725-4.529-5.481-8.544-7.051-11.727-6.976a22.72,22.72,0,0,0,1.973-7.559c-7.157.392-9.678,3.742-10.467,6.8-.422-1.713-1.58-6.725-1.3-9.088,0,0-2.158.042-2.336,1.059-.131.75,1.246,5.753,1.977,8.326-2.5-2.556-6.608-4.392-12.909-1.016,0,0,3.3,5,7.449,7.391C-333.107,132.814-335.431,136.534-335.607,143.873Zm13.767-13.79.027-.027.031.048Z" transform="translate(-12929.239 20369.359)"/><path class="ai" d="M-316.6,95.437s7.51,3.4,14.641,2.376c-2.033,9.314,4.091,20.375,4.091,20.375,9.375-6.988,11.782-13.609,11.456-18.926,5.983,5.586,16.427,5.692,16.427,5.692-1.36-9.686-4.936-14.417-8.72-16.622a31.271,31.271,0,0,0,7.755-7.437c-8.669-4.694-14.037-2.583-17.165.432.741-2.311,2.993-9.019,5.02-11.59,0,0-2.559-1.5-3.5-.44-.694.785-2.685,7.64-3.68,11.183-1.09-4.8-4.581-9.906-14.4-10.488,0,0,.266,8.239,3.406,14.027C-305.7,84.278-311.1,86.964-316.6,95.437Zm26.066-6.245.05-.012c0,.025,0,.05,0,.077Z" transform="translate(-12909.45 20326.373)"/></g><g transform="matrix(-0.829, -0.559, 0.559, -0.829, -20847.033, 10909.039)"><path class="b" d="M-309.894,113.086s-5.047-10.143-13.532-15.248c10.255-8.155,13.341-25.256,13.341-25.256-16.056-.7-24.373,4.264-28.645,10.211-1.52-11.146-12.552-20.33-12.552-20.33-6.965,11.5-7.265,19.644-5.15,25.279a42.977,42.977,0,0,0-14.722,1.184c5.159,12.531,12.708,14.944,18.662,14.45-2.8,1.821-11.024,7.007-15.414,7.985,0,0,1.419,3.827,3.346,3.51,1.421-.235,9.495-5.807,13.632-8.716-3,6.056-3.724,14.529,6.226,23.675,0,0,6.872-9.007,8.554-17.9C-331.19,115.513-323.1,117.345-309.894,113.086ZM-343.085,97.1c-.023-.01-.042-.021-.064-.031.023-.029.042-.058.068-.085Z" transform="translate(-12960.117 20320.379)"/><path class="b" d="M-335.607,143.873s5.944-.754,9.971-4.1c2.286,6.542,10.29,11.063,10.29,11.063,3.146-7.9,2.118-12.915-.108-16.083,5.83,1.184,12.34-2.725,12.34-2.725-4.529-5.481-8.544-7.051-11.727-6.976a22.72,22.72,0,0,0,1.973-7.559c-7.157.392-9.678,3.742-10.467,6.8-.422-1.713-1.58-6.725-1.3-9.088,0,0-2.158.042-2.336,1.059-.131.75,1.246,5.753,1.977,8.326-2.5-2.556-6.608-4.392-12.909-1.016,0,0,3.3,5,7.449,7.391C-333.107,132.814-335.431,136.534-335.607,143.873Zm13.767-13.79.027-.027.031.048Z" transform="translate(-12929.239 20369.359)"/><path class="ai" d="M-316.6,95.437s7.51,3.4,14.641,2.376c-2.033,9.314,4.091,20.375,4.091,20.375,9.375-6.988,11.782-13.609,11.456-18.926,5.983,5.586,16.427,5.692,16.427,5.692-1.36-9.686-4.936-14.417-8.72-16.622a31.271,31.271,0,0,0,7.755-7.437c-8.669-4.694-14.037-2.583-17.165.432.741-2.311,2.993-9.019,5.02-11.59,0,0-2.559-1.5-3.5-.44-.694.785-2.685,7.64-3.68,11.183-1.09-4.8-4.581-9.906-14.4-10.488,0,0,.266,8.239,3.406,14.027C-305.7,84.278-311.1,86.964-316.6,95.437Zm26.066-6.245.05-.012c0,.025,0,.05,0,.077Z" transform="translate(-12909.45 20326.373)"/></g><g transform="matrix(-0.326, 0.946, -0.946, -0.326, 16932.561, 19388.414)"><path class="b" d="M-249.194,163.249s-10.049-20.193-26.94-30.357c20.416-16.235,26.56-50.282,26.56-50.282C-281.54,81.215-298.1,91.1-306.6,102.937c-3.026-22.19-24.989-40.475-24.989-40.475-13.865,22.889-14.464,39.108-10.252,50.328-14.407-1.8-29.309,2.358-29.309,2.358,10.271,24.947,25.3,29.751,37.154,28.768-5.568,3.625-21.948,13.95-30.687,15.9,0,0,2.826,7.618,6.662,6.988,2.83-.468,18.9-11.562,27.14-17.352-5.982,12.057-7.415,28.925,12.395,47.133,0,0,13.681-17.932,17.029-35.637C-291.593,168.079-275.489,171.727-249.194,163.249Zm-66.079-31.828c-.046-.019-.085-.042-.127-.061.046-.058.085-.115.134-.169Z" transform="translate(-12960.117 20320.379)"/><path class="b" d="M-333.331,172.281s11.834-1.5,19.852-8.167c4.55,13.025,20.485,22.025,20.485,22.025,6.263-15.72,4.216-25.711-.215-32.02,11.608,2.358,24.567-5.426,24.567-5.426-9.016-10.913-17.01-14.038-23.346-13.889a45.233,45.233,0,0,0,3.928-15.048c-14.25.78-19.268,7.449-20.839,13.539-.841-3.41-3.145-13.389-2.592-18.093,0,0-4.3.084-4.65,2.108-.261,1.494,2.481,11.454,3.936,16.576-4.98-5.088-13.155-8.743-25.7-2.024,0,0,6.57,9.96,14.829,14.714C-328.355,150.264-332.981,157.671-333.331,172.281Zm27.408-27.454.054-.054.061.1Z" transform="translate(-12865.697 20470.152)"/><path class="ai" d="M-316.6,121.716s14.952,6.766,29.148,4.731c-4.047,18.542,8.144,40.563,8.144,40.563,18.665-13.912,23.457-27.093,22.808-37.68,11.911,11.12,32.7,11.331,32.7,11.331-2.707-19.283-9.826-28.7-17.36-33.091,8.95-5.61,15.44-14.806,15.44-14.806-17.26-9.346-27.946-5.141-34.174.86,1.475-4.6,5.959-17.955,9.995-23.073,0,0-5.1-3-6.969-.875-1.382,1.563-5.345,15.209-7.326,22.263-2.169-9.55-9.119-19.721-28.66-20.881,0,0,.53,16.4,6.781,27.927C-294.908,99.5-305.663,104.847-316.6,121.716Zm51.895-12.433.1-.023c0,.05,0,.1,0,.154Z" transform="translate(-12805.186 20338.707)"/></g><g transform="matrix(0.087, 0.996, -0.996, 0.087, 21603.725, 11765.926)"><path class="b" d="M-299.538,121.644s-5.9-11.858-15.819-17.826c11.988-9.533,15.6-29.526,15.6-29.526-18.771-.818-28.493,4.985-33.487,11.937-1.777-13.03-14.674-23.767-14.674-23.767-8.142,13.441-8.494,22.965-6.02,29.553A50.242,50.242,0,0,0-371.153,93.4c6.031,14.649,14.857,17.47,21.817,16.893-3.269,2.128-12.888,8.191-18.02,9.335,0,0,1.659,4.473,3.912,4.1,1.662-.275,11.1-6.789,15.937-10.189-3.513,7.08-4.354,16.985,7.278,27.677,0,0,8.034-10.53,10-20.926C-324.435,124.481-314.978,126.623-299.538,121.644Zm-38.8-18.69c-.027-.011-.05-.025-.074-.036.027-.034.05-.068.079-.1Z" transform="translate(-12960.117 20320.379)"/><path class="b" d="M-335.219,148.72s6.949-.882,11.657-4.8c2.672,7.648,12.029,12.933,12.029,12.933,3.678-9.231,2.476-15.1-.126-18.8,6.816,1.384,14.426-3.186,14.426-3.186-5.294-6.408-9.988-8.243-13.709-8.155a26.561,26.561,0,0,0,2.307-8.836c-8.367.458-11.314,4.374-12.237,7.95-.494-2-1.847-7.862-1.522-10.624,0,0-2.523.05-2.731,1.238-.153.877,1.457,6.726,2.311,9.734-2.924-2.988-7.725-5.134-15.091-1.188,0,0,3.858,5.849,8.708,8.64C-332.3,135.791-335.013,140.14-335.219,148.72Zm16.094-16.121.032-.032.036.056Z" transform="translate(-12918.398 20386.557)"/><path class="ai" d="M-316.6,99.92s8.78,3.973,17.116,2.778c-2.377,10.888,4.782,23.819,4.782,23.819,10.96-8.169,13.774-15.909,13.393-22.126,6.994,6.53,19.2,6.654,19.2,6.654-1.59-11.323-5.77-16.854-10.194-19.431a36.557,36.557,0,0,0,9.066-8.694c-10.135-5.488-16.41-3.019-20.067.505.866-2.7,3.5-10.543,5.869-13.549,0,0-2.992-1.759-4.092-.514-.812.918-3.139,8.931-4.3,13.073-1.274-5.608-5.355-11.58-16.829-12.261,0,0,.311,9.632,3.982,16.4C-303.86,86.874-310.176,90.015-316.6,99.92Zm30.473-7.3.059-.014c0,.029,0,.059,0,.09Z" transform="translate(-12891.662 20328.477)"/></g></g></svg>