<svg xmlns="http://www.w3.org/2000/svg" xmlns:xlink="http://www.w3.org/1999/xlink" width="1920" height="2927" viewBox="0 0 1920 2927">
  <defs>
    <style>
      .cls-1 {
        clip-path: url(#clip-Web_1920_5);
      }

      .cls-2 {
        fill: url(#linear-gradient);
      }

      .cls-19, .cls-20, .cls-3 {
        fill: #eee;
      }

      .cls-3 {
        opacity: 0.42;
      }

      .cls-16, .cls-23, .cls-4 {
        fill: #ff524f;
      }

      .cls-4 {
        opacity: 0.66;
      }

      .cls-5 {
        fill: url(#linear-gradient-2);
      }

      .cls-6 {
        fill: url(#linear-gradient-3);
      }

      .cls-7 {
        fill: url(#linear-gradient-4);
      }

      .cls-8 {
        fill: url(#linear-gradient-5);
      }

      .cls-9 {
        fill: url(#linear-gradient-6);
      }

      .cls-10 {
        fill: url(#linear-gradient-7);
      }

      .cls-11 {
        fill: url(#linear-gradient-8);
      }

      .cls-12 {
        fill: url(#linear-gradient-9);
      }

      .cls-13 {
        fill: url(#linear-gradient-10);
      }

      .cls-14 {
        fill: url(#linear-gradient-12);
      }

      .cls-15 {
        fill: url(#linear-gradient-16);
      }

      .cls-16 {
        opacity: 0.31;
      }

      .cls-17 {
        fill: #5b0f40;
      }

      .cls-18 {
        fill: #37073c;
      }

      .cls-19 {
        opacity: 0.11;
      }

      .cls-21 {
        fill: none;
      }

      .cls-22 {
        fill: url(#linear-gradient-18);
      }

      .cls-23 {
        opacity: 0.7;
      }

      .cls-24 {
        fill: #ff7a76;
      }
    </style>
    <linearGradient id="linear-gradient" x1="0.5" y1="0.994" x2="0.5" y2="-0.006" gradientUnits="objectBoundingBox">
      <stop offset="0.305" stop-color="#fbc975"/>
      <stop offset="0.378" stop-color="#fbbd75"/>
      <stop offset="0.708" stop-color="#fe8c75"/>
      <stop offset="0.872" stop-color="#ff7a76"/>
    </linearGradient>
    <linearGradient id="linear-gradient-2" x1="0.506" y1="0.62" x2="0.591" y2="0.04" gradientUnits="objectBoundingBox">
      <stop offset="0.029" stop-color="#ff3058"/>
      <stop offset="0.062" stop-color="#ff3158"/>
      <stop offset="0.509" stop-color="#ff4158"/>
      <stop offset="0.858" stop-color="#ff4758"/>
    </linearGradient>
    <linearGradient id="linear-gradient-3" x1="0.522" y1="1.053" x2="0.461" y2="0.222" gradientUnits="objectBoundingBox">
      <stop offset="0.123" stop-color="#db154f"/>
      <stop offset="0.662" stop-color="#e62f4c"/>
    </linearGradient>
    <linearGradient id="linear-gradient-4" x1="0.491" y1="1.152" x2="0.576" y2="-0.53" gradientUnits="objectBoundingBox">
      <stop offset="0" stop-color="#a30944"/>
      <stop offset="0.186" stop-color="#b70549"/>
      <stop offset="0.403" stop-color="#c6024e"/>
      <stop offset="0.652" stop-color="#d00051"/>
      <stop offset="1" stop-color="#d30052"/>
    </linearGradient>
    <linearGradient id="linear-gradient-5" x1="0.511" y1="0.751" x2="0.596" y2="-0.931" xlink:href="#linear-gradient-4"/>
    <linearGradient id="linear-gradient-6" x1="0.501" y1="0.957" x2="0.585" y2="-0.725" xlink:href="#linear-gradient-4"/>
    <linearGradient id="linear-gradient-7" x1="0.504" y1="0.894" x2="0.564" y2="-0.462" xlink:href="#linear-gradient-4"/>
    <linearGradient id="linear-gradient-8" x1="0.497" y1="1.047" x2="0.588" y2="-1.007" xlink:href="#linear-gradient-4"/>
    <linearGradient id="linear-gradient-9" x1="0.504" y1="0.897" x2="0.627" y2="-1.881" xlink:href="#linear-gradient-4"/>
    <linearGradient id="linear-gradient-10" x1="0.489" y1="1.221" x2="0.581" y2="-0.832" xlink:href="#linear-gradient-4"/>
    <linearGradient id="linear-gradient-12" x1="0.511" y1="0.751" x2="0.596" y2="-0.931" xlink:href="#linear-gradient-4"/>
    <linearGradient id="linear-gradient-16" x1="0.504" y1="0.897" x2="0.627" y2="-1.881" xlink:href="#linear-gradient-4"/>
    <linearGradient id="linear-gradient-18" x1="0.479" y1="0.943" x2="0.54" y2="0.256" gradientUnits="objectBoundingBox">
      <stop offset="0.061" stop-color="#a30944"/>
      <stop offset="0.277" stop-color="#b9044a"/>
      <stop offset="0.476" stop-color="#d30052"/>
    </linearGradient>
    <clipPath id="clip-Web_1920_5">
      <rect width="1920" height="2927"/>
    </clipPath>
  </defs>
  <g id="Web_1920_5" data-name="Web 1920 – 5" class="cls-1">
    <rect class="cls-24" width="1920" height="2927"/>
    <rect id="Rectangle_1386" data-name="Rectangle 1386" class="cls-2" width="2543.542" height="901.995" transform="translate(-558 1085.289)"/>
    <path id="Path_1257" data-name="Path 1257" class="cls-3" d="M1366.164,300.567l918.417,30.278s-33.823-12.2-52.619-11.912-50.627-11.281-66.414-8.37-42.3,15.845-52.426.791-46.864-89.361-87.919-56.339c0,0-9.892.15-9.638,16.907,0,0-36.144-100.014-93.43-93.56,0,0-25.617,7.091-27.323,24.993,0,0-62.886-101.847-149.646-81.538,0,0-38.474,7.285-38.02,37.449,0,0-29.089-26.378-44.531-.444,0,0-125.954-79.822-165.723,32.675,0,0-33.75-7.311-38.037,36.33,0,0-75.482-18.97-124.112,36.517,0,0-84.653-36.711-96.668,19.34,0,0-13.608,5.328-78.009,10.119" transform="translate(148.183 1395.613)"/>
    <path id="Path_1258" data-name="Path 1258" class="cls-4" d="M671.266,469.192s391.983-427.5,577.922-368.159,519.367,205.119,554.973,228.857S2047,610.568,2072.5,638.261s42.807,142.5,98.194,142.5,261.044,101.56,261.044,101.56l280.885,138.464s-901.995,114.727-943.534,114.727-1097.82,71.208-1097.82,71.208Z" transform="translate(-994.919 1340.057)"/>
    <path id="Path_1259" data-name="Path 1259" class="cls-5" d="M873.532,487.49S1213.6,281.563,1304.59,273.651s193.851,31.65,233.41,0,130.552-134.508,292.753-126.6,352.094,90.993,352.094,90.993l500.2,229.618s-16.075,362.674-20.031,378.5S3061.1,1179.6,2123.5,973.882,873.532,487.49,873.532,487.49Z" transform="translate(-521.903 1459.889)"/>
    <path id="Path_1260" data-name="Path 1260" class="cls-6" d="M593.849,258.308s503.084-183.061,692.742-74.1c88.4,50.79,225.658,139.446,326.073,105.3,155.061-52.736,289.909-20.015,424.571,125.674,66.858,72.334,132.465,118.88,234.362,112.086S2560.308,388,2672.394,394.793s183.415-67.93,295.5,27.173,368.466,292.049,368.466,292.049L3308.4,1102.482s-1165.87-191.408-1182.85-191.408-760.833,6.791-828.767,0-732.592,112.944-732.592,112.944Z" transform="translate(-1245.328 1466.821)"/>
    <g id="Group_1507" data-name="Group 1507" transform="translate(1137.004 1906.672)">
      <path id="Path_1261" data-name="Path 1261" class="cls-7" d="M1214.276,380.939c2.374.13,4.237,3.192,6.6,2.834,2.431-.364,5.672-4.2,8.641-6.43s8.006,7.3,11.524,3.572l5.1.12s5.929,7.075,5.708.084-16.205-23.377-17.941-26.1c-3.042-4.791,2.277-2.11,2.277-2.11s3.7,1.819,4.8-1.569,4.254,6.113,6.156,3.115-19.143-32.8-19.143-32.8,2.751,1.88,3.682,1.542c.962-.347,1.78-2.541,3.4-2.9s5.368,4.564,5.015.521c-.494-5.679-11.608-22.449-11.608-22.449s2.945,1.4,3.225-.113,3.482,1.185,4.831.447c.892-.487-2.09-2.888-6.006-8.717-.925-1.379-10.169-10.129-5.535-10.987,2.617-.484,5.522,4.871,5.545,1.659.03-4.327-7.859-13.735-10.88-21.04a162.832,162.832,0,0,1-7.115-23.083h0c-.311.5-1.489,14.216-6.757,23.253-3.81,6.537-10.5,16.566-10.5,20.89,0,3.215,3.719-1.913,5.559-1.576,4.63.841-3.048,6.914-5.375,9.749-4.307,5.252-7.2,9.335-6.31,9.835,1.342.755,4.564-1.893,4.834-.381s3.221.16,3.221.16-11.234,16.609-11.772,22.282c-.384,4.036,3.409-.828,5.018-.447s2.417,2.584,3.375,2.945c.928.35,3.692-1.489,3.692-1.489s-21.263,29.5-19.384,32.524,5.1-6.43,6.179-3.025,4.788,1.639,4.788,1.639,5.338-2.6,2.26,2.143c-1.753,2.7-18.392,18.776-18.666,25.764s5.709,0,5.709,0l5.1-.047c3.492,3.783,8.6-5.672,11.552-3.405s6.667,6.413,9.264,6.948C1208.7,385.193,1209.876,380.7,1214.276,380.939Z" transform="translate(-959.266 -236.529)"/>
      <path id="Path_1262" data-name="Path 1262" class="cls-8" d="M1254.662,399.826c2.374.13,4.237,3.192,6.6,2.838,2.427-.367,5.669-4.207,8.64-6.433s8,7.3,11.525,3.572l5.1.12s5.929,7.074,5.709.083-16.209-23.377-17.942-26.1c-3.042-4.791,2.277-2.11,2.277-2.11s3.7,1.82,4.8-1.569,4.254,6.113,6.156,3.115-19.143-32.8-19.143-32.8,2.751,1.88,3.679,1.542c.962-.347,1.783-2.541,3.4-2.9s5.369,4.564,5.018.524c-.5-5.682-11.608-22.452-11.608-22.452s2.945,1.4,3.222-.114,3.486,1.185,4.831.451c.894-.491-2.09-2.891-6-8.72-.928-1.379-10.169-10.129-5.539-10.987,2.62-.484,5.521,4.871,5.545,1.659.033-4.327-7.859-13.735-10.881-21.04a163.092,163.092,0,0,1-7.111-23.083h0c-.313.5-1.492,14.216-6.76,23.253-3.809,6.537-10.5,16.566-10.5,20.889,0,3.215,3.719-1.913,5.555-1.579,4.634.845-3.045,6.918-5.372,9.752-4.31,5.248-7.2,9.331-6.313,9.836,1.345.754,4.567-1.893,4.834-.381s3.226.16,3.226.16-11.238,16.609-11.776,22.282c-.38,4.036,3.409-.828,5.021-.451s2.414,2.587,3.375,2.948c.925.351,3.693-1.489,3.693-1.489s-21.263,29.5-19.384,32.524,5.1-6.43,6.177-3.025,4.791,1.639,4.791,1.639,5.338-2.6,2.26,2.143c-1.753,2.7-18.4,18.776-18.666,25.764s5.706,0,5.706,0l5.1-.047c3.492,3.783,8.594-5.672,11.548-3.405s6.67,6.41,9.268,6.948C1249.083,404.08,1250.262,399.583,1254.662,399.826Z" transform="translate(-864.82 -192.36)"/>
      <path id="Path_1263" data-name="Path 1263" class="cls-9" d="M1181.186,388.708c2.373.13,4.237,3.192,6.6,2.838,2.43-.367,5.672-4.207,8.643-6.43s8,7.3,11.525,3.569l5.1.12s5.929,7.074,5.706.083-16.205-23.377-17.938-26.1c-3.042-4.791,2.277-2.11,2.277-2.11s3.7,1.82,4.8-1.569,4.254,6.113,6.154,3.115-19.144-32.8-19.144-32.8,2.754,1.88,3.683,1.542c.961-.347,1.783-2.541,3.4-2.895s5.368,4.564,5.018.521c-.5-5.682-11.608-22.452-11.608-22.452s2.941,1.4,3.222-.113,3.486,1.185,4.831.451c.9-.491-2.09-2.891-6-8.72-.928-1.379-10.169-10.129-5.539-10.987,2.617-.484,5.522,4.871,5.545,1.659.033-4.327-7.859-13.735-10.88-21.04a162.583,162.583,0,0,1-7.111-23.083h0c-.314.5-1.492,14.216-6.76,23.257-3.809,6.534-10.5,16.563-10.5,20.886,0,3.215,3.719-1.913,5.555-1.576,4.634.841-3.044,6.914-5.372,9.749-4.31,5.252-7.2,9.335-6.313,9.835,1.342.755,4.567-1.893,4.834-.381s3.225.16,3.225.16-11.238,16.609-11.775,22.282c-.381,4.036,3.409-.828,5.021-.447s2.414,2.584,3.375,2.945c.925.351,3.689-1.489,3.689-1.489s-21.26,29.5-19.381,32.525,5.1-6.43,6.177-3.025,4.791,1.639,4.791,1.639,5.339-2.6,2.26,2.143c-1.753,2.7-18.4,18.776-18.666,25.764s5.706,0,5.706,0l5.1-.047c3.492,3.783,8.594-5.672,11.548-3.4s6.671,6.41,9.265,6.944C1175.607,392.962,1176.783,388.465,1181.186,388.708Z" transform="translate(-1036.65 -218.361)"/>
      <path id="Path_1264" data-name="Path 1264" class="cls-10" d="M1245.623,418.014c3.318.164,5.923,3.96,9.224,3.519,3.4-.454,7.926-5.211,12.079-7.972s11.188,9.054,16.105,4.427l7.131.15s8.287,8.771,7.976.1-22.652-28.982-25.073-32.361c-4.253-5.939,3.182-2.617,3.182-2.617s5.175,2.253,6.71-1.946,5.943,7.579,8.6,3.863-26.752-40.671-26.752-40.671,3.843,2.334,5.145,1.916c1.342-.431,2.491-3.155,4.744-3.592s7.5,5.659,7.011.644c-.695-7.041-16.226-27.83-16.226-27.83s4.116,1.729,4.507-.14,4.868,1.469,6.754.554c1.246-.6-2.921-3.579-8.393-10.807-1.3-1.709-14.212-12.56-7.739-13.621,3.659-.6,7.716,6.04,7.749,2.056.043-5.362-10.984-17.027-15.207-26.084-6.023-12.914-9.943-28.615-9.943-28.615h0c-.434.621-2.08,17.624-9.445,28.829-5.325,8.1-14.673,20.536-14.673,25.9,0,3.983,5.2-2.37,7.769-1.956,6.473,1.045-4.257,8.57-7.512,12.089-6.02,6.507-10.066,11.568-8.821,12.189,1.876.938,6.38-2.344,6.757-.467s4.5.2,4.5.2-15.7,20.589-16.452,27.62c-.534,5.008,4.761-1.025,7.014-.554s3.375,3.205,4.714,3.652c1.3.434,5.161-1.846,5.161-1.846s-29.717,36.571-27.089,40.32,7.131-7.969,8.634-3.749,6.694,2.03,6.694,2.03,7.462-3.225,3.161,2.657c-2.45,3.352-25.71,23.28-26.091,31.94s7.976,0,7.976,0l7.134-.057c4.877,4.687,12.012-7.034,16.139-4.22s9.321,7.946,12.95,8.614C1237.827,423.289,1239.473,417.713,1245.623,418.014Z" transform="translate(-924.615 -230.776)"/>
      <path id="Path_1265" data-name="Path 1265" class="cls-11" d="M1163.5,366.582c2.19.107,3.913,2.617,6.093,2.324,2.243-.3,5.235-3.442,7.979-5.265s7.392,5.979,10.64,2.925l4.711.1s5.476,5.8,5.272.07-14.967-19.147-16.566-21.38c-2.811-3.923,2.1-1.729,2.1-1.729s3.419,1.489,4.434-1.285,3.927,5.008,5.683,2.551-17.678-26.869-17.678-26.869,2.541,1.539,3.4,1.265c.888-.284,1.646-2.083,3.138-2.374s4.958,3.739,4.631.427c-.458-4.654-10.72-18.389-10.72-18.389s2.721,1.145,2.978-.09,3.215.968,4.46.367c.824-.4-1.93-2.367-5.542-7.141-.858-1.132-9.391-8.3-5.115-9,2.417-.4,5.1,3.99,5.122,1.359.03-3.542-7.258-11.248-10.049-17.23a122.674,122.674,0,0,1-6.567-18.906h0c-.287.411-1.375,11.642-6.24,19.047-3.519,5.352-9.7,13.565-9.7,17.107,0,2.634,3.436-1.566,5.131-1.292,4.28.691-2.811,5.662-4.961,7.986-3.979,4.3-6.65,7.645-5.829,8.056,1.242.618,4.217-1.549,4.464-.311s2.978.13,2.978.13-10.376,13.6-10.87,18.249c-.354,3.309,3.145-.678,4.634-.367s2.23,2.117,3.115,2.414c.858.287,3.409-1.219,3.409-1.219s-19.631,24.161-17.9,26.638,4.711-5.265,5.7-2.477,4.424,1.342,4.424,1.342,4.927-2.133,2.086,1.756c-1.619,2.214-16.983,15.378-17.237,21.1s5.272,0,5.272,0l4.711-.037c3.225,3.1,7.936-4.647,10.663-2.788s6.159,5.248,8.557,5.689C1158.352,370.068,1159.437,366.385,1163.5,366.582Z" transform="translate(-1070.561 -208.988)"/>
      <path id="Path_1266" data-name="Path 1266" class="cls-12" d="M1137.145,349.13c1.619.08,2.891,1.933,4.5,1.719,1.659-.224,3.869-2.547,5.9-3.893s5.462,4.42,7.863,2.16l3.482.073s4.047,4.283,3.9.05-11.061-14.149-12.243-15.8c-2.077-2.9,1.552-1.279,1.552-1.279s2.527,1.1,3.275-.948,2.9,3.7,4.2,1.886-13.067-19.861-13.067-19.861,1.879,1.138,2.514.935c.655-.21,1.215-1.539,2.317-1.753s3.662,2.761,3.422.314c-.337-3.439-7.922-13.588-7.922-13.588s2.01.845,2.2-.07,2.377.718,3.3.274c.607-.3-1.426-1.749-4.1-5.278-.634-.835-6.941-6.133-3.779-6.651,1.786-.294,3.766,2.948,3.783,1,.023-2.618-5.362-8.313-7.425-12.737a90.225,90.225,0,0,1-4.855-13.972h0c-.214.3-1.018,8.607-4.614,14.079-2.6,3.956-7.161,10.026-7.161,12.643,0,1.946,2.537-1.155,3.792-.955,3.162.511-2.079,4.187-3.669,5.9-2.938,3.178-4.914,5.649-4.306,5.953.914.457,3.115-1.145,3.3-.227s2.2.093,2.2.093-7.669,10.056-8.036,13.488c-.26,2.444,2.327-.5,3.425-.27s1.649,1.566,2.3,1.783c.635.214,2.521-.9,2.521-.9s-14.51,17.858-13.228,19.691,3.482-3.893,4.217-1.833,3.268.992,3.268.992,3.643-1.576,1.543,1.3c-1.2,1.636-12.553,11.365-12.74,15.595s3.9,0,3.9,0l3.482-.027c2.383,2.29,5.866-3.435,7.883-2.06s4.55,3.879,6.323,4.2C1133.339,351.7,1134.14,348.984,1137.145,349.13Z" transform="translate(-1108.774 -177.634)"/>
      <path id="Path_1267" data-name="Path 1267" class="cls-13" d="M1193.977,361.06c2.189.107,3.912,2.617,6.092,2.324,2.244-.3,5.235-3.442,7.979-5.265s7.392,5.979,10.64,2.925l4.711.1s5.479,5.793,5.271.067-14.964-19.147-16.566-21.38c-2.808-3.923,2.1-1.729,2.1-1.729s3.418,1.489,4.434-1.285,3.926,5.008,5.682,2.551-17.675-26.869-17.675-26.869,2.541,1.542,3.4,1.265c.888-.284,1.642-2.083,3.135-2.374s4.958,3.739,4.63.427c-.457-4.654-10.72-18.389-10.72-18.389s2.721,1.145,2.978-.09,3.218.972,4.46.367c.824-.4-1.93-2.367-5.542-7.141-.858-1.132-9.391-8.3-5.115-9,2.417-.4,5.1,3.993,5.121,1.359.03-3.542-7.258-11.248-10.046-17.23a122.434,122.434,0,0,1-6.57-18.906h0c-.287.411-1.376,11.645-6.24,19.047-3.519,5.352-9.692,13.565-9.692,17.107,0,2.634,3.432-1.566,5.128-1.292,4.28.691-2.811,5.666-4.961,7.989-3.977,4.3-6.647,7.642-5.829,8.053,1.241.618,4.216-1.549,4.467-.31s2.975.13,2.975.13-10.373,13.6-10.87,18.249c-.354,3.309,3.148-.678,4.634-.367s2.23,2.12,3.115,2.414c.858.287,3.412-1.219,3.412-1.219s-19.634,24.161-17.9,26.639,4.711-5.265,5.7-2.477,4.424,1.342,4.424,1.342,4.93-2.133,2.087,1.756c-1.616,2.214-16.983,15.378-17.238,21.1s5.271,0,5.271,0l4.714-.037c3.222,3.1,7.936-4.647,10.664-2.788s6.156,5.252,8.553,5.689C1188.824,364.546,1189.913,360.863,1193.977,361.06Z" transform="translate(-999.297 -221.901)"/>
    </g>
    <g id="Group_1508" data-name="Group 1508" transform="translate(38.359 1929.554)">
      <path id="Path_1268" data-name="Path 1268" class="cls-7" d="M885.854,405.085c2.374.13,4.237,3.192,6.6,2.838,2.427-.367,5.669-4.207,8.64-6.434s8.006,7.3,11.525,3.572l5.1.12s5.929,7.074,5.706.083-16.205-23.377-17.938-26.1c-3.042-4.791,2.277-2.11,2.277-2.11s3.7,1.82,4.8-1.569,4.253,6.113,6.153,3.115-19.14-32.8-19.14-32.8,2.751,1.88,3.679,1.542c.962-.347,1.783-2.541,3.4-2.9s5.369,4.564,5.018.521c-.5-5.679-11.608-22.449-11.608-22.449s2.945,1.4,3.222-.114,3.485,1.185,4.831.447c.895-.487-2.09-2.888-6-8.717-.928-1.379-10.169-10.129-5.539-10.987,2.618-.484,5.522,4.871,5.546,1.659.034-4.327-7.859-13.735-10.88-21.04a163.075,163.075,0,0,1-7.111-23.083h0c-.314.5-1.492,14.216-6.761,23.253-3.809,6.537-10.5,16.566-10.5,20.889,0,3.215,3.719-1.913,5.555-1.579,4.634.845-3.045,6.918-5.372,9.752-4.307,5.248-7.2,9.331-6.313,9.832,1.342.758,4.567-1.89,4.834-.377s3.225.16,3.225.16-11.238,16.609-11.776,22.282c-.38,4.036,3.409-.828,5.021-.451s2.414,2.587,3.375,2.948c.925.351,3.693-1.489,3.693-1.489s-21.264,29.5-19.384,32.525,5.1-6.43,6.177-3.025,4.791,1.639,4.791,1.639,5.338-2.6,2.26,2.143c-1.753,2.7-18.392,18.776-18.666,25.764s5.706,0,5.706,0l5.1-.047c3.492,3.783,8.594-5.672,11.548-3.405s6.671,6.41,9.265,6.948C880.276,409.339,881.454,404.842,885.854,405.085Z" transform="translate(-628.664 -202.944)"/>
      <path id="Path_1269" data-name="Path 1269" class="cls-14" d="M934.68,395.708c2.374.13,4.237,3.195,6.6,2.838,2.427-.367,5.669-4.2,8.64-6.43s8.006,7.3,11.525,3.572l5.1.12s5.929,7.071,5.706.08-16.206-23.377-17.938-26.1c-3.042-4.791,2.277-2.11,2.277-2.11s3.7,1.819,4.8-1.569,4.253,6.113,6.153,3.115-19.14-32.8-19.14-32.8,2.751,1.88,3.679,1.546c.962-.351,1.783-2.544,3.4-2.9s5.368,4.564,5.018.521c-.5-5.682-11.608-22.452-11.608-22.452s2.945,1.4,3.222-.114,3.485,1.185,4.831.451c.895-.488-2.09-2.891-6-8.72-.928-1.379-10.169-10.129-5.539-10.987,2.618-.484,5.522,4.874,5.546,1.659.033-4.324-7.859-13.735-10.88-21.04a163.092,163.092,0,0,1-7.111-23.083h0c-.314.5-1.492,14.219-6.761,23.257-3.809,6.534-10.5,16.563-10.5,20.886,0,3.215,3.719-1.91,5.556-1.576,4.634.841-3.045,6.914-5.372,9.752-4.307,5.248-7.2,9.331-6.313,9.832,1.342.755,4.567-1.893,4.834-.377s3.225.157,3.225.157-11.238,16.609-11.775,22.282c-.38,4.036,3.409-.828,5.021-.447s2.414,2.584,3.375,2.948c.925.347,3.693-1.492,3.693-1.492s-21.264,29.5-19.384,32.528,5.1-6.43,6.176-3.028,4.791,1.639,4.791,1.639,5.339-2.6,2.26,2.143c-1.753,2.7-18.392,18.776-18.666,25.764s5.706,0,5.706,0l5.1-.047c3.492,3.783,8.594-5.672,11.548-3.4s6.671,6.41,9.265,6.948C929.1,399.962,930.28,395.465,934.68,395.708Z" transform="translate(-514.48 -224.873)"/>
      <path id="Path_1270" data-name="Path 1270" class="cls-9" d="M852.512,407.152c2.374.13,4.236,3.192,6.6,2.838,2.43-.367,5.669-4.207,8.64-6.43s8.006,7.3,11.525,3.569l5.1.124s5.929,7.074,5.709.08-16.209-23.373-17.941-26.1c-3.042-4.788,2.277-2.11,2.277-2.11s3.7,1.82,4.8-1.569,4.253,6.113,6.156,3.118-19.143-32.808-19.143-32.808,2.751,1.88,3.679,1.546c.962-.347,1.783-2.544,3.4-2.9s5.369,4.564,5.015.521c-.494-5.682-11.608-22.452-11.608-22.452s2.945,1.4,3.225-.113,3.482,1.188,4.831.451c.891-.488-2.09-2.891-6.006-8.717-.925-1.382-10.169-10.133-5.535-10.991,2.618-.484,5.522,4.874,5.546,1.659.03-4.323-7.859-13.735-10.884-21.04a163.11,163.11,0,0,1-7.111-23.083h0c-.314.5-1.489,14.219-6.761,23.257-3.809,6.534-10.5,16.563-10.5,20.889,0,3.212,3.719-1.913,5.559-1.579,4.631.845-3.048,6.914-5.375,9.752-4.307,5.248-7.2,9.331-6.31,9.832,1.342.758,4.564-1.893,4.834-.377s3.222.157,3.222.157-11.234,16.609-11.772,22.282c-.384,4.036,3.409-.825,5.018-.447s2.417,2.584,3.375,2.948c.928.347,3.693-1.492,3.693-1.492s-21.263,29.5-19.384,32.528,5.1-6.43,6.176-3.028,4.791,1.639,4.791,1.639,5.338-2.6,2.26,2.143c-1.753,2.7-18.392,18.776-18.666,25.764s5.709,0,5.709,0l5.1-.047c3.492,3.783,8.593-5.672,11.548-3.4s6.67,6.41,9.268,6.948C846.933,411.406,848.111,406.909,852.512,407.152Z" transform="translate(-706.639 -198.11)"/>
      <path id="Path_1271" data-name="Path 1271" class="cls-10" d="M922.84,422.411c3.315.16,5.923,3.96,9.221,3.516,3.4-.454,7.926-5.212,12.079-7.969s11.188,9.051,16.105,4.427l7.131.147s8.29,8.771,7.979.1S952.7,393.656,950.28,390.274c-4.25-5.939,3.182-2.618,3.182-2.618s5.175,2.257,6.711-1.943,5.946,7.579,8.6,3.863-26.755-40.671-26.755-40.671,3.846,2.33,5.145,1.913c1.345-.431,2.49-3.152,4.747-3.592s7.5,5.659,7.008.648c-.691-7.044-16.222-27.834-16.222-27.834s4.113,1.733,4.5-.14,4.868,1.472,6.754.558c1.248-.6-2.921-3.582-8.393-10.807-1.3-1.713-14.212-12.56-7.739-13.621,3.659-.6,7.719,6.039,7.752,2.053.043-5.359-10.984-17.023-15.21-26.081-6.02-12.914-9.939-28.618-9.939-28.618h0c-.437.624-2.083,17.628-9.448,28.832-5.322,8.1-14.67,20.532-14.67,25.894,0,3.986,5.2-2.37,7.766-1.953,6.477,1.045-4.257,8.57-7.512,12.086-6.019,6.51-10.062,11.571-8.821,12.193,1.876.938,6.383-2.344,6.757-.471s4.5.2,4.5.2-15.7,20.589-16.453,27.623c-.534,5,4.764-1.025,7.014-.558s3.375,3.208,4.718,3.656c1.3.434,5.158-1.85,5.158-1.85s-29.717,36.574-27.089,40.323,7.135-7.969,8.634-3.749,6.7,2.03,6.7,2.03,7.458-3.228,3.158,2.657c-2.45,3.349-25.707,23.277-26.091,31.94s7.979,0,7.979,0l7.131-.057c4.881,4.687,12.012-7.034,16.142-4.22s9.321,7.946,12.95,8.61C915.041,427.683,916.687,422.111,922.84,422.411Z" transform="translate(-580.833 -243.383)"/>
      <path id="Path_1272" data-name="Path 1272" class="cls-11" d="M831.658,391.722c2.19.107,3.913,2.618,6.093,2.324,2.244-.3,5.235-3.442,7.979-5.265s7.392,5.979,10.64,2.925l4.711.1s5.475,5.8,5.271.07-14.967-19.147-16.566-21.38c-2.811-3.926,2.1-1.729,2.1-1.729s3.419,1.489,4.434-1.285,3.926,5.008,5.682,2.551-17.678-26.869-17.678-26.869,2.541,1.542,3.4,1.265c.888-.284,1.646-2.083,3.138-2.374s4.955,3.739,4.631.427c-.458-4.654-10.72-18.389-10.72-18.389s2.721,1.145,2.978-.09,3.215.968,4.46.367c.825-.4-1.93-2.367-5.545-7.141-.855-1.132-9.388-8.3-5.111-9,2.417-.4,5.1,3.99,5.121,1.359.027-3.542-7.258-11.248-10.049-17.23a122.671,122.671,0,0,1-6.567-18.906h0c-.287.411-1.375,11.642-6.24,19.047-3.519,5.352-9.7,13.565-9.7,17.107,0,2.634,3.435-1.566,5.131-1.292,4.28.691-2.811,5.666-4.961,7.986-3.98,4.3-6.651,7.645-5.829,8.056,1.242.618,4.217-1.549,4.464-.31s2.978.13,2.978.13-10.377,13.6-10.871,18.249c-.354,3.309,3.145-.678,4.634-.367s2.23,2.117,3.115,2.414c.858.287,3.409-1.219,3.409-1.219s-19.631,24.161-17.9,26.639,4.711-5.265,5.7-2.477,4.424,1.342,4.424,1.342,4.928-2.133,2.087,1.753c-1.619,2.217-16.983,15.381-17.237,21.1s5.272,0,5.272,0l4.711-.037c3.225,3.1,7.936-4.647,10.663-2.788s6.16,5.248,8.557,5.689C826.507,395.207,827.592,391.525,831.658,391.722Z" transform="translate(-747.964 -173.078)"/>
      <path id="Path_1273" data-name="Path 1273" class="cls-15" d="M808.07,372.307c1.619.077,2.891,1.933,4.5,1.716,1.656-.22,3.87-2.544,5.9-3.893s5.462,4.42,7.866,2.163l3.482.073s4.046,4.28,3.9.047-11.061-14.149-12.246-15.8c-2.077-2.9,1.556-1.275,1.556-1.275s2.524,1.1,3.275-.952,2.9,3.7,4.2,1.886-13.064-19.858-13.064-19.858,1.88,1.138,2.514.935c.654-.21,1.215-1.539,2.317-1.756s3.663,2.764,3.422.317c-.337-3.439-7.922-13.591-7.922-13.591s2.01.845,2.2-.067,2.377.718,3.3.27c.608-.294-1.429-1.749-4.1-5.278-.631-.835-6.938-6.13-3.776-6.65,1.786-.294,3.766,2.948,3.783,1.005.02-2.618-5.362-8.313-7.425-12.737a90.405,90.405,0,0,1-4.854-13.972h0c-.213.3-1.018,8.607-4.614,14.075-2.6,3.956-7.165,10.029-7.165,12.647,0,1.943,2.541-1.159,3.793-.955,3.162.511-2.076,4.183-3.666,5.9-2.941,3.175-4.914,5.649-4.307,5.953.915.457,3.115-1.145,3.3-.23s2.2.1,2.2.1-7.669,10.053-8.036,13.488c-.26,2.444,2.327-.5,3.426-.274s1.649,1.566,2.3,1.786c.634.21,2.521-.9,2.521-.9s-14.513,17.855-13.227,19.688,3.482-3.893,4.213-1.833,3.268.995,3.268.995,3.646-1.576,1.546,1.3c-1.2,1.636-12.553,11.368-12.74,15.6s3.9,0,3.9,0l3.482-.03c2.38,2.29,5.866-3.432,7.879-2.06s4.554,3.88,6.327,4.207C804.261,374.881,805.065,372.161,808.07,372.307Z" transform="translate(-779.699 -146.315)"/>
      <path id="Path_1274" data-name="Path 1274" class="cls-13" d="M867.3,391.722c2.193.107,3.913,2.618,6.093,2.324,2.244-.3,5.238-3.442,7.983-5.265s7.388,5.979,10.64,2.925l4.711.1s5.475,5.8,5.268.07-14.964-19.147-16.563-21.38c-2.811-3.926,2.1-1.729,2.1-1.729s3.419,1.489,4.434-1.285,3.926,5.008,5.686,2.551-17.678-26.869-17.678-26.869,2.541,1.542,3.4,1.265c.888-.284,1.646-2.083,3.135-2.374s4.958,3.739,4.634.427c-.461-4.654-10.72-18.389-10.72-18.389s2.718,1.145,2.978-.09,3.215.968,4.46.367c.825-.4-1.929-2.367-5.545-7.141-.855-1.132-9.388-8.3-5.111-9,2.417-.4,5.1,3.99,5.118,1.359.03-3.542-7.255-11.248-10.046-17.23a122.256,122.256,0,0,1-6.567-18.906h0c-.291.411-1.376,11.642-6.243,19.047-3.516,5.352-9.692,13.565-9.692,17.107,0,2.634,3.435-1.566,5.131-1.292,4.277.691-2.814,5.666-4.961,7.986-3.979,4.3-6.651,7.645-5.829,8.056,1.239.618,4.217-1.549,4.464-.31s2.975.13,2.975.13-10.373,13.6-10.87,18.249c-.351,3.309,3.148-.678,4.637-.367s2.23,2.117,3.115,2.414c.855.287,3.409-1.219,3.409-1.219s-19.634,24.161-17.9,26.639,4.714-5.265,5.706-2.477,4.42,1.342,4.42,1.342,4.931-2.133,2.09,1.753c-1.619,2.217-16.986,15.381-17.237,21.1s5.271,0,5.271,0l4.711-.037c3.225,3.1,7.936-4.647,10.663-2.788s6.16,5.248,8.557,5.689C862.147,395.207,863.236,391.525,867.3,391.722Z" transform="translate(-664.607 -173.078)"/>
    </g>
    <path id="Path_1275" data-name="Path 1275" class="cls-16" d="M833.248,188.348s-4.507,72.4,57.6,106.23c82.813,45.111,278.161,64.712,339.023,216.01,63.557,158-25.617,153.314-25.617,153.314l242.858-40.534s0-246.484-338.673-320.093c-57.854-12.573-234.4-35.923-237.366-107.139Z" transform="translate(-616.281 1557.467)"/>
    <g id="Group_1510" data-name="Group 1510" transform="translate(-226.704 1780.109)">
      <path id="Path_1285" data-name="Path 1285" class="cls-17" d="M819.571,283.184l10.78-4.684A62.521,62.521,0,0,1,819.571,283.184Z" transform="translate(-421.392 -11.814)"/>
      <path id="Path_1286" data-name="Path 1286" class="cls-17" d="M756.1,282.791a61.824,61.824,0,0,1-10.53-5.138Z" transform="translate(-594.454 -13.795)"/>
      <path id="Path_1287" data-name="Path 1287" class="cls-17" d="M728.148,328.385c-.678.3-1.279.564-1.77.781Z" transform="translate(-639.331 104.846)"/>
      <path id="Path_1288" data-name="Path 1288" class="cls-17" d="M726.211,328.8l-.331.144Z" transform="translate(-640.496 105.805)"/>
      <path id="Path_1289" data-name="Path 1289" class="cls-17" d="M726.22,328.838Z" transform="translate(-640.835 105.906)"/>
      <path id="Path_1290" data-name="Path 1290" class="cls-17" d="M727.973,328.245h0l-1.065.467Z" transform="translate(-638.092 104.519)"/>
      <path id="Path_1291" data-name="Path 1291" class="cls-17" d="M727.311,328.619c-.534.234-.982.431-1.332.588C726.313,329.056,726.744,328.866,727.311,328.619Z" transform="translate(-640.264 105.393)"/>
      <path id="Path_1292" data-name="Path 1292" class="cls-17" d="M746.691,905.408l34.534-15.828L700.3,867.352l54.439-2.1c46.376,6.417,88.172-21.37,88.172-21.37-68.825,14.723-93.267-24.161-93.267-24.161l34.357-13.581c31.716,2.955,76.534-16.2,94.362-24.579-16.74,5.485-40.631-.17-40.631-.17,19.724.157,20.6-26.906,20.6-26.906-24.979,19.841-56.365,11.014-56.365,11.014l33.569-19.284c-32.084.17-78.988-15.321-78.988-15.321s44.967-7.238,91.694-5.318,61.093-24.268,61.093-24.268c-19.808,16.79-44.583-2.908-44.583-2.908l-32.735-2.133,17.794-6.751L807.994,672.1s51.284,6.734,77.318,5.041,27.694-23.056,27.694-23.056l-67.583,12.543,37.843-26.642c-47.615,25.417-75.2-16.473-93.08-8.6l17.881-7.876,18.409,1.2L809.9,599.9s62.248,24.4,95.293,11.865,5.078-17.751,5.078-17.751c-16.3,3.459-36.818-2.4-36.818-2.4,15.955,1.042,25.507-10.767,25.507-10.767-17.18-1.122-45.675-15.407-45.675-15.407,24.372,3.849,33.733-11.361,33.733-11.361-12.723-.831-71.089-31.76-71.089-31.76l30.682,2,16.743-9.078-14.469-20.155c44.273,17.578,72.411,4.721,72.411,4.721l-24.549-1.6L894.2,483.351l-32.254-15.735c11.906,4.631,32.6,9.295,55.29-.845,35.312-15.778-5.339-20.689-5.339-20.689,10.867-12.854-29.72-14.369-29.72-14.369,22.612-5.3-10.526-23.287-10.526-23.287,48.3,13.321,77.315-10.78,77.315-10.78-11.745,8.276-52.776-3.442-52.776-3.442,12.276.8,50.489-30.608,50.489-30.608-31.56,9.245-47.431-8.744-47.431-8.744,31.91,2.08,59.52-19.848,59.52-19.848l-27-1.763,20.673-9.952-25.06-12.934s36.113-4.427,42.16-18.723-40.063-8.263-40.063-8.263l13.682-6.487c36.6-37.285,39.99-78.263,39.99-78.263l.981,7.121c.444,5.712,18.4,47.415,24.976,57.25,4.073,6.086,11.238,9.525,17.871,13.034l13.341,7.061s-45.755-7.979-40.437,6.557,41.171,20.486,41.171,20.486l-25.687,11.862,20.148,10.817-27.059.614s26.472,23.076,58.452,22.349c0,0-16.763,17.294-47.818,6.727,0,0,36.588,32.992,48.89,32.711,0,0-41.579,9.969-52.893,1.205,0,0,27.764,25.3,76.691,14.039,0,0-34.013,16.559-11.688,22.819,0,0-40.621-.2-30.415,13.094,0,0-40.854,3.185-6.377,20.442,22.155,11.087,43.064,7.3,55.187,3.182l-33.012,14.352-3.292,14.733-24.6.561s27.46,14.032,72.574-1.653L1094.682,517.5l16.266,9.779,30.748-.7s-59.861,28.425-72.614,28.715c0,0,8.587,15.588,33.125,12.773,0,0-29.182,13.071-46.4,13.461,0,0,8.947,12.2,24.936,11.835,0,0-20.786,4.984-36.9.841,0,0-28.2,4.023,4.18,17.945s95.791-7.819,95.791-7.819L1126,628.419,1144.45,628s-29.667,40.681-75.949,13.274l38.935,24.322s-42.851,12.707-69.356-11.495c-6.627-6.05.581,21.41,26.505,24.2s77.488-1.763,77.488-1.763l-42.65,15.628,17.434,7.5s-58.552,19.374-77.492,1.766c0,0,13.037,29.506,59.807,29.97,63.266.628,82.921-6.056,82.921-6.056s-39.228,25.6-71.272,24.071l32.561,20.679s-41.1,10.283-62.552-9.766c0,0,17.164,29.483,59.213,33.807,0,0-15.447,14.543-73.789-11.231,75.505,50.145,126.659,43.568,126.659,43.568s-26.378,37.81-94.385,20.192c0,0,40.35,29.523,87,25.076l54.275,4.4-81.952,18.78,33.7,17.274-47.972,1.092-55.564-6.627s62.328,29.026,82.93,17.281-42.287,29.149-74.631,16.356l11.558,17.778-50.86-14.626-6.951,15.945-26.2-12.934-8.864.771c-12.169,12.172-26.562,26.982-27.333,29.687-1.346,4.714-16.676-27.911-16.676-27.911l-10.3,18.476-8.58-8.937-20.6.848-6.921-11.084-12.123-1.576L885.65,958.545l-6.14-16.222-51.544,12.46,12.443-17.271c-32.955,11.411-93.718-32.1-73.726-19.5s83.712-13.751,83.712-13.751l-55.838,4.267Z" transform="translate(-700.305 -198.62)"/>
    </g>
    <g id="Group_1513" data-name="Group 1513" transform="translate(-549.074 1316.554)">
      <path id="Path_1310" data-name="Path 1310" class="cls-18" d="M671.929,175.37l-14.737-6.407A85.4,85.4,0,0,0,671.929,175.37Z" transform="translate(-478.758 195.58)"/>
      <path id="Path_1311" data-name="Path 1311" class="cls-18" d="M758.454,174.83a84.674,84.674,0,0,0,14.4-7.024Z" transform="translate(-241.948 192.874)"/>
      <path id="Path_1312" data-name="Path 1312" class="cls-18" d="M788.272,237.155c.928.407,1.749.771,2.417,1.065C789.978,237.906,789.17,237.549,788.272,237.155Z" transform="translate(-172.217 355.053)"/>
      <path id="Path_1313" data-name="Path 1313" class="cls-18" d="M789.543,237.714l.451.2Z" transform="translate(-169.244 356.36)"/>
      <path id="Path_1314" data-name="Path 1314" class="cls-18" d="M789.678,237.774Z" transform="translate(-168.929 356.5)"/>
      <path id="Path_1315" data-name="Path 1315" class="cls-18" d="M787.836,236.963h0c.5.22.991.437,1.456.641C788.827,237.4,788.373,237.2,787.836,236.963Z" transform="translate(-173.236 354.604)"/>
      <path id="Path_1316" data-name="Path 1316" class="cls-18" d="M789,237.474l1.826.8C790.362,238.075,789.774,237.815,789,237.474Z" transform="translate(-170.523 355.799)"/>
      <path id="Path_1317" data-name="Path 1317" class="cls-18" d="M1277.8,1025.918l-47.208-21.634L1341.209,973.9l-74.417-2.871c-63.39,8.767-120.523-29.213-120.523-29.213,94.081,20.122,127.491-33.032,127.491-33.032l-46.967-18.562c-43.355,4.04-104.618-22.142-128.986-33.6,22.879,7.5,55.537-.23,55.537-.23-26.963.214-28.151-36.781-28.151-36.781,34.147,27.123,77.048,15.057,77.048,15.057l-45.889-26.358c43.859.23,107.973-20.943,107.973-20.943s-61.47-9.892-125.34-7.275-83.511-33.172-83.511-33.172c27.076,22.953,60.942-3.973,60.942-3.973l44.75-2.918-24.325-9.228,57.167-23.808s-70.1,9.2-105.693,6.891-37.86-31.516-37.86-31.516l92.385,17.147L1091.113,663.1c65.086,34.741,102.792-22.519,127.233-11.758-9.208-4.056-24.442-10.764-24.442-10.764l-25.166,1.639L1191.4,608.3s-85.09,33.356-130.261,16.219-6.941-24.261-6.941-24.261c22.285,4.724,50.326-3.282,50.326-3.282-21.808,1.422-34.865-14.72-34.865-14.72,23.487-1.532,62.438-21.063,62.438-21.063-33.316,5.262-46.112-15.531-46.112-15.531,17.394-1.132,97.176-43.408,97.176-43.408l-41.943,2.734-22.886-12.41,19.781-27.55c-60.522,24.028-98.982,6.453-98.982,6.453l33.553-2.187,3.482-20.309,44.089-21.507c-16.276,6.327-44.563,12.7-75.582-1.155-48.266-21.567,7.3-28.281,7.3-28.281C1037.114,380.473,1092.6,378.4,1092.6,378.4c-30.915-7.251,14.386-31.833,14.386-31.833-66.031,18.209-105.686-14.733-105.686-14.733,16.055,11.311,72.14-4.707,72.14-4.707-16.777,1.095-69.012-41.839-69.012-41.839,43.138,12.633,64.832-11.952,64.832-11.952C1025.639,276.179,987.9,246.2,987.9,246.2l36.908-2.407-28.258-13.6,34.257-17.681s-49.368-6.05-57.631-25.594,54.766-11.294,54.766-11.294l-18.706-8.867c-50.029-50.967-54.663-106.982-54.663-106.982L953.232,69.5c-.608,7.809-25.143,64.815-34.144,78.26-5.562,8.316-15.358,13.021-24.425,17.818l-18.239,9.649s62.548-10.907,55.277,8.967-56.279,28-56.279,28l35.112,16.212L882.992,243.2l36.992.845s-36.187,31.543-79.9,30.545c0,0,22.913,23.644,65.366,9.2,0,0-50.015,45.1-66.828,44.717,0,0,56.833,13.625,72.3,1.646,0,0-37.95,34.584-104.828,19.19,0,0,46.493,22.636,15.978,31.189,0,0,55.527-.274,41.572,17.9,0,0,55.848,4.357,8.72,27.944-30.288,15.157-58.869,9.982-75.442,4.35l45.124,19.621,4.5,20.138,33.63.765s-37.536,19.184-99.2-2.26l21.147,26.685L779.88,509.038l-42.033-.958s81.828,38.855,99.263,39.252c0,0-11.738,21.31-45.281,17.464,0,0,39.893,17.861,63.433,18.4,0,0-12.229,16.676-34.09,16.179,0,0,28.418,6.811,50.443,1.148,0,0,38.547,5.5-5.712,24.529s-130.939-10.687-130.939-10.687l24.345,32.922-25.223-.574s40.554,55.607,103.817,18.145L784.684,698.1s58.575,17.371,94.8-15.711c9.058-8.273-.795,29.266-36.227,33.082s-105.927-2.41-105.927-2.41l58.3,21.364L771.8,744.672s80.039,26.485,105.927,2.414c0,0-17.818,40.333-81.752,40.968-86.483.858-113.348-8.276-113.348-8.276s53.624,34.985,97.423,32.9l-44.51,28.268S791.721,855,821.048,827.6c0,0-23.46,40.3-80.937,46.209,0,0,21.113,19.881,100.865-15.347C737.763,927,667.837,918.015,667.837,918.015s36.057,51.681,129.019,27.6c0,0-55.154,40.36-118.92,34.284l-74.19,6.016,112.026,25.67L669.7,1035.2l65.576,1.492,75.953-9.057s-85.2,39.672-113.362,23.617,57.8,39.849,102.02,22.362l-15.8,24.3,69.523-19.995,9.5,21.794,35.813-17.678,12.116,1.055c16.633,16.636,36.307,36.885,37.362,40.577,1.84,6.447,22.792-38.15,22.792-38.15l14.079,25.253L997,1098.552l28.154,1.158,9.458-15.151,16.573-2.153,36.664,16.145,8.393-22.175,70.454,17.034-17.007-23.607c45.051,15.6,128.108-43.886,100.782-26.655s-114.43-18.8-114.43-18.8l76.33,5.836Z" transform="translate(-603.746 -59.772)"/>
    </g>
    <path id="Path_1318" data-name="Path 1318" class="cls-19" d="M625.667,150.623l1192.2,10.129s-35.859-8.036-55.784-7.575-53.681-7.165-70.414-4.914-44.85,11.648-55.584,1.289-49.691-61.694-93.217-38.08c0,0-10.487.244-10.216,11.932,0,0-38.327-69.276-99.059-63.974,0,0-27.16,5.308-28.969,17.821,0,0-66.678-70.177-158.656-54.8,0,0-40.791,5.622-40.307,26.659,0,0-30.845-17.995-47.208.31,0,0-133.547-53.928-175.7,25.116,0,0-35.783-4.631-40.324,25.877,0,0-80.026-12.179-131.577,27.213,0,0-89.754-24.428-102.484,14.843,0,0-14.426,3.909-82.7,8.149" transform="translate(-1101.556 1164.358)"/>
    <path id="Path_1343" data-name="Path 1343" class="cls-19" d="M625.667,150.623l1192.2,10.129s-35.859-8.036-55.784-7.575-53.681-7.165-70.414-4.914-44.85,11.648-55.584,1.289-49.691-61.694-93.217-38.08c0,0-10.487.244-10.216,11.932,0,0-38.327-69.276-99.059-63.974,0,0-27.16,5.308-28.969,17.821,0,0-66.678-70.177-158.656-54.8,0,0-40.791,5.622-40.307,26.659,0,0-30.845-17.995-47.208.31,0,0-133.547-53.928-175.7,25.116,0,0-35.783-4.631-40.324,25.877,0,0-80.026-12.179-131.577,27.213,0,0-89.754-24.428-102.484,14.843,0,0-14.426,3.909-82.7,8.149" transform="translate(167.444 932.358)"/>
    <path id="Path_1344" data-name="Path 1344" class="cls-19" d="M625.667,150.623l1192.2,10.129s-35.859-8.036-55.784-7.575-53.681-7.165-70.414-4.914-44.85,11.648-55.584,1.289-49.691-61.694-93.217-38.08c0,0-10.487.244-10.216,11.932,0,0-38.327-69.276-99.059-63.974,0,0-27.16,5.308-28.969,17.821,0,0-66.678-70.177-158.656-54.8,0,0-40.791,5.622-40.307,26.659,0,0-30.845-17.995-47.208.31,0,0-133.547-53.928-175.7,25.116,0,0-35.783-4.631-40.324,25.877,0,0-80.026-12.179-131.577,27.213,0,0-89.754-24.428-102.484,14.843,0,0-14.426,3.909-82.7,8.149" transform="translate(-1004.556 585.358)"/>
    <path id="Path_1319" data-name="Path 1319" class="cls-3" d="M1267.62,83.394l313.844,4.424s-11.6-3.516-18.015-3.332-17.337-3.152-22.719-2.19-14.4,5.011-17.905.511-16.319-26.792-30.231-16.589c0,0-3.378.1-3.231,5.165,0,0-12.693-30.071-32.241-27.824,0,0-8.727,2.277-9.248,7.7,0,0-21.831-30.485-51.4-23.894,0,0-13.117,2.4-12.857,11.525,0,0-10.029-7.829-15.214.1,0,0-43.3-23.5-56.5,10.737,0,0-11.555-2.037-12.87,11.188,0,0-25.851-5.348-42.27,11.688,0,0-29.046-10.67-32.955,6.347,0,0-4.631,1.683-26.615,3.465" transform="translate(235.005 1178.815)"/>
    <path id="Path_1320" data-name="Path 1320" class="cls-20" d="M1234.331,134.1l517.694,4.3s-19.107-4.938-29.7-4.634-28.575-4.384-37.462-2.978-23.781,7.238-29.54.841-26.749-38.083-49.762-23.45c0,0-5.572.157-5.365,7.382,0,0-20.746-42.781-53.007-39.452,0,0-14.409,3.3-15.3,11.037,0,0-35.82-43.315-84.64-33.73,0,0-21.655,3.506-21.284,16.506,0,0-16.5-11.094-25.1.234,0,0-71.285-33.216-93.273,15.671,0,0-19.046-2.831-21.3,16.029,0,0-42.607-7.462-69.807,16.927,0,0-47.845-15.02-54.405,9.261,0,0-7.649,2.427-43.922,5.108" transform="translate(50.182 1238.672)"/>
    <path id="Path_1346" data-name="Path 1346" class="cls-20" d="M1234.331,134.1l517.694,4.3s-19.107-4.938-29.7-4.634-28.575-4.384-37.462-2.978-23.781,7.238-29.54.841-26.749-38.083-49.762-23.45c0,0-5.572.157-5.365,7.382,0,0-20.746-42.781-53.007-39.452,0,0-14.409,3.3-15.3,11.037,0,0-35.82-43.315-84.64-33.73,0,0-21.655,3.506-21.284,16.506,0,0-16.5-11.094-25.1.234,0,0-71.285-33.216-93.273,15.671,0,0-19.046-2.831-21.3,16.029,0,0-42.607-7.462-69.807,16.927,0,0-47.845-15.02-54.405,9.261,0,0-7.649,2.427-43.922,5.108" transform="translate(400.182 580.672)"/>
    <path id="Path_1341" data-name="Path 1341" class="cls-20" d="M1234.331,134.1l517.694,4.3s-19.107-4.938-29.7-4.634-28.575-4.384-37.462-2.978-23.781,7.238-29.54.841-26.749-38.083-49.762-23.45c0,0-5.572.157-5.365,7.382,0,0-20.746-42.781-53.007-39.452,0,0-14.409,3.3-15.3,11.037,0,0-35.82-43.315-84.64-33.73,0,0-21.655,3.506-21.284,16.506,0,0-16.5-11.094-25.1.234,0,0-71.285-33.216-93.273,15.671,0,0-19.046-2.831-21.3,16.029,0,0-42.607-7.462-69.807,16.927,0,0-47.845-15.02-54.405,9.261,0,0-7.649,2.427-43.922,5.108" transform="translate(-1025.818 774.672)"/>
    <path id="Path_1321" data-name="Path 1321" class="cls-20" d="M828.5,142.515l517.691,4.3s-19.107-4.938-29.7-4.634-28.575-4.384-37.459-2.978-23.784,7.238-29.543.841-26.745-38.083-49.758-23.45c0,0-5.576.157-5.369,7.382,0,0-20.746-42.781-53-39.452,0,0-14.413,3.3-15.307,11.037,0,0-35.82-43.315-84.637-33.733,0,0-21.657,3.509-21.286,16.513,0,0-16.493-11.1-25.1.23,0,0-71.285-33.216-93.273,15.671,0,0-19.047-2.831-21.3,16.029,0,0-42.61-7.462-69.81,16.927,0,0-47.842-15.02-54.4,9.261,0,0-7.649,2.427-43.926,5.108" transform="translate(-898.902 1258.345)"/>
    <path id="Path_1322" data-name="Path 1322" class="cls-20" d="M947.638,130.746l252.921,2.1s-9.335-2.414-14.51-2.267-13.959-2.14-18.3-1.452-11.619,3.536-14.433.411-13.067-18.606-24.308-11.458c0,0-2.724.077-2.624,3.606,0,0-10.136-20.9-25.894-19.274,0,0-7.041,1.613-7.479,5.392,0,0-17.5-21.16-41.352-16.479,0,0-10.58,1.716-10.4,8.066,0,0-8.056-5.422-12.26.114,0,0-34.828-16.226-45.568,7.655,0,0-9.308-1.382-10.406,7.832,0,0-20.816-3.646-34.1,8.27,0,0-23.377-7.338-26.582,4.524,0,0-3.736,1.185-21.46,2.5" transform="translate(-481.336 1328.987)"/>
    <path id="Path_1323" data-name="Path 1323" class="cls-3" d="M1068.285,164.1l300.112,3.829s-11.03-2.24-17.173-2.147-16.523-2.033-21.691-1.449-13.859,3.092-17.134.257-15.134-16.84-28.618-10.493c0,0-3.235.047-3.185,3.225,0,0-11.605-18.883-30.344-17.541,0,0-8.387,1.4-8.981,4.794,0,0-20.342-19.173-48.74-15.144,0,0-12.59,1.462-12.5,7.178,0,0-9.455-4.941-14.553.007,0,0-41-14.867-54.235,6.537,0,0-11.014-1.315-12.506,6.968,0,0-24.629-3.439-40.641,7.178,0,0-27.59-6.784-31.633,3.866,0,0-4.46,1.038-25.517,2.08" transform="translate(-223.942 1418.378)"/>
    <path id="Path_1345" data-name="Path 1345" class="cls-3" d="M1068.285,164.1l300.112,3.829s-11.03-2.24-17.173-2.147-16.523-2.033-21.691-1.449-13.859,3.092-17.134.257-15.134-16.84-28.618-10.493c0,0-3.235.047-3.185,3.225,0,0-11.605-18.883-30.344-17.541,0,0-8.387,1.4-8.981,4.794,0,0-20.342-19.173-48.74-15.144,0,0-12.59,1.462-12.5,7.178,0,0-9.455-4.941-14.553.007,0,0-41-14.867-54.235,6.537,0,0-11.014-1.315-12.506,6.968,0,0-24.629-3.439-40.641,7.178,0,0-27.59-6.784-31.633,3.866,0,0-4.46,1.038-25.517,2.08" transform="translate(-648.942 864.378)"/>
    <path id="Path_1325" data-name="Path 1325" class="cls-20" d="M999.641,61.212l208.167,2.935s-7.692-2.334-11.952-2.21-11.5-2.09-15.067-1.452-9.549,3.322-11.875.337-10.824-17.771-20.052-11c0,0-2.24.063-2.143,3.425,0,0-8.42-19.945-21.384-18.452,0,0-5.789,1.509-6.136,5.108,0,0-14.48-20.222-34.09-15.848,0,0-8.7,1.593-8.53,7.642,0,0-6.654-5.192-10.093.063,0,0-28.722-15.584-37.472,7.125,0,0-7.666-1.352-8.537,7.418,0,0-17.147-3.546-28.037,7.752,0,0-19.264-7.074-21.858,4.213,0,0-3.071,1.115-17.655,2.3" transform="translate(-336.229 1171.794)"/>
    <path id="Path_1342" data-name="Path 1342" class="cls-20" d="M999.641,61.212l208.167,2.935s-7.692-2.334-11.952-2.21-11.5-2.09-15.067-1.452-9.549,3.322-11.875.337-10.824-17.771-20.052-11c0,0-2.24.063-2.143,3.425,0,0-8.42-19.945-21.384-18.452,0,0-5.789,1.509-6.136,5.108,0,0-14.48-20.222-34.09-15.848,0,0-8.7,1.593-8.53,7.642,0,0-6.654-5.192-10.093.063,0,0-28.722-15.584-37.472,7.125,0,0-7.666-1.352-8.537,7.418,0,0-17.147-3.546-28.037,7.752,0,0-19.264-7.074-21.858,4.213,0,0-3.071,1.115-17.655,2.3" transform="translate(7.771 726.794)"/>
    <rect id="Rectangle_1387" data-name="Rectangle 1387" class="cls-21" width="2504" height="1669" transform="translate(-558 1117)"/>
    <path id="Path_1276" data-name="Path 1276" class="cls-22" d="M675.185,639.929s258.4-255.361,413.443-255.361,355.679-85.12,510.719-72.961,341.524-5.939,431.031,12.827c88.462,18.549,249.933-91.868,404.974-34.107s613.471,522.528,613.471,522.528V1170.06L1435.19,989.529H760.306Z" transform="translate(-985.754 1756.449)"/>
    <path id="Path_1277" data-name="Path 1277" class="cls-23" d="M1505.076,286.4s152.763,47.061,124.626,150.543c-17.981,66.127-164.275,73.629-291.044,82.326-209.877,14.4-400.012,72.831-470.666,234.853l243.73,160.252s-.07-256.073,253.976-294.773c205.232-31.266,322.189-96.692,335.544-159.077,14.827-69.259,1.519-125.584-65.48-167.537,0,0-37.606,6.113-54.622,1.683C1555.492,288,1505.076,286.4,1505.076,286.4Z" transform="translate(-534.861 1786.78)"/>
    <g id="Group_1509" data-name="Group 1509" transform="translate(120.308 2128.225)">
      <path id="Path_1278" data-name="Path 1278" class="cls-17" d="M1294.384,755.6c5.268.32,9.4,7.832,14.643,6.958,5.392-.9,12.586-10.31,19.177-15.768s17.764,17.908,25.573,8.757l11.321.3s13.158,17.347,12.667.2-35.966-57.327-39.809-64.017c-6.754-11.749,5.048-5.175,5.048-5.175s8.216,4.46,10.657-3.849,9.438,14.99,13.658,7.639-42.48-80.45-42.48-80.45,6.1,4.611,8.17,3.786c2.133-.851,3.953-6.237,7.535-7.108s11.912,11.194,11.131,1.279c-1.1-13.929-25.76-55.057-25.76-55.057s6.533,3.425,7.154-.277,7.729,2.908,10.72,1.1c1.98-1.2-4.637-7.088-13.324-21.38-2.057-3.385-22.565-24.846-12.29-26.946,5.809-1.189,12.253,11.945,12.306,4.066.071-10.607-17.441-33.68-24.145-51.6-9.562-25.547-15.785-56.606-15.785-56.606h0c-.694,1.229-3.3,34.865-15,57.03-8.454,16.029-23.294,40.621-23.294,51.227,0,7.879,8.253-4.691,12.329-3.869,10.282,2.067-6.758,16.957-11.922,23.911-9.561,12.874-15.981,22.886-14.009,24.115,2.981,1.856,10.133-4.637,10.73-.928s7.151.391,7.151.391-24.933,40.731-26.125,54.643c-.848,9.9,7.562-2.027,11.137-1.1s5.362,6.34,7.489,7.228c2.06.855,8.193-3.656,8.193-3.656s-47.181,72.344-43.011,79.762,11.324-15.765,13.708-7.418,10.63,4.02,10.63,4.02,11.845-6.383,5.015,5.255c-3.89,6.627-40.818,46.046-41.422,63.183s12.667,0,12.667,0l11.324-.114c7.746,9.275,19.07-13.912,25.627-8.346s14.8,15.721,20.563,17.037C1282,766.029,1284.615,755,1294.384,755.6Z" transform="translate(-665.753 -175.397)"/>
      <path id="Path_1279" data-name="Path 1279" class="cls-17" d="M1301.952,869.775c7.972.484,14.232,11.855,22.165,10.533,8.159-1.359,19.046-15.6,29.025-23.871s26.885,27.109,38.7,13.258l17.136.447s19.918,26.258,19.174.307-54.436-86.77-60.258-96.9c-10.219-17.781,7.646-7.832,7.646-7.832s12.436,6.751,16.129-5.826,14.282,22.692,20.672,11.565-64.3-121.772-64.3-121.772,9.238,6.981,12.363,5.732c3.228-1.292,5.982-9.442,11.4-10.757s18.035,16.94,16.85,1.933c-1.666-21.083-38.992-83.334-38.992-83.334s9.889,5.185,10.828-.417,11.7,4.4,16.229,1.666c3-1.813-7.021-10.727-20.168-32.361-3.112-5.125-34.154-37.606-18.6-40.787,8.79-1.8,18.542,18.085,18.622,6.156.107-16.052-26.4-50.977-36.548-78.1-14.472-38.667-23.891-85.681-23.891-85.681h0c-1.048,1.863-5,52.773-22.7,86.322-12.793,24.258-35.259,61.48-35.259,77.535,0,11.929,12.493-7.1,18.663-5.856,15.564,3.132-10.229,25.664-18.049,36.194-14.469,19.484-24.184,34.641-21.2,36.5,4.51,2.808,15.337-7.021,16.239-1.406s10.824.591,10.824.591-37.736,61.647-39.539,82.707c-1.285,14.987,11.445-3.068,16.86-1.666s8.113,9.6,11.331,10.94c3.115,1.3,12.4-5.532,12.4-5.532s-71.416,109.5-65.1,120.73,17.14-23.864,20.749-11.231,16.089,6.086,16.089,6.086,17.928-9.662,7.592,7.952c-5.889,10.032-61.783,69.7-62.7,95.634s19.174,0,19.174,0l17.14-.17c11.729,14.039,28.869-21.056,38.791-12.633s22.4,23.794,31.122,25.784C1283.212,885.566,1287.168,868.877,1301.952,869.775Z" transform="translate(-758.869 -333.742)"/>
      <path id="Path_1280" data-name="Path 1280" class="cls-17" d="M1230.988,713.676c5.485.334,9.792,8.156,15.248,7.245,5.615-.935,13.107-10.737,19.971-16.419s18.5,18.649,26.629,9.121l11.792.307s13.7,18.065,13.188.211-37.452-59.7-41.455-66.665c-7.031-12.233,5.259-5.388,5.259-5.388s8.556,4.647,11.1-4.006,9.825,15.611,14.222,7.956-44.236-83.775-44.236-83.775,6.356,4.8,8.506,3.943c2.22-.888,4.117-6.5,7.846-7.4s12.406,11.655,11.592,1.332c-1.145-14.51-26.826-57.333-26.826-57.333s6.8,3.566,7.448-.287,8.049,3.025,11.164,1.145c2.067-1.249-4.827-7.382-13.872-22.265-2.144-3.525-23.5-25.871-12.8-28.061,6.049-1.235,12.76,12.443,12.813,4.237.073-11.044-18.162-35.072-25.143-53.731-9.959-26.6-16.439-58.946-16.439-58.946h0c-.721,1.282-3.442,36.307-15.618,59.39-8.8,16.689-24.258,42.3-24.258,53.34,0,8.206,8.6-4.884,12.84-4.03,10.707,2.157-7.037,17.658-12.416,24.9-9.956,13.4-16.64,23.831-14.586,25.113,3.1,1.93,10.553-4.831,11.175-.968s7.445.407,7.445.407-25.96,42.413-27.2,56.9c-.885,10.313,7.876-2.11,11.6-1.145s5.582,6.6,7.8,7.525c2.143.895,8.53-3.806,8.53-3.806s-49.134,75.338-44.791,83.064,11.8-16.419,14.276-7.726,11.068,4.183,11.068,4.183,12.336-6.647,5.224,5.472c-4.05,6.9-42.5,47.952-43.135,65.8s13.188,0,13.188,0l11.8-.12c8.066,9.658,19.858-14.486,26.685-8.69s15.411,16.369,21.414,17.741C1218.094,724.54,1220.816,713.059,1230.988,713.676Z" transform="translate(-822.928 -307.664)"/>
      <path id="Path_1281" data-name="Path 1281" class="cls-17" d="M1155.5,703.782c5.482.331,9.792,8.153,15.247,7.245,5.616-.935,13.1-10.737,19.972-16.422s18.5,18.649,26.628,9.121l11.789.307s13.7,18.065,13.191.214-37.452-59.7-41.455-66.665c-7.031-12.233,5.258-5.388,5.258-5.388s8.557,4.644,11.1-4.006,9.826,15.611,14.223,7.956-44.237-83.778-44.237-83.778,6.357,4.8,8.507,3.943c2.22-.888,4.116-6.494,7.846-7.4s12.406,11.655,11.591,1.332c-1.145-14.506-26.825-57.333-26.825-57.333s6.8,3.566,7.448-.287,8.049,3.028,11.164,1.145c2.063-1.245-4.828-7.378-13.872-22.265-2.143-3.522-23.5-25.871-12.8-28.058,6.05-1.239,12.76,12.44,12.813,4.233.073-11.044-18.161-35.072-25.143-53.728-9.959-26.605-16.439-58.949-16.439-58.949h0c-.721,1.282-3.442,36.307-15.618,59.39-8.8,16.69-24.258,42.3-24.258,53.344,0,8.206,8.6-4.884,12.84-4.03,10.707,2.154-7.038,17.658-12.416,24.9-9.956,13.408-16.639,23.834-14.586,25.113,3.1,1.933,10.55-4.831,11.171-.965s7.448.4,7.448.4-25.964,42.413-27.2,56.9c-.885,10.313,7.875-2.11,11.6-1.142s5.582,6.6,7.8,7.525c2.143.895,8.53-3.806,8.53-3.806s-49.134,75.335-44.79,83.061,11.792-16.419,14.276-7.726,11.067,4.187,11.067,4.187,12.336-6.647,5.225,5.472c-4.05,6.9-42.5,47.949-43.138,65.793s13.19,0,13.19,0l11.792-.117c8.069,9.658,19.861-14.49,26.688-8.694s15.411,16.372,21.414,17.741C1142.611,714.642,1145.332,703.16,1155.5,703.782Z" transform="translate(-999.46 -330.812)"/>
      <path id="Path_1282" data-name="Path 1282" class="cls-17" d="M1098.463,586.682c3.252.2,5.809,4.838,9.048,4.3,3.329-.554,7.772-6.37,11.845-9.742s10.974,11.064,15.8,5.412l6.994.184s8.13,10.717,7.825.123-22.218-35.416-24.6-39.549c-4.17-7.255,3.121-3.195,3.121-3.195s5.075,2.754,6.584-2.377,5.829,9.261,8.436,4.717-26.244-49.7-26.244-49.7,3.772,2.851,5.048,2.34c1.319-.528,2.44-3.853,4.654-4.39s7.362,6.914,6.877.791c-.681-8.607-15.915-34.017-15.915-34.017s4.036,2.117,4.42-.17,4.774,1.8,6.624.681c1.226-.738-2.864-4.377-8.233-13.207-1.269-2.093-13.938-15.347-7.589-16.649,3.589-.731,7.569,7.382,7.6,2.514.043-6.55-10.777-20.806-14.917-31.877-5.909-15.782-9.752-34.968-9.752-34.968h0c-.431.758-2.044,21.537-9.268,35.232-5.221,9.9-14.389,25.093-14.389,31.646,0,4.868,5.1-2.9,7.619-2.39,6.35,1.279-4.177,10.476-7.368,14.773-5.906,7.952-9.872,14.139-8.654,14.9,1.843,1.145,6.26-2.865,6.627-.574s4.421.244,4.421.244-15.4,25.159-16.139,33.756c-.524,6.116,4.671-1.252,6.881-.681s3.312,3.919,4.624,4.467c1.272.527,5.061-2.26,5.061-2.26s-29.149,44.694-26.569,49.277,6.994-9.739,8.467-4.584,6.567,2.484,6.567,2.484,7.318-3.943,3.1,3.245c-2.4,4.1-25.216,28.448-25.59,39.035s7.826,0,7.826,0l6.994-.07c4.788,5.729,11.782-8.594,15.835-5.158s9.141,9.712,12.7,10.527C1090.814,593.125,1092.43,586.315,1098.463,586.682Z" transform="translate(-1041.471 -253.865)"/>
      <path id="Path_1283" data-name="Path 1283" class="cls-17" d="M1320.556,774.114c5.325.324,9.508,7.922,14.81,7.038,5.452-.908,12.727-10.426,19.394-15.948s17.965,18.112,25.861,8.857l11.451.3s13.308,17.544,12.81.207-36.374-57.978-40.263-64.745c-6.827-11.882,5.112-5.235,5.112-5.235s8.306,4.51,10.773-3.889,9.545,15.16,13.815,7.725-42.964-81.365-42.964-81.365,6.173,4.664,8.263,3.829c2.157-.861,4-6.307,7.619-7.188s12.049,11.321,11.258,1.292c-1.112-14.089-26.051-55.681-26.051-55.681s6.607,3.462,7.235-.277,7.816,2.938,10.844,1.112c2-1.212-4.691-7.168-13.478-21.624-2.08-3.422-22.819-25.126-12.426-27.253,5.876-1.2,12.393,12.086,12.446,4.113.07-10.727-17.637-34.06-24.421-52.182-9.668-25.834-15.962-57.25-15.962-57.25h0c-.7,1.245-3.345,35.262-15.17,57.681-8.55,16.209-23.557,41.078-23.557,51.8,0,7.973,8.346-4.741,12.47-3.913,10.4,2.093-6.837,17.15-12.059,24.185-9.669,13.021-16.162,23.146-14.166,24.388,3.012,1.876,10.246-4.691,10.851-.938s7.231.394,7.231.394-25.216,41.191-26.421,55.263c-.858,10.012,7.649-2.05,11.268-1.112s5.418,6.41,7.572,7.308c2.08.868,8.286-3.7,8.286-3.7s-47.718,73.165-43.5,80.67,11.455-15.948,13.865-7.505,10.75,4.063,10.75,4.063,11.979-6.453,5.071,5.318c-3.933,6.7-41.279,46.567-41.893,63.9s12.81,0,12.81,0l11.451-.114c7.839,9.378,19.291-14.069,25.921-8.443s14.967,15.9,20.8,17.23C1308.032,784.667,1310.677,773.513,1320.556,774.114Z" transform="translate(-607.001 -141.489)"/>
      <path id="Path_1284" data-name="Path 1284" class="cls-17" d="M1221.1,799.168c7.666.414,13.685,10.109,21.31,8.984,7.849-1.162,18.316-13.311,27.911-20.359s25.851,23.12,37.219,11.308l16.479.38s19.15,22.4,18.432.26-52.343-74-57.938-82.64c-9.829-15.167,7.351-6.681,7.351-6.681s11.956,5.756,15.5-4.971,13.735,19.357,19.877,9.865-61.823-103.86-61.823-103.86,8.884,5.953,11.889,4.888c3.1-1.1,5.752-8.049,10.967-9.174s17.337,14.449,16.2,1.649c-1.6-17.982-37.492-71.075-37.492-71.075s9.508,4.42,10.413-.357,11.247,3.752,15.6,1.422c2.884-1.546-6.751-9.148-19.394-27.6-2.991-4.37-32.842-32.074-17.882-34.788,8.453-1.532,17.831,15.424,17.908,5.252.1-13.691-25.383-43.478-35.142-66.611-13.918-32.978-22.973-73.075-22.973-73.075h0c-1.011,1.589-4.811,45.008-21.831,73.626-12.3,20.689-33.9,52.436-33.9,66.127,0,10.176,12.012-6.053,17.948-4.995,14.963,2.671-9.839,21.891-17.357,30.869-13.912,16.619-23.257,29.547-20.382,31.132,4.337,2.394,14.747-5.986,15.611-1.2s10.41.5,10.41.5-36.287,52.579-38.023,70.541c-1.232,12.78,11.007-2.617,16.212-1.419s7.8,8.183,10.9,9.328c2.995,1.108,11.922-4.717,11.922-4.717s-68.671,93.394-62.6,102.972,16.482-20.355,19.952-9.578,15.467,5.188,15.467,5.188,17.244-8.24,7.3,6.784c-5.659,8.557-59.407,59.443-60.288,81.568s18.435,0,18.435,0l16.479-.147c11.277,11.972,27.76-17.962,37.3-10.777s21.544,20.3,29.927,21.991C1203.074,812.636,1206.88,798.4,1221.1,799.168Z" transform="translate(-935.398 -314.463)"/>
    </g>
    <g id="Group_1512" data-name="Group 1512" transform="translate(719.664 1983.578)">
      <path id="Path_1302" data-name="Path 1302" class="cls-17" d="M1293.768,351.811l-12.1-5.262A70.408,70.408,0,0,0,1293.768,351.811Z" transform="translate(-1135.115 -47.145)"/>
      <path id="Path_1303" data-name="Path 1303" class="cls-17" d="M1364.833,351.365a69.426,69.426,0,0,0,11.822-5.766Z" transform="translate(-940.619 -49.367)"/>
      <path id="Path_1304" data-name="Path 1304" class="cls-17" d="M1389.323,402.556c.762.334,1.436.631,1.987.875Z" transform="translate(-883.347 83.832)"/>
      <path id="Path_1305" data-name="Path 1305" class="cls-17" d="M1390.367,403.015l.371.164Z" transform="translate(-880.906 84.906)"/>
      <path id="Path_1306" data-name="Path 1306" class="cls-17" d="M1390.478,403.064c.685.3.765.337,0,0Z" transform="translate(-880.646 85.02)"/>
      <path id="Path_1307" data-name="Path 1307" class="cls-17" d="M1388.965,402.4h0l1.2.527Z" transform="translate(-884.185 83.463)"/>
      <path id="Path_1308" data-name="Path 1308" class="cls-17" d="M1389.918,402.818l1.5.658C1391.04,403.312,1390.556,403.1,1389.918,402.818Z" transform="translate(-881.956 84.445)"/>
      <path id="Path_1309" data-name="Path 1309" class="cls-17" d="M1791.383,1050.38l-38.771-17.771,90.846-24.956-61.119-2.357c-52.066,7.2-98.986-23.994-98.986-23.994,77.269,16.529,104.708-27.13,104.708-27.13l-38.574-15.244c-35.609,3.318-85.925-18.185-105.94-27.6,18.792,6.16,45.615-.187,45.615-.187-22.145.173-23.12-30.211-23.12-30.211,28.044,22.278,63.28,12.366,63.28,12.366l-37.689-21.647c36.023.187,88.679-17.2,88.679-17.2s-50.486-8.126-102.945-5.976-68.588-27.243-68.588-27.243c22.238,18.85,50.056-3.265,50.056-3.265l36.75-2.4-19.978-7.579,46.951-19.554S1664.98,796,1635.751,794.1s-31.092-25.884-31.092-25.884l75.876,14.082-42.487-29.914c53.458,28.538,84.426-18.492,104.5-9.655-7.562-3.332-20.075-8.841-20.075-8.841l-20.669,1.349,18.609-27.857s-69.884,27.393-106.985,13.321-5.7-19.928-5.7-19.928c18.305,3.883,41.335-2.694,41.335-2.694-17.912,1.165-28.635-12.089-28.635-12.089,19.29-1.259,51.281-17.3,51.281-17.3-27.363,4.32-37.873-12.753-37.873-12.753,14.286-.935,79.812-35.656,79.812-35.656l-34.447,2.247-18.8-10.193,16.245-22.626c-49.7,19.734-81.295,5.3-81.295,5.3l27.557-1.8,2.857-16.68,36.214-17.664c-13.368,5.2-36.6,10.436-62.078-.948-39.642-17.715,6-23.227,6-23.227-12.2-14.429,33.369-16.132,33.369-16.132-25.39-5.956,11.815-26.144,11.815-26.144-54.232,14.954-86.8-12.1-86.8-12.1,13.184,9.291,59.25-3.863,59.25-3.863-13.782.9-56.683-34.367-56.683-34.367,35.429,10.38,53.247-9.815,53.247-9.815-35.823,2.337-66.818-22.285-66.818-22.285l30.311-1.976-23.207-11.174,28.134-14.519s-40.547-4.968-47.331-21.02,44.978-9.278,44.978-9.278l-15.361-7.281c-41.091-41.859-44.893-87.865-44.893-87.865l-1.105,7.993c-.5,6.413-20.649,53.23-28.041,64.274-4.57,6.831-12.613,10.693-20.061,14.633l-14.98,7.926s51.371-8.957,45.4,7.365-46.223,23-46.223,23l28.838,13.314-22.622,12.146,30.381.691s-29.72,25.907-65.626,25.089c0,0,18.819,19.417,53.684,7.552,0,0-41.074,37.042-54.886,36.728,0,0,46.677,11.188,59.38,1.352,0,0-31.169,28.4-86.1,15.761,0,0,38.187,18.593,13.124,25.617,0,0,45.6-.227,34.144,14.7,0,0,45.869,3.579,7.161,22.949-24.876,12.45-48.346,8.2-61.96,3.576l37.062,16.112,3.7,16.543,27.62.628s-30.828,15.755-81.475-1.856l17.367,21.918-18.262,10.977-34.521-.788s67.206,31.913,81.525,32.237c0,0-9.642,17.5-37.189,14.346,0,0,32.762,14.67,52.1,15.11,0,0-10.042,13.7-28,13.288,0,0,23.341,5.6,41.429.945,0,0,31.66,4.517-4.691,20.145s-107.542-8.777-107.542-8.777l19.995,27.039-20.716-.471s33.305,45.672,85.268,14.9l-43.709,27.3s48.109,14.269,77.862-12.9c7.442-6.794-.651,24.038-29.753,27.173s-87-1.983-87-1.983l47.885,17.548-19.574,8.417s65.737,21.751,87,1.98c0,0-14.637,33.129-67.142,33.65-71.031.7-93.1-6.8-93.1-6.8s44.042,28.735,80.016,27.023l-36.557,23.216s46.142,11.545,70.227-10.964c0,0-19.271,33.1-66.478,37.953,0,0,17.344,16.329,82.844-12.606-84.77,56.3-142.2,48.913-142.2,48.913s29.613,42.45,105.967,22.669c0,0-45.3,33.145-97.674,28.154l-60.932,4.944,92.008,21.083L1291.941,1058l53.858,1.229,62.382-7.442s-69.973,32.585-93.107,19.4,47.475,32.728,83.792,18.365l-12.977,19.958,57.1-16.423,7.8,17.9,29.413-14.523,9.952.868c13.662,13.665,29.82,30.294,30.685,33.329,1.512,5.3,18.722-31.333,18.722-31.333l11.562,20.739,9.635-10.032,23.12.951,7.769-12.443,13.611-1.769,30.114,13.261,6.891-18.212,57.868,13.989-13.969-19.39c37,12.813,105.219-36.04,82.773-21.891s-93.984-15.438-93.984-15.438l62.692,4.791Z" transform="translate(-1237.769 -256.869)"/>
    </g>
    <path id="Path_1301" data-name="Path 1301" class="cls-18" d="M659.876,411.3s399.361-161.547,714.457,43.011c132.175,85.812,490.485,161.063,647.685,161.063s581.748,39.642,687.745,57.107C3055.673,729.475,3287.622,989.3,3287.622,989.3H880.223L573.073,852.415Z" transform="translate(-1224.552 1937.212)"/>
    <path id="Path_1334" data-name="Path 1334" class="cls-18" d="M1087.755,462.219h-.007l-.22-.053a54.638,54.638,0,0,0-16.553-1.288l-4.026-38.247,16.724,13.756a11.059,11.059,0,0,0,.8,1.012,7.652,7.652,0,0,1-.85-.111,3.592,3.592,0,0,0-1.651,6.992c.055.015.111.019.166.032a3.257,3.257,0,0,0,2.477,2.9,14.647,14.647,0,0,0,11.137-1.832,15,15,0,0,0,1.446-1.036,2.644,2.644,0,0,0,2.018-.015,3.33,3.33,0,0,0,1.937-4.884,14.776,14.776,0,0,0,1.177-3.221l.628-2.689a14.726,14.726,0,0,0-3.353-13.132,15.043,15.043,0,0,0-10.069-8.13h0l-.058-.015-16.139-3.774-.649-.152-.152.649-2.159-.5-9.2-12.895-9.905-55.541-.079.024q-.24-.887-.56-1.753l-.436-1.185a11.641,11.641,0,0,1,3.507-2.219c.282-.111.577-.209.88-.3l.053-.017c.284-.081.579-.147.882-.2.041-.009.081-.021.124-.028.265-.047.544-.075.824-.1.083-.009.162-.023.248-.03.1-.006.207,0,.308,0a11.4,11.4,0,0,0,.722,1.117c.107.145.235.282.35.423.237.29.478.581.747.858.154.158.323.308.485.461.263.246.528.489.814.72.184.152.38.3.575.442.295.218.6.431.912.634.207.135.419.267.634.4.333.2.675.382,1.025.562.222.113.442.226.671.333.378.177.771.337,1.168.5.218.085.434.177.656.258.459.164.933.308,1.412.442.177.051.348.111.527.158.638.167,1.29.3,1.952.417.036.006.071.017.107.023l-.015-.011a23.51,23.51,0,0,0,14.29-2.082,25.026,25.026,0,0,0,10.84-10.118c7.274,5.442,12.656,7.169,9.865-11.063-4.961-32.389-32.724-24.481-47.411-27.979-8.871-2.112-8.431,11.327-6.693,22.3.7,4.4,1.6,8.387,2.2,10.832a12.5,12.5,0,0,1-7.327.6c-23.977-5.3-42.868-6.341-57.647-5.13-30.4,2.49-43.343,14.516-46.977,18.717-8,6.584-12.436,17.523-9.365,25.512a19.981,19.981,0,0,0,5.965,8.8l-6.125-1.433a4.96,4.96,0,0,0-2.279,9.655l.019,0,11.486,2.687,3.306,27.174-2.516-.587a2.926,2.926,0,1,0-1.331,5.7l4.6,1.074.31,2.554L925.823,434.9a54.3,54.3,0,0,0-28.449-17.194h0l-.22-.051A54.58,54.58,0,0,0,872.078,523.9l.22.053a54.582,54.582,0,0,0,64.857-37.978l2.691.7c-.737,2.044-1.141,3.25-1.141,3.25l.162.122-1.679,3.154-.081-.055s-3.846,2.652-4.162,4.673c-.34,2.166-.145,3.594,4.16,4.976a21.8,21.8,0,0,1,3.9,1.971,1.206,1.206,0,0,0-.062,2.362l4.634,1.085c1.74,1.843,3.742,4.463,3.742,4.463a1.459,1.459,0,0,0,.493.229c.944.224,1.706-.8,1.418-1.954-.13-.515-.282-1.023-.451-1.523l7.2,1.685a1.208,1.208,0,1,0,.551-2.351l-7.2-1.683,2.074-8.874a11.086,11.086,0,0,0,12.476-11.972l96.695-35.347,1.882,10.9a54.578,54.578,0,0,0-2.007,106.625l.22.051a54.581,54.581,0,0,0,25.079-106.241Zm2.731-40.041a8.266,8.266,0,0,1,2.5,1.091,7.8,7.8,0,0,1,.739,5.45l-.63,2.689a7.818,7.818,0,0,1-1.384,2.932,9.641,9.641,0,0,0-1.215.239,1.617,1.617,0,0,1-2.089-.837l-10.317-14.462Zm-92.6-9.422a12.126,12.126,0,0,1,1.471-.472A11.771,11.771,0,0,0,997.888,412.756Zm-.961-2.11,1.388.568Zm-38.755,76.359a3.336,3.336,0,0,0-1.625-2.68l.752-3.3a6.63,6.63,0,0,1,3.994,4.609Zm-5.162,3.088-.756,3.229a6.643,6.643,0,0,1-3.834-4.421,6.551,6.551,0,0,1-.194-1.081l4.417-4.886.1.017-.013-.109,2.08-2.3c.1,0,.2-.009.308,0l-.626,2.742-.134.6a3.394,3.394,0,0,0-2.785,2.55,3.348,3.348,0,0,0,1.461,3.577ZM973.7,425.529l-.021-.019.305.325.245.261c.316.333.609.643.871.916.122.126.22.226.327.34l.406.419c.064.064.149.154.207.214l-.22.192c-.455.4-.91.809-1.36,1.217-.128.115-.254.229-.38.344-.442.4-.884.809-1.322,1.217-.124.117-.248.233-.374.35q-.673.631-1.337,1.271c-.085.081-.167.162-.25.243-2.061,1.993-4.045,4.032-5.886,6.076l-.047.049c-.419.466-.826.931-1.23,1.395l-.239.278q-.573.666-1.123,1.331c-.085.1-.171.209-.256.312-.363.444-.718.884-1.063,1.324-.068.09-.137.179-.207.269a53.776,53.776,0,0,0-4.053,5.918h0c-.506.871-.946,1.721-1.333,2.552-.045.075-.088.15-.132.224l-.107.182c-.2.333-.393.662-.587,1l-1.854-35.236,18.529,4.333C972.138,423.857,972.96,424.746,973.7,425.529Zm1.04,4.346a34.977,34.977,0,0,0-4.953,4.2A34.977,34.977,0,0,1,974.735,429.875Zm-10.02-14.58-12.361-2.889-.8-15.285A169.325,169.325,0,0,0,964.715,415.3Zm-39.646,76.468-34.437-17.892,37.677,9.8A45.566,45.566,0,0,1,925.069,491.764Zm4.431-13.2-41.388-7.825,42.053-.833A45.258,45.258,0,0,1,929.5,478.559Zm-44.842-11.1-.835-42.1a45.262,45.262,0,0,1,10.7,1.074l-9.077,41.1A3.3,3.3,0,0,0,884.659,467.458Zm-.083,0a3.294,3.294,0,0,0-.78.13l-11.7-40.432a45.164,45.164,0,0,1,10.605-1.755Zm-.859.152a3.4,3.4,0,0,0-.726.318l-21.749-36.007a45.758,45.758,0,0,1,9.786-4.442Zm-23.428-35.1,22.631,35.46a3.376,3.376,0,0,0-.607.51l-30.345-29.166A45.774,45.774,0,0,1,860.289,432.515Zm21.247,39.3a3.314,3.314,0,0,0,.318.724l-36,21.745a45.811,45.811,0,0,1-4.442-9.785ZM846.45,495.228,881.9,472.6a3.3,3.3,0,0,0,.51.607L853.25,503.548A45.836,45.836,0,0,1,846.45,495.228Zm7.616,9.087,28.4-31.048a3.387,3.387,0,0,0,.643.461l-20.323,36.865A45.139,45.139,0,0,1,854.066,504.315Zm9.707,6.815,19.409-37.359a3.463,3.463,0,0,0,.739.286L873.833,514.92A45.279,45.279,0,0,1,863.772,511.13Zm21.756-43.582,10.087-40.863a45.172,45.172,0,0,1,10.061,3.789l-19,36.564-.777.639A3.092,3.092,0,0,0,885.528,467.548Zm33.209-26.83-24.173,19.846L916.2,438.055Q917.523,439.336,918.737,440.718Zm-24.895,24.577,29.747-17.969a45.758,45.758,0,0,1,4.444,9.783L888.052,469.75Zm21.542-28.007L892.659,462.13l-5.762,4.73,19.763-35.851A45.141,45.141,0,0,1,915.384,437.288Zm-30.593,36.859.833,42.11a45.635,45.635,0,0,1-10.7-1.085l9.076-41.1A3.322,3.322,0,0,0,884.791,474.147Zm.081-.006a3.391,3.391,0,0,0,.78-.128l11.7,40.455a44.918,44.918,0,0,1-10.612,1.747Zm.861-.152a3.318,3.318,0,0,0,.724-.318L908.219,509.7a45.772,45.772,0,0,1-9.788,4.455Zm23.436,35.116-22.642-35.477a3.3,3.3,0,0,0,.607-.51l30.369,29.19A45.656,45.656,0,0,1,909.169,509.105Zm20.946-40.321-42.053,1.869a3.4,3.4,0,0,0-.128-.779l40.419-11.693A45.161,45.161,0,0,1,930.116,468.784ZM923,446.375l-26.781,17.091,25.209-19.4Q922.246,445.2,923,446.375ZM851.2,440.137l31.054,28.41a3.3,3.3,0,0,0-.461.641L844.93,448.865A45.1,45.1,0,0,1,851.2,440.137ZM840.355,461l41.1,9.076a3.2,3.2,0,0,0-.071.79l-42.1.833A45.361,45.361,0,0,1,840.355,461Zm4.036-11.154,37.365,19.413a3.18,3.18,0,0,0-.286.739l-40.861-10.087A45.3,45.3,0,0,1,844.391,449.848Zm-5.059,22.973,42.053-1.871a3.262,3.262,0,0,0,.13.779l-40.421,11.695A45.283,45.283,0,0,1,839.332,472.821Zm78.931,28.664-31.073-28.427.058-.066,2.742.713,34.544,19.041A44.848,44.848,0,0,1,918.263,501.485Zm20.214-21.228a54.448,54.448,0,0,0-9.785-41.777l17.04-13.113,4.453,36.583c-3.312,6.77-6.161,13.7-8.194,18.971Zm2.8,15.718-.013-.009,1.928-2.67.051.041,1.471-1.627a11.083,11.083,0,0,0,6.522,5.982l-1.945,8.32A38.243,38.243,0,0,0,941.272,495.975Zm13.16-2.142.775-3.317A3.338,3.338,0,0,0,957.648,489l.4.094,3.4-1.241a6.589,6.589,0,0,1-.111.859A6.658,6.658,0,0,1,954.432,493.833ZM965.4,483.828a11.084,11.084,0,0,0-7.086-7.167l5.89-6.516,3.468.79a1.208,1.208,0,0,0,.536-2.356l-2.146-.489,7.28-8.056,36.739-28.122,47.9,11.2Zm50.7-56.519,8.728-6.682a6.935,6.935,0,0,0,2.136-8.293c-6.855-15.639-19.445-27.242-28.929-34.3v0l-.081-.058c-.814-.607-1.615-1.19-2.377-1.728,13.39-1.493,21.877-4.747,26.514-7.114,1.4,3.577,5.732,14.234,9.591,19.75,3.872,5.536,15.667,17.922,15.667,17.922l.276-.216c.4.427.628.658.628.658l7.932,6.524,4.12,23.874Zm99.343,108.96-37.365-19.411a3.438,3.438,0,0,0,.286-.741l40.859,10.087A45.369,45.369,0,0,1,1115.437,536.268Zm4.036-11.154-41.1-9.076a3.314,3.314,0,0,0,.073-.79l42.1-.833A45.247,45.247,0,0,1,1119.473,525.114Zm1.021-11.819-42.053,1.871a3.378,3.378,0,0,0-.128-.78l40.419-11.695A45.184,45.184,0,0,1,1120.494,513.3Zm-88.7,15.712,40.12-12.686a3.283,3.283,0,0,0,.318.726l-36,21.743A45.742,45.742,0,0,1,1031.795,529.007Zm5.034,10.734,35.447-22.623a3.381,3.381,0,0,0,.51.607l-29.158,30.334A45.88,45.88,0,0,1,1036.829,539.741Zm7.615,9.087,28.4-31.048a3.384,3.384,0,0,0,.643.461l-20.323,36.865A45.3,45.3,0,0,1,1044.444,548.828Zm9.707,6.815,19.409-37.361a3.359,3.359,0,0,0,.739.286l-10.087,40.863A45.272,45.272,0,0,1,1054.151,555.642Zm64.261-54.021-40.122,12.684a3.317,3.317,0,0,0-.318-.724l36-21.745A45.915,45.915,0,0,1,1118.412,501.622Zm-5.036-10.734-35.447,22.623a3.3,3.3,0,0,0-.51-.607l29.16-30.337A45.726,45.726,0,0,1,1113.376,490.888Zm-7.613-9.087-28.4,31.048a3.387,3.387,0,0,0-.643-.461l20.323-36.867A45.151,45.151,0,0,1,1105.762,481.8Zm-30.593,36.857.833,42.1a45.268,45.268,0,0,1-10.7-1.074l9.076-41.1A3.2,3.2,0,0,0,1075.169,518.658Zm.081,0a3.292,3.292,0,0,0,.78-.13l11.7,40.432a45.145,45.145,0,0,1-10.606,1.755Zm.861-.152a3.411,3.411,0,0,0,.724-.318l21.751,36.007a45.819,45.819,0,0,1-9.787,4.442Zm23.426,35.1-22.631-35.46a3.3,3.3,0,0,0,.607-.51l30.345,29.166A45.762,45.762,0,0,1,1099.537,553.6ZM1085.993,471.2a45.282,45.282,0,0,1,10.061,3.791l-19.408,37.358c-.088-.045-.175-.085-.267-.124l-.154-1.454Zm-13.3,41.8-30.345-29.164a45.777,45.777,0,0,1,8.32-6.8l22.516,35.281.043.237A3.26,3.26,0,0,0,1072.692,513Zm-31.11-28.348,31.054,28.41a3.4,3.4,0,0,0-.461.643l-36.867-20.325A45.222,45.222,0,0,1,1041.583,484.648Zm-10.849,20.867,41.1,9.076a3.2,3.2,0,0,0-.071.788l-42.1.835A45.236,45.236,0,0,1,1030.734,505.515Zm4.036-11.157,37.365,19.413a3.312,3.312,0,0,0-.286.739l-40.861-10.086A45.292,45.292,0,0,1,1034.77,494.359Zm-5.059,22.973,42.053-1.869a3.284,3.284,0,0,0,.13.779l-40.421,11.693A45.249,45.249,0,0,1,1029.711,517.332Zm78.911,28.647-31.054-28.41a3.306,3.306,0,0,0,.461-.641l36.87,20.323A45.091,45.091,0,0,1,1108.622,545.979Zm-34.42-76.107a45.377,45.377,0,0,1,10.7,1.072l-8.716,39.462-1.454-13.828Zm-1.059,42.2-21.523-35.633a45.659,45.659,0,0,1,9.786-4.442l10.616,33.572Zm-1.51-8.752-9.156-31.646q1.749-.509,3.541-.878Z" transform="translate(204.26 2176.77) rotate(-8)"/>
  </g>
</svg>
