<svg xmlns="http://www.w3.org/2000/svg" xmlns:xlink="http://www.w3.org/1999/xlink" width="1920" height="1009" viewBox="0 0 1920 1009"><defs><filter id="a" x="843.785" y="909.779" width="28.371" height="41.826" filterUnits="userSpaceOnUse"><feOffset dx="10" dy="10" input="SourceAlpha"/><feGaussianBlur stdDeviation="3" result="b"/><feFlood flood-opacity="0.161"/><feComposite operator="in" in2="b"/><feComposite in="SourceGraphic"/></filter><filter id="c" x="820.556" y="914.48" width="26.362" height="40.15" filterUnits="userSpaceOnUse"><feOffset dx="10" dy="10" input="SourceAlpha"/><feGaussianBlur stdDeviation="3" result="d"/><feFlood flood-opacity="0.161"/><feComposite operator="in" in2="d"/><feComposite in="SourceGraphic"/></filter><filter id="e" x="797.619" y="917.592" width="45.381" height="45.371" filterUnits="userSpaceOnUse"><feOffset dx="10" dy="10" input="SourceAlpha"/><feGaussianBlur stdDeviation="3" result="f"/><feFlood flood-opacity="0.161"/><feComposite operator="in" in2="f"/><feComposite in="SourceGraphic"/></filter><filter id="g" x="808.09" y="928.055" width="24.437" height="24.443" filterUnits="userSpaceOnUse"><feOffset dx="10" dy="10" input="SourceAlpha"/><feGaussianBlur stdDeviation="3" result="h"/><feFlood flood-opacity="0.161"/><feComposite operator="in" in2="h"/><feComposite in="SourceGraphic"/></filter><filter id="i" x="836.986" y="918.553" width="45.381" height="45.371" filterUnits="userSpaceOnUse"><feOffset dx="10" dy="10" input="SourceAlpha"/><feGaussianBlur stdDeviation="3" result="j"/><feFlood flood-opacity="0.161"/><feComposite operator="in" in2="j"/><feComposite in="SourceGraphic"/></filter><filter id="k" x="847.458" y="929.016" width="24.437" height="24.443" filterUnits="userSpaceOnUse"><feOffset dx="10" dy="10" input="SourceAlpha"/><feGaussianBlur stdDeviation="3" result="l"/><feFlood flood-opacity="0.161"/><feComposite operator="in" in2="l"/><feComposite in="SourceGraphic"/></filter><filter id="m" x="809.476" y="912.592" width="57.366" height="43.959" filterUnits="userSpaceOnUse"><feOffset dx="10" dy="10" input="SourceAlpha"/><feGaussianBlur stdDeviation="3" result="n"/><feFlood flood-opacity="0.161"/><feComposite operator="in" in2="n"/><feComposite in="SourceGraphic"/></filter><filter id="o" x="823.44" y="931.529" width="24.832" height="24.838" filterUnits="userSpaceOnUse"><feOffset dx="10" dy="10" input="SourceAlpha"/><feGaussianBlur stdDeviation="3" result="p"/><feFlood flood-opacity="0.161"/><feComposite operator="in" in2="p"/><feComposite in="SourceGraphic"/></filter><filter id="q" x="817.529" y="932.676" width="28.945" height="24.182" filterUnits="userSpaceOnUse"><feOffset dx="10" dy="10" input="SourceAlpha"/><feGaussianBlur stdDeviation="3" result="r"/><feFlood flood-opacity="0.161"/><feComposite operator="in" in2="r"/><feComposite in="SourceGraphic"/></filter><filter id="s" x="816.362" y="934.877" width="23.582" height="21.463" filterUnits="userSpaceOnUse"><feOffset dx="10" dy="10" input="SourceAlpha"/><feGaussianBlur stdDeviation="3" result="t"/><feFlood flood-opacity="0.161"/><feComposite operator="in" in2="t"/><feComposite in="SourceGraphic"/></filter><filter id="u" x="825.124" y="933.354" width="27.087" height="23.109" filterUnits="userSpaceOnUse"><feOffset dx="10" dy="10" input="SourceAlpha"/><feGaussianBlur stdDeviation="3" result="v"/><feFlood flood-opacity="0.161"/><feComposite operator="in" in2="v"/><feComposite in="SourceGraphic"/></filter><filter id="w" x="829.611" y="934.594" width="23.763" height="21.848" filterUnits="userSpaceOnUse"><feOffset dx="10" dy="10" input="SourceAlpha"/><feGaussianBlur stdDeviation="3" result="x"/><feFlood flood-opacity="0.161"/><feComposite operator="in" in2="x"/><feComposite in="SourceGraphic"/></filter><filter id="y" x="815.732" y="913.418" width="28.97" height="24.471" filterUnits="userSpaceOnUse"><feOffset dx="10" dy="10" input="SourceAlpha"/><feGaussianBlur stdDeviation="3" result="z"/><feFlood flood-opacity="0.161"/><feComposite operator="in" in2="z"/><feComposite in="SourceGraphic"/></filter><filter id="aa" x="841.901" y="909.18" width="25.945" height="26.311" filterUnits="userSpaceOnUse"><feOffset dx="10" dy="10" input="SourceAlpha"/><feGaussianBlur stdDeviation="3" result="ab"/><feFlood flood-opacity="0.161"/><feComposite operator="in" in2="ab"/><feComposite in="SourceGraphic"/></filter><filter id="ac" x="841.604" y="912.986" width="23.112" height="22.184" filterUnits="userSpaceOnUse"><feOffset dx="10" dy="10" input="SourceAlpha"/><feGaussianBlur stdDeviation="3" result="ad"/><feFlood flood-opacity="0.161"/><feComposite operator="in" in2="ad"/><feComposite in="SourceGraphic"/></filter><filter id="ae" x="841.928" y="908.93" width="22.864" height="21.715" filterUnits="userSpaceOnUse"><feOffset dx="10" dy="10" input="SourceAlpha"/><feGaussianBlur stdDeviation="3" result="af"/><feFlood flood-opacity="0.161"/><feComposite operator="in" in2="af"/><feComposite in="SourceGraphic"/></filter><filter id="ag" x="814.048" y="906.113" width="34.72" height="51.152" filterUnits="userSpaceOnUse"><feOffset dx="10" dy="10" input="SourceAlpha"/><feGaussianBlur stdDeviation="3" result="ah"/><feFlood flood-opacity="0.161"/><feComposite operator="in" in2="ah"/><feComposite in="SourceGraphic"/></filter><filter id="ai" x="816.021" y="906.881" width="40.865" height="48.746" filterUnits="userSpaceOnUse"><feOffset dx="10" dy="10" input="SourceAlpha"/><feGaussianBlur stdDeviation="3" result="aj"/><feFlood flood-opacity="0.161"/><feComposite operator="in" in2="aj"/><feComposite in="SourceGraphic"/></filter><filter id="ak" x="817.373" y="896.922" width="38.295" height="33.9" filterUnits="userSpaceOnUse"><feOffset dx="10" dy="10" input="SourceAlpha"/><feGaussianBlur stdDeviation="3" result="al"/><feFlood flood-opacity="0.161"/><feComposite operator="in" in2="al"/><feComposite in="SourceGraphic"/></filter><filter id="am" x="830.267" y="892.6" width="28.416" height="28.83" filterUnits="userSpaceOnUse"><feOffset dx="10" dy="10" input="SourceAlpha"/><feGaussianBlur stdDeviation="3" result="an"/><feFlood flood-opacity="0.161"/><feComposite operator="in" in2="an"/><feComposite in="SourceGraphic"/></filter><filter id="ao" x="828.455" y="900.148" width="38.629" height="35.883" filterUnits="userSpaceOnUse"><feOffset dx="10" dy="10" input="SourceAlpha"/><feGaussianBlur stdDeviation="3" result="ap"/><feFlood flood-opacity="0.161"/><feComposite operator="in" in2="ap"/><feComposite in="SourceGraphic"/></filter><filter id="aq" x="825.198" y="894.875" width="27.942" height="23.225" filterUnits="userSpaceOnUse"><feOffset dx="10" dy="10" input="SourceAlpha"/><feGaussianBlur stdDeviation="3" result="ar"/><feFlood flood-opacity="0.161"/><feComposite operator="in" in2="ar"/><feComposite in="SourceGraphic"/></filter><filter id="as" x="827.508" y="894.809" width="25.535" height="22.23" filterUnits="userSpaceOnUse"><feOffset dx="10" dy="10" input="SourceAlpha"/><feGaussianBlur stdDeviation="3" result="at"/><feFlood flood-opacity="0.161"/><feComposite operator="in" in2="at"/><feComposite in="SourceGraphic"/></filter><filter id="au" x="828.325" y="895.869" width="25.156" height="22.676" filterUnits="userSpaceOnUse"><feOffset dx="10" dy="10" input="SourceAlpha"/><feGaussianBlur stdDeviation="3" result="av"/><feFlood flood-opacity="0.161"/><feComposite operator="in" in2="av"/><feComposite in="SourceGraphic"/></filter><filter id="aw" x="820.063" y="899.402" width="33.023" height="34.045" filterUnits="userSpaceOnUse"><feOffset dx="10" dy="10" input="SourceAlpha"/><feGaussianBlur stdDeviation="3" result="ax"/><feFlood flood-opacity="0.161"/><feComposite operator="in" in2="ax"/><feComposite in="SourceGraphic"/></filter><filter id="ay" x="829.017" y="903.553" width="37.182" height="28.654" filterUnits="userSpaceOnUse"><feOffset dx="10" dy="10" input="SourceAlpha"/><feGaussianBlur stdDeviation="3" result="az"/><feFlood flood-opacity="0.161"/><feComposite operator="in" in2="az"/><feComposite in="SourceGraphic"/></filter><clipPath id="bb"><rect width="1920" height="1009"/></clipPath></defs><g id="ba" clip-path="url(#bb)"><g transform="translate(0 799.101)"><path d="M70,489.469H1990.091V402.747l-32.771-13.976L1912.944,370l-27.308,11.947-44.375,6.827-46.082,22.188-59.736-18.774L1694.481,371.7l-68.27-34.135-34.135,8.534-35.842,5.12L1470.9,373.411l-148.487,8.534L1192.7,380.238l-42.669,18.774-98.991,1.707-81.924,18.774L916.2,410.959l-85.337,18.774-153.607-5.12-110.939-1.707L511.7,410.959l-47.789,11.947-37.548,3.413-88.751-32.428-44.376-6.827-56.322,17.067L70,415.7Z" transform="translate(-70 -317.941)" fill="#ab0c7b"/><path d="M70,507.981H1990.091V428.593l-26.8-7.655-28.162-2.559-28.162-10.243-30.722,7.68-25.6,2.562-30.721-5.121L1773.844,397.9l-40.961-7.68L1679.121,410.7l-38.4,12.8s-30.722-2.559-38.4-5.118-38.4-5.121-38.4-5.121l-25.6-15.361-48.641-17.92-89.605-48.644-51.2,15.361-74.245,33.284L1233.66,385.1l-30.721,20.482h-38.4l-46.082-7.68-48.644,17.92L1016.048,436.3l-69.123-2.559S872.683,436.3,854.76,436.3s-81.922,10.24-92.164,7.68-48.641-5.121-48.641-5.121L665.313,436.3l-97.286,12.8-40.961-10.243-48.644-5.118L442.583,423.5l-30.721-10.24-74.245,15.361-33.281-10.239-33.284,2.559-89.6-28.162L70,403.494Z" transform="translate(-70 -331.333)" fill="#960c72"/><path d="M1990.091,394.459l-34.477-8.275-42.67-5.121-17.067,3.415H1863.45l-54.619-3.415L1750.8,377.65l-35.843-6.827-29.015,6.827-39.255,8.533-46.082-5.121s-39.255,1.709-44.373,3.415-75.1-11.949-75.1-11.949l-44.376-13.652s-40.961-3.415-46.082-3.415-42.67,13.655-42.67,13.655l-80.216,5.121-30.721,3.412-30.722,6.827s-25.6-3.415-30.721-3.415h-17.067l-15.361,3.415-17.067-6.827-25.6,15.361H1069.81L774.544,404.959H440.02l-126.3,1.706-47.788-5.121-47.791-17.067H190.837l-29.015,8.533-42.667,6.827L70,402.3V456.16H1990.091Z" transform="translate(-70 -279.511)" fill="#7a0462"/><g transform="translate(0 42.736)"><path d="M1245.316,367.864C998.644,381.566,232.358,392.215,70,394.352v248.51H1990.091V365.085Z" transform="translate(-70 -301.58)" fill="#590041"/><g transform="translate(169.815)"><path d="M134.875,411.49V398.081s-5.109-1.278-7.026-4.152-1.917-4.791-2.235-7.347-2.874-7.983-.96-10.217,5.43-2.553,7.026-.318,1.278,11.813,2.874,13.412,2.874,2.553,3.834,1.6.318-5.748.318-8.3-.318-7.026-.318-9.578.318-6.069.318-9.578.957-5.748,2.235-6.387,5.109-2.874,7.344.639,3.513,6.7,2.874,9.9-1.278,6.387-1.6,9.582-1.917,5.109-1.278,7.022,3.513.96,4.47.639,1.6-2.874,1.917-4.47,0-5.427,2.556-5.109,4.788-.639,4.788,2.556a21.753,21.753,0,0,1-.639,6.7c-.639,2.553-.318,5.109-1.6,6.7s-1.917,1.917-4.47,3.195-3.831,1.6-5.43,2.874-3.192.957-3.51,2.235-.639,4.149-.639,4.149l5.109-.318s2.235-4.152,3.192-2.235,2.556,2.874.639,5.109-2.235,2.235-4.152,2.874a20.1,20.1,0,0,0-3.513,1.6l-.957,1.917Z" transform="translate(-123.949 -321.268)" fill="#310223"/><path d="M632.311,390.325v-7.976s-3.038-.762-4.177-2.468a8.25,8.25,0,0,1-1.328-4.369c-.189-1.52-1.709-4.747-.57-6.075s3.229-1.52,4.177-.192.762,7.026,1.709,7.976,1.709,1.517,2.279.951.189-3.418.189-4.939-.189-4.177-.189-5.7.189-3.607.189-5.7.57-3.418,1.331-3.8,3.038-1.709,4.366.378,2.09,3.988,1.709,5.889-.758,3.8-.947,5.694-1.14,3.041-.762,4.18,2.09.57,2.66.378.948-1.709,1.139-2.657,0-3.229,1.517-3.041,2.849-.378,2.849,1.52a13.02,13.02,0,0,1-.378,3.988c-.381,1.52-.192,3.038-.951,3.988a6,6,0,0,1-2.66,1.9,16.522,16.522,0,0,0-3.226,1.709c-.951.759-1.9.57-2.09,1.328s-.378,2.471-.378,2.471l3.037-.192s1.328-2.468,1.9-1.328,1.52,1.709.381,3.037a3.912,3.912,0,0,1-2.468,1.709,11.953,11.953,0,0,0-2.09.951l-.57,1.139Z" transform="translate(953.905 -318.354)" fill="#590041"/><path d="M205.036,426.171s.563-6.786-.567-9.613-2.26-3.957-3.393-7.916-2.827-5.653-2.827-9.613-1.7-6.22,1.133-7.916,5.653.567,6.783,2.827-1.7,6.786,1.7,8.483,4.523-.567,4.523-3.393-1.7-5.653-2.26-10.177-1.7-6.786-1.133-10.743a58.053,58.053,0,0,0,.567-10.18c0-4.523,1.7-6.22,2.263-10.176s1.693-9.047,5.653-9.047,4.523,0,5.09,6.783S222,366.232,222,370.755s2.26,10.743,3.957,10.743,3.393-5.087,3.96-8.48,1.7-6.786,5.653-5.656,4.523,4.526,3.393,9.613,0,7.353-2.827,12.44-2.827,5.09-7.35,8.483-4.526,4.523-5.09,7.916-.567,7.917,1.13,7.35,3.96-5.653,6.22-6.783,5.656-3.393,5.656.563,2.827,3.393-1.133,7.916-4.523,6.22-7.35,7.917a16.542,16.542,0,0,0-5.653,5.09c-1.7,2.26-2.83,3.957-2.83,5.653s-2.26,3.393-4.523,3.393-9.047-1.13-9.047-1.13Z" transform="translate(34.541 -336.757)" fill="#310223"/><path d="M566.621,413.382s.5-6-.5-8.5-2-3.5-3-7-2.5-5-2.5-8.5-1.5-5.5,1-7,5,.5,6,2.5-1.5,6,1.5,7.5,4-.5,4-3-1.5-5-2-9-1.5-6-1-9.494a51.353,51.353,0,0,0,.5-9c0-4,1.5-5.5,2-8.993s1.5-8,5-8,4,0,4.5,6-.5,9.5-.5,13.494,2,9.5,3.5,9.5,3-4.5,3.5-7.495,1.5-6,5-5,4,4,3,8.5,0,6.5-2.5,10.995-2.5,4.5-6.5,7.5-4,4-4.5,7-.5,7,1,6.5,3.5-5,5.5-6,5-3,5,.5,2.5,3-1,6.994-4,5.5-6.5,7a14.669,14.669,0,0,0-5,4.5c-1.5,2-2.5,3.5-2.5,5s-2,3-4,3-8-1-8-1Z" transform="translate(812.932 -344.91)" fill="#590041"/><path d="M524.011,396.3s.324-3.916-.327-5.546a31.911,31.911,0,0,1-1.958-4.57c-.652-2.282-1.634-3.261-1.634-5.546s-.979-3.592.655-4.571,3.264.327,3.916,1.634-.979,3.916.979,4.895,2.613-.327,2.613-1.958-.982-3.264-1.306-5.877-.979-3.916-.655-6.2a33.474,33.474,0,0,0,.327-5.877c0-2.609.979-3.589,1.306-5.874s.979-5.222,3.264-5.222,2.61,0,2.937,3.916-.327,6.2-.327,8.813,1.306,6.2,2.285,6.2,1.958-2.94,2.285-4.9.979-3.916,3.261-3.261,2.613,2.609,1.961,5.546,0,4.243-1.634,7.18-1.63,2.937-4.243,4.895-2.609,2.613-2.937,4.57-.327,4.567.652,4.243,2.285-3.264,3.591-3.919,3.264-1.955,3.264.327,1.63,1.958-.655,4.57-2.609,3.588-4.24,4.567a9.57,9.57,0,0,0-3.264,2.937c-.979,1.306-1.634,2.285-1.634,3.264s-1.3,1.958-2.609,1.958-5.222-.652-5.222-.652Z" transform="translate(726.22 -330.557)" fill="#590041"/></g><g transform="translate(0 76.31)"><path d="M70,371.383V629.336H1990.091V416.952C1372.3,395.447,277.414,375.135,70,371.383Z" transform="translate(-70 -364.365)" fill="#310223"/><path d="M254.136,385.925l12.8-4.267,10.241-7.68,15.361-1.707,10.24,3.414,7.68,2.56h12.8l6.827,11.094-79.364-2.56" transform="translate(318.135 -362.457)" fill="#310223"/><path d="M514.107,412.676l33.282-16.641,33.281,1.28,11.52-10.241,25.6-8.96,16.641-1.28,11.52-7.68,28.608,1.658,22.594,8.583,17.921,14.081,21.761,3.84,12.8,5.12,17.921,6.4,19.2-1.28,11.521-6.4,19.2-2.56,14.081,5.12,15.361,23.041-221.45,6.4H544.828Z" transform="translate(883.803 -369.153)" fill="#310223"/></g></g></g><g transform="matrix(-1, -0.017, 0.017, -1, 1323.085, 953.805)"><g transform="translate(23.196 8.849)"><g transform="translate(3.054 7.435)"><path d="M.029.659,3.592,18.92C3.245,19.531,0,22.956,0,22.956l5.295,4.473s4.317-6.5,3.973-8.215C9.146,18.607,3.953,3.308,2.829,0Z" transform="translate(0 0)" fill="#310223"/></g><path d="M4.879,6.719a15.111,15.111,0,0,1,3.293-3.5C9.966,1.826,8.184,0,8.184,0S.433,3.083,0,4.373A27.285,27.285,0,0,1,1.549,7.555Z" transform="translate(1.326 0.64)" fill="#310223"/><g transform="translate(0 0)"><rect width="1.304" height="10.045" transform="translate(9.004 0) rotate(63.678)" fill="#310223"/></g></g><g transform="translate(0.932 0.929)"><g transform="translate(0 0)"><path d="M.033,14.658l.017.186,13.672-1.236.071.01.053.041.028.035.008.065,0,.015-.089.1-11.4,7.64.1.155,10.6-7.1-9.1,9,.131.133,9.732-9.62L12.423,27.409l.185.02,1.355-12.685L15.023,27.5l.186-.015-1.124-13.53,8.386,10.382.145-.117L14.6,14.3l9.773,8.266.12-.142L14.255,13.761l.09-.066,12.969,1.829.026-.184L14.709,13.559l12.785-.631-.009-.186-12.691.626,10.24-7.484-.11-.15L14.588,13.287l8.7-9.331-.136-.127L14.232,13.4l-.141.007L14.971.012,14.785,0l-.839,12.773L12.371.114l-.185.023,1.645,13.224L4.89,3.172l-.14.123,8.443,9.621L3.124,5.083,3.01,5.23l10.5,8.169L.018,12.057,0,12.242l12.737,1.267Z" transform="translate(48.636)" fill="#310223"/><path d="M0,10.941l13.507,2.452.065.028.04.054.018.041-.01.066-.005.014-.112.069L.475,17.989l.059.177,12.107-4.019L1.468,20.394l.091.163L13.5,13.878,8.577,26.349l.173.068,4.687-11.864L11.059,27.13l.183.035,2.522-13.34L19.08,26.067l.171-.074-5.081-11.7,7.217,10.571.154-.105L13.98,13.683l.1-.039L26.1,18.862l.074-.171-11.7-5.083,12.49,2.8L27,16.226,14.6,13.447,26.468,8.963,26.4,8.789,14.428,13.315,25.3,6.639l-.1-.159L14.056,13.325l-.137-.031L18.334.622,18.158.561,13.946,12.648,15.8.027,15.617,0,13.679,13.184,7.776.981l-.168.081,5.574,11.523L5.565,2.352l-.149.111L13.36,13.136.713,8.246.646,8.42l11.939,4.616L.033,10.757Z" transform="translate(0 0.253)" fill="#310223"/></g></g><g transform="translate(48.907 0)"><path d="M0,14.032A14.391,14.391,0,1,0,14.75,0,14.408,14.408,0,0,0,0,14.032Zm1.3.033A13.087,13.087,0,1,1,14.065,27.474,13.1,13.1,0,0,1,1.308,14.065Z" transform="translate(0 0)" fill="#310223"/></g><g transform="translate(0 0.295)"><path d="M0,14.032A14.391,14.391,0,1,0,14.75,0,14.407,14.407,0,0,0,0,14.032Zm1.3.033A13.087,13.087,0,1,1,14.065,27.474,13.1,13.1,0,0,1,1.308,14.065Z" transform="translate(0 0)" fill="#310223"/></g><g transform="translate(14.396 6.866)"><rect width="0.186" height="22.282" transform="translate(21.11 0) rotate(71.335)" fill="#310223"/><rect width="21.352" height="0.186" transform="translate(0.028 8.369) rotate(2.582)" fill="#310223"/></g><path d="M0,3.875a1.577,1.577,0,0,1,2.957-.723L24.466,0,40.636,22.773l8.625-18.1a1.577,1.577,0,1,1,1.179.577h-.007L40.518,26.112l-1.185-.546.5-1.094L15.815,17.536,10.866,26.7l-1.573.167,5.24-9.7L2.488,5.2A1.576,1.576,0,0,1,0,3.875Zm24.241-1.94L16.449,16.362l22.685,6.55ZM3.518,4.388l11.649,11.6L22.974,1.537Z" transform="translate(12.813 10.771)" fill="#310223"/><path d="M0,.782A.8.8,0,1,1,.782,1.6.8.8,0,0,1,0,.782Z" transform="translate(62.496 13.615)" fill="#310223"/><path d="M0,.782A.8.8,0,1,1,.782,1.6.8.8,0,0,1,0,.782Z" transform="translate(13.577 13.884)" fill="#310223"/><path d="M6.836,0A11.06,11.06,0,0,0,.694,1.924,1.369,1.369,0,0,0,0,2.931c0,.45.4.787.787,1.022A7.662,7.662,0,0,0,5.816,4.99c2.378-.339,4.543-1.795,6.945-1.806A6.323,6.323,0,0,0,14.2,3.126c.467-.111,1.107-.446,1-.915C14.9.886,9.2-.075,6.836,0Z" transform="translate(16.572 36.917)" fill="#310223"/><g transform="translate(51.27 35.905)"><path d="M.666,0,2.56.783,2.1,1.9l2.147.818a1.932,1.932,0,0,0,1.593-.1l1.189-.658a1.024,1.024,0,0,1,1.4.417h0A1.024,1.024,0,0,1,8.02,3.754L6.8,4.429a3.982,3.982,0,0,1-3.282.2L1.281,3.781A1.976,1.976,0,0,1,.186,2.8,1.885,1.885,0,0,1,.146,1.259Z" transform="translate(0)" fill="#310223"/></g><path d="M0,5.148a5.279,5.279,0,1,1,5.146,5.409A5.285,5.285,0,0,1,0,5.148ZM4.588,6.837l-1.7,1.614a3.945,3.945,0,0,0,1.638.728ZM5.833,9.211a3.947,3.947,0,0,0,1.672-.645L5.892,6.87ZM8.451,7.667a3.952,3.952,0,0,0,.728-1.638L6.837,5.97Zm.76-2.942a3.947,3.947,0,0,0-.645-1.672l-1.7,1.614ZM7.667,2.108A3.952,3.952,0,0,0,6.029,1.38L5.97,3.721Zm-2.942-.76a3.947,3.947,0,0,0-1.672.645l1.614,1.7ZM2.108,2.892A3.951,3.951,0,0,0,1.38,4.529l2.342.058Zm-.76,2.942a3.95,3.95,0,0,0,.645,1.672l1.7-1.614Z" transform="translate(31.296 6.185)" fill="#310223"/><g transform="translate(19.646 7.186)"><g transform="translate(0 7.038)"><path d="M.044,8.022C.464,5.708,11.643,0,11.643,0l1.62,2.371.249.358L15.74,5.983l-4.948,4.122-.079,3.123-3.446.79-.5.118-4.5,1.035S-.371,10.337.044,8.022Z" transform="translate(0 21.564)" fill="#310223"/><path d="M3.122,3.319A25.153,25.153,0,0,1,8.315,0l.249.358A24.8,24.8,0,0,0,3.14,3.869C1.349,5.407-.127,7.376.812,9.546c-.144.061-.293.127-.432.2A4.265,4.265,0,0,1,.091,8.9C-.446,6.555,1.493,4.668,3.122,3.319Z" transform="translate(4.949 23.935)" fill="#310223"/><path d="M5.674,0,4.5,18.569c-.491.5-4.5,2.994-4.5,2.994l4.1,5.983s6.158-4.781,6.26-6.53C10.4,20.4,8.8,3.557,8.549.072Z" transform="translate(11.641 0)" fill="#310223"/></g><path d="M4.126,7.118A22.829,22.829,0,0,1,8.087,2.892,1.984,1.984,0,0,0,8.765,0S.746,2.475,0,3.613A27.243,27.243,0,0,1,.693,7.084Z" transform="translate(16.396 0)" fill="#310223"/></g><path d="M15.54,19.373c-.985-.725-1.8-1.672-2.787-2.4-2.814-2.079-6.427-1.242-9.427-2.815A6.5,6.5,0,0,1,.009,8.78a7.949,7.949,0,0,1,2.424-5.94A10.279,10.279,0,0,1,8.316.087a8.318,8.318,0,0,1,7.231,2.238c1.662,1.832,2.2,4.616,4.241,6.02.9.619,2.122,1.028,2.426,2.076.229.789-.184,1.644-.018,2.449.154.751.78,1.317,1.047,2.036.617,1.658-.678,3.276-1.936,4.206-1.641,1.212-3.6,1.678-5.405.511C15.778,19.543,15.658,19.46,15.54,19.373Z" transform="translate(24.32 54.804)" fill="#310223"/><g transform="translate(21.913 38.426)"><g transform="translate(14.991 24.723)"><g transform="translate(0 0)"><g transform="translate(0.97)"><path d="M0,1.434A6.623,6.623,0,0,1,1.874.11C2.4-.1,2.417.04,3,.095l.656,1.123L4.964,3.452,1.9,4.663,1.839,4.5a.006.006,0,0,0,0,0Z" transform="translate(0 0)" fill="#310223"/></g><path d="M6.162,6.462S5.857,1.268,3.048,0c0,0-4.821.367-2.336,7.359Z" transform="translate(2.841 1.381)" fill="#310223"/><path d="M6.4,4.307a1.443,1.443,0,0,0,.446.759A1.369,1.369,0,0,0,8,5.054a1.167,1.167,0,0,1,1.129.076.792.792,0,0,1,.06.968,1.907,1.907,0,0,1-.811.646,7.576,7.576,0,0,1-4.387.7,4.019,4.019,0,0,1-2.4-1.063A4.564,4.564,0,0,1,.632,4.534,15.669,15.669,0,0,1,.066,1.923C0,1.411-.14.408.405.093.833-.153,1.6.152,2.027.275A6.756,6.756,0,0,1,5.31,2.417,6.243,6.243,0,0,1,6.4,4.307Z" transform="translate(0 2.261)" fill="#310223"/></g></g><path d="M21.543,1.346s-.311,1.592-.934,1.717a22.159,22.159,0,0,0-2.451.908L7.719,11.619,4.188,23.152s-1.545.974-3.872-1.038C-1.271,20.742,3.562,8.964,5.174,7.666,6.3,6.758,17.2,1.661,17.2,1.661S18.7.405,18.816.371a13.326,13.326,0,0,1,1.55.413S21.238-.2,21.541.037,21.543,1.346,21.543,1.346Z" transform="translate(12.186 0)" fill="#310223"/><path d="M0,4.127A6.727,6.727,0,0,1,3.061,1.07c.14-.07.288-.135.432-.2A16.058,16.058,0,0,1,8.5,0c.41,1.66,1.284,3.991,1.284,3.991L13.049,7.2S16.39,7.55,17.957,9.9c.6.908,1.262,6.275,1.262,6.275s-2.638,3.528-2.777,3.664-1.009-.52-1.009-.52c-.41-.118-1.275-.293-2.236-.594a9.045,9.045,0,0,1-2.821-1.371A34.587,34.587,0,0,1,0,4.127Z" transform="translate(0 8.406)" fill="#310223"/></g><path d="M20.028,1.334s-.191,1.611-.8,1.782A22.2,22.2,0,0,0,16.849,4.2L7.01,12.612,4.35,24.376S2.882,25.462.411,23.63C-1.274,22.38,2.666,10.274,4.177,8.86c1.057-.99,11.54-6.887,11.54-6.887S17.118.609,17.236.565a13.3,13.3,0,0,1,1.577.3s.795-1.047,1.116-.832S20.028,1.334,20.028,1.334Z" transform="translate(36.534 37.702)" fill="#310223"/><g transform="translate(35.616 6.256)"><rect width="1.304" height="10.286" transform="translate(9.401) rotate(66.051)" fill="#310223"/></g><path d="M0,0" transform="translate(23.089 13.611)" fill="#310223" stroke="#003f59" stroke-miterlimit="10" stroke-width="7"/><path d="M0,0" transform="translate(32.489 9.434)" fill="#310223" stroke="#003f59" stroke-miterlimit="10" stroke-width="7"/></g><g transform="matrix(0.996, 0.087, -0.087, 0.996, 802.608, 890.627)"><g transform="translate(-0.004 15.293)"><g transform="translate(45.285 0.683)"><g transform="matrix(1, -0.09, 0.09, 1, -922.46, -833.26)" filter="url(#a)"><path d="M5.205,20.981C.149,4.615.149,4.615.143,4.594A1.936,1.936,0,0,1,.611,2.678a1.506,1.506,0,0,0,.4-.829C1.032,1.4.821,1.275.163,1L0,.933.4,0,.553.065C1.161.319,2.08.7,2.024,1.9a2.426,2.426,0,0,1-.6,1.388c-.31.416-.442.617-.3,1.035L6.175,20.682Z" transform="matrix(1, 0.09, -0.09, 1, 846.32, 910.49)" fill="#310223" stroke="rgba(0,0,0,0)" stroke-width="1"/></g></g><g transform="translate(20.643 7.272)"><g transform="matrix(1, -0.09, 0.09, 1, -897.82, -839.85)" filter="url(#c)"><rect width="2.037" height="19.98" transform="translate(821.15 915.5) rotate(-12.08)" fill="#310223" stroke="rgba(0,0,0,0)" stroke-width="1"/></g></g><g transform="translate(0 12.322)"><g transform="translate(0 0)"><g transform="matrix(1, -0.09, 0.09, 1, -877.17, -844.9)" filter="url(#e)"><path d="M10.933.022a11.667,11.667,0,1,0,12.389,10.91A11.675,11.675,0,0,0,10.933.022ZM12.9,10.894l6.566-5.2a9.768,9.768,0,0,1,.954,1.511Zm7.653-3.4a9.647,9.647,0,0,1,.518,1.349l-7.779,2.208Zm-7.623,2.988L18.27,4.414a9.9,9.9,0,0,1,.993,1.049Zm-.419.008,4.076-7.312a9.939,9.939,0,0,1,1.457,1.035Zm-.131-.4,2.618-7.653a9.812,9.812,0,0,1,1.317.6Zm-.383.166.965-8.315a9.723,9.723,0,0,1,1.742.4Zm-.275-.315L11.2,1.868a9.8,9.8,0,0,1,1.445.043Zm-.29.3L9.133,2.184a9.838,9.838,0,0,1,1.763-.3Zm-.374-.189L7.49,2.792a9.649,9.649,0,0,1,1.349-.517Zm-.153.39L5.7,3.877A9.85,9.85,0,0,1,7.21,2.924Zm-.417-.029L4.413,5.067a9.93,9.93,0,0,1,1.049-.992Zm.009.419L3.174,6.754A9.88,9.88,0,0,1,4.209,5.3Zm-.4.131L2.434,8.343a9.786,9.786,0,0,1,.6-1.316Zm.165.383-8.32-.969a9.707,9.707,0,0,1,.4-1.74Zm-.315.274-8.075.508a9.918,9.918,0,0,1,.042-1.443Zm.3.29L2.187,14.2a9.839,9.839,0,0,1-.3-1.762Zm-.19.374L2.8,15.841a9.7,9.7,0,0,1-.517-1.348Zm.39.153L3.882,17.632a9.828,9.828,0,0,1-.954-1.511Zm-.028.416L5.074,18.918a9.908,9.908,0,0,1-.993-1.05Zm.418-.008L6.762,20.157a9.872,9.872,0,0,1-1.456-1.035Zm.132.4L8.352,20.9a9.816,9.816,0,0,1-1.317-.6Zm.383-.165-.965,8.315a9.726,9.726,0,0,1-1.742-.4Zm.274.315.513,8.07a9.859,9.859,0,0,1-1.444-.042Zm.29-.3,2.293,8.057a9.883,9.883,0,0,1-1.763.3Zm.375.189,3.562,7.26a9.755,9.755,0,0,1-1.349.517Zm.153-.39,5.2,6.565a9.827,9.827,0,0,1-1.512.953Zm.416.029,6.07,5.346a9.926,9.926,0,0,1-1.049.992Zm-.009-.419,7.318,4.078a9.881,9.881,0,0,1-1.035,1.455Zm.4-.131,7.659,2.621a9.818,9.818,0,0,1-.6,1.315Zm-.166-.383,8.32.969a9.658,9.658,0,0,1-.4,1.741Zm.315-.274,8.074-.508a9.773,9.773,0,0,1-.042,1.443Zm-.3-.29,8.06-2.288a9.827,9.827,0,0,1,.3,1.762Z" transform="matrix(1, 0.09, -0.09, 1, 800.2, 918.14)" fill="#310223" stroke="rgba(0,0,0,0)" stroke-width="1"/></g></g><g transform="translate(9.665 9.659)"><g transform="matrix(1, -0.09, 0.09, 1, -886.84, -854.56)" filter="url(#g)"><path d="M4.013,1.881A2.008,2.008,0,1,1,1.881,0,2.007,2.007,0,0,1,4.013,1.881Z" transform="matrix(1, 0.09, -0.09, 1, 808.98, 928.6)" fill="#310223" stroke="rgba(0,0,0,0)" stroke-width="1"/></g></g></g><g transform="translate(39.302 9.848)"><g transform="translate(0 0)"><g transform="matrix(1, -0.09, 0.09, 1, -916.47, -842.43)" filter="url(#i)"><path d="M10.933.022a11.667,11.667,0,1,0,12.389,10.91A11.675,11.675,0,0,0,10.933.022ZM12.9,10.894l6.566-5.2a9.769,9.769,0,0,1,.954,1.511Zm7.653-3.4a9.649,9.649,0,0,1,.518,1.349l-7.779,2.208Zm-7.623,2.987L18.27,4.414a9.941,9.941,0,0,1,.993,1.049Zm-.419.008,4.076-7.312a9.939,9.939,0,0,1,1.457,1.035Zm-.131-.4,2.618-7.653a9.812,9.812,0,0,1,1.317.6Zm-.383.166.965-8.316a9.767,9.767,0,0,1,1.742.4Zm-.275-.315L11.2,1.868a9.866,9.866,0,0,1,1.445.042Zm-.29.3L9.133,2.184a9.837,9.837,0,0,1,1.763-.3Zm-.374-.189L7.49,2.792a9.716,9.716,0,0,1,1.349-.517Zm-.153.39L5.7,3.877A9.852,9.852,0,0,1,7.21,2.924Zm-.417-.029L4.413,5.067a9.928,9.928,0,0,1,1.049-.992Zm.009.419L3.174,6.754A9.882,9.882,0,0,1,4.209,5.3Zm-.4.131L2.434,8.343a9.79,9.79,0,0,1,.6-1.316Zm.165.383-8.32-.969a9.706,9.706,0,0,1,.4-1.74Zm-.315.274-8.075.508a9.914,9.914,0,0,1,.042-1.443Zm.3.29L2.187,14.2a9.841,9.841,0,0,1-.3-1.762Zm-.19.374L2.8,15.841a9.71,9.71,0,0,1-.517-1.349Zm.39.153L3.882,17.632a9.828,9.828,0,0,1-.954-1.511Zm-.028.416L5.074,18.918a9.906,9.906,0,0,1-.993-1.05Zm.418-.008L6.762,20.157a9.908,9.908,0,0,1-1.456-1.035Zm.132.4L8.352,20.9a9.75,9.75,0,0,1-1.317-.6Zm.383-.165-.965,8.316a9.767,9.767,0,0,1-1.742-.4Zm.274.315.513,8.07a9.858,9.858,0,0,1-1.444-.042Zm.29-.3,2.293,8.058a9.883,9.883,0,0,1-1.763.3Zm.375.189,3.562,7.261a9.753,9.753,0,0,1-1.349.517Zm.153-.39,5.2,6.565a9.785,9.785,0,0,1-1.512.952Zm.416.029,6.07,5.346a9.919,9.919,0,0,1-1.049.991Zm-.009-.419,7.318,4.078a9.882,9.882,0,0,1-1.035,1.455Zm.4-.131,7.659,2.621a9.815,9.815,0,0,1-.6,1.315Zm-.166-.383,8.32.969a9.659,9.659,0,0,1-.4,1.741Zm.315-.274,8.074-.508a9.773,9.773,0,0,1-.042,1.443Zm-.3-.29,8.06-2.288a9.791,9.791,0,0,1,.3,1.762Z" transform="matrix(1, 0.09, -0.09, 1, 839.57, 919.1)" fill="#310223" stroke="rgba(0,0,0,0)" stroke-width="1"/></g></g><g transform="translate(9.665 9.659)"><g transform="matrix(1, -0.09, 0.09, 1, -926.14, -852.09)" filter="url(#k)"><path d="M4.013,1.881A2.008,2.008,0,1,1,1.881,0,2.007,2.007,0,0,1,4.013,1.881Z" transform="matrix(1, 0.09, -0.09, 1, 848.35, 929.56)" fill="#310223" stroke="rgba(0,0,0,0)" stroke-width="1"/></g></g></g><g transform="translate(11.166 6.326)"><g transform="matrix(1, -0.09, 0.09, 1, -888.34, -838.9)" filter="url(#m)"><path d="M16.354,20.845a.574.574,0,0,1-.117-.006L.421,18.16a.508.508,0,0,1-.315-.813L10.794,3.738a.5.5,0,0,1,.324-.188L34.989,0a.507.507,0,0,1,.444.85L16.691,20.686A.507.507,0,0,1,16.354,20.845ZM1.432,17.3l14.707,2.49L33.688,1.219l-22.22,3.3Z" transform="matrix(1, 0.09, -0.09, 1, 811.84, 913.14)" fill="#310223" stroke="rgba(0,0,0,0)" stroke-width="1"/></g></g><g transform="translate(25.29 24.103)"><g transform="matrix(1, -0.09, 0.09, 1, -902.46, -856.68)" filter="url(#o)"><path d="M4.376,2.052A2.19,2.19,0,1,1,2.052,0,2.188,2.188,0,0,1,4.376,2.052Z" transform="matrix(1, 0.09, -0.09, 1, 824.36, 932.08)" fill="#310223" stroke="rgba(0,0,0,0)" stroke-width="1"/></g></g><g transform="translate(19.436 25.786)"><g transform="matrix(1, -0.09, 0.09, 1, -896.61, -858.36)" filter="url(#q)"><path d="M.539,3.335a.507.507,0,0,1-.181-.991L7.894.021a.512.512,0,0,1,.635.335.508.508,0,0,1-.335.635L.658,3.313A.516.516,0,0,1,.539,3.335Z" transform="matrix(1, 0.09, -0.09, 1, 818.39, 933.24)" fill="#310223" stroke="rgba(0,0,0,0)" stroke-width="1"/></g></g><g transform="translate(18.15 27.828)"><g transform="matrix(1, -0.09, 0.09, 1, -895.32, -860.41)" filter="url(#s)"><rect width="3.527" height="1.354" transform="matrix(1, 0.02, -0.02, 1, 816.91, 935.39)" fill="#310223" stroke="rgba(0,0,0,0)" stroke-width="1"/></g></g><g transform="translate(26.971 25.801)"><g transform="matrix(1, -0.09, 0.09, 1, -904.14, -858.38)" filter="url(#u)"><path d="M.33.983a.507.507,0,0,1,.3-.969L6.4,1.4a.519.519,0,0,1,.374.613.507.507,0,0,1-.613.374L.388,1C.369,1,.35.99.33.983Z" transform="matrix(1, 0.09, -0.09, 1, 825.89, 933.91)" fill="#310223" stroke="rgba(0,0,0,0)" stroke-width="1"/></g></g><g transform="translate(31.453 26.643)"><g transform="matrix(1, -0.09, 0.09, 1, -908.63, -859.22)" filter="url(#w)"><rect width="1.351" height="3.526" transform="translate(830.16 936.49) rotate(-83.51)" fill="#310223" stroke="rgba(0,0,0,0)" stroke-width="1"/></g></g><g transform="translate(16.002 6.732)"><g transform="matrix(1, -0.09, 0.09, 1, -893.17, -839.31)" filter="url(#y)"><path d="M8.56.481C8.448,0,.639-.3.168.487s-.037,2.9,2.391,3.156C3.842,3.781,8.787,1.453,8.56.481Z" transform="matrix(1, 0.09, -0.09, 1, 816.63, 913.96)" fill="#310223" stroke="rgba(0,0,0,0)" stroke-width="1"/></g></g><g transform="translate(41.944 0.234)"><g transform="matrix(1, -0.09, 0.09, 1, -919.12, -832.81)" filter="url(#aa)"><path d="M.206,5.669,0,4.676c3.448-.712,4.1-1.651,4.226-2.022a1.141,1.141,0,0,0-.381-1.1,6.933,6.933,0,0,0-2.806-.537L1.081,0C1.749.028,3.974.176,4.6.874a2.064,2.064,0,0,1,.589,2.1C4.793,4.177,3.162,5.059.206,5.669Z" transform="matrix(1, 0.09, -0.09, 1, 843.04, 909.75)" fill="#310223" stroke="rgba(0,0,0,0)" stroke-width="1"/></g></g><g transform="translate(41.517 3.911)"><g transform="matrix(1, -0.09, 0.09, 1, -918.69, -836.49)" filter="url(#ac)"><rect width="2.642" height="1.354" transform="translate(842.21 914.25) rotate(-14.36)" fill="#310223" stroke="rgba(0,0,0,0)" stroke-width="1"/></g></g><g transform="translate(41.481 0)"><g transform="matrix(1, -0.09, 0.09, 1, -918.65, -832.58)" filter="url(#ae)"><rect width="1.352" height="2.642" transform="translate(842.48 910.82) rotate(-84.1)" fill="#310223" stroke="rgba(0,0,0,0)" stroke-width="1"/></g></g></g><g transform="translate(15.982 -0.003)"><g transform="matrix(1, -0.09, 0.09, 1, -893.16, -817.28)" filter="url(#ag)"><path d="M2.678,0,1.924,1.072A10.553,10.553,0,0,0,.139,4.4a3.584,3.584,0,0,0,.82,3.519,11.853,11.853,0,0,0,.989.717,6.594,6.594,0,0,1,1.6,1.849,18.679,18.679,0,0,0,1.641,1.8,23.935,23.935,0,0,1,2.875,4.181.46.46,0,0,1,.081.273.468.468,0,0,1-.184.263,15.839,15.839,0,0,0-2.938,3,20.183,20.183,0,0,0-1.711,3.938,4.6,4.6,0,0,1-.764,1.483c-.331.347-.76.351-1.168.56a.91.91,0,0,0-.441,1.042,1.743,1.743,0,0,0,.444.649,4.953,4.953,0,0,0,.713.657c.433.306.95.474,1.4.759a7.261,7.261,0,0,0,1.815,1.2,3.2,3.2,0,0,0,1.913-.273c.182-.068.385-.159.445-.344.1-.3-.242-.546-.519-.7a6.288,6.288,0,0,1-2.063-1.9c-.235-.334-.561-.675-.46-1.1.108-.449.685-.877.97-1.223.39-.476.791-.945,1.138-1.454a58.266,58.266,0,0,1,4.12-5.032,1.949,1.949,0,0,0,1.169-2.1,3.261,3.261,0,0,0-.54-1.821A47.818,47.818,0,0,1,9.105,7.7" transform="matrix(1, 0.09, -0.09, 1, 817.27, 906.45)" fill="#310223" stroke="rgba(0,0,0,0)" stroke-width="1"/></g><g transform="matrix(1, -0.09, 0.09, 1, -893.16, -817.28)" filter="url(#ai)"><path d="M1.932,0A9.627,9.627,0,0,0,.5,1.911,3.793,3.793,0,0,0,.033,4.219,5.349,5.349,0,0,0,.578,5.731q.436.893.923,1.761C2.164,8.675,3.872,9.178,5,9.739a30.079,30.079,0,0,1,6.051,4.445c.743.627.483,1.334.328,2.212a12.637,12.637,0,0,0-.178,2.828,19.285,19.285,0,0,0,.768,4.026c.1.453.405,1.4.131,1.825s-.86.352-.416,1.074a3.749,3.749,0,0,0,.58.725.836.836,0,0,0,.254.185.938.938,0,0,0,.374.045q1.161-.019,2.324-.028a9.408,9.408,0,0,1,1.751.22,1.254,1.254,0,0,0,1.22-.456c.187-.22.554-.821.029-.873a13.981,13.981,0,0,1-1.667-.558c-.638-.153-1.226-.463-1.878-.571-.951-.158-.054-7.459.289-9.186.308-1.55.722-3.15-.741-4.262C12.652,9.952,8.683,4.561,4.453,1.714" transform="matrix(1, 0.09, -0.09, 1, 818.95, 907.26)" fill="#310223" stroke="rgba(0,0,0,0)" stroke-width="1"/></g><g transform="matrix(1, -0.09, 0.09, 1, -893.16, -817.28)" filter="url(#ak)"><path d="M13.437,6.178a6.786,6.786,0,0,0,1.6-1.3c.462-.512.934-1.143,1.622-1.188a17.463,17.463,0,0,0-1.788-2.242,4.645,4.645,0,0,1-.757-.563,5.439,5.439,0,0,0-.7-.806A.289.289,0,0,0,13.239,0a.355.355,0,0,0-.2.109,4.334,4.334,0,0,1-1.919.579,12.09,12.09,0,0,0-6.98,4.919A25.342,25.342,0,0,1,.256,9.676c-.139.131-.29.3-.25.485a.523.523,0,0,0,.12.214c.972,1.2,2.587,1.633,4.091,2" transform="matrix(1, 0.09, -0.09, 1, 818.99, 897.47)" fill="#310223" stroke="rgba(0,0,0,0)" stroke-width="1"/></g><g transform="matrix(1, -0.09, 0.09, 1, -893.16, -817.28)" filter="url(#am)"><path d="M2.565,8.26A3.336,3.336,0,0,1,4.04,7.6a2.056,2.056,0,0,1,1.4.121,1.5,1.5,0,0,0,.3.126.332.332,0,0,0,.3-.065.372.372,0,0,0,.094-.2c.054-.268.006-.59.208-.773A.375.375,0,0,1,6.3,6.635a.378.378,0,0,0,.141-.086A.129.129,0,0,0,6.458,6.4c-.025-.036-.073-.053-.093-.093-.039-.083.076-.149.163-.179.16-.055.418-.129.469-.314.076-.279-.289-.372-.356-.6a2.438,2.438,0,0,1-.054-.474c-.005-.071-.076-.793.038-.787a5.091,5.091,0,0,0,.7-.008c.1-.033.213-.587.337-.886S6.936,1.52,6.483.819,3.656-.138,2.911.07A12.745,12.745,0,0,0,.409.89c-.086.171.376.216.289.44a2.189,2.189,0,0,1-.241.189,1.842,1.842,0,0,0-.233.287A1.089,1.089,0,0,0,0,2.467.2.2,0,0,0,.044,2.6a.23.23,0,0,0,.172.048l.894,0A10.249,10.249,0,0,0,1.09,4.3c.03.447.383.713.578,1.09.144.278-.329.63-1.421.865" transform="matrix(1, 0.09, -0.09, 1, 831.51, 893.15)" fill="#310223" stroke="rgba(0,0,0,0)" stroke-width="1"/></g><g transform="matrix(1, -0.09, 0.09, 1, -893.16, -817.28)" filter="url(#ao)"><path d="M.468,5.269a2.55,2.55,0,0,1,1.255.173,6.239,6.239,0,0,1,1.247,1.4,17.359,17.359,0,0,1,1.995,3.164,1.283,1.283,0,0,0,.242.38c.064.061.14.107.207.164.291.251.373.678.651.944a1.749,1.749,0,0,0,.757.356c1.429.408,1.686.507,3.115.914a13.894,13.894,0,0,1,3.67,1.166c.611.388,1.914-.5,1.914-.5s.623.28.677.586.238.32.238.32l.71-.578.63-1.286s-.234-1.314-.425-1.37a4.47,4.47,0,0,0-1.216-.184c-.263.046-2,1.107-2.287,1.25-.2.1-.7-.231-.869-.308-.5-.237-3.588-2.184-4.011-2.4-.259-.132-1.349-.41-1.467-.65A1.645,1.645,0,0,1,7.342,7.9,26.648,26.648,0,0,1,4.617,3.833c-.391-.717-.683-1.488-1.072-2.2A1.991,1.991,0,0,0,2.768.981,10.791,10.791,0,0,0,1.922.3,1.229,1.229,0,0,0,1.509.2L0,0" transform="matrix(1, 0.09, -0.09, 1, 829.81, 900.65)" fill="#310223" stroke="rgba(0,0,0,0)" stroke-width="1"/></g><g transform="matrix(1, -0.09, 0.09, 1, -893.16, -817.28)" filter="url(#aq)"><path d="M7.066.458a1.711,1.711,0,0,0-1.13.49,4.762,4.762,0,0,1-1.491.99,3.911,3.911,0,0,1-1.031.123,9.685,9.685,0,0,0-1.8.184A3.689,3.689,0,0,0,0,3.01a2.431,2.431,0,0,1,1.236-.3c.429,0,.856.061,1.283.1a7.36,7.36,0,0,0,2.419-.178A5.075,5.075,0,0,0,7.078,1.515,1.956,1.956,0,0,0,7.839,0" transform="matrix(1, 0.09, -0.09, 1, 825.82, 894.95)" fill="#310223" stroke="rgba(0,0,0,0)" stroke-width="1"/></g><g transform="matrix(1, -0.09, 0.09, 1, -893.16, -817.28)" filter="url(#as)"><path d="M5.2,0A2.7,2.7,0,0,0,3.936.472a10.844,10.844,0,0,1-1.512.692,3.764,3.764,0,0,1-.771.212A4.466,4.466,0,0,1,.986,1.4L0,1.393a4.59,4.59,0,0,0,3.289-.041A13.584,13.584,0,0,0,4.661.541a2.9,2.9,0,0,1,1.5-.489" transform="matrix(1, 0.09, -0.09, 1, 827.86, 895.32)" fill="#310223" stroke="rgba(0,0,0,0)" stroke-width="1"/></g><g transform="matrix(1, -0.09, 0.09, 1, -893.16, -817.28)" filter="url(#au)"><path d="M3.808.363a1.861,1.861,0,0,1-.7.79A4.837,4.837,0,0,1,0,2.29a2.378,2.378,0,0,0,1.044.065A6.1,6.1,0,0,0,5.336,0" transform="matrix(1, 0.09, -0.09, 1, 828.74, 896.18)" fill="#310223" stroke="rgba(0,0,0,0)" stroke-width="1"/></g><g transform="matrix(1, -0.09, 0.09, 1, -893.16, -817.28)" filter="url(#aw)"><path d="M12.019,2.936a2.455,2.455,0,0,0-.734,1.222,3.853,3.853,0,0,1-.245.916,1.872,1.872,0,0,1-.479.535A10.125,10.125,0,0,1,7.72,7.188a5.136,5.136,0,0,0-1.065.5,4.216,4.216,0,0,0-.987,1.073,2.642,2.642,0,0,0-.682,2.314,1.447,1.447,0,0,1,.182.632c-.032.277-.3.463-.546.594a6.073,6.073,0,0,1-2.065.647,2.64,2.64,0,0,1-1.367-.125,2.156,2.156,0,0,1-1.178-1.8A4.829,4.829,0,0,1,.44,8.828,16.879,16.879,0,0,1,6.5,1.434,8.327,8.327,0,0,1,9.257.043,1.018,1.018,0,0,1,9.626,0a1.113,1.113,0,0,1,.4.161l.919.521" transform="matrix(1, 0.09, -0.09, 1, 821.74, 899.94)" fill="#310223" stroke="rgba(0,0,0,0)" stroke-width="1"/></g></g><g transform="translate(28.448 10.803)"><g transform="matrix(1, -0.09, 0.09, 1, -905.63, -828.09)" filter="url(#ay)"><path d="M0,2.282c1.477,1.138,2.956,2.276,4.336,3.53A5.687,5.687,0,0,0,6.4,7.229,4.506,4.506,0,0,0,7.8,7.364,40.311,40.311,0,0,0,13.5,6.352c.368-.1.715.176,1.087.131a1.315,1.315,0,0,0,.375-.124l1.057-.475a1.109,1.109,0,0,0-.914-.345c.076-.247.192-.74.464-.857s.665.207.91.313c.083.036.207.053.242-.031.025-.06-.02-.125-.063-.175-.227-.266-.429-.613-.778-.721-.371-.116-.658.129-1.021.1-.338-.026-.649-.238-1.01-.239a1.066,1.066,0,0,0-.909.429c-.094.148-.147.335-.3.425a.665.665,0,0,1-.283.073q-1.773.182-3.557.219a3.14,3.14,0,0,1-2.332-.607,4.209,4.209,0,0,1-.385-.481C4.972,2.5,3.272,1.515,2.189,0" transform="matrix(1, 0.09, -0.09, 1, 830.01, 903.87)" fill="#310223" stroke="rgba(0,0,0,0)" stroke-width="1"/></g></g></g><path d="M56.435,51.966a15.078,15.078,0,0,0-4.538-9.41,10.129,10.129,0,0,0-7.021-2.674,2.866,2.866,0,0,1-.239-.96,3.864,3.864,0,0,1,.536.222,5.5,5.5,0,0,0,1.1.42V39.6l.454.105s.175-.035,0-.149l-.015,0v0H46.7l-.425-.139v.057a5.444,5.444,0,0,1-1.054-.406,3.938,3.938,0,0,0-.6-.244c-.019-.029-.056-.049-.127-.036l-.022-.006a.344.344,0,0,1,.072-.205s-.215-.406-.31.048a.286.286,0,0,0-.086.1,1.488,1.488,0,0,0-.281-.006c-.133-.158-.637.076-.637.076l-.358-1.075s.287,0,.024-.477l-.263-.478s-.31-.191-.31-.454a1.4,1.4,0,0,0-.451.048c-.1-.279-.212-.627-.331-1.023a6.587,6.587,0,0,0,.517-.557l.011-.017a5.063,5.063,0,0,0,.52-2.369,3.528,3.528,0,0,0,.072-.448,3.862,3.862,0,0,0,1.713-1.429,1.6,1.6,0,0,0,.116-1.371,2.074,2.074,0,0,0-1.849-1.3,4.218,4.218,0,0,0-.553-.035c0-.036,0-.071.008-.105.1-.117.182-.215.254-.291a1.156,1.156,0,0,0,.832.108.357.357,0,0,0,.322-.346s.239-.132.991.3a.76.76,0,0,1,.37.393s.322.1.3-.238-.764-.586-1.17-.717c0,0-.251,0-.2-.1h-.263a.8.8,0,0,0-.155-.562s.322-.047.31-.263-.239-.155-.322-.035l-.167.024s-.048-.49-.263-.657a1.546,1.546,0,0,1,.513-.286s.108-.071.168.346.131.8.764.2a9.434,9.434,0,0,0,.943-1s.1-.036.1-.322c0,0,.3,0,.179-.609l-.024-.12s.059-.191-.574-.644a1.218,1.218,0,0,0-.836-.323.262.262,0,0,1-.323-.144s-.167-.31-.382-.048c0,0-.239.167-.156-.1,0,0,.418-.2.1-.346a.972.972,0,0,0-.538,0l-.37-.275-.2.012v-.238l-.8-.765s-.238.024-.334-.083v.191s-2.747-3.069-3.2-3.451c0,0-1.051-1.051-1.791-1.636a8.493,8.493,0,0,1-1.7-1.6c-.43-.585-1.1-1.361-1.1-1.361l-.036-.155-.358-.49-.179-.084-.036-.239a6.207,6.207,0,0,0-.717-.883,2.765,2.765,0,0,0-.41-.772s.477.079.493-1.1c0,0,.382-.191.08-.589,0,0,.477.1.477-.271,0,0,.016-.367.446-.208,0,0,.813.208.191-1.082a1.308,1.308,0,0,0,.366-.812l.749.207s.127,0,.175-.207a6.039,6.039,0,0,1,.971-.223s.685-.159.828-.35-.175-.605-.175-.605.446-.047.048-.255-.716-.366-.716-.366l-.812-1.146h-.112A4.015,4.015,0,0,0,31.854.239S31.264,0,31.36.509c0,0-.016.175-.175-.1,0,0-.143-.143-.366.08,0,0-.128.111-.1-.144,0,0,.255-.35-.892-.35,0,0-2.276.191-2.77.287a5.023,5.023,0,0,1-1.369.079S25.1.35,24.9.637c0,0-.3.143.414.764,0,0,.064.128-.016.191s-.048.318-.048.318-.525-.335-.414.255a1.084,1.084,0,0,0,.127.414,1.762,1.762,0,0,1,.063.574c0,.414.367,2.4,1.4,2.42l-.462.621a10.108,10.108,0,0,0-5.469,1.9s-.812-1.624-1.385-1.075a1.966,1.966,0,0,0-.215.765s-1.242-.359-1.72.048a1,1,0,0,0-1.146.621L13.52,10.866a2.69,2.69,0,0,0-.764,1.361l-.717,1.744a3.834,3.834,0,0,0-.525,1.289.519.519,0,0,1-.478-.144,2.292,2.292,0,0,0-.931-.31l.31.466s-.238.084,0,.633c0,0,.1.119-.429.955s-1.338,3.057-1.027,3.486.788,1.1,1.074,1.1.43-.144.765.406a7.3,7.3,0,0,0,1.218,1.29,1.013,1.013,0,0,0,1-.143,7.954,7.954,0,0,0-.741,4.012.258.258,0,0,0,.072.382l.048.526a.523.523,0,0,1,.167.43l.406.86s-.262.191.191.454a2.209,2.209,0,0,1,.119.621.329.329,0,0,0,.048.525.412.412,0,0,1,0,.454.638.638,0,0,0,.191.645s.071.836.191,1.409-.215.55.1,1.1l.119,2.221a10.245,10.245,0,0,0-6.472-.1A11.13,11.13,0,0,0,1.6,41.53,14.459,14.459,0,0,0,.409,51.56S2.153,58.7,8.266,61.137L18.345,60.8a2.219,2.219,0,0,1,1.241.024s.5-.406-.669-1.17c0,0,1.147-1.122,1.409-1.457a1.334,1.334,0,0,1,.908-.644s.239.072.31-.645l1.218-1.433a.536.536,0,0,0,.836.1.32.32,0,0,0,.263-.1l.048.168s.1-.144.215-.144.072.286.167.286.1-.167.191-.167.1.215.238.215.072-.19.239-.19.071.215.215.215.072-.215.191-.239.072.167.239.167,0-.215.119-.286.144.239.263.167-.072-.215.1-.287.12.168.287.1-.072-.167.072-.263.191.144.31.048a.734.734,0,0,1,.024-.383c.072-.119.167.168.286.072s-.1-.119.024-.335.167.167.263.048-.144-.311-.025-.406.168.192.31,0c0,0-.215-.191-.1-.358a.21.21,0,0,1,.263-.1.328.328,0,0,1-.168-.335c.048-.215.263-.1.263-.1s-.215-.143-.167-.334.31-.191.31-.191-.238-.119-.238-.239.215-.215.215-.215a.319.319,0,0,1-.215-.286.186.186,0,0,1,.215-.191l-.215-.023,3.343-4.156s.024-.1.335-.1c0,0,0-.024.239-.1a.489.489,0,0,0,.358.048,1.641,1.641,0,0,1,.549-.358,20.05,20.05,0,0,0,1.91-1.409s.215-.025-.144-1.171l-.19-.024s.5-.74,0-1.122a2.108,2.108,0,0,0-.645-.168l4.323-5.732h.191l.238-.286v-.144l.979-.645.167.048a2.343,2.343,0,0,0-.119.573s-.406.1-.144.932a.757.757,0,0,0,.1.6l.167.048.836,2.579a10.793,10.793,0,0,0-4.681,7.833c-.764,5.612,1.863,10.842,4.871,13.111,0,0,2.364,1.839,4.132,1.887a64.28,64.28,0,0,0,6.471-.6s3.2-2.03,4.227-4.848A13.8,13.8,0,0,0,56.435,51.966ZM42.166,27.28l.022.017-.036.039C42.156,27.317,42.161,27.3,42.166,27.28ZM12.332,38.644l-1.007,5.774-.551-5.9A8.319,8.319,0,0,1,12.332,38.644Zm-.861,7.337.125.221-.106-.023Zm1.509,4.825c.062.233.439,1.641.739,2.532l-1.027-1.293-.146-.78c.037-.031.075-.064.112-.1A2.643,2.643,0,0,0,12.98,50.806Zm-.519.524.1.554-.323-.407a2.274,2.274,0,0,0,.215-.145Zm-.495.5-.024.064a1.919,1.919,0,0,0-.29-.166,2.3,2.3,0,0,0,.3-.1Zm-1.07,2.4-.017-.628a.825.825,0,0,0,.086.115C11.135,53.9,11.019,54.1,10.9,54.23ZM8.585,51.963l-.305.169a1.749,1.749,0,0,1-.2-.045l.529-.712-.127.252Zm.029.093.033.107c-.073,0-.141,0-.208-.01Zm-.631,0a1.661,1.661,0,0,1-.792-.611l1.687-.609-.022.044Zm.046.216-.149.083.078-.105Zm-.894-.909a2.625,2.625,0,0,1-.373-1.025,2.962,2.962,0,0,1,.091-.682L8.5,49.112a1.724,1.724,0,0,0,.339,1.161,2.784,2.784,0,0,0,.164.31l-.064.129Zm1.4-2.546c-.01.066-.018.131-.023.192l-1.623.535a1.341,1.341,0,0,1,.486-.707,1.226,1.226,0,0,1,.384-.179l.06-.007Zm-.437-.2L8.22,48.6a2.107,2.107,0,0,1,.214.014l.122.062c0,.015-.006.03-.009.044ZM9.571,46.7l-.251-.114-.137-.107-.435-.968.925,1.108C9.639,46.645,9.6,46.672,9.571,46.7Zm-.3-.031.179.141c-.028.027-.055.053-.082.081l-.1-.223Zm1.872-.656.036.13h-.058Zm-.02-.438-.109-.4.137.242Zm.937,6-.017.044,0-.034Zm-.78-5.427-.1-.359.043-.244.131.232.036.385Zm-.03-.751.046-.26.038.408Zm-.573-6.873.584,6.251-.086.491-.265-.468L9.244,38.691A8.366,8.366,0,0,1,10.678,38.526Zm-1.528.185,1.57,5.749-3-5.3A8.325,8.325,0,0,1,9.15,38.711Zm-1.52.483,3.192,5.642.262.96-.06.345a2.285,2.285,0,0,0-1.274.422L8.6,45.187,6.246,39.945A8.432,8.432,0,0,1,7.63,39.194ZM6.166,40l2.21,4.915L5.044,40.921A8.5,8.5,0,0,1,6.166,40Zm-2.222,2.22a9.012,9.012,0,0,1,1.032-1.231l3.545,4.25.5,1.113L3.878,42.316C3.9,42.283,3.922,42.251,3.944,42.219Zm-.119.176L8.954,46.42,3.123,43.778A7.422,7.422,0,0,1,3.825,42.395ZM3.09,43.868l6.047,2.74.161.359a2.96,2.96,0,0,0-.694,1.48,2.387,2.387,0,0,0-.365-.036l-5.6-2.856A9.68,9.68,0,0,1,3.09,43.868Zm-.469,1.785,5.419,2.763a1.721,1.721,0,0,0-.435.09L2.458,47.314A12.834,12.834,0,0,1,2.622,45.653Zm-.166,1.758,5,1.157c-.026.012-.051.026-.076.04l-4.872.59A16.066,16.066,0,0,1,2.455,47.411Zm.061,1.883L7.2,48.726a1.615,1.615,0,0,0-.538.891l-3.92,1.293A15.275,15.275,0,0,1,2.516,49.294Zm.266,1.789s-.006-.028-.017-.078L6.64,49.726a3.356,3.356,0,0,0-.069.613v.013a2.906,2.906,0,0,0,.387,1.074l-3.617,1.3A12.254,12.254,0,0,1,2.781,51.082Zm.6,1.737,3.633-1.311a1.867,1.867,0,0,0,.853.706l-.188.253L4.2,54.4A12.4,12.4,0,0,1,3.38,52.82Zm.871,1.665,3.289-1.83L5.2,55.8A12.653,12.653,0,0,1,4.251,54.484Zm1.011,1.4,2.479-3.339.423-.235a2.219,2.219,0,0,0,.466.047h.023c-.008.142.061.328.637-.106L6.359,57.034A12.077,12.077,0,0,1,5.262,55.88Zm1.691,1.659c-.15-.117-.327-.264-.522-.44L9.3,52.411c.025.278.125.766.516.331a.318.318,0,0,1,.541,0l-2.544,5.4A10.072,10.072,0,0,1,6.953,57.539Zm.945.652,2.53-5.369a5.109,5.109,0,0,1,.351.608l.025.891c-.045.039-.078.062-.078.062s-.716.88-.525,1.358c0,0-.575-.037.143.528L9.366,58.94A10.645,10.645,0,0,1,7.9,58.19Zm1.557.786.968-2.648.112.082a2.7,2.7,0,0,0,.335.2l.08,2.82A8.816,8.816,0,0,1,9.455,58.976Zm1.591.476-.08-2.792a1.114,1.114,0,0,0,1.066.026,2.37,2.37,0,0,0,.377.04l.007.073c-.12.141-.28.332-.5.588-.7.836,0,1.17,0,1.17a2.523,2.523,0,0,0,.713.659l.033.367A7.1,7.1,0,0,1,11.046,59.452Zm1.109-5.531.062.694C12.133,54.346,12.069,54.043,12.155,53.921Zm.087,2.553a1.031,1.031,0,0,0,.121-.255l.024.265C12.333,56.482,12.285,56.479,12.242,56.474Zm.52,3.1-.027-.292c.236.155.427.26.427.26C13.028,59.56,12.895,59.57,12.762,59.577Zm-.014-3.167-.068.078c-.072,0-.138,0-.2,0l-.054-.592a3.109,3.109,0,0,0-.031-.8s-.022-.048-.052-.125l-.1-1.107a.368.368,0,0,1,.2.049A1.82,1.82,0,0,0,12.078,52l-.014-.158.109-.3.43.541.625,3.326A4.857,4.857,0,0,0,12.748,56.41Zm.733-1.865.35.254v.191c-.187-.031-.368.109-.526.314l-.575-3.059,1.085,1.367.015.041-.191.247C13.385,53.988,13.481,54.546,13.481,54.546ZM13.5,41.339a15.432,15.432,0,0,0-1,5.218h-.114a2.349,2.349,0,0,0-.654-.319l-.277-.489-.091-.969,1.067-6.119a8,8,0,0,1,1.4.394S14.165,39.691,13.5,41.339ZM54.165,52.961l-6.219-.845,1.926-.8h4.167A12.241,12.241,0,0,1,54.165,52.961Zm-7.764.008.315.343-.087.2-.257-.1.007-.432Zm-.019-.162v-.035a.7.7,0,0,1,.056.075l-.014.006Zm.517.328.4.632-.056-.021-.413-.451Zm-.032-.231.033-.008-.016.036Zm.526-2.516.378-.486-.164.947A3.006,3.006,0,0,0,47.392,50.387Zm.134,2.372-.175-.05.073-.042c.021-.077.04-.138.058-.19ZM47.34,50.3c-.019-.031-.038-.059-.057-.086l.276-.2Zm.422-.542-.535.379-.018-.023L48,48.579,47.805,49.7Zm-.535,3.015.315.091.165,1.06-.261-.1-.5-.794.075-.171A2.1,2.1,0,0,0,47.227,52.772Zm.5,1.26.044.288-.031-.034-.208-.329Zm-.683-.365-.324-.124.068-.155Zm-.283-.451-.266-.29.033-.015a.614.614,0,0,0,.24.01l.072.115Zm-.168.379-.231.522.011-.606Zm.089.035.507.194.477.52.147.233.559,3.589-1.9-2.954-.115-.808v-.041Zm.965-.738.953.274,1.74,1.766-2.526-.97Zm-.016-.1-.073-.469c.057-.091.093-.067.093-.067l.028-.021.784.8Zm.179-1.2c-.017-.095-.037-.185-.058-.27h.964l-.752.551A.281.281,0,0,0,47.806,51.584Zm1.069-.27h.75l-1.739.724Zm5.15-.1H50.1l3.6-1.5A12.743,12.743,0,0,1,54.024,51.218Zm-.351-1.592-3.82,1.592h-.849l4.156-3.046A13.394,13.394,0,0,1,53.674,49.627Zm-.55-1.545-4.281,3.137H47.724c-.017-.063-.034-.124-.053-.181l.217-1.252L52.379,46.6A12.783,12.783,0,0,1,53.124,48.081Zm-.794-1.567-4.3,3.05,3.381-4.351A10.53,10.53,0,0,1,52.33,46.514Zm-.98-1.375-3.421,4.4.216-1.245,2.165-4.2A9.041,9.041,0,0,1,51.35,45.139Zm-1.115-1.11L48.2,47.981l.828-4.787A8.1,8.1,0,0,1,50.235,44.029Zm-1.3-.883-.886,5.118-.911,1.768a1.158,1.158,0,0,0-.355-.295s-.2-.641-.462-1.492l-.021-1.03,1.288-4.649A7.758,7.758,0,0,1,48.939,43.146ZM46.345,55.021l0,0v-.009ZM47.5,42.537l-1.2,4.344-.092-4.621A7.218,7.218,0,0,1,47.5,42.537ZM43.7,53.428l.6-.689a.232.232,0,0,0,.069-.009.458.458,0,0,1,.3.087l-.005.37Zm.967-.142,0,.372-1.939.885.867-.99Zm-.326-2.4-.15-.48.862.992-.056.2A3.415,3.415,0,0,1,44.336,50.884Zm.268-1.057.632.889-.158.569-.962-1.107c-.069-.224-.152-.491-.242-.785Zm-.772-.57c-.087-.283-.18-.589-.276-.9l.91,1.281ZM45.7,50.479a1.266,1.266,0,0,1,0,.723l-.36-.506.1-.371Zm-.231-.249.053-.192a.422.422,0,0,1,.15.313Zm-.131,1.354-.185-.213.154-.555.347.488A.615.615,0,0,1,45.338,51.584Zm.224,1.662-.1.044.015-.03A.774.774,0,0,0,45.562,53.246Zm-.508-.057,0,0-.291.416-.012.005,0-.352Zm-.295-.025,0-.27h0a1.15,1.15,0,0,1,.182.221Zm.354.117.085.132-.261.119Zm-.03-1.656.04-.143.115.133A.5.5,0,0,1,45.083,51.625Zm-.255,2.061.422-.192,0,.006-.513,1.034.01-.738Zm.371-.448a.806.806,0,0,0,.172.026l-.045.09-.041.019Zm.07-2.641-.461-.649.551.328Zm-.531,4.158.576-1.161.756,1.176-1.374,3.1Zm.626-1.261.033-.067.343-.157.377.145.135.947-.135.3Zm.428-.353a.951.951,0,0,0,.249-.265l.02.143Zm.283-.024.027.19-.24-.092Zm.181,1.472-.005.285-.072-.112Zm-.037-1.135.056.021-.006.331Zm-.015-.108-.038-.27.118-.054-.006.352Zm-.052-.369-.035-.242,0,0a.2.2,0,0,1,.034-.033l.133.145,0,.074Zm.012-5.254.052-.186.007.377C46.2,47.851,46.184,47.787,46.164,47.723Zm.105,4.96.02.009V52.7ZM45,43.241c.382.222,1.051-.573.637-.764s-.222-.255-.222-.255a4.47,4.47,0,0,1,.691.027l.1,4.954-.1.35c-.289-.939-.608-1.979-.821-2.688C44.813,43.274,45,43.241,45,43.241ZM43.9,38.807V38.8a1.372,1.372,0,0,1,.234.008.211.211,0,0,0,.077.117s-.12.1.072.287.167.693.167.693l-.477.048-.5-.43-.143-.429S43.9,39.142,43.9,38.807Zm-.422,4.912,1.687,5.127-.255.828a.314.314,0,0,0,.286.35A.443.443,0,0,1,45.434,50l-.05.179-.714-.425-1.2-1.689c-.284-.94-.576-1.925-.767-2.62C42.215,43.672,43.476,43.719,43.476,43.719ZM43.4,51.611l.023.062-.092-.067Zm-.212-.106-.339-.244.479.15.036.1Zm-.252-8.836c.191.159.255.605-.159.51s-.3-.111-.454-.31C42.321,42.867,42.743,42.509,42.934,42.668Zm-1-2.165s.1-.6.382-.74v.525Zm.072-2.436s-.023.709.31.988c0,0-1.17.159-1,1.664,0,0-.238.31-.31-.239a14.488,14.488,0,0,0-.621-1.982s.47.071.318-.716C40.706,37.781,41.557,38.378,42.011,38.067Zm-1.438-2.755a7.4,7.4,0,0,0,.608-.553c.047.176.095.345.142.507a4.394,4.394,0,0,1-.561.45c-.049-.05-.089-.085-.089-.085Zm1.119,1.1a.8.8,0,0,0-.207.146s-.119,0-.525-.286c0,0-.191-.12-.048-.215.06-.04.029-.12-.028-.2a4.34,4.34,0,0,0,.5-.39C41.5,35.834,41.6,36.155,41.692,36.416Zm.21-1.761c-.033.039-.194.233-.424.461-.048-.166-.1-.34-.143-.52a5.514,5.514,0,0,0,1.023-1.524A4.468,4.468,0,0,1,41.9,34.655Zm-.625-.288a15.985,15.985,0,0,1-.346-1.809,9.257,9.257,0,0,0,1.458-.5c0,.1.006.2.007.3A4.769,4.769,0,0,1,41.277,34.367Zm-.369-2a9.892,9.892,0,0,1-.064-1.255,5.49,5.49,0,0,1,.474-2.145,4.938,4.938,0,0,1,.866,1.292c.089.542.162,1.075.194,1.593A9.154,9.154,0,0,1,40.909,32.366Zm1.171-4.373a2.183,2.183,0,0,1,2.23,1.206,1.417,1.417,0,0,1-.1,1.213,3.573,3.573,0,0,1-1.532,1.3,3.462,3.462,0,0,0-.305-1.507q-.059-.363-.123-.73c-.026-.149-.051-.3-.077-.448A5.785,5.785,0,0,1,42.08,27.993Zm.005,1.669a5.736,5.736,0,0,0-.679-.883l.018-.034,0,0a.813.813,0,0,0,.137-.261c.1-.179.2-.34.3-.483h.021a5.97,5.97,0,0,0,.093,1.06q.038.225.077.448Zm-.6-3.309s.084.68.478.717a.664.664,0,0,0,.044.057,2.711,2.711,0,0,0-.1.5c-.046.058-.093.12-.142.187l-.044,0a1.822,1.822,0,0,0,.061-.539s.084-.12-.513-.1l-.226.119s-.132,0,.06-.251a1.866,1.866,0,0,0,.263-.692ZM24.339,21.589a.477.477,0,0,1,.446,0c.222.127.955-.1.541-.987s-.891-1.56-.35-2.2a9.538,9.538,0,0,1,1.05,1.88,23.135,23.135,0,0,0,2.388,3.406,8.462,8.462,0,0,1-1.879-.7s-.1-.159-.318,0a2.987,2.987,0,0,1-1.242-.509s-.287-.128-.287.031C24.689,22.512,24.052,21.971,24.339,21.589Zm-3.121,7.483s2.484.892,3.312,1.083,5.158,1.919,5.158,1.919.477.723,1.369-1.665l.8.215a15.744,15.744,0,0,0-3.025,5.007S26.281,37,25.007,36.682l-2.229-.223s-.446.128-.637-1.306l.287-.254-.064-.287-.446-.1-.892-3.343.127-.127-.127-.478-.191-.1a.385.385,0,0,0-.159-.509S20.879,28.951,21.218,29.071Zm6.623,8.48a7.567,7.567,0,0,0-.9.769c-.346.327-.775.735-1.611,1.409a3.035,3.035,0,0,1-1.783.753l-.625-2.367A22.309,22.309,0,0,0,27.842,37.551ZM22.22,40.129a3.066,3.066,0,0,1-.486-.356c.125-.107.261-.186.36-.141Zm-2.546-3.892c.128-.414.414-4.665.605-3.582l.573,2.149s-.86.239-.685.43.064.334.064.334-.079.175.732-.143l.59,2.213s.095.3-.383.812l-.382.605a1.066,1.066,0,0,0-.462-.111l-.271-.271-.493.159s-.08.016,0-.526a2.337,2.337,0,0,0-.035-.923A5.559,5.559,0,0,1,19.674,36.236Zm1,2.993a1.229,1.229,0,0,1-.781.685.975.975,0,0,1-.1-.335l.485-.525C20.613,39.054,20.677,39.229,20.677,39.229Zm-1.5.175c.3-.128.347,0,.347,0l-.443.51C18.432,39.468,19.18,39.4,19.18,39.4Zm-2.34,4.381.86-.918c.668-.549.334,0,.334,0L16.84,44.085Zm-.287,1.851,2.264-2.221s.056.093.148.266l-2.417,2.209C16.552,45.79,16.553,45.7,16.553,45.637Zm-.009.388,2.468-2.255a15.3,15.3,0,0,1,.662,1.453L16.5,47.059C16.518,46.684,16.535,46.313,16.544,46.025Zm-.051,1.147,3.216-1.86a15.632,15.632,0,0,1,.537,1.638l-3.768.5C16.484,47.357,16.489,47.265,16.494,47.172Zm-.02.373,3.8-.5a13.1,13.1,0,0,1,.325,1.681l-.106,0-4.021-1.1C16.471,47.6,16.473,47.57,16.474,47.545Zm-.017.32,3,.822-3.042-.1C16.425,48.444,16.44,48.181,16.457,47.865ZM16.291,49.7l1.341.526s-1.126-.191-1.58-.263S16.291,49.7,16.291,49.7Zm-.382,1.385.572.1.209.179-.8-.2Zm.5,4.251-.238-.6s-.141-.189,0-.261l.679.894A.576.576,0,0,0,16.41,55.334Zm.6.806.371-.071.158.209c-.046,0-.095,0-.146.011C17.39,56.288,16.978,56.386,17.007,56.14Zm.045-.5.164.217-.144.028A.61.61,0,0,0,17.052,55.64Zm.266,1.747L17.2,56.91l.335.477Zm.526-.119c-.43.166-.645-.812-.645-.812.171.218.406.263.74.415S17.843,57.268,17.843,57.268Zm-.212-.812a.114.114,0,0,1,.024-.021l.044.058A.67.67,0,0,0,17.632,56.456Zm.391.305-.265-.349a.41.41,0,0,1,.241.175C18.13,56.75,18.087,56.774,18.022,56.761Zm.322-.043a.728.728,0,0,0-.687-.438l-.176-.231c.585-.113,1.13-.224,1.584-.319A8.78,8.78,0,0,1,18.345,56.719Zm-1.024-.882L16.233,54.4c.126-.22.21-.846-.324-.908,0,0-.065-.431-.093-.962L19.09,55.48C18.594,55.585,17.98,55.71,17.321,55.837Zm1.914-.387-.029.006-3.4-3.057a5.253,5.253,0,0,1,.058-1.139l.982.242,3.028,2.6A9.341,9.341,0,0,1,19.235,55.45Zm.678-1.441-2.858-2.456,3.3.814A9.22,9.22,0,0,1,19.913,54.009Zm.463-1.736-3.481-.858-.228-.2,3.756.676S20.413,52.033,20.376,52.273ZM16.41,48.694s0,0,0-.015l3.446.116.772.212q.034.341.048.691Zm6.335,4.484c-.018.2-.078.08-.12.046C22.625,53.224,22.762,52.975,22.745,53.178Zm.337-3.218-.048-.263s.223-.2.239,0S23.256,49.992,23.081,49.96Zm.35,5.23H23.3c-.048-.125.072-.084.132-.084S23.431,55.19,23.431,55.19Zm.024-7.864H23.24l.071.079a.543.543,0,0,0-.25.428l-.139.12a14.394,14.394,0,0,0-2.5-6.4l.812-.791a.939.939,0,0,0,.167-.63,2.747,2.747,0,0,1,.194-.228,3.176,3.176,0,0,0,.69.476l1.744,6.856s-.167.286-.549-.167Zm.275,7.123h-.108s.035-.144.108-.138S23.73,54.45,23.73,54.45Zm.131-4.283.016.318-.367-.111.446-.414.072.207Zm.458,4.76-.092-.175h.119l.12.175Zm.29-.732h-.222l-.358-.295.167-.183V53.9c.032.1.124,0,.124,0,.091-.163.29,0,.29,0Zm.048-.78h-.19l.19-.191Zm.08-9.139-.111.286-1.03-3.9a3.228,3.228,0,0,0,1.853-.789c.842-.677,1.275-1.089,1.623-1.418a7.271,7.271,0,0,1,.947-.8L26.265,41.57s-.732-.255-.828.4a2.773,2.773,0,0,1-.3.987s-.158.111-.19.685A.735.735,0,0,0,24.737,44.277Zm.764,9.138c-.318-.016-.016-.621.111-.668,0,0,.08-.064.175.287h.207S25.819,53.431,25.5,53.415Zm.605,1.375a.213.213,0,0,1-.287.05s-.012-.294.215-.182C26.034,54.658,26.142,54.719,26.106,54.79Zm.119-.078c-.161-.1,0-.275,0-.275.167-.131.239.078.239.078A.416.416,0,0,1,26.225,54.713Zm.526-.543a.553.553,0,0,1-.167.225c-.119.029-.089-.07-.089-.07l.048-.129C26.59,54.066,26.781,54.056,26.751,54.169Zm.108-.119c-.066-.006-.137-.078-.048-.209s.15,0,.15,0Zm.411-.9h-.1v-.132h.1ZM26.918,49.1s-.525.668-.549-.12c0,0-.215.358-.358-.239,0,0-.072.168-.287-.024l-.835-3.272a14.609,14.609,0,0,0,3.255.406c.947-.119,1.139.143,1.139.143Zm3.343-7.762-.238-.366S30.429,40.312,30.261,41.339Zm8.168-7.356-6.575,8.884s-.295,0,0-.454.6-.836.6-.836.287-.411-.1-.433l-.641.241-.864,1.242-.191-.286s-.263-.311-.167-.406.173-.358-.021-.358-.069-.382,0-.549-.1-.86-.529-.239c0,0-.43.12-.334-.143a16.874,16.874,0,0,1,2.237-3.487,28.916,28.916,0,0,0,2.062-2.483l2.555-1.17s.024.238.334.119a.392.392,0,0,0,.2-.148l.029.091c.009,0,.549-.177,1.416-.411l.172.491Zm-.668-3.009.143.406-2.484,1.1a8.467,8.467,0,0,0,1.6-3.008h.454l.287,1.027S37.474,30.759,37.761,30.974Zm-.717,2.27,1.242-.55.1.283c-.683.184-1.163.331-1.338.386A.308.308,0,0,0,37.044,33.244Zm1.5-5.891s.032.35-.223,0a2.1,2.1,0,0,0-2.42-.637s.1-1.083-1.337-1.019a2.844,2.844,0,0,0-1.369-.064l-.223-.095s.51-.223.191-.574l-.892-.924-.732-.095a17.194,17.194,0,0,1-1.593-3.057A12.913,12.913,0,0,0,28.1,18.245a22.154,22.154,0,0,1-1.274-2.133.938.938,0,0,1,0-.892s.6.191.892-.986l.127-.574L28,13.437v-.35s.128-.191.414.478.477.573.764.477a2.676,2.676,0,0,0,1.432.222A29.189,29.189,0,0,1,33.8,17.577a10.308,10.308,0,0,0,2.1,1.72s.669.51,1.02.828a11.966,11.966,0,0,0,1.656,1.146,5.881,5.881,0,0,1,1.337,1.019v.318l.478.51h.223s-.032.414.573.732c0,0,.128.382,0,.573s.057.828.057.828h-.184s-.159-1.019-.6-.446.255,1.051.255,1.051l-.35.987s-.287.382-.669-.223C39.687,26.62,38.763,26.779,38.54,27.353Zm2.165.477v.159h-.159l-.159-.159Zm-1.417,8.3-.335.191.335-.382Zm.525-3.63-.143-.143-.429-1.648.024-.406-.191-.024a4.161,4.161,0,0,1-.263-.86c-.167-.692-.048-.549.191-.668a.437.437,0,0,1,.478-.024c.167.072.86-.454.86-.454l.238.1a2.614,2.614,0,0,0,0,.43,1.734,1.734,0,0,0,.578.064,5.673,5.673,0,0,0-.5,2.243,10.174,10.174,0,0,0,.068,1.3l-.163.037c-.249.053-.489.107-.72.161C39.822,32.542,39.814,32.5,39.814,32.5Zm.31,1.385s.1-.071-.071-.549c-.074-.211-.129-.4-.167-.542.229-.053.467-.107.713-.16l.147-.033a16.364,16.364,0,0,0,.378,1.932,7.515,7.515,0,0,1-.613.576Zm.486,10.118c.255.1.573.828.573.828s.475,1.5,1,3.119l-2.509-2.889A6.849,6.849,0,0,1,40.61,44.006Zm-.993,1.138,2.643,3.042c.018.055.036.111.054.166l-3.42-2.035A9.622,9.622,0,0,1,39.617,45.143ZM38.85,46.4l3.508,2.087c.349,1.074.7,2.138.93,2.808l-.686-.215L38.227,47.93A9.916,9.916,0,0,1,38.85,46.4ZM38.2,48.026l4.116,2.966-4.458-1.4A10.133,10.133,0,0,1,38.2,48.026Zm-.355,1.667,4.716,1.476.451.326-5.251-.264A10.738,10.738,0,0,1,37.843,49.693Zm-.082,1.634,5.392.271.327.236.027.068,0,.011-5.6,1.037A12.1,12.1,0,0,1,37.762,51.327Zm.174,1.756c0-.013,0-.025-.006-.037L43.55,52c.323.729.5.408.5.408.014.183.078.267.145.3l-.661.755-5.206,1.3A14.622,14.622,0,0,1,37.935,53.083Zm.419,1.774,5.068-1.262-.916,1.046-3.623,1.653A13.116,13.116,0,0,1,38.354,54.856Zm.567,1.524,3.431-1.565L39.7,57.847A12.179,12.179,0,0,1,38.921,56.381Zm.827,1.551,2.816-3.213,2.091-.954h0l-3.888,5.541A11.307,11.307,0,0,1,39.749,57.932Zm1.083,1.448,3.822-5.445-.011.8-2.8,5.648A10.351,10.351,0,0,1,40.832,59.38Zm3.715,2.492a9.229,9.229,0,0,1-1.287-.516l1.335-3.016ZM44.6,58.1l-1.424,3.216a3.077,3.077,0,0,1-.313-.176,8.506,8.506,0,0,1-.945-.693l2.724-5.491Zm.045,3.8.05-3.783,1.44-3.252.115.178-.127,7.172A8.622,8.622,0,0,1,44.642,61.9Zm1.573.326.125-7.038.037.057,1,7.014A7.205,7.205,0,0,1,46.216,62.228Zm1.253.028L46.5,55.44l1.9,2.961.556,3.574A6.244,6.244,0,0,1,47.469,62.256Zm1.585-.311L48.533,58.6,50.3,61.355A6.083,6.083,0,0,1,49.054,61.945Zm1.332-.642L48.5,58.365l-.558-3.583,3.551,5.635A6.765,6.765,0,0,1,50.385,61.3Zm2.165-2.172a8.6,8.6,0,0,1-.992,1.217l-3.534-5.607,4.284,4.677.07-.064-4.493-4.906-.059-.376L50.5,55.1l2.707,2.747A8.517,8.517,0,0,1,52.551,59.131Zm.694-1.382L50.714,55.18l3.011,1.157A12.173,12.173,0,0,1,53.245,57.749Zm.506-1.5-3.2-1.229-1.768-1.794,5.269,1.52A12.494,12.494,0,0,1,53.751,56.244Zm.314-1.6-5.418-1.562-.879-.892,0,0,6.393.868A12.387,12.387,0,0,1,54.065,54.644Z" transform="matrix(1, -0.017, 0.017, 1, 492.76, 874.457)" fill="#310223"/><g transform="translate(-35 -82)"><path d="M166.818,144.447a1.566,1.566,0,1,1-1.564-1.568A1.567,1.567,0,0,1,166.818,144.447Z" transform="translate(131.208 160.027)" fill="#fff"/><path d="M575.435,165.193a1.566,1.566,0,1,1-1.568-1.568A1.568,1.568,0,0,1,575.435,165.193Z" transform="translate(1008.791 204.583)" fill="#fff"/><path d="M230.876,193.61a2.351,2.351,0,1,1-2.351-2.351A2.354,2.354,0,0,1,230.876,193.61Z" transform="translate(265.411 263.932)" fill="#fff"/><path d="M535.43,267.215a2.351,2.351,0,1,1-2.351-2.348A2.352,2.352,0,0,1,535.43,267.215Z" transform="translate(919.499 422.019)" fill="#fff"/><path d="M447.8,171.785a2.351,2.351,0,1,1-2.351-2.351A2.351,2.351,0,0,1,447.8,171.785Z" transform="translate(731.292 217.059)" fill="#fff"/><path d="M480.245,279.25a2.351,2.351,0,1,1-2.351-2.351A2.35,2.35,0,0,1,480.245,279.25Z" transform="translate(800.979 447.86)" fill="#fff"/><circle cx="3.747" cy="3.747" r="3.747" transform="translate(355.927 464.244)" fill="#fff"/><circle cx="3.747" cy="3.747" r="3.747" transform="translate(1376.124 299.159)" fill="#fff"/><circle cx="3.747" cy="3.747" r="3.747" transform="translate(477.128 650.658)" fill="#fff"/><circle cx="3.747" cy="3.747" r="3.747" transform="translate(435.335 320.488)" fill="#fff"/><circle cx="3.747" cy="3.747" r="3.747" transform="translate(263.981 777.264)" fill="#fff"/><path d="M608.146,284.712a3.746,3.746,0,1,1-3.746-3.746A3.747,3.747,0,0,1,608.146,284.712Z" transform="translate(1069.682 456.595)" fill="#fff"/><path d="M150.586,235.91a5,5,0,1,1-5-5A5,5,0,0,1,150.586,235.91Z" transform="translate(81.616 349.101)" fill="#fff"/><circle cx="1.92" cy="1.92" r="1.92" transform="translate(1766.597 86.25)" fill="#fff"/><circle cx="2.88" cy="2.88" r="2.88" transform="translate(1523.706 272.819)" fill="#fff"/><circle cx="2.88" cy="2.88" r="2.88" transform="translate(349.25 556.672)" fill="#fff"/><circle cx="2.88" cy="2.88" r="2.88" transform="translate(1322.416 377.784)" fill="#fff"/><circle cx="2.88" cy="2.88" r="2.88" transform="translate(687.186 188.655)" fill="#fff"/><circle cx="2.88" cy="2.88" r="2.88" transform="translate(562.06 603.075)" fill="#fff"/><circle cx="2.88" cy="2.88" r="2.88" transform="translate(892.316 108.971)" fill="#fff"/><path d="M244.5,180.706a6.121,6.121,0,1,0,6.119-6.122A6.12,6.12,0,0,0,244.5,180.706Z" transform="translate(304.763 228.119)" fill="#fff"/><path d="M605.785,141.433a4.589,4.589,0,1,0,4.589-4.589A4.589,4.589,0,0,0,605.785,141.433Z" transform="translate(1080.7 147.065)" fill="#fff"/><circle cx="4.59" cy="4.59" r="4.59" transform="translate(436.615 81.66)" fill="#fff"/><circle cx="4.59" cy="4.59" r="4.59" transform="translate(1537.997 512.29)" fill="#fff"/><path d="M393.336,131.673a4.591,4.591,0,1,0,4.589-4.589A4.591,4.591,0,0,0,393.336,131.673Z" transform="translate(624.425 126.104)" fill="#fff"/><path d="M641.571,263.265a4.591,4.591,0,1,0,4.589-4.589A4.59,4.59,0,0,0,641.571,263.265Z" transform="translate(1157.557 408.723)" fill="#fff"/><path d="M94.2,247.814a4.589,4.589,0,1,0,4.589-4.592A4.59,4.59,0,0,0,94.2,247.814Z" transform="translate(-18.03 375.532)" fill="#fff"/><circle cx="6.12" cy="6.12" r="6.12" transform="translate(1847.241 425.746)" fill="#fff"/></g></g></svg>