<svg xmlns="http://www.w3.org/2000/svg" width="33.752" height="33.744" viewBox="0 0 33.752 33.744"><path d="M16.8,40.046A8.652,8.652,0,1,0,25.456,48.7,8.638,8.638,0,0,0,16.8,40.046Zm0,14.276A5.625,5.625,0,1,1,22.429,48.7,5.635,5.635,0,0,1,16.8,54.322Zm11.023-14.63a2.018,2.018,0,1,1-2.018-2.018A2.013,2.013,0,0,1,27.828,39.692Zm5.73,2.048a9.986,9.986,0,0,0-2.726-7.07,10.052,10.052,0,0,0-7.07-2.726c-2.786-.158-11.136-.158-13.922,0a10.038,10.038,0,0,0-7.07,2.718C.789,36.635.179,39.029.044,41.732c-.158,2.786-.158,11.136,0,13.922a9.986,9.986,0,0,0,2.726,7.07A10.065,10.065,0,0,0,9.84,65.45c2.786.158,11.136.158,13.922,0a9.986,9.986,0,0,0,7.07-2.726,10.052,10.052,0,0,0,2.726-7.07c.158-2.786.158-11.129,0-13.915Zm-3.6,16.9a5.7,5.7,0,0,1-3.208,3.208c-2.221.881-7.492.678-9.947.678s-7.733.2-9.947-.678A5.694,5.694,0,0,1,3.65,58.644c-.881-2.221-.678-7.492-.678-9.947s-.2-7.733.678-9.947a5.694,5.694,0,0,1,3.208-3.208c2.221-.881,7.492-.678,9.947-.678s7.733-.2,9.947.678a5.694,5.694,0,0,1,3.208,3.208c.881,2.221.678,7.492.678,9.947S30.84,56.43,29.959,58.644Z" transform="translate(0.075 -31.825)"/></svg>