<svg xmlns="http://www.w3.org/2000/svg" xmlns:xlink="http://www.w3.org/1999/xlink" width="45" height="2115" viewBox="0 0 45 2115"><defs><style>.a{fill:#eee;}.b{clip-path:url(#a);}.c{fill:#381853;}.d{fill:#f8b002;}.e{fill:#fc7701;}.f{fill:#f72680;}.g{fill:#147ed9;}.h{fill:#fffa22;}.i{clip-path:url(#b);}</style><clipPath id="a"><rect class="a" width="1125" height="45"/></clipPath><clipPath id="b"><rect class="a" width="1083" height="45" transform="translate(42)"/></clipPath></defs><g transform="translate(6574 3217)"><g class="b" transform="translate(-6529 -3217) rotate(90)"><g transform="matrix(0.966, -0.259, 0.259, 0.966, -127.397, 2.752)"><path class="c" d="M0,0,190.514,45.445,365.933,173.161,175.419,127.716Z" transform="translate(556.451 218.608) rotate(-180)"/><path class="d" d="M0,0,190.514,45.445,365.933,173.161,175.419,127.716Z" transform="translate(762.056 181.781)"/><path class="e" d="M0,0,190.514,45.445,365.933,173.161,175.419,127.716Z" transform="translate(571.541 136.335)"/><path class="f" d="M0,0,190.514,45.445,365.933,173.161,175.419,127.716Z" transform="translate(746.963 264.052) rotate(-180)"/><path class="g" d="M0,0,190.514,45.445,365.933,173.161,175.419,127.716Z" transform="translate(365.933 173.161) rotate(-180)"/><path class="h" d="M0,0,190.514,45.445,365.933,173.161,175.419,127.716Z" transform="translate(952.567 227.226)"/></g></g><g class="i" transform="translate(-6574 -1060) rotate(-90)"><g transform="matrix(0.966, -0.259, 0.259, 0.966, -159.901, 1.678)"><path class="c" d="M0,0,195.011,46.518,374.57,177.248,179.559,130.73Z" transform="translate(569.584 223.767) rotate(-180)"/><path class="d" d="M0,0,195.011,46.518,374.57,177.248,179.559,130.73Z" transform="translate(780.042 186.071)"/><path class="e" d="M0,0,195.011,46.518,374.57,177.248,179.559,130.73Z" transform="translate(585.03 139.553)"/><path class="f" d="M0,0,195.011,46.518,374.57,177.248,179.559,130.73Z" transform="translate(764.592 270.284) rotate(-180)"/><path class="g" d="M0,0,195.011,46.518,374.57,177.248,179.559,130.73Z" transform="translate(374.57 177.248) rotate(-180)"/><path class="h" d="M0,0,195.011,46.518,374.57,177.248,179.559,130.73Z" transform="translate(975.05 232.588)"/></g></g></g></svg>