<svg xmlns="http://www.w3.org/2000/svg" xmlns:xlink="http://www.w3.org/1999/xlink" width="1919" height="50" viewBox="0 0 1919 50"><defs><clipPath id="a"><rect width="1919" height="50" transform="translate(-14559 -16613.805)" fill="#eee"/></clipPath></defs><g transform="translate(14559 16613.805)" clip-path="url(#a)"><g transform="matrix(0.966, -0.259, 0.259, 0.966, -14776.261, -16610.73)"><path d="M0,0,324.181,80.6,635.315,254.14l-324.181-80.6Z" transform="translate(959.503 334.747) rotate(-180)" fill="#381853"/><path d="M0,0,324.181,80.6,635.315,254.14l-324.181-80.6Z" transform="translate(1296.722 322.419)" fill="#f8b002"/><path d="M0,0,324.181,80.6,635.315,254.14l-324.181-80.6Z" transform="translate(972.539 241.814)" fill="#fc7701"/><path d="M0,0,324.181,80.6,635.315,254.14l-324.181-80.6Z" transform="translate(1283.68 415.351) rotate(-180)" fill="#f72680"/><path d="M0,0,324.181,80.6,635.315,254.14l-324.181-80.6Z" transform="translate(635.315 254.14) rotate(-180)" fill="#147ed9"/><path d="M0,0,324.181,80.6,635.315,254.14l-324.181-80.6Z" transform="translate(1620.899 403.023)" fill="#fffa22"/></g></g></svg>