<svg xmlns="http://www.w3.org/2000/svg" xmlns:xlink="http://www.w3.org/1999/xlink" width="1919" height="109" viewBox="0 0 1919 109"><defs><style>.a{fill:#eee;}.b{clip-path:url(#a);}.c{fill:#381853;}.d{fill:#f8b002;}.e{fill:#fc7701;}.f{fill:#f72680;}.g{fill:#147ed9;}.h{fill:#fffa22;}</style><clipPath id="a"><rect class="a" width="1919" height="109" transform="translate(-14559 -16613.805)"/></clipPath></defs><g class="b" transform="translate(14559 16613.805)"><g transform="matrix(0.966, -0.259, 0.259, 0.966, -14776.261, -16607.102)"><path class="c" d="M0,0,326.027,73.714,610.562,346.52,284.535,272.806Z" transform="translate(936.596 420.235) rotate(-180)"/><path class="d" d="M0,0,326.027,73.714,610.562,346.52,284.535,272.806Z" transform="translate(1304.107 294.855)"/><path class="e" d="M0,0,326.027,73.714,610.562,346.52,284.535,272.806Z" transform="translate(978.079 221.141)"/><path class="f" d="M0,0,326.027,73.714,610.562,346.52,284.535,272.806Z" transform="translate(1262.62 493.948) rotate(-180)"/><path class="g" d="M0,0,326.027,73.714,610.562,346.52,284.535,272.806Z" transform="translate(610.562 346.52) rotate(-180)"/><path class="h" d="M0,0,326.027,73.714,610.562,346.52,284.535,272.806Z" transform="translate(1630.131 368.568)"/></g></g></svg>