<svg xmlns="http://www.w3.org/2000/svg" width="21.09" height="26.557" viewBox="0 0 21.09 26.557">
  <g id="Group_5342" data-name="Group 5342" transform="translate(-444 -31.443)">
    <path id="Path_1" data-name="Path 1" d="M225.583,126.535a4.268,4.268,0,1,0-1.792-2.43l-2.518,1.787-3.989,2.83a4.244,4.244,0,1,0,.676,7.045l3.313,2.35,2.518,1.787a4.19,4.19,0,0,0-.159,1.134,4.258,4.258,0,1,0,1.949-3.564l-3.605-2.558-2.494-1.769a4.277,4.277,0,0,0,.059-.679,4.227,4.227,0,0,0-.264-1.459l2.7-1.915Z" transform="translate(232.959 -87.283)" fill="#e6e7e8"/>
  </g>
</svg>
