<svg xmlns="http://www.w3.org/2000/svg" width="35.951" height="25.167" viewBox="0 0 35.951 25.167">
  <path id="Path_5791" data-name="Path 5791" d="M773.321,465.725a7.89,7.89,0,0,0-7.889-7.89H745.259a7.89,7.89,0,0,0-7.889,7.89v9.388A7.889,7.889,0,0,0,745.259,483h20.173a7.889,7.889,0,0,0,7.889-7.889Zm-11.863,5.4-9.047,4.476c-.354.192-1.559-.065-1.559-.469v-9.186c0-.409,1.215-.665,1.569-.463l8.66,4.711C761.444,470.4,761.825,470.923,761.458,471.122Z" transform="translate(-737.369 -457.835)"/>
</svg>
